<svg width="1209" height="1142" xmlns="http://www.w3.org/2000/svg" xmlns:xlink="http://www.w3.org/1999/xlink" xml:space="preserve" overflow="hidden"><g transform="translate(37 3)"><path d="M0.499836 568C0.499836 254.578 254.578 0.499836 568 0.499836 881.422 0.499836 1135.5 254.578 1135.5 568 1135.5 881.422 881.422 1135.5 568 1135.5 254.578 1135.5 0.499836 881.422 0.499836 568Z" stroke="#FFFFFF" stroke-width="6.875" stroke-miterlimit="8" fill="#022C45" fill-rule="evenodd"/><path d="M63.9999 481.834C63.9999 458.178 83.1775 439 106.834 439L1027.17 439C1050.82 439 1070 458.178 1070 481.834L1070 653.166C1070 676.823 1050.82 696 1027.17 696L106.834 696C83.1775 696 63.9999 676.823 63.9999 653.166Z" fill="#022C45" fill-rule="evenodd"/><text fill="#FFFFFF" font-family="Aptos Display,Aptos Display_MSFontService,sans-serif" font-weight="400" font-size="367" transform="matrix(1 0 0 1 183.467 685)">2011</text></g></svg>