<svg width="1209" height="1142" xmlns="http://www.w3.org/2000/svg" xmlns:xlink="http://www.w3.org/1999/xlink" xml:space="preserve" overflow="hidden"><g transform="translate(-1131 3)"><path d="M1168.5 568C1168.5 254.578 1422.58 0.499836 1736 0.499836 2049.42 0.499836 2303.5 254.578 2303.5 568 2303.5 881.422 2049.42 1135.5 1736 1135.5 1422.58 1135.5 1168.5 881.422 1168.5 568Z" stroke="#FFFFFF" stroke-width="6.875" stroke-miterlimit="8" fill="#022C45" fill-rule="evenodd"/><path d="M1232 481.834C1232 458.178 1251.18 439 1274.83 439L2195.17 439C2218.82 439 2238 458.178 2238 481.834L2238 653.166C2238 676.823 2218.82 696 2195.17 696L1274.83 696C1251.18 696 1232 676.823 1232 653.166Z" fill="#022C45" fill-rule="evenodd"/><text fill="#FFFFFF" font-family="Aptos Display,Aptos Display_MSFontService,sans-serif" font-weight="400" font-size="367" transform="matrix(1 0 0 1 1351.44 685)">2012</text></g></svg>