<svg width="1209" height="1142" xmlns="http://www.w3.org/2000/svg" xmlns:xlink="http://www.w3.org/1999/xlink" xml:space="preserve" overflow="hidden"><g transform="translate(-3467 3)"><path d="M3504.5 568C3504.5 254.578 3758.58 0.499836 4072 0.499836 4385.42 0.499836 4639.5 254.578 4639.5 568 4639.5 881.422 4385.42 1135.5 4072 1135.5 3758.58 1135.5 3504.5 881.422 3504.5 568Z" stroke="#FFFFFF" stroke-width="6.875" stroke-miterlimit="8" fill="#022C45" fill-rule="evenodd"/><path d="M3568 481.834C3568 458.178 3587.18 439 3610.83 439L4531.17 439C4554.82 439 4574 458.178 4574 481.834L4574 653.166C4574 676.823 4554.82 696 4531.17 696L3610.83 696C3587.18 696 3568 676.823 3568 653.166Z" fill="#022C45" fill-rule="evenodd"/><text fill="#FFFFFF" font-family="Aptos Display,Aptos Display_MSFontService,sans-serif" font-weight="400" font-size="367" transform="matrix(1 0 0 1 3687.4 685)">2014</text></g></svg>