<svg width="1209" height="1141" xmlns="http://www.w3.org/2000/svg" xmlns:xlink="http://www.w3.org/1999/xlink" xml:space="preserve" overflow="hidden"><g transform="translate(37 -1180)"><path d="M0.499836 1750.5C0.499836 1437.35 254.578 1183.5 568 1183.5 881.422 1183.5 1135.5 1437.35 1135.5 1750.5 1135.5 2063.65 881.422 2317.5 568 2317.5 254.578 2317.5 0.499836 2063.65 0.499836 1750.5Z" stroke="#FFFFFF" stroke-width="6.875" stroke-miterlimit="8" fill="#022C45" fill-rule="evenodd"/><path d="M63.9999 1664.83C63.9999 1641.18 83.1775 1622 106.834 1622L1027.17 1622C1050.82 1622 1070 1641.18 1070 1664.83L1070 1836.17C1070 1859.82 1050.82 1879 1027.17 1879L106.834 1879C83.1775 1879 63.9999 1859.82 63.9999 1836.17Z" fill="#022C45" fill-rule="evenodd"/><text fill="#FFFFFF" font-family="Aptos Display,Aptos Display_MSFontService,sans-serif" font-weight="400" font-size="367" transform="matrix(1 0 0 1 183.467 1868)">2015</text></g></svg>