<svg width="1209" height="1141" xmlns="http://www.w3.org/2000/svg" xmlns:xlink="http://www.w3.org/1999/xlink" xml:space="preserve" overflow="hidden"><g transform="translate(-1131 -1180)"><path d="M1168.5 1750.5C1168.5 1437.35 1422.58 1183.5 1736 1183.5 2049.42 1183.5 2303.5 1437.35 2303.5 1750.5 2303.5 2063.65 2049.42 2317.5 1736 2317.5 1422.58 2317.5 1168.5 2063.65 1168.5 1750.5Z" stroke="#FFFFFF" stroke-width="6.875" stroke-miterlimit="8" fill="#022C45" fill-rule="evenodd"/><path d="M1232 1664.83C1232 1641.18 1251.18 1622 1274.83 1622L2195.17 1622C2218.82 1622 2238 1641.18 2238 1664.83L2238 1836.17C2238 1859.82 2218.82 1879 2195.17 1879L1274.83 1879C1251.18 1879 1232 1859.82 1232 1836.17Z" fill="#022C45" fill-rule="evenodd"/><text fill="#FFFFFF" font-family="Aptos Display,Aptos Display_MSFontService,sans-serif" font-weight="400" font-size="367" transform="matrix(1 0 0 1 1351.44 1868)">2016</text></g></svg>