<svg width="1209" height="1141" xmlns="http://www.w3.org/2000/svg" xmlns:xlink="http://www.w3.org/1999/xlink" xml:space="preserve" overflow="hidden"><g transform="translate(-2299 -1180)"><path d="M2336.5 1750.5C2336.5 1437.35 2590.58 1183.5 2904 1183.5 3217.42 1183.5 3471.5 1437.35 3471.5 1750.5 3471.5 2063.65 3217.42 2317.5 2904 2317.5 2590.58 2317.5 2336.5 2063.65 2336.5 1750.5Z" stroke="#FFFFFF" stroke-width="6.875" stroke-miterlimit="8" fill="#022C45" fill-rule="evenodd"/><path d="M2400 1664.83C2400 1641.18 2419.18 1622 2442.83 1622L3363.17 1622C3386.82 1622 3406 1641.18 3406 1664.83L3406 1836.17C3406 1859.82 3386.82 1879 3363.17 1879L2442.83 1879C2419.18 1879 2400 1859.82 2400 1836.17Z" fill="#022C45" fill-rule="evenodd"/><text fill="#FFFFFF" font-family="Aptos Display,Aptos Display_MSFontService,sans-serif" font-weight="400" font-size="367" transform="matrix(1 0 0 1 2519.42 1868)">2017</text></g></svg>