<svg width="1209" height="1141" xmlns="http://www.w3.org/2000/svg" xmlns:xlink="http://www.w3.org/1999/xlink" xml:space="preserve" overflow="hidden"><g transform="translate(-3467 -1180)"><path d="M3504.5 1750.5C3504.5 1437.35 3758.58 1183.5 4072 1183.5 4385.42 1183.5 4639.5 1437.35 4639.5 1750.5 4639.5 2063.65 4385.42 2317.5 4072 2317.5 3758.58 2317.5 3504.5 2063.65 3504.5 1750.5Z" stroke="#FFFFFF" stroke-width="6.875" stroke-miterlimit="8" fill="#022C45" fill-rule="evenodd"/><path d="M3568 1664.83C3568 1641.18 3587.18 1622 3610.83 1622L4531.17 1622C4554.82 1622 4574 1641.18 4574 1664.83L4574 1836.17C4574 1859.82 4554.82 1879 4531.17 1879L3610.83 1879C3587.18 1879 3568 1859.82 3568 1836.17Z" fill="#022C45" fill-rule="evenodd"/><text fill="#FFFFFF" font-family="Aptos Display,Aptos Display_MSFontService,sans-serif" font-weight="400" font-size="367" transform="matrix(1 0 0 1 3687.4 1868)">2018</text></g></svg>