<svg width="1208" height="1142" xmlns="http://www.w3.org/2000/svg" xmlns:xlink="http://www.w3.org/1999/xlink" xml:space="preserve" overflow="hidden"><g transform="translate(-4602 -612)"><path d="M4639.5 1183C4639.5 869.578 4893.35 615.5 5206.5 615.5 5519.65 615.5 5773.5 869.578 5773.5 1183 5773.5 1496.42 5519.65 1750.5 5206.5 1750.5 4893.35 1750.5 4639.5 1496.42 4639.5 1183Z" stroke="#FFFFFF" stroke-width="6.875" stroke-miterlimit="8" fill="#022C45" fill-rule="evenodd"/><path d="M4703 1096.83C4703 1073.18 4722.18 1054 4745.83 1054L5666.17 1054C5689.82 1054 5709 1073.18 5709 1096.83L5709 1268.17C5709 1291.82 5689.82 1311 5666.17 1311L4745.83 1311C4722.18 1311 4703 1291.82 4703 1268.17Z" fill="#022C45" fill-rule="evenodd"/><text fill="#FFFFFF" font-family="Aptos Display,Aptos Display_MSFontService,sans-serif" font-weight="400" font-size="367" transform="matrix(1 0 0 1 4822.04 1301)">2019</text></g></svg>