<svg width="1209" height="1142" xmlns="http://www.w3.org/2000/svg" xmlns:xlink="http://www.w3.org/1999/xlink" xml:space="preserve" overflow="hidden"><g transform="translate(194 -2453)"><path d="M-156.5 3024C-156.5 2710.58 97.3546 2456.5 410.5 2456.5 723.646 2456.5 977.5 2710.58 977.5 3024 977.5 3337.42 723.646 3591.5 410.5 3591.5 97.3546 3591.5-156.5 3337.42-156.5 3024Z" stroke="#FFFFFF" stroke-width="6.875" stroke-miterlimit="8" fill="#022C45" fill-rule="evenodd"/><path d="M-93.0002 2937.83C-93.0002 2914.18-73.8226 2895-50.166 2895L870.166 2895C893.822 2895 913 2914.18 913 2937.83L913 3109.17C913 3132.82 893.822 3152 870.166 3152L-50.166 3152C-73.8226 3152-93.0002 3132.82-93.0002 3109.17Z" fill="#022C45" fill-rule="evenodd"/><text fill="#FFFFFF" font-family="Aptos Display,Aptos Display_MSFontService,sans-serif" font-weight="400" font-size="367" transform="matrix(1 0 0 1 26.3239 3142)">20</text><text fill="#FFFFFF" font-family="Aptos Display,Aptos Display_MSFontService,sans-serif" font-weight="400" font-size="367" transform="matrix(1 0 0 1 410.178 3142)">20</text></g></svg>