<svg width="1209" height="1142" xmlns="http://www.w3.org/2000/svg" xmlns:xlink="http://www.w3.org/1999/xlink" xml:space="preserve" overflow="hidden"><g transform="translate(-1021 -2453)"><path d="M1058.5 3024C1058.5 2710.58 1312.58 2456.5 1626 2456.5 1939.42 2456.5 2193.5 2710.58 2193.5 3024 2193.5 3337.42 1939.42 3591.5 1626 3591.5 1312.58 3591.5 1058.5 3337.42 1058.5 3024Z" stroke="#FFFFFF" stroke-width="6.875" stroke-miterlimit="8" fill="#022C45" fill-rule="evenodd"/><path d="M1122 2937.83C1122 2914.18 1141.18 2895 1164.83 2895L2086.17 2895C2109.82 2895 2129 2914.18 2129 2937.83L2129 3109.17C2129 3132.82 2109.82 3152 2086.17 3152L1164.83 3152C1141.18 3152 1122 3132.82 1122 3109.17Z" fill="#022C45" fill-rule="evenodd"/><text fill="#FFFFFF" font-family="Aptos Display,Aptos Display_MSFontService,sans-serif" font-weight="400" font-size="367" transform="matrix(1 0 0 1 1241.56 3142)">20</text><text fill="#FFFFFF" font-family="Aptos Display,Aptos Display_MSFontService,sans-serif" font-weight="400" font-size="367" transform="matrix(1 0 0 1 1625.42 3142)">21</text></g></svg>