<svg width="1209" height="1142" xmlns="http://www.w3.org/2000/svg" xmlns:xlink="http://www.w3.org/1999/xlink" xml:space="preserve" overflow="hidden"><g transform="translate(-2257 -2453)"><path d="M2294.5 3024C2294.5 2710.58 2548.58 2456.5 2862 2456.5 3175.42 2456.5 3429.5 2710.58 3429.5 3024 3429.5 3337.42 3175.42 3591.5 2862 3591.5 2548.58 3591.5 2294.5 3337.42 2294.5 3024Z" stroke="#FFFFFF" stroke-width="6.875" stroke-miterlimit="8" fill="#022C45" fill-rule="evenodd"/><path d="M2358 2937.83C2358 2914.18 2377.18 2895 2400.83 2895L3322.17 2895C3345.82 2895 3365 2914.18 3365 2937.83L3365 3109.17C3365 3132.82 3345.82 3152 3322.17 3152L2400.83 3152C2377.18 3152 2358 3132.82 2358 3109.17Z" fill="#022C45" fill-rule="evenodd"/><text fill="#FFFFFF" font-family="Aptos Display,Aptos Display_MSFontService,sans-serif" font-weight="400" font-size="367" transform="matrix(1 0 0 1 2477.75 3142)">20</text><text fill="#FFFFFF" font-family="Aptos Display,Aptos Display_MSFontService,sans-serif" font-weight="400" font-size="367" transform="matrix(1 0 0 1 2861.61 3142)">22</text></g></svg>