<svg width="1208" height="1142" xmlns="http://www.w3.org/2000/svg" xmlns:xlink="http://www.w3.org/1999/xlink" xml:space="preserve" overflow="hidden"><g transform="translate(-3639 -2453)"><path d="M3676.5 3024C3676.5 2710.58 3930.35 2456.5 4243.5 2456.5 4556.65 2456.5 4810.5 2710.58 4810.5 3024 4810.5 3337.42 4556.65 3591.5 4243.5 3591.5 3930.35 3591.5 3676.5 3337.42 3676.5 3024Z" stroke="#FFFFFF" stroke-width="6.875" stroke-miterlimit="8" fill="#022C45" fill-rule="evenodd"/><path d="M3740 2937.83C3740 2914.18 3759.18 2895 3782.83 2895L4703.17 2895C4726.82 2895 4746 2914.18 4746 2937.83L4746 3109.17C4746 3132.82 4726.82 3152 4703.17 3152L3782.83 3152C3759.18 3152 3740 3132.82 3740 3109.17Z" fill="#022C45" fill-rule="evenodd"/><text fill="#FFFFFF" font-family="Aptos Display,Aptos Display_MSFontService,sans-serif" font-weight="400" font-size="367" transform="matrix(1 0 0 1 3859 3142)">20</text><text fill="#FFFFFF" font-family="Aptos Display,Aptos Display_MSFontService,sans-serif" font-weight="400" font-size="367" transform="matrix(1 0 0 1 4242.86 3142)">23</text></g></svg>