<svg width="370" height="371" xmlns="http://www.w3.org/2000/svg" xmlns:xlink="http://www.w3.org/1999/xlink" xml:space="preserve" overflow="hidden"><g transform="translate(-3578 -96)"><path d="M3581.5 281.5C3581.5 180.984 3662.76 99.4998 3763 99.4998 3863.24 99.4998 3944.5 180.984 3944.5 281.5 3944.5 382.016 3863.24 463.5 3763 463.5 3662.76 463.5 3581.5 382.016 3581.5 281.5Z" stroke="#1E583E" stroke-width="6.875" stroke-miterlimit="8" fill="none" fill-rule="evenodd"/><g><g><g><path d="M3745.11 319.958C3745.36 323.478 3747.52 326.577 3750.73 328.034 3754.5 330.031 3758.72 331.036 3762.98 330.954L3762.99 330.954C3773.02 330.954 3780.88 326.123 3780.88 319.954 3780.88 313.784 3773.02 308.954 3762.99 308.954 3752.96 308.958 3745.11 313.789 3745.11 319.958ZM3777.21 319.954C3777.21 323.492 3771.5 327.287 3762.99 327.287L3762.98 327.287C3759.36 327.37 3755.77 326.531 3752.55 324.849 3750.52 323.995 3749.09 322.139 3748.77 319.958 3748.77 316.42 3754.49 312.625 3762.99 312.625 3770.56 312.625 3777.21 316.049 3777.21 319.954ZM3811.98 276.394C3810.57 275.675 3808.85 275.953 3807.73 277.081L3797.1 287.737 3799.55 288.819C3814.47 295.405 3823.04 305.292 3823.04 315.948 3823.04 334.84 3796.11 350.208 3763 350.208 3729.89 350.208 3702.96 334.84 3702.96 315.948 3702.96 305.296 3711.52 295.405 3726.45 288.814L3728.9 287.737 3718.27 277.086C3717.15 275.958 3715.43 275.68 3714.01 276.398 3693 287.004 3680.96 303.298 3680.96 321.104 3680.96 351.812 3717.76 376.792 3763 376.792 3808.24 376.792 3845.04 351.812 3845.04 321.104 3845.04 303.298 3832.99 287.004 3811.98 276.394ZM3763 373.125C3719.78 373.125 3684.62 349.786 3684.62 321.104 3684.62 304.732 3695.95 289.63 3715.67 279.671L3722.56 286.578C3707.73 293.787 3699.29 304.389 3699.29 315.948 3699.29 336.862 3727.87 353.875 3763 353.875 3798.13 353.875 3826.71 336.862 3826.71 315.948 3826.71 304.389 3818.27 293.787 3803.43 286.578L3810.32 279.666C3830.06 289.626 3841.38 304.732 3841.38 321.104 3841.38 349.786 3806.22 373.125 3763 373.125ZM3763 203.542C3753.13 203.542 3745.12 211.544 3745.12 221.417 3745.12 231.289 3753.13 239.292 3763 239.292 3772.87 239.292 3780.88 231.289 3780.88 221.417 3780.86 211.55 3772.87 203.554 3763 203.542ZM3763 235.625C3755.15 235.625 3748.79 229.264 3748.79 221.417 3748.79 213.569 3755.15 207.208 3763 207.208 3770.85 207.208 3777.21 213.569 3777.21 221.417 3777.2 229.26 3770.84 235.617 3763 235.625ZM3799.21 262.57 3799.21 208.689C3799.21 190.919 3786.01 180.73 3763 180.726 3739.99 180.726 3726.79 190.919 3726.79 208.689L3726.79 262.575C3726.79 264.059 3727.38 265.484 3728.43 266.53L3760.08 298.178C3761.69 299.788 3764.31 299.788 3765.92 298.178L3797.56 266.535C3798.62 265.489 3799.22 264.063 3799.21 262.575ZM3795.54 262.57C3795.54 263.083 3795.34 263.575 3794.97 263.936L3763.32 295.584C3763.14 295.761 3762.86 295.761 3762.68 295.584L3731.02 263.931C3730.66 263.57 3730.46 263.081 3730.46 262.57L3730.46 208.689C3730.46 187.55 3750.85 184.392 3763 184.388 3775.15 184.388 3795.54 187.55 3795.54 208.689Z" stroke="#1E583E" stroke-width="4.58333" fill="#E97132"/></g></g></g></g></svg>
