<svg width="201" height="201" xmlns="http://www.w3.org/2000/svg" xmlns:xlink="http://www.w3.org/1999/xlink" xml:space="preserve" overflow="hidden"><g transform="translate(-45 -23)"><path d="M246 123.5C246 159.405 226.845 192.583 195.75 210.533 164.655 228.486 126.344 228.486 95.25 210.533 64.1553 192.58 45 159.403 45 123.5 45 87.5975 64.1553 54.4174 95.25 36.467 126.345 18.5144 164.656 18.5144 195.75 36.467 226.845 54.4196 246 87.5975 246 123.5" fill="#174460"/><path d="M183.528 154.901C187.909 153.788 191.731 151.123 194.456 147.474 197.165 143.844 198.782 139.251 198.782 134.247 198.782 128.368 196.548 123.048 192.943 119.205 189.353 115.383 184.399 113.02 178.93 113.02 177.032 113.02 175.207 113.301 173.491 113.821 171.711 114.365 170.025 115.166 168.472 116.194 167.859 116.599 167.034 116.431 166.628 115.818 166.505 115.63 166.43 115.418 166.411 115.21 165.723 108.945 162.87 103.382 158.672 99.4074 154.538 95.4912 149.094 93.1127 143.131 93.1127 137.371 93.1127 132.095 95.3328 128.016 99.0115 123.853 102.77 120.93 108.04 120.006 114.033 119.892 114.76 119.215 115.254 118.488 115.145 118.334 115.121 118.186 115.071 118.058 115.002 116.782 114.364 115.422 113.87 113.988 113.529 112.599 113.197 111.15 113.024 109.667 113.024 104.198 113.024 99.2433 115.388 95.6543 119.21 92.0448 123.052 89.8147 128.368 89.8147 134.252 89.8147 140.131 92.0495 145.452 95.6543 149.294 99.244 153.116 104.198 155.48 109.667 155.48 127.334 155.48 144.28 155.302 161.215 155.129 168.656 155.05 176.098 154.975 183.535 154.911ZM169.391 97.2527C168.981 97.3616 168.526 97.3171 168.135 97.0896 167.739 96.8621 167.472 96.4914 167.364 96.0809 167.255 95.6705 167.299 95.2157 167.527 94.8201L167.532 94.8201C167.927 94.1376 170.568 91.2747 173.015 88.6394 171.957 92.0757 170.805 95.7894 170.404 96.4767 170.177 96.8723 169.806 97.1392 169.396 97.2481ZM172.704 97.8166C172.106 98.8499 171.146 99.5421 170.079 99.829 169.011 100.116 167.834 99.9921 166.795 99.3938 165.762 98.7956 165.07 97.8362 164.783 96.7684 164.496 95.7004 164.62 94.5285 165.218 93.4901L165.223 93.4851 165.218 93.4851C165.797 92.4814 168.966 89.0745 171.651 86.1871 173.119 84.6099 174.439 83.1857 175.057 82.4637 175.537 81.905 176.378 81.8406 176.936 82.3204 177.377 82.7012 177.51 83.3045 177.312 83.8138 176.991 84.7385 176.427 86.5629 175.809 88.5853 174.652 92.363 173.282 96.8085 172.704 97.8068ZM126.719 169.384C127.456 169.384 128.054 169.982 128.054 170.719 128.054 171.455 127.456 172.054 126.719 172.054L122.58 172.054C121.844 172.054 121.245 171.455 121.245 170.719 121.245 169.982 121.844 169.384 122.58 169.384ZM145.998 169.384C146.735 169.384 147.333 169.982 147.333 170.719 147.333 171.455 146.735 172.054 145.998 172.054L138.171 172.054C137.434 172.054 136.836 171.455 136.836 170.719 136.836 169.982 137.434 169.384 138.171 169.384ZM179.216 163.544C178.504 163.732 177.772 163.312 177.584 162.6 177.396 161.888 177.816 161.156 178.528 160.968 180.051 160.562 181.599 160.81 182.865 161.541 182.895 161.556 182.919 161.576 182.944 161.591 184.175 162.328 185.13 163.524 185.525 165.008 185.931 166.526 185.683 168.073 184.952 169.339 184.22 170.61 183.003 171.599 181.481 172.004 181.367 172.034 181.248 172.049 181.134 172.049L154.384 172.049C153.647 172.049 153.049 171.451 153.049 170.714 153.049 169.977 153.647 169.379 154.384 169.379L180.946 169.379C181.687 169.137 182.276 168.637 182.642 168.009 183.032 167.337 183.161 166.506 182.943 165.69 182.731 164.899 182.231 164.261 181.583 163.871L181.519 163.836C180.847 163.445 180.021 163.317 179.205 163.534ZM142.819 177.794C143.555 177.794 144.154 178.393 144.154 179.129 144.154 179.866 143.555 180.464 142.819 180.464L138.047 180.464C137.31 180.464 136.712 179.866 136.712 179.129 136.712 178.393 137.31 177.794 138.047 177.794ZM163.007 177.794C163.744 177.794 164.342 178.393 164.342 179.129 164.342 179.866 163.744 180.464 163.007 180.464L154.503 180.464C153.766 180.464 153.168 179.866 153.168 179.129 153.168 178.393 153.766 177.794 154.503 177.794ZM194.682 171.955C195.498 171.737 196.324 171.866 196.996 172.256L196.996 172.261C197.669 172.652 198.198 173.3 198.415 174.116 198.633 174.932 198.504 175.757 198.114 176.435 197.753 177.063 197.159 177.562 196.418 177.804L170.602 177.804C169.865 177.804 169.267 178.403 169.267 179.139 169.267 179.876 169.865 180.474 170.602 180.474L196.6 180.474C196.714 180.474 196.828 180.46 196.947 180.43 198.47 180.024 199.681 179.031 200.413 177.765 201.145 176.499 201.392 174.951 200.986 173.433 200.576 171.91 199.592 170.694 198.326 169.962L198.326 169.967 198.321 169.962C197.055 169.231 195.508 168.983 193.99 169.389 193.278 169.577 192.857 170.308 193.045 171.021 193.233 171.733 193.965 172.153 194.677 171.965ZM186.133 111.599C183.868 110.788 181.441 110.348 178.919 110.348 176.778 110.348 174.696 110.669 172.708 111.273 171.329 111.688 170.009 112.242 168.763 112.914 167.665 106.822 164.688 101.438 160.5 97.4725 157.375 94.5107 153.578 92.34 149.38 91.2421 150.349 86.3468 152.935 82.0301 156.565 78.8806 160.431 75.5231 165.485 73.4909 171.018 73.4909 177.11 73.4909 182.618 75.9583 186.608 79.9486 190.598 83.9389 193.065 89.452 193.065 95.5384 193.065 98.787 192.363 101.868 191.107 104.641 189.911 107.282 188.209 109.64 186.133 111.599ZM146.768 90.7079C145.577 90.5299 144.36 90.4409 143.119 90.4409 142.931 90.4409 142.749 90.4459 142.561 90.4459 143.673 83.8844 147.016 78.0744 151.777 73.8271 156.86 69.2928 163.565 66.5386 170.912 66.5386 178.853 66.5386 186.042 69.7576 191.249 74.9594 196.451 80.1611 199.67 87.3505 199.67 95.2962 199.67 99.2073 198.893 102.93 197.484 106.323 196.174 109.477 194.315 112.35 192.035 114.817 191.002 114.031 189.909 113.334 188.757 112.74 190.73 110.708 192.352 108.34 193.533 105.734 194.942 102.624 195.729 99.1674 195.729 95.5382 195.729 88.7098 192.96 82.5346 188.49 78.0585 184.015 73.5835 177.834 70.8197 171.01 70.8197 164.819 70.8197 159.158 73.0992 154.816 76.867 150.752 80.3926 147.854 85.2235 146.766 90.7075Z" fill="#FFFFFF" fill-rule="evenodd"/></g></svg>