<svg width="209" height="209" xmlns="http://www.w3.org/2000/svg" xmlns:xlink="http://www.w3.org/1999/xlink" xml:space="preserve" overflow="hidden"><defs><clipPath id="clip0"><rect x="88" y="10" width="209" height="209"/></clipPath></defs><g clip-path="url(#clip0)" transform="translate(-88 -10)"><path d="M297 114.5C297 151.834 277.082 186.333 244.75 205 212.418 223.668 172.582 223.668 140.25 205 107.918 186.333 88 151.834 88 114.5 88 77.1656 107.918 42.6667 140.25 23.9995 172.582 5.33233 212.418 5.33233 244.75 23.9995 277.082 42.6667 297 77.1656 297 114.5Z" fill="#FFFFFF"/><path d="M179.97 149.966C179.42 152.526 181.05 155.046 183.61 155.59 186.17 156.14 188.69 154.51 189.235 151.95L205.029 78.2429C205.58 75.6875 203.95 73.1682 201.39 72.6185 198.83 72.0735 196.315 73.7036 195.765 76.2582ZM169.528 89.6969C167.677 87.8464 164.674 87.8464 162.823 89.6969L141.765 110.755C139.914 112.606 139.914 115.604 141.765 117.455L162.823 138.513C164.674 140.364 167.677 140.364 169.528 138.513 171.379 136.663 171.378 133.665 169.528 131.814L151.815 114.101 169.528 96.3936C171.378 94.5431 171.378 91.5455 169.528 89.6943ZM215.471 89.6969C217.322 87.8464 220.325 87.8464 222.176 89.6969L243.235 110.755C245.085 112.606 245.085 115.604 243.235 117.455L222.176 138.513C220.326 140.364 217.323 140.364 215.471 138.513 213.62 136.663 213.621 133.665 215.471 131.814L233.184 114.101 215.471 96.3936C213.621 94.5431 213.621 91.5455 215.471 89.6943Z" fill="#174460" fill-rule="evenodd"/></g></svg>