<svg width="754" height="754" xmlns="http://www.w3.org/2000/svg" xmlns:xlink="http://www.w3.org/1999/xlink" xml:space="preserve" overflow="hidden"><g transform="translate(-1037 -1023)"><path d="M1037 1400C1037 1191.79 1205.79 1023 1414 1023 1622.21 1023 1791 1191.79 1791 1400 1791 1608.21 1622.21 1777 1414 1777 1205.79 1777 1037 1608.21 1037 1400Z" fill="#022C45" fill-rule="evenodd"/><g><g><g><path d="M1610.15 1228 1575.62 1194.3 1575.62 1223.27C1575.62 1225.76 1577.61 1227.76 1580.1 1227.8ZM1415.62 1319.72C1413.65 1319.9 1411.71 1319.24 1410.26 1317.9 1408.82 1316.58 1408 1314.69 1408 1312.73 1408 1310.77 1408.82 1308.88 1410.26 1307.54 1411.71 1306.22 1413.65 1305.56 1415.62 1305.72L1567.67 1305.72C1571.3 1306.04 1574.11 1309.08 1574.11 1312.73 1574.11 1316.38 1571.3 1319.42 1567.67 1319.72ZM1517.55 1416.67 1517.55 1416.69C1517.39 1414.17 1516.09 1411.86 1514.01 1410.42 1510.88 1408.16 1507.09 1406.97 1503.24 1407.03L1381.54 1407.03 1341.95 1443.26C1340.6 1444.63 1338.74 1445.39 1336.82 1445.37L1200.97 1445.37C1194.4 1445.37 1186.67 1449.06 1186.67 1454.97L1186.67 1604.4C1186.67 1610.29 1194.42 1614.04 1200.97 1614.04L1503.24 1614.04C1509.82 1614.04 1517.55 1610.29 1517.55 1604.4ZM1275.66 1326 1315.32 1361.91C1316.68 1363.27 1318.53 1364.01 1320.45 1363.99L1349.07 1363.99 1349.09 1417.81 1334.26 1431.36 1200.88 1431.36C1195.93 1431.34 1191.04 1432.44 1186.57 1434.58L1186.57 1335.57C1186.57 1329.68 1194.33 1325.97 1200.88 1325.97ZM1278.33 1311.99 1278.35 1311.99C1280.27 1311.95 1282.12 1312.71 1283.48 1314.09L1323.14 1350 1349.09 1350 1349.09 1189.47C1349.11 1179.27 1357.4 1171.01 1367.6 1171.01L1568.7 1171.01C1570.66 1171.01 1572.52 1171.85 1573.83 1173.32L1631.84 1229.75 1633.29 1231.79C1633.68 1232.69 1633.91 1233.67 1633.91 1234.68L1633.91 1540.63C1633.91 1550.83 1625.65 1559.11 1615.43 1559.15L1531.76 1559.15 1531.76 1604.4C1531.76 1618.56 1517.66 1628 1503.45 1628L1200.98 1627.98C1186.77 1627.98 1172.66 1618.54 1172.66 1604.4L1172.66 1335.57C1172.66 1321.41 1186.77 1311.97 1200.98 1311.97ZM1415.62 1277.06 1508.52 1277.04C1512.38 1277.04 1515.49 1273.91 1515.49 1270.07 1515.49 1266.22 1512.38 1263.09 1508.52 1263.09L1415.62 1263.09C1411.77 1263.09 1408.64 1266.22 1408.64 1270.07 1408.64 1273.91 1411.77 1277.04 1415.62 1277.04ZM1415.62 1234.44 1468.04 1234.42C1471.69 1234.1 1474.47 1231.07 1474.47 1227.4 1474.47 1223.76 1471.69 1220.73 1468.04 1220.41L1415.62 1220.41C1413.65 1220.25 1411.71 1220.91 1410.27 1222.23 1408.82 1223.58 1408 1225.44 1408 1227.4 1408 1229.39 1408.82 1231.25 1410.27 1232.59 1411.71 1233.92 1413.65 1234.58 1415.62 1234.42ZM1415.62 1370.22 1567.67 1370.2C1571.52 1370.2 1574.65 1367.08 1574.65 1363.23 1574.65 1359.38 1571.52 1356.26 1567.67 1356.26L1415.62 1356.26C1411.77 1356.26 1408.64 1359.38 1408.64 1363.23 1408.64 1367.08 1411.77 1370.2 1415.62 1370.2ZM1531.76 1507.75 1531.76 1471.32 1567.67 1471.32C1571.3 1471 1574.11 1467.98 1574.11 1464.33 1574.11 1460.66 1571.3 1457.64 1567.67 1457.32L1531.76 1457.32 1531.76 1420.75 1567.67 1420.75C1571.3 1420.42 1574.11 1417.38 1574.11 1413.73 1574.11 1410.08 1571.3 1407.06 1567.67 1406.74L1528.94 1406.74C1523.41 1397.98 1513.65 1392.79 1503.29 1393.09L1378.84 1393.09C1376.9 1393.03 1375.04 1393.79 1373.71 1395.2L1362.99 1405.04 1362.99 1189.58C1362.97 1188.35 1363.45 1187.17 1364.32 1186.31 1365.2 1185.43 1366.38 1184.95 1367.6 1184.97L1561.62 1184.97 1561.62 1223.5C1561.62 1233.7 1569.9 1241.96 1580.1 1241.96L1620.38 1241.96 1620.35 1540.64C1620.35 1543.11 1618.37 1545.11 1615.89 1545.15L1531.76 1545.15 1531.76 1521.71 1567.67 1521.71C1571.52 1521.71 1574.65 1518.58 1574.65 1514.73 1574.65 1510.87 1571.52 1507.76 1567.67 1507.76Z" fill="#FFFFFF" fill-rule="evenodd"/></g></g></g></g></svg>