<svg width="371" height="371" xmlns="http://www.w3.org/2000/svg" xmlns:xlink="http://www.w3.org/1999/xlink" xml:space="preserve" overflow="hidden"><g transform="translate(-3421 -832)"><path d="M3424.5 1017.5C3424.5 916.984 3505.98 835.5 3606.5 835.5 3707.02 835.5 3788.5 916.984 3788.5 1017.5 3788.5 1118.02 3707.02 1199.5 3606.5 1199.5 3505.98 1199.5 3424.5 1118.02 3424.5 1017.5Z" stroke="#1E583E" stroke-width="6.875" stroke-miterlimit="8" fill="none" fill-rule="evenodd"/><g><g><g><path d="M3677.18 1112.66C3673.64 1112.66 3670.76 1109.79 3670.76 1106.25 3670.76 1102.7 3673.64 1099.83 3677.18 1099.83 3680.72 1099.83 3683.6 1102.7 3683.6 1106.25 3683.59 1109.79 3680.72 1112.66 3677.18 1112.66ZM3677.18 1103.5C3675.66 1103.49 3674.43 1104.72 3674.42 1106.24 3674.42 1107.76 3675.65 1108.99 3677.17 1109 3678.69 1109 3679.92 1107.77 3679.92 1106.25 3679.92 1106.25 3679.92 1106.25 3679.92 1106.25 3679.92 1104.73 3678.69 1103.5 3677.17 1103.5ZM3606.14 1112.21C3553.51 1112.15 3510.86 1069.5 3510.8 1016.87 3510.8 1015.89 3510.86 1014.92 3510.93 1013.95L3511 1012.74 3514.67 1012.74 3514.6 1013.81C3514.53 1014.82 3514.47 1015.84 3514.47 1016.87 3514.4 1067.43 3555.32 1108.47 3605.88 1108.54 3617.59 1108.55 3629.19 1106.32 3640.06 1101.97L3641.74 1105.26C3630.43 1109.85 3618.34 1112.21 3606.13 1112.21ZM3649.22 1097.74C3654.95 1094.67 3660.34 1091 3665.29 1086.79 3665.37 1085.05 3665.31 1083.31 3665.11 1081.58 3663.55 1072.03 3665.28 1062.23 3670.04 1053.8 3676.44 1042.48 3684.82 1032.4 3694.79 1024.06 3696.02 1022.96 3697.13 1021.97 3698.07 1021.08L3699.9 1019.34 3700.99 1021.62C3706.72 1033.72 3710.91 1059.07 3701.68 1075.08 3694.09 1088.23 3684.92 1089.92 3677.77 1089.92 3676.34 1089.92 3674.98 1089.85 3673.74 1089.79 3672.65 1089.73 3671.56 1089.69 3670.46 1089.67 3669.54 1089.66 3668.61 1089.73 3667.71 1089.9L3667.25 1089.99C3662.19 1094.18 3656.72 1097.87 3650.94 1100.99ZM3670.48 1086.01C3671.59 1086.01 3672.74 1086.07 3673.92 1086.13 3675.25 1086.2 3676.58 1086.27 3677.93 1086.27 3684.72 1086.27 3691.91 1084.69 3698.51 1073.24 3705.74 1060.7 3704.12 1039.6 3698.92 1026.12L3698.68 1025.49 3697.35 1026.69C3687.65 1034.8 3679.48 1044.58 3673.24 1055.57 3668.84 1063.35 3667.26 1072.41 3668.76 1081.22 3668.92 1082.93 3669.05 1084.27 3669.13 1085.59L3669.14 1086.03ZM3678.11 1073.53C3684.6 1065.31 3689.61 1056.02 3692.95 1046.1L3696.42 1047.25C3692.96 1057.59 3687.73 1067.25 3680.98 1075.81ZM3563.05 1048.5C3551.68 1048.5 3542.42 1040.82 3542.42 1031.4 3542.84 1023.85 3548.1 1017.45 3555.43 1015.58L3555.73 1015.48 3555.74 1015.17C3555.93 1007.51 3562.1 1001.33 3569.76 1001.14 3570.09 1001.14 3570.41 1001.16 3570.73 1001.19L3570.99 1001.21 3571.14 1000.98C3574.14 996.679 3578.6 993.611 3583.68 992.346 3584.53 991.015 3585.45 989.736 3586.45 988.515 3590.43 983.81 3596.19 980.974 3602.34 980.691 3602.72 980.673 3603.09 980.664 3603.46 980.664 3606.47 980.672 3609.45 981.228 3612.26 982.304L3609.63 985.352C3607.61 984.699 3605.52 984.356 3603.4 984.335L3602.53 984.358C3597.39 984.59 3592.57 986.958 3589.24 990.894 3588.26 992.066 3587.42 993.352 3586.75 994.725L3586.25 995.701 3585.49 995.692C3580.49 996.632 3576.14 999.691 3573.56 1004.08L3572.93 1005.26 3571.6 1005.01C3571 1004.89 3570.38 1004.82 3569.77 1004.81 3563.83 1005.04 3559.2 1010.01 3559.39 1015.95L3559.58 1018.27 3558.08 1018.64C3551.62 1019.61 3546.66 1024.89 3546.1 1031.4 3546.1 1038.8 3553.7 1044.83 3563.05 1044.83 3566.52 1044.85 3569.93 1043.97 3572.95 1042.26L3574.01 1041.65 3574.68 1042.22C3577.25 1043.52 3580.07 1044.28 3582.95 1044.46 3583.34 1044.49 3583.73 1044.5 3584.11 1044.5 3586.69 1044.49 3589.25 1044 3591.65 1043.07L3592.26 1042.84 3592.64 1042.98C3604.64 1045.08 3616.91 1045.08 3628.9 1042.97L3629.55 1042.85 3629.91 1043.07C3631.95 1043.89 3634.13 1044.31 3636.33 1044.3 3644.86 1044.63 3652.04 1038.01 3652.42 1029.49 3652.41 1027.36 3651.9 1025.26 3650.94 1023.36L3653.48 1020.4C3655.17 1023.13 3656.07 1026.28 3656.09 1029.49 3655.72 1040.04 3646.89 1048.3 3636.34 1047.98 3633.89 1047.98 3631.46 1047.55 3629.17 1046.7 3623.07 1047.71 3616.9 1048.22 3610.72 1048.22 3604.64 1048.23 3598.58 1047.72 3592.6 1046.7 3589.86 1047.64 3586.98 1048.14 3584.07 1048.16 3583.63 1048.16 3583.18 1048.15 3582.74 1048.13 3579.76 1047.95 3576.83 1047.23 3574.11 1046 3570.65 1047.62 3566.88 1048.47 3563.05 1048.5ZM3634.1 1030.16C3634.19 1006.61 3641.57 997.406 3653.67 985.109L3654.43 984.33 3643.26 984.33 3643.26 980.664 3660.68 980.664 3660.68 998.08 3657.01 998.08 3657.01 986.934 3656.23 987.731C3644.82 999.336 3637.86 1008.01 3637.77 1030.16ZM3606.59 1021 3606.59 1003.58 3610.26 1003.58 3610.26 1014.72 3611.05 1013.92C3622.45 1002.32 3629.41 993.648 3629.51 971.492L3633.17 971.492C3633.08 995.051 3625.7 1004.25 3613.6 1016.55L3612.84 1017.33 3624.01 1017.33 3624.01 1021ZM3697.29 1007.25C3692.08 956.996 3647.12 920.482 3596.87 925.69 3584.03 927.021 3571.62 931.054 3560.45 937.525L3558.17 934.624C3603.46 908.03 3661.73 923.184 3688.33 968.473 3695.29 980.332 3699.6 993.561 3700.96 1007.25ZM3516.76 1002.66C3513.21 1002.66 3510.34 999.791 3510.34 996.247 3510.34 992.703 3513.21 989.83 3516.76 989.83 3520.3 989.83 3523.17 992.703 3523.17 996.247 3523.17 999.787 3520.3 1002.66 3516.76 1002.66ZM3516.76 993.497C3515.24 993.497 3514.01 994.728 3514.01 996.247 3514.01 997.766 3515.24 998.997 3516.76 998.997 3518.28 998.997 3519.51 997.766 3519.51 996.247 3519.51 994.728 3518.28 993.497 3516.76 993.497ZM3516.76 979.747C3508.15 979.747 3501.17 972.77 3501.17 964.164 3501.17 955.557 3508.15 948.58 3516.76 948.58 3525.36 948.58 3532.34 955.557 3532.34 964.164 3532.33 972.766 3525.36 979.737 3516.76 979.747ZM3516.76 952.247C3510.18 952.247 3504.84 957.582 3504.84 964.164 3504.84 970.745 3510.18 976.08 3516.76 976.08 3523.34 976.08 3528.67 970.745 3528.67 964.164 3528.67 957.584 3523.34 952.252 3516.76 952.247ZM3548.84 965.997C3545.3 965.997 3542.42 963.124 3542.42 959.58 3542.42 956.036 3545.3 953.164 3548.84 953.164 3552.39 953.164 3555.26 956.036 3555.26 959.58 3555.25 963.121 3552.38 965.989 3548.84 965.997ZM3548.84 956.83C3547.32 956.83 3546.09 958.061 3546.09 959.58 3546.09 961.099 3547.32 962.33 3548.84 962.33 3550.36 962.33 3551.59 961.099 3551.59 959.58 3551.59 958.061 3550.36 956.83 3548.84 956.83ZM3537.38 947.664C3532.57 947.664 3528.67 943.765 3528.67 938.955 3528.67 934.146 3532.57 930.247 3537.38 930.247 3542.19 930.247 3546.09 934.146 3546.09 938.955 3546.08 943.762 3542.19 947.656 3537.38 947.664ZM3537.38 933.914C3534.6 933.914 3532.34 936.171 3532.34 938.955 3532.34 941.74 3534.6 943.997 3537.38 943.997 3540.17 943.997 3542.42 941.74 3542.42 938.955 3542.42 936.171 3540.17 933.914 3537.38 933.914Z" stroke="#1E583E" stroke-width="4.58333" fill="#E97132"/></g></g></g></g></svg>