<svg width="371" height="371" xmlns="http://www.w3.org/2000/svg" xmlns:xlink="http://www.w3.org/1999/xlink" xml:space="preserve" overflow="hidden"><g transform="translate(-38 -191)"><path d="M41.5001 376.5C41.5001 275.984 122.984 194.5 223.5 194.5 324.016 194.5 405.5 275.984 405.5 376.5 405.5 477.016 324.016 558.5 223.5 558.5 122.984 558.5 41.5001 477.016 41.5001 376.5Z" stroke="#1E583E" stroke-width="6.875" stroke-miterlimit="8" fill="none" fill-rule="evenodd"/><g><g><g><path d="M122.625 298.542 122.625 444.292 234.458 444.292C233.389 443.125 232.384 441.901 231.447 440.625L204.254 440.625C204.227 429.863 208.352 428.768 212 427.815 214.2 427.237 217.514 426.366 216.831 422.255 216.587 420.699 216.178 419.173 215.612 417.704 215.379 416.741 214.933 415.843 214.306 415.078 214.159 414.871 214.035 414.715 214.067 414.908 213.66 413.663 212.844 412.592 211.753 411.869 210.79 411.04 209.603 410.008 209.447 409.073L209.264 407.776 209.631 407.066C211.164 404.745 212.033 402.049 212.142 399.27 211.054 396.312 209.164 393.715 206.683 391.771 206.487 391.58 206.238 391.452 205.968 391.405 205.648 391.134 205.308 390.882 204.969 390.625 204.264 390.153 203.66 389.545 203.191 388.838 202.93 388.173 202.515 387.58 201.981 387.105 201.472 386.633 201.261 386.418 201.216 386.157 200.986 384.745 201.614 383.773 202.746 382.183 204.387 380.362 205.17 377.927 204.901 375.491L204.282 371.733C204.094 370.33 204.805 368.96 206.06 368.305 207.101 368.034 208.197 368.063 209.223 368.387 210.508 368.721 211.846 368.809 213.164 368.648 216.629 368.071 218.023 365.193 219.132 362.883 220.168 360.728 220.878 359.395 222.395 359.143 223.486 358.978 223.963 359.408 225.37 361.283 226.266 362.628 227.411 363.79 228.743 364.707 232.093 367.004 236.171 367.993 240.201 367.484 241.635 367.139 242.968 366.466 244.097 365.518 244.784 364.928 245.582 364.481 246.444 364.203 248.175 363.655 249.83 362.889 251.366 361.92 252.815 361.141 254.391 360.302 255.721 359.688 256.565 359.322 257.454 359.071 258.365 358.941 261.945 358.673 265.258 356.948 267.532 354.17 269.536 350.076 269.817 345.35 268.311 341.048 266.96 337.299 267.102 333.175 268.71 329.53 271.121 326.882 274.479 325.293 278.055 325.107 289.5 323.209 291.182 310.72 291.878 302.208L319.708 302.208 319.708 440.625 301.636 440.625C300.7 441.901 299.694 443.125 298.625 444.292L323.375 444.292 323.375 298.542ZM126.292 302.208 172.611 302.208C171.3 302.813 170.063 303.568 168.926 304.459 167.84 305.421 168.083 306.938 168.532 309.684 168.669 310.545 168.898 311.953 168.935 312.833 167.893 312.49 166.805 312.308 165.708 312.292 159.93 312.309 155.153 316.801 154.782 322.568 154.251 322.982 153.736 323.417 153.237 323.869 151.841 325.518 149.796 326.477 147.636 326.495 147.008 326.495 146.362 326.454 145.721 326.422 145.008 326.372 144.294 326.345 143.58 326.34 136.325 326.34 136.036 330.3 135.788 333.792 135.5 337.78 135.051 342.661 126.292 347.62ZM173.042 323.292C173.042 327.342 169.759 330.625 165.708 330.625 161.658 330.625 158.375 327.342 158.375 323.292 158.375 319.241 161.658 315.958 165.708 315.958 169.756 315.963 173.037 319.244 173.042 323.292ZM126.292 440.625 126.292 351.809C138.58 345.585 139.111 338.673 139.446 334.058 139.693 330.62 139.735 330.006 143.58 330.006 144.217 330.006 144.863 330.043 145.505 330.08 146.225 330.125 146.94 330.162 147.636 330.162 150.551 330.172 153.342 328.988 155.359 326.885 157.322 332.616 163.559 335.67 169.289 333.707 175.02 331.745 178.074 325.508 176.112 319.778 175.405 317.715 174.101 315.91 172.363 314.593 172.688 312.768 172.616 310.896 172.153 309.102 172.021 308.352 171.913 307.599 171.832 306.842 172.783 306.242 173.766 305.696 174.779 305.206 175.474 304.904 176.135 304.527 176.75 304.083 177.121 303.762 177.437 303.455 177.721 303.171L178.684 302.208 209.539 302.208C209.553 302.369 209.553 302.534 209.562 302.694 209.759 305.421 209.661 308.161 209.268 310.866 208.908 313.327 208.913 315.827 209.282 318.287 210.038 323.429 208.948 326.491 205.739 328.233 203.304 329.773 201.372 331.992 200.184 334.617 198.58 337.468 197.641 338.953 195.404 338.953 194.169 338.83 193.015 338.284 192.136 337.408 190.631 336.033 188.695 335.224 186.659 335.121 182.951 335.323 180.077 338.436 180.169 342.148 180.169 345.081 177.584 350.705 173.528 350.705 171.493 350.977 169.496 349.989 168.477 348.207 166.772 345.15 164.842 341.685 160.406 341.685 155.773 341.846 152.142 345.723 152.284 350.356 152.309 351.669 152.513 352.972 152.889 354.229 153.185 355.189 153.348 356.185 153.375 357.19 153.281 358.684 152.794 360.126 151.963 361.37 150.823 363.148 150.181 365.199 150.102 367.31 150.324 370.657 153.218 373.19 156.564 372.967 156.57 372.967 156.577 372.966 156.583 372.966 158.203 372.954 159.803 372.61 161.286 371.958 162.398 371.423 163.636 371.201 164.865 371.316 166.139 371.444 166.772 373.727 166.772 374.964 166.772 377.118 165.094 378.796 163.142 380.739 160.186 383.695 156.496 387.371 159.59 393.55 160.703 395.782 163.504 396.437 166.46 397.125 170.457 398.06 172.235 398.756 172.235 400.393 172.27 401.521 172.474 402.638 172.84 403.706 173.11 404.342 173.216 405.035 173.147 405.723 172.687 406.606 172.09 407.41 171.378 408.106 169.568 409.712 168.419 411.934 168.156 414.34 168.199 414.877 168.31 415.407 168.486 415.916 168.605 416.347 168.729 416.824 168.775 416.938L169.164 421.421C169.627 423.832 169.806 425.211 169.921 426.142 170.142 428.292 170.961 430.337 172.286 432.045 173.266 433.736 174.816 436.413 177.135 440.625ZM277.45 321.486C272.886 321.792 268.643 323.939 265.694 327.435 263.455 331.875 263.098 337.029 264.704 341.735 265.909 345.088 265.843 348.767 264.521 352.075 262.787 354.015 260.353 355.185 257.756 355.329 256.521 355.51 255.317 355.857 254.176 356.36 252.792 357.002 251.151 357.873 249.634 358.684 248.222 359.436 246.293 360.463 245.839 360.586 244.409 360.929 243.079 361.599 241.952 362.543 241.262 363.136 240.461 363.586 239.596 363.868 236.448 364.196 233.285 363.39 230.677 361.595 229.738 360.908 228.93 360.057 228.294 359.083 227.081 356.656 224.488 355.238 221.79 355.526 218.325 356.104 216.932 358.982 215.823 361.292 214.787 363.446 214.076 364.775 212.559 365.028 211.683 365.112 210.799 365.034 209.951 364.798 208.277 364.328 206.502 364.344 204.836 364.844 201.882 366.077 200.156 369.172 200.661 372.333L201.284 376.092C201.513 377.499 200.89 378.466 199.758 380.056 198.114 381.879 197.326 384.317 197.595 386.757 197.844 387.962 198.514 389.039 199.483 389.796L199.799 390.236C199.963 390.68 200.192 391.096 200.478 391.473 201.142 392.27 201.911 392.971 202.765 393.559 203.049 393.774 203.338 393.99 203.622 394.228 203.929 394.48 204.241 394.668 204.341 394.595 206.164 395.966 207.603 397.782 208.521 399.87 208.166 401.835 207.431 403.713 206.358 405.398 205.666 406.754 205.455 407.167 205.57 407.859L205.826 409.669C206.386 411.687 207.633 413.446 209.351 414.642 209.702 414.965 210.069 415.269 210.451 415.554 210.603 416.146 210.887 416.696 211.281 417.163 211.487 417.461 211.899 418.093 211.968 417.887L211.931 418.254 212.238 419.17C212.695 420.36 213.021 421.596 213.21 422.855 213.338 423.607 213.348 423.667 211.07 424.267 207.128 425.298 200.551 427.026 200.578 440.625L181.319 440.625C179.414 437.122 177.458 433.646 175.453 430.198 173.757 427.278 173.757 427.278 173.555 425.683 173.436 424.707 173.253 423.254 172.79 420.917L172.391 416.388C172.28 415.913 172.161 415.439 172.033 414.968 171.989 414.749 171.92 414.537 171.827 414.335 171.827 413.12 172.991 411.814 174.114 410.549 175.173 409.513 176.021 408.282 176.612 406.924 176.991 405.516 176.901 404.023 176.356 402.67 176.1 401.936 175.95 401.169 175.911 400.393 175.911 395.571 170.933 394.407 167.294 393.559 165.672 393.178 163.215 392.605 162.867 391.909 161.047 388.274 162.683 386.377 165.736 383.338 168.392 381.315 170.096 378.285 170.443 374.964 170.443 372.352 169.031 368.053 165.236 367.672 163.429 367.49 161.605 367.79 159.952 368.543 158.894 369.029 157.747 369.288 156.583 369.304 155.226 369.304 153.773 368.502 153.773 367.31 153.865 365.814 154.352 364.368 155.185 363.121 156.322 361.345 156.962 359.297 157.041 357.19 157.018 355.873 156.816 354.566 156.441 353.303 156.146 352.348 155.982 351.356 155.955 350.356 155.811 347.749 157.795 345.514 160.401 345.347 162.583 345.347 163.623 347.029 165.365 350.15 167.039 353.019 170.219 354.663 173.528 354.371 179.821 354.371 183.84 347.13 183.84 342.148 183.755 340.462 184.985 338.997 186.659 338.788 187.89 338.911 189.041 339.455 189.918 340.328 191.425 341.705 193.365 342.516 195.404 342.62 199.886 342.62 201.743 339.324 203.379 336.418 204.252 334.409 205.676 332.688 207.486 331.455 212.119 328.583 214.322 323.014 212.908 317.75 212.594 315.644 212.589 313.502 212.894 311.393 213.327 308.426 213.434 305.42 213.215 302.428 213.21 302.355 213.215 302.282 213.206 302.208L288.175 302.208C287.35 311.467 285.544 320.148 277.45 321.486ZM151.958 408.542C148.415 408.542 145.542 411.415 145.542 414.958 145.542 418.502 148.415 421.375 151.958 421.375 155.502 421.375 158.375 418.502 158.375 414.958 158.37 411.417 155.5 408.547 151.958 408.542ZM151.958 417.708C150.44 417.708 149.208 416.477 149.208 414.958 149.208 413.439 150.44 412.208 151.958 412.208 153.477 412.208 154.708 413.439 154.708 414.958 154.708 416.477 153.477 417.708 151.958 417.708ZM281.286 402.203 283.881 404.797 261.958 426.719 253.786 418.547 256.381 415.953 261.958 421.531ZM300.458 414.958C300.493 396.227 285.337 381.013 266.605 380.978 247.873 380.944 232.66 396.1 232.625 414.832 232.605 425.61 237.709 435.756 246.375 442.165L246.375 482.09 266.542 472.007 286.708 482.09 286.708 442.165C295.347 435.79 300.449 425.694 300.458 414.958ZM283.042 455.232 283.042 476.16 266.542 467.91 250.042 476.16 250.042 444.567C260.291 450.314 272.793 450.314 283.042 444.567ZM266.542 445.208C249.835 445.208 236.292 431.665 236.292 414.958 236.292 398.252 249.835 384.708 266.542 384.708 283.248 384.708 296.792 398.252 296.792 414.958 296.774 431.658 283.241 445.191 266.542 445.208ZM295.696 366.311C295.912 366.32 296.118 366.375 296.333 366.375 303.674 366.375 309.625 360.424 309.625 353.083 309.625 345.743 303.674 339.792 296.333 339.792 288.993 339.792 283.042 345.743 283.042 353.083 283.042 353.303 283.092 353.505 283.106 353.725 277.127 354.771 273.127 360.466 274.173 366.445 275.085 371.659 279.583 375.482 284.875 375.542L284.912 375.542C290.278 375.51 294.837 371.608 295.696 366.311ZM296.333 343.458C301.649 343.458 305.958 347.768 305.958 353.083 305.958 358.399 301.649 362.708 296.333 362.708 296.113 362.708 295.903 362.658 295.683 362.644 294.88 358.099 291.322 354.54 286.777 353.734 286.759 353.514 286.708 353.308 286.708 353.083 286.713 347.77 291.02 343.463 296.333 343.458ZM284.875 371.875C280.825 371.875 277.542 368.592 277.542 364.542 277.542 360.491 280.825 357.208 284.875 357.208 288.925 357.208 292.208 360.491 292.208 364.542 292.203 368.59 288.923 371.87 284.875 371.875Z" stroke="#1E583E" stroke-width="4.58333" fill="#E97132"/></g></g></g></g></svg>