<svg width="371" height="371" xmlns="http://www.w3.org/2000/svg" xmlns:xlink="http://www.w3.org/1999/xlink" xml:space="preserve" overflow="hidden"><defs><clipPath id="clip0"><rect x="1696" y="195" width="281" height="267"/></clipPath><clipPath id="clip1"><rect x="1696" y="195" width="281" height="267"/></clipPath><clipPath id="clip2"><rect x="1696" y="195" width="281" height="267"/></clipPath><clipPath id="clip3"><rect x="1696" y="195" width="281" height="267"/></clipPath><clipPath id="clip4"><path d="M1845.58 196.244 1975.82 330.756 1918.33 386.453 1788.1 251.943Z" fill-rule="evenodd" clip-rule="evenodd"/></clipPath><clipPath id="clip5"><path d="M1845.58 196.244 1975.82 330.756 1918.33 386.453 1788.1 251.943Z" fill-rule="evenodd" clip-rule="evenodd"/></clipPath><clipPath id="clip6"><path d="M1832.42 148.478 2027.93 350.398 1826.1 545.974 1630.59 344.056Z" fill-rule="evenodd" clip-rule="evenodd"/></clipPath></defs><g transform="translate(-1637 -159)"><path d="M1640.5 344.5C1640.5 243.984 1721.98 162.5 1822.5 162.5 1923.02 162.5 2004.5 243.984 2004.5 344.5 2004.5 445.016 1923.02 526.5 1822.5 526.5 1721.98 526.5 1640.5 445.016 1640.5 344.5Z" stroke="#1E583E" stroke-width="6.875" stroke-miterlimit="8" fill="none" fill-rule="evenodd"/><g clip-path="url(#clip0)"><g clip-path="url(#clip1)"><g clip-path="url(#clip2)"><g clip-path="url(#clip3)"><g clip-path="url(#clip4)"><g clip-path="url(#clip5)"><g clip-path="url(#clip6)"><path d="M269.342 240.646 269.342 245.329C256.728 245.133 244.884 239.227 237.138 229.269 223.745 247.055 198.47 250.615 180.686 237.223 177.675 234.956 174.998 232.279 172.732 229.269 159.339 247.055 134.064 250.615 116.279 237.223 113.269 234.956 110.592 232.279 108.326 229.269 100.581 239.228 88.7366 245.135 76.1224 245.329 63.5087 245.133 51.6648 239.227 43.9192 229.269 36.1748 239.228 24.3303 245.135 11.7161 245.329L11.7161 240.646C23.9127 240.373 35.215 234.186 42.0165 224.058L43.9192 221.406 45.8222 224.058C52.6238 234.183 63.9228 240.369 76.1166 240.646 88.3135 240.373 99.6155 234.186 106.417 224.058L108.32 221.406 110.223 224.058C117.026 234.184 128.327 240.371 140.523 240.646 152.72 240.373 164.022 234.186 170.823 224.058L172.726 221.406 174.629 224.058C185.339 240.792 207.586 245.676 224.32 234.967 228.703 232.163 232.425 228.441 235.23 224.058L237.132 221.406 239.035 224.058C245.838 234.184 257.14 240.371 269.336 240.646ZM16.1074 186.38C22.1916 193.913 31.3101 198.35 40.9917 198.489 50.6736 198.35 59.7925 193.913 65.8759 186.38 71.96 193.913 81.0789 198.35 90.7602 198.489 100.442 198.35 109.561 193.913 115.644 186.38 126.417 200.123 146.291 202.531 160.034 191.759 162.037 190.19 163.843 188.383 165.413 186.38 176.185 200.123 196.059 202.531 209.803 191.759 211.805 190.19 213.612 188.383 215.182 186.38 225.954 200.123 245.828 202.531 259.571 191.759 261.574 190.19 263.38 188.383 264.95 186.38 265.822 187.411 266.748 188.394 267.725 189.325L270.957 185.941C269.446 184.492 268.073 182.906 266.853 181.204L264.95 178.558 263.047 181.204C254.942 193.896 238.083 197.615 225.391 189.51 222.052 187.378 219.217 184.543 217.084 181.204L215.182 178.558 213.279 181.204C205.174 193.896 188.314 197.615 175.622 189.51 172.283 187.378 169.448 184.543 167.316 181.204L165.413 178.558 163.51 181.204C155.406 193.896 138.546 197.615 125.854 189.51 122.514 187.378 119.68 184.543 117.547 181.204L115.644 178.558 113.742 181.204C108.585 188.891 100.014 193.59 90.7602 193.805 81.5074 193.589 72.9362 188.89 67.779 181.204L65.8759 178.558 63.9729 181.204C58.8163 188.891 50.2451 193.59 40.9917 193.805 31.7387 193.589 23.1676 188.89 18.0104 181.204L16.1074 178.558 14.2045 181.204C12.9911 182.908 11.6187 184.491 10.1059 185.935L13.3263 189.331C14.3048 188.397 15.2331 187.413 16.1074 186.38ZM40.5058 148.012C45.4753 153.937 52.78 157.402 60.5126 157.503 68.2426 157.403 75.5451 153.94 80.5138 148.017 89.5359 159.066 105.806 160.707 116.854 151.685 118.197 150.589 119.425 149.36 120.522 148.017 129.542 159.067 145.812 160.712 156.862 151.692 158.207 150.594 159.437 149.363 160.536 148.017 169.553 159.066 185.819 160.712 196.867 151.694 198.213 150.596 199.445 149.363 200.544 148.017 209.566 159.066 225.836 160.707 236.884 151.685 238.227 150.589 239.455 149.36 240.552 148.017 245.522 153.94 252.827 157.403 260.559 157.503 263.887 157.505 267.182 156.84 270.249 155.547L268.434 151.226C258.888 154.873 248.089 151.402 242.455 142.877L240.558 140.23 238.655 142.877C232.292 152.875 219.029 155.822 209.03 149.46 206.38 147.773 204.133 145.526 202.447 142.877L200.544 140.23 198.641 142.877C192.275 152.874 179.011 155.818 169.014 149.452 166.368 147.767 164.124 145.523 162.439 142.877L160.536 140.23 158.633 142.877C152.27 152.875 139.006 155.822 129.008 149.46 126.358 147.773 124.111 145.526 122.425 142.877L120.528 140.23 118.625 142.877C114.566 148.938 107.813 152.647 100.521 152.819 93.2286 152.644 86.4767 148.936 82.4168 142.877L80.5138 140.23 78.6108 142.877C74.5533 148.936 67.8028 152.645 60.5126 152.819 53.2203 152.647 46.4671 148.938 42.4088 142.877L40.5058 140.23 38.6027 142.877C32.9665 151.403 22.1659 154.874 12.6178 151.226L10.8144 155.547C21.3011 159.7 33.2687 156.663 40.5058 148.012ZM269.342 122.372 11.7161 122.372 11.7161 117.688 82.6803 117.688C83.972 87.3573 109.606 63.8167 139.937 65.1083 168.458 66.3226 191.302 89.1669 192.517 117.688L269.336 117.688ZM87.3643 117.688 187.832 117.688C186.561 89.943 163.039 68.4816 135.294 69.7527 109.329 70.9425 88.5483 91.7227 87.3585 117.688ZM122.495 54.3823 116.429 31.764 111.909 32.9759 117.969 55.5945ZM163.405 32.9759 158.879 31.764 152.819 54.3823 157.345 55.5945ZM203.477 57.515 200.169 54.201 183.605 70.7591 186.919 74.0731ZM203.29 104.865 225.914 98.8053 224.702 94.2791 202.078 100.339ZM91.7031 70.7533 75.1387 54.1949 71.8307 57.509 88.3948 74.0673ZM73.2242 100.333 50.6059 94.2673 49.3937 98.7935 72.012 104.853Z" stroke="#1E583E" stroke-width="5.85528" fill="#E97132" transform="matrix(0.695637 0.718456 -0.718142 0.695896 1832.42 148.478)"/></g></g></g><path d="M2481.97 381.169 2471.99 405.259 2469.01 404.023 2478.48 381.169ZM2472.33 357.574C2478.1 357.61 2483.8 356.296 2488.97 353.736 2498.08 357.761 2508.37 358.187 2517.77 354.93 2518.6 355.066 2519.46 355.172 2520.3 355.293L2521.57 352.223C2519.71 351.954 2519.36 351.93 2517.48 351.606 2508.42 354.975 2498.38 354.576 2489.62 350.491L2488.88 350.144 2488.17 350.528C2483.28 353.081 2477.84 354.395 2472.33 354.35 2457.24 354.35 2444.96 345.131 2444.96 333.804 2444.96 324.86 2452.93 316.784 2464.33 314.161L2465.67 313.853C2465.63 313.279 2465.59 312.39 2465.51 311.868 2465.48 311.704 2465.46 311.538 2465.46 311.372 2465.46 301.874 2473.16 294.176 2482.66 294.179 2482.96 294.179 2483.25 294.187 2483.55 294.202 2482.39 296.79 2481.81 299.601 2481.85 302.437L2485.08 302.368C2485.08 298.887 2486.14 295.489 2488.11 292.623 2488.35 292.26 2488.57 291.881 2488.84 291.531 2489.48 290.665 2490.19 289.846 2490.95 289.077 2492.17 287.896 2493.48 286.808 2494.87 285.822 2495.85 285.143 2496.87 284.525 2497.93 283.969 2498.3 283.78 2498.7 283.619 2499.08 283.441 2508.36 278.821 2519.35 279.192 2528.3 284.428L2530.07 281.729C2523.92 277.93 2516.66 276.341 2509.48 277.225 2520.32 261.545 2543.75 260.01 2559.41 274.131 2565.87 279.873 2570.12 287.699 2571.4 296.248 2565.37 296.859 2559.83 299.854 2556.01 304.568L2558.51 306.601C2565.48 298.205 2577.94 297.05 2586.34 304.021 2588.02 305.42 2589.47 307.088 2590.6 308.958L2591.27 309.097C2603.07 311.505 2611.32 320.53 2611.32 331.033 2611.32 346.872 2592.56 358.438 2574.48 351.555 2570.12 352.316 2565.72 352.89 2561.31 353.265L2559.91 356.622C2564.69 356.259 2569.45 355.676 2574.17 354.879 2577.73 356.166 2581.5 356.821 2585.29 356.812 2601.42 356.812 2614.53 345.249 2614.53 331.027 2614 318.575 2604.85 308.184 2592.57 306.078 2592 305.259 2591.39 304.48 2590.72 303.743L2590.76 303.709C2586.8 299.32 2581.3 296.632 2575.41 296.208 2575.16 296.188 2574.92 296.144 2574.68 296.135 2573.34 286.704 2568.7 278.056 2561.57 271.734 2543.72 255.631 2516.4 258.258 2505.23 277.918 2499.3 279.179 2493.83 282.017 2489.37 286.132 2489.17 286.33 2488.95 286.515 2488.74 286.717 2487.52 287.951 2486.41 289.305 2485.45 290.757 2485.37 290.878 2485.27 290.991 2485.2 291.116 2474 289.714 2463.79 297.65 2462.39 308.84 2462.29 309.677 2462.24 310.517 2462.24 311.36 2449.92 314.674 2441.74 323.555 2441.74 333.801 2441.74 346.905 2455.46 357.568 2472.33 357.568ZM2498.62 381.169 2478.89 428.788 2481.88 430.02 2502.11 381.169ZM2583.22 381.169 2566.77 420.892 2569.75 422.125 2586.71 381.169ZM2515.22 389.711 2506.49 410.801 2509.47 412.033 2518.71 389.714ZM2566.24 365.94 2546.9 365.94 2555.13 346.074 2552.15 344.841 2542.08 369.164 2561.41 369.164 2541.69 416.783 2541.69 378.026 2523.53 378.026 2536.77 346.08 2533.78 344.841 2518.7 381.25 2538.46 381.25 2538.46 432.981Z" stroke="#1E583E" stroke-width="4.02866" fill="#E97132" transform="matrix(1 0 0 1.00041 -733.289 23.7044)"/></g></g></g></g></g></svg>