<svg width="371" height="371" xmlns="http://www.w3.org/2000/svg" xmlns:xlink="http://www.w3.org/1999/xlink" xml:space="preserve" overflow="hidden"><g transform="translate(-293 -924)"><path d="M296.5 1109.5C296.5 1008.98 377.984 927.5 478.5 927.5 579.016 927.5 660.5 1008.98 660.5 1109.5 660.5 1210.02 579.016 1291.5 478.5 1291.5 377.984 1291.5 296.5 1210.02 296.5 1109.5Z" stroke="#1E583E" stroke-width="6.875" stroke-miterlimit="8" fill="none" fill-rule="evenodd"/><g><g><g><path d="M447.548 1179.06 441.893 1195.48 441.792 1196.07C441.792 1206.08 458.704 1213.93 480.292 1213.93 501.879 1213.93 518.792 1206.09 518.792 1196.08L513.026 1179.07C535.592 1168.98 550.327 1146.8 550.875 1122.09 550.569 1101.22 539.978 1081.85 522.578 1070.33 512.155 1063.21 501.375 1055.85 501.375 1040.79 501.375 1031.96 509.089 1016.76 509.167 1016.6L509.368 1015.77C509.368 1009.56 491.15 1008.62 480.292 1008.62 469.434 1008.62 451.215 1009.56 451.215 1015.77L451.417 1016.6C451.495 1016.76 459.208 1031.95 459.208 1040.79 459.208 1055.85 448.428 1063.21 438.006 1070.33 420.605 1081.85 410.015 1101.22 409.708 1122.09 410.256 1146.79 424.988 1168.97 447.548 1179.06ZM515.116 1196.36C514.74 1203.13 500.839 1210.26 480.292 1210.26 459.745 1210.26 445.843 1203.13 445.468 1196.36L450.917 1180.54C469.707 1188.43 490.877 1188.43 509.666 1180.54ZM480.292 1012.29C488.631 1011.82 496.988 1012.83 504.978 1015.26 496.922 1017.34 488.6 1018.19 480.292 1017.79 472.025 1018.17 463.747 1017.33 455.725 1015.3 463.667 1012.83 471.989 1011.81 480.292 1012.29ZM456.802 1019.44C464.539 1020.94 472.413 1021.61 480.292 1021.46 488.169 1021.61 496.041 1020.94 503.777 1019.44 500.494 1026.14 498.438 1033.37 497.708 1040.79 497.71 1042.64 497.871 1044.49 498.19 1046.31 486.697 1050.89 473.887 1050.89 462.394 1046.31 462.713 1044.49 462.874 1042.64 462.875 1040.79 462.145 1033.37 460.088 1026.14 456.802 1019.44ZM461.532 1049.92C473.573 1054.75 487.011 1054.75 499.051 1049.92 500.212 1053.61 502.081 1057.04 504.551 1060.02 496.708 1062.5 488.519 1063.72 480.292 1063.62 472.065 1063.72 463.876 1062.51 456.032 1060.02 458.504 1057.04 460.372 1053.61 461.532 1049.92ZM413.375 1122.09C413.684 1102.43 423.678 1084.2 440.078 1073.36 444.817 1070.33 449.263 1066.86 453.356 1062.99 462.018 1065.97 471.132 1067.43 480.292 1067.29 489.452 1067.43 498.566 1065.97 507.228 1062.99 511.321 1066.85 515.766 1070.33 520.506 1073.36 536.907 1084.2 546.901 1102.43 547.208 1122.09 547.208 1122.73 547.126 1123.34 547.103 1123.98 543.437 1125.89 539.641 1127.54 535.741 1128.92L535.145 1129.14 534.815 1129.68C531.488 1135.26 527.651 1140.52 523.352 1145.39 521.171 1145.96 519.782 1146.3 517.619 1146.78 514.286 1143.28 512.082 1141.19 507.416 1136.8L506.774 1136.19 505.899 1136.32C503.147 1136.73 500.383 1137.05 497.612 1137.3L496.906 1137.37 496.43 1137.89C491.493 1143.31 488.831 1145.93 483.853 1150.67 481.131 1150.72 479.453 1150.72 476.731 1150.67 471.753 1145.93 469.09 1143.31 464.154 1137.89L463.677 1137.37 462.971 1137.3C460.2 1137.05 457.437 1136.73 454.685 1136.32L453.814 1136.19 453.168 1136.8C448.502 1141.19 446.302 1143.28 442.965 1146.78 441.042 1146.36 439.13 1145.9 437.231 1145.39 432.933 1140.52 429.096 1135.26 425.768 1129.68L425.438 1129.14 424.843 1128.92C420.943 1127.54 417.146 1125.89 413.481 1123.98 413.458 1123.34 413.375 1122.72 413.375 1122.09ZM422.973 1132.13C426.421 1137.84 430.384 1143.22 434.811 1148.2L435.178 1148.64 435.733 1148.79C438.652 1149.57 440.151 1149.92 443.208 1150.58L444.216 1150.79 444.922 1150.04C448.438 1146.32 450.555 1144.3 455.038 1140.07 457.6 1140.44 459.231 1140.62 461.922 1140.89 466.798 1146.22 469.503 1148.86 474.723 1153.81L475.232 1154.3C475.232 1154.3 478.986 1154.38 480.292 1154.38 481.598 1154.38 485.347 1154.3 485.347 1154.3L485.861 1153.81C491.081 1148.86 493.785 1146.22 498.662 1140.89 500.963 1140.67 503.258 1140.4 505.546 1140.07 510.029 1144.3 512.146 1146.32 515.661 1150.04L516.372 1150.79 517.376 1150.58C520.433 1149.92 521.927 1149.57 524.846 1148.79L525.401 1148.64 525.772 1148.2C530.2 1143.22 534.162 1137.84 537.611 1132.13 540.767 1130.99 543.858 1129.68 546.869 1128.2 543.478 1158.82 514.91 1182.79 480.292 1182.79 445.674 1182.79 417.111 1158.82 413.714 1128.2 416.726 1129.68 419.817 1130.99 422.973 1132.13Z" stroke="#1E583E" stroke-width="4.58333" fill="#E97132"/></g></g></g></g></svg>