<svg width="201" height="200" xmlns="http://www.w3.org/2000/svg" xmlns:xlink="http://www.w3.org/1999/xlink" xml:space="preserve" overflow="hidden"><g transform="translate(-661 -24)"><path d="M200 100C200 135.727 180.94 168.739 150 186.6 119.06 204.463 80.9389 204.463 50 186.6 19.06 168.737 0 135.724 0 100 0 64.2761 19.06 31.2611 50 13.4 80.94-4.46333 119.061-4.46333 150 13.4 180.94 31.2633 200 64.2761 200 100" fill="#174460" transform="matrix(1.005 0 0 1 661 24)"/><path d="M126.478 155.189C125.917 156.886 125.312 158.608 124.662 160.379 108.211 163.002 91.7961 163.007 75.28 160.379 74.6305 158.593 74.0254 156.871 73.4644 155.174 91.0389 157.58 108.904 157.59 126.478 155.189ZM121.189 141.556C119.437 144.228 116.485 145.851 113.287 145.846 110.128 145.851 107.201 144.272 105.459 141.659 104.234 139.755 102.232 138.619 99.9586 138.624 97.7642 138.624 95.7421 139.731 94.5317 141.556 92.8047 144.237 89.8577 145.831 86.6451 145.831 83.4469 145.831 80.5001 144.237 78.7584 141.556 76.4116 137.718 70.4139 137.664 67.9984 141.453 67.595 142.107 67.0832 142.658 66.537 143.194 67.4522 146.009 68.4263 148.828 69.4398 151.598 89.6214 154.855 110.232 154.909 130.529 151.598 131.547 148.828 132.507 146.023 133.431 143.209 132.9 142.727 132.418 142.161 132.015 141.556 129.673 137.654 123.562 137.708 121.191 141.556ZM132.023 129.969C130.812 128.095 128.839 127.022 126.625 127.022 124.421 127.022 122.34 128.124 121.169 129.984 119.413 132.666 116.466 134.26 113.282 134.26 110.094 134.25 107.137 132.656 105.396 129.984 104.323 128.154 102.193 127.027 99.9689 127.022 97.7402 127.017 95.7573 128.095 94.5273 129.969 92.7855 132.636 89.8385 134.23 86.6406 134.23 83.4427 134.23 80.4956 132.636 78.7684 129.969 77.5433 128.095 75.5703 127.022 73.3415 127.022 71.1618 127.022 69.2284 128.041 68.0032 129.792 66.9945 131.524 65.3808 132.818 63.5654 133.536 64.1854 135.672 64.82 137.782 65.4793 139.888 68.9578 134.314 77.7548 134.338 81.2232 139.932 82.4187 141.792 84.4361 142.879 86.6353 142.879 88.8738 142.879 90.8518 141.817 92.0474 139.947 93.7842 137.271 96.7657 135.677 99.9491 135.672 103.117 135.672 106.035 137.236 107.791 139.859 109.002 141.763 110.999 142.899 113.262 142.894 115.511 142.904 117.568 141.738 118.778 139.859 122.251 134.304 131.048 134.368 134.478 139.918 135.142 137.812 135.777 135.672 136.377 133.537 134.616 132.838 133.11 131.578 132.023 129.97ZM62.8004 130.658C63.8483 130.151 64.8521 129.379 65.4523 128.331 68.8865 122.722 77.8017 122.708 81.2406 128.36 82.4362 130.191 84.4535 131.278 86.6527 131.278 88.8912 131.278 90.8693 130.215 92.0796 128.36 93.8214 125.674 96.7782 124.065 99.9813 124.07 103.164 124.07 106.112 125.664 107.868 128.331 108.96 130.191 111.036 131.293 113.295 131.307 115.499 131.307 117.551 130.191 118.736 128.331 122.141 122.786 130.889 122.698 134.392 128.183 135.164 129.389 136.237 130.269 137.191 130.688 138.564 125.645 139.77 120.577 140.818 115.49L59.1621 115.49C60.205 120.578 61.4303 125.65 62.8029 130.659ZM141.389 112.543C141.862 110.157 142.304 107.795 142.688 105.468L138.058 112.543ZM135.328 111.318 143.76 98.4326C143.805 98.0932 143.849 97.7683 143.878 97.4437L126.279 97.4487ZM123.549 98.6682 114.481 112.538 132.597 112.538ZM111.755 111.318 120.823 97.4476 102.692 97.4476ZM90.9143 112.543 109.03 112.543 99.9626 98.6677ZM88.1836 111.318 97.2364 97.4476 79.1458 97.4476ZM67.3525 112.543 85.4681 112.543 76.4203 98.6677ZM57.2858 105.482C57.6843 107.809 58.1124 110.171 58.5847 112.543L61.9007 112.543ZM73.6936 97.4477 56.0753 97.4477C56.1195 97.7723 56.1638 98.1119 56.2081 98.4366L64.6264 111.322ZM121.427 54.3138 87.9208 54.3138C85.9725 54.2745 86.002 51.4012 87.9208 51.3667L120.132 51.3667C120.152 50.1909 120.142 48.8574 119.866 47.6964L113.81 47.6964C111.871 47.6619 111.876 44.7838 113.81 44.7493L120.737 44.7493C124.063 43.4357 126.73 40.8674 128.146 37.6549L71.8185 37.6549C73.2354 40.8678 75.8873 43.421 79.2185 44.7443L96.2169 44.7443C98.1555 44.7836 98.1505 47.6569 96.2169 47.6914L80.1035 47.6914C79.7494 49.059 79.8232 51.4356 79.8379 52.8377 79.8379 53.561 79.3212 54.166 78.6129 54.2991 65.2051 56.4343 54.4112 68.6363 54.599 82.3385 54.712 86.4418 55.3025 90.8007 55.7207 94.5007L144.248 94.5007C144.662 91.2438 145.016 87.9568 145.282 84.7002 146.768 70.1952 135.628 56.6063 121.429 54.3141Z" fill="#FFFFFF" transform="matrix(1.005 0 0 1 661 24)"/></g></svg>