<svg width="754" height="753" xmlns="http://www.w3.org/2000/svg" xmlns:xlink="http://www.w3.org/1999/xlink" xml:space="preserve" overflow="hidden"><defs><clipPath id="clip0"><rect x="1859" y="1023" width="754" height="753"/></clipPath></defs><g clip-path="url(#clip0)" transform="translate(-1859 -1023)"><path d="M1859 1399.5C1859 1191.56 2027.79 1023 2236 1023 2444.21 1023 2613 1191.56 2613 1399.5 2613 1607.44 2444.21 1776 2236 1776 2027.79 1776 1859 1607.44 1859 1399.5Z" fill="#022C45" fill-rule="evenodd"/><g><g><g><path d="M563.007 110.123 98.0318 110.123C75.9814 110.123 58.0364 128.068 58.0364 150.118L58.0364 510.853C58.0364 532.904 75.9814 550.85 98.0318 550.85L563.007 550.872C585.057 550.872 603.003 532.93 603.003 510.879L602.975 150.116C602.975 128.066 585.057 110.121 563.007 110.121ZM591.876 510.881C591.876 526.813 578.909 539.748 563.007 539.748L98.0318 539.748C82.1006 539.748 69.1648 526.787 69.1648 510.881L69.1648 203.208 591.843 203.208ZM591.876 192.081 69.1659 192.081 69.1659 150.123C69.1659 134.192 82.1276 121.256 98.0329 121.256L563.007 121.256C578.937 121.256 591.876 134.218 591.876 150.123ZM120.239 156.681C120.239 163.627 114.559 169.307 107.613 169.307 100.667 169.307 94.9868 163.627 94.9868 156.681 94.9868 149.735 100.667 144.055 107.613 144.055 114.559 144.055 120.239 149.71 120.239 156.681ZM163.927 156.681C163.927 163.627 158.247 169.307 151.301 169.307 144.355 169.307 138.674 163.627 138.674 156.681 138.674 149.735 144.355 144.055 151.301 144.055 158.247 144.055 163.927 149.71 163.927 156.681ZM207.589 156.681C207.589 163.627 201.909 169.307 194.963 169.307 188.017 169.307 182.337 163.627 182.337 156.681 182.337 149.735 188.017 144.055 194.963 144.055 201.934 144.055 207.589 149.71 207.589 156.681ZM355.852 401.642 556.523 401.642C559.597 401.642 562.076 399.164 562.076 396.091 562.076 393.018 559.597 390.54 556.523 390.54L546.043 390.54 546.017 242.746C546.017 235.774 540.337 230.094 533.365 230.094L507.88 230.094C500.909 230.094 495.228 235.774 495.228 242.746L495.228 390.512 481.569 390.512 481.569 317.725C481.569 310.754 475.889 305.073 468.917 305.073L443.432 305.073C436.461 305.073 430.78 310.753 430.78 317.725L430.78 390.54 417.121 390.54 417.121 289.792C417.121 282.821 411.441 277.14 404.469 277.14L378.984 277.14C372.012 277.14 366.332 282.82 366.332 289.792L366.332 390.518 355.849 390.518C352.776 390.518 350.297 392.996 350.297 396.069 350.272 399.142 352.776 401.646 355.849 401.646ZM506.361 242.743C506.361 241.917 507.059 241.22 507.885 241.22L533.37 241.22C534.196 241.22 534.893 241.917 534.893 242.743L534.893 390.51 506.335 390.51ZM441.914 317.728C441.914 316.902 442.611 316.205 443.437 316.205L468.922 316.205C469.748 316.205 470.445 316.902 470.445 317.728L470.445 390.543 441.888 390.543ZM377.466 289.791C377.466 288.964 378.164 288.267 378.99 288.267L404.475 288.267C405.301 288.267 405.998 288.964 405.998 289.791L405.998 390.516 377.44 390.516ZM173.355 512.851C214.383 512.851 247.745 479.465 247.745 438.461 247.745 435.388 245.266 432.909 242.194 432.909L215.418 432.909C212.346 432.909 209.867 435.388 209.867 438.461 209.867 458.575 193.497 474.944 173.383 474.944 153.269 474.944 136.899 458.574 136.899 438.461 136.899 418.347 153.269 401.977 173.383 401.977 176.456 401.977 178.934 399.498 178.934 396.425L178.934 369.65C178.934 366.577 176.456 364.099 173.383 364.099 132.355 364.099 98.993 397.484 98.993 438.489 98.9671 479.492 132.327 512.851 173.356 512.851ZM178.906 485.713C200.724 483.157 218.075 465.831 220.632 444.014L236.382 444.014C233.723 474.481 209.375 498.804 178.908 501.465ZM167.804 375.431 167.804 391.181C145.986 393.738 128.66 411.089 126.104 432.907L110.353 432.907C113.013 402.439 137.335 378.09 167.805 375.433ZM126.104 444.01C128.66 465.828 145.986 483.153 167.804 485.709L167.804 501.434C137.361 498.775 113.039 474.452 110.379 444.01ZM192.722 344.683C189.649 344.683 187.17 347.162 187.17 350.235L187.17 377.01C187.17 380.083 189.649 382.561 192.722 382.561 212.836 382.561 229.206 398.932 229.206 419.045 229.206 422.118 231.684 424.597 234.757 424.597L261.532 424.597C264.605 424.597 267.084 422.118 267.084 419.045 267.135 378.068 233.749 344.683 192.721 344.683ZM240.025 413.521C237.468 391.703 220.117 374.352 198.299 371.795L198.299 356.045C228.767 358.704 253.116 383.053 255.773 413.519ZM296.105 442.595C296.105 439.522 298.584 437.043 301.656 437.043L323.887 437.043C326.96 437.043 329.439 439.522 329.439 442.595 329.439 445.667 326.96 448.146 323.887 448.146L301.656 448.146C298.584 448.146 296.105 445.667 296.105 442.595ZM559.784 490C559.784 493.073 557.306 495.552 554.232 495.552L356.108 495.552C353.036 495.552 350.557 493.073 350.557 490 350.557 486.928 353.036 484.449 356.108 484.449L554.232 484.449C557.278 484.449 559.784 486.928 559.784 490ZM298.297 252.971C298.297 249.899 300.776 247.42 303.849 247.42L326.08 247.42C329.152 247.42 331.631 249.899 331.631 252.971 331.631 256.044 329.152 258.523 326.08 258.523L303.849 258.523C300.802 258.523 298.297 256.044 298.297 252.971ZM101.259 300.377C101.259 297.305 103.737 294.826 106.81 294.826L271.652 294.826C274.725 294.826 277.204 297.305 277.204 300.377 277.204 303.45 274.725 305.928 271.652 305.928L106.837 305.928C103.765 305.928 101.26 303.45 101.26 300.377ZM559.773 442.597C559.773 445.669 557.295 448.148 554.221 448.148L356.097 448.148C353.025 448.148 350.546 445.669 350.546 442.597 350.546 439.524 353.025 437.046 356.097 437.046L554.221 437.046C557.267 437.02 559.773 439.524 559.773 442.597ZM101.259 252.967C101.259 249.894 103.737 247.416 106.81 247.416L271.652 247.416C274.725 247.416 277.204 249.894 277.204 252.967 277.204 256.039 274.725 258.518 271.652 258.518L106.837 258.518C103.765 258.518 101.26 256.039 101.26 252.967ZM296.099 489.996C296.099 486.923 298.578 484.445 301.651 484.445L323.882 484.445C326.954 484.445 329.433 486.923 329.433 489.996 329.433 493.069 326.954 495.547 323.882 495.547L301.651 495.547C298.578 495.547 296.099 493.069 296.099 489.996ZM298.294 300.366C298.294 297.294 300.773 294.815 303.845 294.815L326.076 294.815C329.149 294.815 331.628 297.294 331.628 300.366 331.628 303.439 329.149 305.917 326.076 305.917L303.845 305.917C300.799 305.917 298.294 303.439 298.294 300.366Z" fill="#FFFFFF" transform="matrix(1.00151 0 0 1 1905 1069)"/></g></g></g></g></svg>