<svg width="754" height="754" xmlns="http://www.w3.org/2000/svg" xmlns:xlink="http://www.w3.org/1999/xlink" xml:space="preserve" overflow="hidden"><defs><clipPath id="clip0"><rect x="1167" y="327" width="493" height="494"/></clipPath><clipPath id="clip1"><rect x="1167" y="327" width="493" height="494"/></clipPath><clipPath id="clip2"><rect x="1167" y="327" width="493" height="494"/></clipPath></defs><g transform="translate(-1037 -198)"><path d="M1037 575C1037 366.789 1205.79 198 1414 198 1622.21 198 1791 366.789 1791 575 1791 783.211 1622.21 952 1414 952 1205.79 952 1037 783.211 1037 575Z" fill="#022C45" fill-rule="evenodd"/><g clip-path="url(#clip0)"><g clip-path="url(#clip1)"><g clip-path="url(#clip2)"><path d="M1585.35 477.321C1626.52 477.321 1660.01 443.829 1660.01 402.661 1660.01 361.491 1626.52 328 1585.35 328 1544.18 328 1510.69 361.492 1510.69 402.661 1510.69 416.249 1514.36 428.988 1520.73 439.974L1461.32 499.385C1447.49 490.558 1431.09 485.439 1413.51 485.439 1395.93 485.439 1379.53 490.56 1365.71 499.385L1306.3 439.974C1312.67 428.988 1316.33 416.249 1316.33 402.662 1316.33 361.493 1282.84 328.002 1241.67 328.002 1200.5 328.002 1167.01 361.494 1167.01 402.662 1167.01 443.831 1200.51 477.323 1241.67 477.323 1255.26 477.323 1268 473.656 1278.99 467.288L1338.4 526.699C1329.57 540.519 1324.45 556.924 1324.45 574.503 1324.45 592.081 1329.57 608.485 1338.4 622.304L1278.99 681.714C1268 675.346 1255.26 671.679 1241.67 671.679 1200.5 671.679 1167.01 705.172 1167.01 746.339 1167.01 787.509 1200.51 821 1241.67 821 1282.84 821 1316.33 787.509 1316.33 746.339 1316.33 732.752 1312.67 720.013 1306.3 709.026L1365.71 649.616C1379.53 658.442 1395.94 663.563 1413.51 663.563 1431.09 663.563 1447.5 658.442 1461.32 649.617L1520.73 709.028C1514.36 720.015 1510.69 732.755 1510.69 746.343 1510.69 787.513 1544.18 821.004 1585.35 821.004 1626.52 821.004 1660.01 787.509 1660.01 746.343 1660.01 705.172 1626.52 671.681 1585.35 671.681 1571.77 671.681 1559.02 675.348 1548.04 681.716L1488.63 622.305C1497.45 608.484 1502.57 592.08 1502.57 574.501 1502.57 556.923 1497.45 540.519 1488.63 526.7L1548.04 467.29C1559.03 473.658 1571.77 477.323 1585.35 477.323ZM1585.35 813.297C1548.43 813.297 1518.39 783.261 1518.39 746.339 1518.39 709.419 1548.43 679.382 1585.35 679.382 1622.27 679.382 1652.31 709.419 1652.31 746.339 1652.31 783.261 1622.27 813.297 1585.35 813.297ZM1525.02 702.429 1467.71 645.118C1473.87 640.379 1479.39 634.857 1484.13 628.697L1541.44 686.009C1535.15 690.599 1529.61 696.141 1525.02 702.429ZM1413.51 655.857C1368.65 655.857 1332.15 619.36 1332.15 574.5 1332.15 529.639 1368.65 493.143 1413.51 493.143 1458.37 493.143 1494.87 529.639 1494.87 574.5 1494.87 619.36 1458.37 655.857 1413.51 655.857ZM1241.67 813.297C1204.75 813.297 1174.71 783.261 1174.71 746.339 1174.71 709.419 1204.75 679.382 1241.67 679.382 1278.59 679.382 1308.63 709.417 1308.63 746.339 1308.63 783.261 1278.59 813.297 1241.67 813.297ZM1285.58 686.008 1342.89 628.697C1347.63 634.856 1353.15 640.38 1359.31 645.118L1302 702.429C1297.41 696.139 1291.87 690.596 1285.58 686.008ZM1241.67 335.703C1278.59 335.703 1308.63 365.74 1308.63 402.661 1308.63 439.581 1278.59 469.618 1241.67 469.618 1204.75 469.618 1174.71 439.581 1174.71 402.661 1174.71 365.742 1204.75 335.703 1241.67 335.703ZM1302 446.571 1359.31 503.882C1353.15 508.621 1347.63 514.143 1342.89 520.302L1285.58 462.995C1291.87 458.404 1297.41 452.861 1302 446.573ZM1467.71 503.882 1525.02 446.571C1529.61 452.858 1535.15 458.401 1541.44 462.99L1484.13 520.301C1479.39 514.143 1473.87 508.621 1467.71 503.882ZM1585.35 335.703C1622.27 335.703 1652.31 365.742 1652.31 402.661 1652.31 439.579 1622.27 469.618 1585.35 469.618 1548.43 469.618 1518.39 439.581 1518.39 402.661 1518.39 365.74 1548.43 335.703 1585.35 335.703Z" fill="#FFFFFF"/><path d="M1444.6 571.719C1445.11 570.675 1445.12 569.459 1444.63 568.405 1444.14 567.352 1443.21 566.575 1442.08 566.289L1426.14 562.264 1426.14 504.542C1426.14 502.75 1424.91 501.195 1423.16 500.791 1421.41 500.384 1419.62 501.24 1418.83 502.849L1382.4 577.284C1381.89 578.326 1381.88 579.544 1382.37 580.597 1382.86 581.649 1383.8 582.426 1384.92 582.71L1400.86 586.737 1400.86 644.459C1400.86 646.251 1402.1 647.806 1403.84 648.211 1404.13 648.278 1404.42 648.31 1404.71 648.31 1406.16 648.31 1407.51 647.493 1408.17 646.152ZM1418.44 521.174 1418.44 565.264C1418.44 567.028 1419.64 568.567 1421.35 568.999L1435.59 572.595 1408.56 627.824 1408.56 583.733C1408.56 581.969 1407.37 580.43 1405.66 579.998L1391.41 576.4Z" fill="#FFFFFF"/><path d="M1554.7 414.254C1554.7 431.15 1568.44 444.897 1585.34 444.897 1602.24 444.897 1615.98 431.152 1615.98 414.254 1615.98 398.832 1591.44 357.703 1588.64 353.065 1587.94 351.909 1586.69 351.203 1585.34 351.203 1583.99 351.203 1582.74 351.909 1582.04 353.065 1579.25 357.704 1554.7 398.836 1554.7 414.254ZM1585.34 437.194C1572.69 437.194 1562.4 426.904 1562.4 414.254 1562.4 404.438 1576.82 377.411 1585.34 362.646 1593.86 377.413 1608.28 404.431 1608.28 414.254 1608.28 426.904 1597.99 437.194 1585.34 437.194Z" fill="#FFFFFF"/><path d="M1625.7 771.905C1625.7 771.897 1625.69 771.889 1625.69 771.885 1625.68 771.844 1625.67 771.803 1625.65 771.766 1625.55 771.404 1625.44 771.051 1625.33 770.693 1629.22 757.349 1628.87 746.45 1624.27 738.302 1620.42 731.493 1613.8 726.827 1604.61 724.42 1604.12 724.189 1603.6 724.072 1603.09 724.056 1600.26 723.411 1597.2 722.961 1593.99 722.745 1588.32 722.352 1582.68 721.626 1577.21 720.586 1561.81 717.677 1552.92 713.443 1550.69 711.306 1550.69 711.302 1550.68 711.301 1550.68 711.299 1550.51 711.142 1550.34 711.003 1550.14 710.877 1550.06 710.823 1549.98 710.779 1549.89 710.734 1549.79 710.677 1549.69 710.624 1549.58 710.576 1549.46 710.526 1549.35 710.479 1549.23 710.441 1549.15 710.413 1549.07 710.394 1548.98 710.371 1548.85 710.338 1548.72 710.301 1548.59 710.282 1548.39 710.252 1548.18 710.233 1547.97 710.232L1547.95 710.234C1547.92 710.235 1547.89 710.242 1547.86 710.243 1547.66 710.252 1547.47 710.274 1547.28 710.311 1547.21 710.325 1547.14 710.346 1547.06 710.365 1546.91 710.404 1546.77 710.45 1546.62 710.507 1546.55 710.535 1546.47 710.566 1546.4 710.601 1546.25 710.672 1546.1 710.754 1545.96 710.844 1545.91 710.876 1545.85 710.904 1545.8 710.941 1545.62 711.074 1545.44 711.224 1545.28 711.389 1545.27 711.4 1545.25 711.408 1545.24 711.42 1545.21 711.452 1545.19 711.489 1545.16 711.521 1545.04 711.652 1544.93 711.791 1544.83 711.938 1544.79 712.004 1544.75 712.071 1544.71 712.14 1544.63 712.277 1544.56 712.416 1544.5 712.562 1544.47 712.633 1544.43 712.7 1544.41 712.772 1544.4 712.793 1544.39 712.813 1544.38 712.834 1542.67 717.786 1541.9 722.804 1542.07 727.757 1542.52 740.505 1549.37 750.788 1560.85 755.965 1565.56 758.101 1571.06 759.408 1577.18 759.847 1604.49 761.819 1613.52 768.323 1618.44 774.576 1619.4 778.142 1620.2 782.135 1620.93 787.077 1621.22 788.992 1622.86 790.368 1624.74 790.368 1624.93 790.368 1625.12 790.352 1625.31 790.327 1627.42 790.015 1628.87 788.055 1628.55 785.952 1627.73 780.41 1626.83 775.948 1625.7 771.905ZM1549.77 727.482C1549.73 726.599 1549.74 725.702 1549.79 724.797 1554.17 730.008 1561.55 735.353 1574.84 739.819 1577.54 740.727 1580.48 741.59 1583.59 742.383 1585.54 742.888 1587.39 743.422 1589.07 743.981L1589.07 743.981 1589.07 743.981C1589.08 743.985 1589.08 743.985 1589.08 743.985 1589.08 743.985 1589.09 743.989 1589.09 743.989 1596.84 746.557 1602.85 749.996 1607.46 754.49 1608.87 755.866 1610.17 757.366 1611.33 758.948 1611.52 759.202 1611.69 759.465 1611.87 759.728 1604.66 756.174 1594.08 753.34 1577.74 752.161 1572.52 751.783 1567.91 750.702 1564.02 748.94 1552.09 743.558 1549.97 733.182 1549.77 727.482ZM1575.78 728.153C1581.54 729.247 1587.49 730.013 1593.46 730.427 1596.61 730.64 1599.56 731.085 1602.22 731.749 1609.56 733.582 1614.72 737.061 1617.56 742.087 1619.95 746.314 1620.78 751.733 1620.07 758.262 1619.28 756.918 1618.45 755.628 1617.55 754.4 1616.14 752.473 1614.56 750.649 1612.84 748.973 1607.37 743.64 1600.39 739.618 1591.5 736.67 1591.5 736.668 1591.5 736.668 1591.49 736.668 1591.49 736.668 1591.49 736.667 1591.49 736.665 1589.65 736.056 1587.64 735.471 1585.5 734.919 1582.57 734.171 1579.81 733.364 1577.3 732.518 1569.62 729.937 1564.32 727.099 1560.6 724.349 1565.12 725.807 1570.28 727.114 1575.78 728.153Z" fill="#FFFFFF"/><path d="M1194.23 406.288 1215.04 413.687 1205.56 433.631C1204.86 435.103 1205.16 436.856 1206.31 438.009 1207.46 439.163 1209.22 439.465 1210.69 438.763L1230.63 429.282 1238.03 450.089C1238.58 451.625 1240.03 452.65 1241.66 452.65 1243.29 452.65 1244.75 451.625 1245.29 450.089L1252.69 429.282 1272.63 438.763C1274.1 439.463 1275.86 439.162 1277.01 438.009 1278.16 436.857 1278.47 435.105 1277.76 433.631L1268.28 413.687 1289.09 406.288C1290.63 405.743 1291.65 404.289 1291.65 402.66 1291.65 401.029 1290.63 399.577 1289.09 399.031L1268.28 391.633 1277.76 371.688C1278.46 370.217 1278.16 368.464 1277.01 367.311 1275.86 366.158 1274.1 365.858 1272.63 366.556L1252.69 376.037 1245.29 355.23C1244.75 353.694 1243.29 352.668 1241.66 352.668 1240.03 352.668 1238.58 353.694 1238.03 355.23L1230.63 376.036 1210.69 366.555C1209.22 365.855 1207.46 366.157 1206.31 367.309 1205.16 368.462 1204.86 370.214 1205.56 371.687L1215.04 391.632 1194.23 399.032C1192.69 399.577 1191.67 401.031 1191.67 402.66 1191.67 404.291 1192.7 405.743 1194.23 406.289ZM1221.64 397.46C1222.66 397.096 1223.49 396.313 1223.91 395.305 1224.32 394.297 1224.29 393.161 1223.82 392.177L1217.16 378.163 1231.18 384.824C1232.16 385.293 1233.3 385.321 1234.3 384.904 1235.31 384.487 1236.1 383.664 1236.46 382.637L1241.66 368.014 1246.86 382.637C1247.22 383.664 1248.01 384.487 1249.02 384.904 1250.02 385.322 1251.16 385.293 1252.14 384.824L1266.16 378.163 1259.49 392.177C1259.03 393.161 1259 394.297 1259.41 395.305 1259.83 396.311 1260.65 397.094 1261.68 397.46L1276.3 402.66 1261.68 407.858C1260.65 408.222 1259.83 409.007 1259.41 410.013 1259 411.019 1259.03 412.157 1259.49 413.141L1266.16 427.155 1252.14 420.494C1251.16 420.025 1250.02 419.996 1249.02 420.414 1248.01 420.831 1247.22 421.654 1246.86 422.681L1241.66 437.305 1236.46 422.681C1236.1 421.654 1235.31 420.831 1234.3 420.414 1233.83 420.218 1233.33 420.121 1232.83 420.121 1232.27 420.121 1231.7 420.245 1231.18 420.494L1217.16 427.155 1223.83 413.141C1224.29 412.157 1224.32 411.019 1223.91 410.013 1223.49 409.007 1222.67 408.224 1221.64 407.858L1207.02 402.66Z" fill="#FFFFFF"/><path d="M1268.06 720.272C1266.98 720.272 1265.9 720.357 1264.84 720.524 1264.87 719.994 1264.88 719.463 1264.88 718.933 1264.88 703.867 1252.63 691.611 1237.56 691.611 1223.39 691.611 1211.7 702.46 1210.37 716.288 1200.91 719.46 1194.32 728.401 1194.32 738.606 1194.32 749.745 1202.09 759.091 1212.5 761.532L1212.5 770.537C1212.5 772.661 1214.23 774.387 1216.35 774.387 1218.48 774.387 1220.2 772.661 1220.2 770.537L1220.2 762.156 1268.07 762.156C1279.61 762.156 1289.01 752.76 1289.01 741.216 1289.01 729.665 1279.61 720.271 1268.07 720.271ZM1268.06 754.449 1217.87 754.449C1209.13 754.449 1202.02 747.342 1202.02 738.605 1202.02 731.034 1207.41 724.496 1214.84 723.059 1216.68 722.705 1217.99 721.084 1217.96 719.216 1217.96 719.103 1217.96 718.994 1217.95 718.861 1217.98 708.077 1226.77 699.313 1237.57 699.313 1248.38 699.313 1257.18 708.115 1257.18 718.932 1257.18 720.991 1256.85 723.04 1256.21 725.02 1255.72 726.524 1256.19 728.172 1257.41 729.182 1258.62 730.189 1260.33 730.355 1261.72 729.596 1263.65 728.535 1265.85 727.975 1268.07 727.975 1275.37 727.975 1281.3 733.913 1281.3 741.212 1281.3 748.512 1275.37 754.449 1268.07 754.449Z" fill="#FFFFFF"/><path d="M1216.35 782.833C1214.22 782.833 1212.5 784.559 1212.5 786.683L1212.5 798.983C1212.5 801.107 1214.22 802.833 1216.35 802.833 1218.48 802.833 1220.2 801.107 1220.2 798.983L1220.2 786.683C1220.2 784.559 1218.48 782.833 1216.35 782.833Z" fill="#FFFFFF"/><path d="M1237.07 766.688C1234.94 766.688 1233.22 768.413 1233.22 770.541L1233.22 782.838C1233.22 784.962 1234.94 786.687 1237.07 786.687 1239.19 786.687 1240.92 784.962 1240.92 782.838L1240.92 770.541C1240.92 768.413 1239.19 766.688 1237.07 766.688Z" fill="#FFFFFF"/><path d="M1260.54 782.833C1258.41 782.833 1256.69 784.559 1256.69 786.683L1256.69 798.983C1256.69 801.107 1258.41 802.833 1260.54 802.833 1262.67 802.833 1264.39 801.107 1264.39 798.983L1264.39 786.683C1264.39 784.559 1262.67 782.833 1260.54 782.833Z" fill="#FFFFFF"/></g></g></g></g></svg>