<svg width="371" height="371" xmlns="http://www.w3.org/2000/svg" xmlns:xlink="http://www.w3.org/1999/xlink" xml:space="preserve" overflow="hidden"><g transform="translate(-20 -782)"><path d="M23.4999 967.5C23.4999 866.984 104.984 785.5 205.5 785.5 306.016 785.5 387.5 866.984 387.5 967.5 387.5 1068.02 306.016 1149.5 205.5 1149.5 104.984 1149.5 23.4999 1068.02 23.4999 967.5Z" stroke="#1E583E" stroke-width="6.875" stroke-miterlimit="8" fill="none" fill-rule="evenodd"/><g><g><g><path d="M168.792 971.125 168.792 998.625 186.208 998.625 186.208 971.125 195.375 971.125 195.375 952.792 209.125 952.792 209.125 939.958 195.375 939.958 195.375 934.458 199.958 934.458 199.958 930.031 228.375 899.24 228.375 916.583 232.042 916.583 232.042 893.667 229.273 893.667C228.704 893.484 228.087 893.523 227.545 893.777L199.954 908.76 199.954 905.666 195.054 898.708 182.542 898.708 182.542 917.042 177.958 917.042 177.958 934.458 182.542 934.458 182.542 939.958 165.583 939.958 165.583 921.625 132.125 921.625 132.125 935.375 126.469 935.375 117.257 857.458 104.817 857.458 96.0678 935.375 95.4582 935.375 95.4582 971.125 104.625 971.125 104.625 998.625 122.042 998.625 122.042 971.125ZM182.542 994.958 172.458 994.958 172.458 971.125 182.542 971.125ZM221.601 901.179 199.958 924.622 199.958 912.93ZM181.625 930.787 181.625 920.708 186.208 920.708 186.208 902.375 193.152 902.375 196.292 906.83 196.292 930.792 181.625 930.792ZM186.208 934.458 191.708 934.458 191.708 939.958 186.208 939.958ZM135.792 925.292 161.917 925.292 161.917 943.625 205.458 943.625 205.458 949.125 149.542 949.125 149.542 935.375 135.792 935.375ZM112.875 888.625 117.247 888.625 120.066 912.458 112.87 912.458ZM109.208 912.458 102.333 912.458 105.01 888.625 109.208 888.625ZM120.497 916.125 122.775 935.375 112.875 935.375 112.875 916.125ZM113.998 861.125 116.812 884.958 105.422 884.958 108.094 861.125ZM101.925 916.125 109.208 916.125 109.208 935.375 99.7574 935.375ZM99.1249 967.458 99.1249 939.042 145.875 939.042 145.875 952.792 191.708 952.792 191.708 967.458 99.1249 967.458ZM118.375 994.958 108.292 994.958 108.292 971.125 118.375 971.125ZM122.5 990.375 150 990.375 150 994.042 122.5 994.042ZM94.9999 990.375 104.167 990.375 104.167 994.042 94.9999 994.042ZM159.167 994.042 159.167 990.375 168.333 990.375 168.333 994.042ZM186.667 990.375 195.833 990.375 195.833 994.042 186.667 994.042ZM122.5 1004.12 131.667 1004.12 131.667 1007.79 122.5 1007.79ZM154.583 1004.12 163.75 1004.12 163.75 1007.79 154.583 1007.79ZM140.833 1008.71 150 1008.71 150 1012.37 140.833 1012.37ZM108.75 949.125 117.917 949.125 117.917 952.792 108.75 952.792ZM136.25 952.792 127.083 952.792 127.083 949.125 136.25 949.125Z" stroke="#1E583E" stroke-width="4.58333" fill="#E97132"/><path d="M309.958 1072.88 309.958 1026.12 311.704 1026.12C313.27 1026.12 314.539 1024.85 314.542 1023.29L314.542 992.03C314.561 979.216 311.817 966.548 306.498 954.891L299.119 938.657C298.688 937.698 297.761 937.059 296.712 936.997 295.671 936.919 294.673 937.433 294.132 938.327L279.36 961.958C278.876 962.739 278.799 963.705 279.154 964.552L285.016 978.472 191.708 1004.56 191.708 1013.47C185.727 1014.49 181.703 1020.17 182.722 1026.15 183.62 1031.43 188.19 1035.29 193.542 1035.29 194.471 1035.28 195.395 1035.15 196.292 1034.9L196.292 1045.38 187.125 1045.38 187.125 1072.88 168.333 1072.88 168.333 1076.54 315 1076.54 315 1072.88ZM296.419 941.585 303.157 956.408C308.261 967.59 310.894 979.742 310.875 992.034L310.875 1022.46 307.511 1022.46 282.701 963.53ZM286.446 981.873 290.415 991.296 203.258 1019.25C201.68 1016.2 198.762 1014.06 195.375 1013.47L195.375 1007.35ZM237.647 1031.62 241.887 1039.71 230.731 1061.01ZM243.958 1043.66 259.262 1072.88 228.65 1072.88ZM246.03 1039.71 250.269 1031.61 257.186 1061.01ZM243.958 1035.75 238.93 1026.16 242.624 1010.47 245.109 1009.67 248.986 1026.15ZM186.208 1024.29C186.208 1020.24 189.491 1016.96 193.542 1016.96 197.592 1016.96 200.875 1020.24 200.875 1024.29 200.875 1028.34 197.592 1031.62 193.542 1031.62 189.494 1031.62 186.213 1028.34 186.208 1024.29ZM190.792 1072.88 190.792 1049.04 205.458 1049.04 205.458 1072.88ZM209.125 1072.88 209.125 1045.38 199.958 1045.38 199.958 1033.18C203.37 1030.88 205.106 1026.79 204.386 1022.73L238.55 1011.78 224.177 1072.88ZM263.74 1072.88 248.61 1008.55 291.84 994.688 304.348 1024.39C304.716 1025.18 305.437 1025.75 306.292 1025.92L306.292 1072.88Z" stroke="#1E583E" stroke-width="4.58333" fill="#E97132"/></g></g></g></g></svg>