<svg width="201" height="200" xmlns="http://www.w3.org/2000/svg" xmlns:xlink="http://www.w3.org/1999/xlink" xml:space="preserve" overflow="hidden"><g transform="translate(-1071 -24)"><path d="M200 100C200 135.727 180.94 168.739 150 186.6 119.06 204.463 80.9389 204.463 50 186.6 19.06 168.737 0 135.724 0 100 0 64.2761 19.06 31.2611 50 13.4 80.94-4.46333 119.061-4.46333 150 13.4 180.94 31.2633 200 64.2761 200 100" fill="#174460" transform="matrix(1.005 0 0 1 1071 24)"/><path d="M128.261 49.265 122.947 49.265C117.024 49.265 112.202 54.0866 112.202 60.01L112.202 61.4861 139.006 61.4861 139.006 60.01C139.006 54.0867 134.185 49.265 128.261 49.265Z" fill="#FFFFFF" transform="matrix(1.005 0 0 1 1071 24)"/><path d="M44.8956 155.106 63.67 155.106 79.06 141.428 44.8956 141.428Z" fill="#FFFFFF" transform="matrix(1.005 0 0 1 1071 24)"/><path d="M44.8956 137.489 83.4889 137.489 92.1283 129.794 44.8961 129.794Z" fill="#FFFFFF" transform="matrix(1.005 0 0 1 1071 24)"/><path d="M143.433 155.106 155.103 155.106 155.103 118.146 148.569 118.146Z" fill="#FFFFFF" transform="matrix(1.005 0 0 1 1071 24)"/><path d="M144.594 118.144 135.955 118.144 118.696 155.104 139.457 155.104Z" fill="#FFFFFF" transform="matrix(1.005 0 0 1 1071 24)"/><path d="M131.628 118.144 123.519 118.144 94.0983 155.104 114.349 155.104Z" fill="#FFFFFF" transform="matrix(1.005 0 0 1 1071 24)"/><path d="M98.6611 129.267 85.7117 140.779C85.6134 140.898 85.4951 140.996 85.3575 141.094L69.6136 155.107 89.0769 155.107 118.498 118.147 118.537 118.108C118.419 118.128 118.281 118.147 118.144 118.147L111.177 118.147 98.7392 129.207C98.7 129.227 98.6802 129.246 98.6605 129.266Z" fill="#FFFFFF" transform="matrix(1.005 0 0 1 1071 24)"/><path d="M44.8956 125.861 96.5561 125.861 105.235 118.147 44.8961 118.147Z" fill="#FFFFFF" transform="matrix(1.005 0 0 1 1071 24)"/><path d="M71.0111 72.6444 60.4083 87.2661C59.7688 88.1468 59.9656 89.3768 60.8463 90.0116 61.7269 90.6511 62.9522 90.4543 63.5917 89.5736L73.9239 75.3258 92.4278 65.6775 109.151 74.3959C109.21 74.4351 109.278 74.4646 109.347 74.4991L110.932 75.3258 121.264 89.5735C121.648 90.105 122.248 90.3854 122.858 90.3854 123.256 90.3854 123.665 90.2623 124.009 90.0115 124.89 89.3719 125.087 88.1419 124.447 87.266L113.844 72.6443C113.667 72.3982 113.431 72.1966 113.16 72.0538L93.3382 61.7172C92.7675 61.422 92.0884 61.422 91.5179 61.7172L71.6956 72.0538C71.425 72.1964 71.1937 72.3982 71.0118 72.6443Z" fill="#FFFFFF" transform="matrix(1.005 0 0 1 1071 24)"/><path d="M94.3889 96.0833 104.642 96.0833 104.642 114.209 94.3889 114.209Z" fill="#FFFFFF" transform="matrix(1.005 0 0 1 1071 24)"/><path d="M80.2222 96.0833 90.4561 96.0833 90.4561 114.209 80.2222 114.209Z" fill="#FFFFFF" transform="matrix(1.005 0 0 1 1071 24)"/><path d="M108.578 94.1167 108.578 114.21 116.174 114.21 116.174 88.2528 108.676 77.9406 92.4206 69.4583 76.165 77.9406 68.6672 88.2728 68.6672 114.211 76.2833 114.211 76.2833 94.1178C76.2833 93.0158 77.1689 92.1497 78.2514 92.1497L106.611 92.1497C107.693 92.1497 108.579 93.0156 108.579 94.1178Z" fill="#FFFFFF" transform="matrix(1.005 0 0 1 1071 24)"/><path d="M125.978 92.7167C125.053 93.3857 123.99 93.7401 122.849 93.7401 121.884 93.7401 120.94 93.4645 120.113 92.9726L120.113 114.207 139.006 114.207 139.006 65.4203 112.202 65.4203 112.202 67.7819 114.701 69.0807C115.429 69.4744 116.079 70.0254 116.551 70.6747L127.159 85.2963C127.986 86.4573 128.32 87.8547 128.104 89.2521 127.887 90.6494 127.12 91.8892 125.979 92.7158Z" fill="#FFFFFF" transform="matrix(1.005 0 0 1 1071 24)"/></g></svg>