<?xml version="1.0" encoding="utf-8"?>
<!-- Generator: Adobe Illustrator 24.2.3, SVG Export Plug-In . SVG Version: 6.00 Build 0)  -->
<svg version="1.1" id="Layer_1" xmlns="http://www.w3.org/2000/svg" xmlns:xlink="http://www.w3.org/1999/xlink" x="0px" y="0px"
	 viewBox="0 0 110 64" style="enable-background:new 0 0 110 64;" xml:space="preserve">
<style type="text/css">
	.st0{fill:#231F20;}
</style>
<desc>Created with sketchtool.</desc>
<g id="Designs">
	<g id="Homepage-Redesign-v2.1" transform="translate(-180.000000, -224.000000)">
		<g id="farmers-logo-white" transform="translate(180.000000, 224.000000)">
			<path id="Shape" class="st0" d="M82.2,44.4c-0.1-0.1-0.2-0.2-0.4-0.3c-2.3-0.5-4.6-0.8-7-0.8c-3.9,0-7.7,0.7-11.3,2.2
				c-3.2,1.3-6.2,3.2-8.8,5.6c-0.9-0.8-1.8-1.6-2.8-2.3c-2.4-1.7-5.1-3.1-8-4c-3-0.9-6.1-1.4-9.3-1.4c-2.3,0-4.7,0.3-7,0.8
				c-0.2,0-0.3,0.1-0.4,0.3c-0.1,0.1-0.1,0.3,0,0.4c0.9,2.8,2.2,5.4,4,7.7c1.8,2.3,3.9,4.4,6.3,6.1c2.4,1.7,5.1,3.1,8,4
				c0.8,0.3,1.6,0.5,2.5,0.7l0.3,0.1l0.3,0.1l0.2,0l0.3,0.1h0.2l0.7,0.1h0.1l0.3,0h0.2l0.3,0H51l0.6,0.1h0.2h0.3h0.2h0.3h0.3h0.3
				h0.4h0.2h0.4h1.4h0.4h0.2h0.4h0.3h0.3h0.3h0.2h0.3h0.2l0.6-0.1h0.2l0.3,0h0.2l0.3,0h0.1l0.7-0.1h0.2l0.3-0.1l0.2,0l0.3-0.1
				l0.3-0.1c0.8-0.2,1.7-0.4,2.5-0.7c2.9-0.9,5.6-2.3,8-4c2.4-1.7,4.5-3.8,6.3-6.1c1.7-2.3,3.1-4.9,4-7.7
				C82.4,44.7,82.4,44.5,82.2,44.4 M60.6,62.4l-0.4,0.1l-0.2,0l-0.3,0h-0.2l-0.5,0.1h-0.2l-0.3,0h-0.2L58,62.7h-0.2h-0.3h-0.3h-0.3
				h-0.3h-0.2H56h-0.1h-0.4h-1.3h-0.3h-0.1h-0.4H53h-0.3h-0.3h-0.2h-0.3h-0.2l-0.6-0.1H51l-0.3,0h-0.2l-0.3,0h-0.1l-0.6-0.1h-0.2
				l-0.3-0.1l-0.2,0l-0.3-0.1l-0.2-0.1l-0.2,0l0,0c-0.7-0.2-1.5-0.4-2.2-0.6c-2.7-0.9-5.3-2.2-7.7-3.8c-2.3-1.6-4.3-3.6-6-5.8
				c-1.5-2.1-2.8-4.4-3.6-6.8c2-0.4,4-0.6,6-0.6c3,0,6,0.5,8.9,1.4c2.7,0.9,5.3,2.2,7.7,3.8c2.3,1.6,4.3,3.6,6,5.8
				c1.1,1.5,2,3.1,2.8,4.7c0,0,0,0.1,0,0.1c0,0.1,0.1,0.2,0.1,0.2c0.3,0.6,0.5,1.2,0.7,1.7L60.6,62.4 M77.3,51.9
				c-1.7,2.2-3.7,4.2-6,5.8c-2.3,1.7-4.9,3-7.7,3.8c-0.5,0.2-1.1,0.3-1.6,0.5c-0.2-0.5-0.4-1-0.6-1.5c3.6-0.9,6.9-2.5,9.9-4.8
				c3-2.4,5.4-5.4,7.1-8.8c0.1-0.2,0.1-0.4,0-0.5c-0.1-0.2-0.3-0.3-0.5-0.3c-1-0.1-2-0.2-3-0.2c-3.5,0-7,0.7-10.3,2
				c-2.9,1.2-5.6,2.9-7.9,5c-0.4-0.4-0.7-0.8-1.1-1.2c2.4-2.3,5.3-4.1,8.4-5.3c3.4-1.4,7.1-2.1,10.8-2.1c2,0,4.1,0.2,6,0.6
				C80.1,47.5,78.9,49.8,77.3,51.9"/>
			<path id="Path" class="st0" d="M49,50c-4.3-2.6-9.2-4-14.2-4c-1,0-2,0.1-3,0.2c-0.2,0-0.4,0.1-0.5,0.3c-0.1,0.2-0.1,0.4,0,0.5
				c2.1,4.3,5.3,7.9,9.4,10.4c3.4,2.1,7.2,3.4,11.2,3.9l0,0h0.1h0.2h0.3h0.2h0.3h0.2h0.3h1.5c1,0,2-0.1,3-0.2c0.2,0,0.4-0.1,0.5-0.3
				c0.1-0.2,0.1-0.4,0-0.5c-2.1-4.3-5.3-7.9-9.4-10.4"/>
			<path id="Path_1_" class="st0" d="M54.9,8.9L54.9,8.9c-0.2,0-0.3,0-0.5-0.2c-0.1-0.1-0.2-0.3-0.2-0.5l0.1-7.7
				c0-0.2,0.1-0.3,0.2-0.4S54.9,0,55,0l0,0c0.2,0,0.3,0,0.5,0.2s0.2,0.3,0.2,0.5l-0.1,7.7c0,0.2-0.1,0.3-0.2,0.4
				C55.3,8.9,55.1,8.9,54.9,8.9"/>
			<path id="Path_2_" class="st0" d="M46.8,10.1c-0.3,0-0.5-0.2-0.6-0.4l-2.8-7.3c-0.1-0.2,0-0.3,0-0.5c0.1-0.1,0.2-0.3,0.4-0.3
				c0.3-0.1,0.7,0,0.8,0.4l2.8,7.3c0.1,0.2,0,0.3,0,0.5c-0.1,0.1-0.2,0.3-0.4,0.3C47,10.1,46.9,10.1,46.8,10.1"/>
			<path id="Path_3_" class="st0" d="M39.7,13.8c-0.2,0-0.4-0.1-0.5-0.2l-5.3-6c-0.1-0.1-0.2-0.3-0.1-0.4c0-0.2,0.1-0.3,0.2-0.4
				c0.3-0.2,0.7-0.2,0.9,0.1l5.3,6c0.1,0.1,0.2,0.3,0.1,0.4c0,0.2-0.1,0.3-0.2,0.4C40,13.8,39.8,13.8,39.7,13.8"/>
			<path id="Path_4_" class="st0" d="M34.4,19.5c-0.1,0-0.2,0-0.3-0.1l-7.2-3.9c-0.1-0.1-0.3-0.2-0.3-0.4c0-0.2,0-0.3,0.1-0.5
				c0.2-0.3,0.6-0.4,0.9-0.2l7.2,3.9c0.1,0.1,0.3,0.2,0.3,0.4c0,0.2,0,0.3-0.1,0.5C34.8,19.4,34.6,19.5,34.4,19.5"/>
			<path id="Path_5_" class="st0" d="M75.2,19.9c-0.2,0-0.4-0.1-0.6-0.3c-0.1-0.1-0.1-0.3-0.1-0.5c0-0.2,0.2-0.3,0.3-0.4l7.3-3.8
				c0.3-0.2,0.7-0.1,0.9,0.2c0.1,0.1,0.1,0.3,0.1,0.5c0,0.2-0.2,0.3-0.3,0.4l-7.3,3.8C75.4,19.9,75.3,19.9,75.2,19.9"/>
			<path id="Path_6_" class="st0" d="M70,14.1c-0.2,0-0.3-0.1-0.4-0.1c-0.1-0.1-0.2-0.2-0.2-0.4c0-0.2,0-0.3,0.2-0.4L75,7.3
				C75.2,7,75.6,7,75.9,7.2c0.1,0.1,0.2,0.2,0.2,0.4s0,0.3-0.2,0.4l-5.5,5.8C70.4,14,70.2,14.1,70,14.1"/>
			<path id="Path_7_" class="st0" d="M62.9,10.3c-0.1,0-0.2,0-0.2,0c-0.2,0-0.3-0.2-0.4-0.3c-0.1-0.1-0.1-0.3,0-0.5l3-7.2
				c0.2-0.3,0.5-0.5,0.9-0.4c0.2,0,0.3,0.2,0.4,0.3s0.1,0.3,0,0.5l-3,7.2C63.5,10.2,63.2,10.3,62.9,10.3"/>
			<path id="Path_8_" class="st0" d="M58.7,9.2h-0.1c-0.2,0-0.3-0.1-0.4-0.2C58.1,8.9,58,8.7,58,8.5L59.5,1c0.1-0.3,0.4-0.5,0.8-0.5
				c0.2,0,0.3,0.1,0.4,0.2s0.1,0.3,0.1,0.5l-1.4,7.6C59.3,9,59,9.2,58.7,9.2"/>
			<path id="Path_9_" class="st0" d="M50.5,9.2c-0.3,0-0.6-0.2-0.7-0.5l-1.5-7.6c0-0.2,0-0.3,0.1-0.5s0.2-0.2,0.4-0.2
				c0.3-0.1,0.7,0.2,0.8,0.5l1.5,7.6c0,0.3-0.2,0.7-0.5,0.7H50.5"/>
			<path id="Path_10_" class="st0" d="M42.8,11.8c-0.2,0-0.4-0.1-0.6-0.3l-4.2-6.7C38,4.7,38,4.6,38,4.4c0-0.2,0.2-0.3,0.3-0.4
				C38.6,3.9,39,4,39.2,4.3l4.2,6.7c0.1,0.1,0.1,0.3,0.1,0.5c0,0.2-0.2,0.3-0.3,0.4C43,11.8,42.9,11.8,42.8,11.8"/>
			<path id="Path_11_" class="st0" d="M36.6,16.7c-0.2,0-0.3,0-0.4-0.1l-6.4-4.9c-0.1-0.1-0.2-0.2-0.2-0.4s0-0.3,0.2-0.4
				c0.2-0.3,0.6-0.3,0.9-0.1l6.4,5c0.1,0.1,0.2,0.2,0.2,0.4c0,0.2,0,0.3-0.1,0.4C36.9,16.6,36.7,16.7,36.6,16.7"/>
			<path id="Path_12_" class="st0" d="M72.7,16.6c-0.2,0-0.4-0.1-0.5-0.2c-0.1-0.1-0.2-0.3-0.2-0.4c0-0.2,0.1-0.3,0.2-0.4l6.5-5
				c0.3-0.2,0.7-0.2,0.9,0.1c0.1,0.1,0.2,0.3,0.2,0.4s-0.1,0.3-0.2,0.4l-6.4,5C73,16.6,72.9,16.6,72.7,16.6"/>
			<path id="Path_13_" class="st0" d="M66.4,11.8c-0.1,0-0.2,0-0.3-0.1c-0.1-0.1-0.3-0.2-0.3-0.4c0-0.2,0-0.3,0.1-0.5L70,4.2
				c0.2-0.3,0.6-0.4,0.9-0.2C71,4,71.2,4.2,71.2,4.3s0,0.3-0.1,0.5L67,11.5C66.8,11.7,66.6,11.8,66.4,11.8"/>
			<path id="Path_14_" class="st0" d="M48.6,21.6c-0.2,0-0.4-0.1-0.5-0.3c-0.1-0.1-0.1-0.3-0.1-0.5c0-0.2,0.1-0.3,0.3-0.4
				c1.9-1.2,4.2-1.9,6.4-1.9c0.2,0,0.5,0.1,0.6,0.3c0.1,0.2,0.1,0.5,0,0.6c-0.1,0.2-0.4,0.3-0.6,0.3c-2,0-4,0.6-5.7,1.7
				C48.9,21.6,48.7,21.6,48.6,21.6"/>
			<path id="Path_15_" class="st0" d="M42.6,21.1c-0.2,0-0.3-0.1-0.4-0.1c-0.1-0.1-0.2-0.2-0.2-0.4c0-0.2,0-0.3,0.2-0.4
				c3.3-3.4,7.8-5.3,12.5-5.3c0.2,0,0.5,0.1,0.6,0.3c0.1,0.2,0.1,0.5,0,0.6c-0.1,0.2-0.4,0.3-0.6,0.3c-4.3,0-8.5,1.7-11.5,4.9
				C43,21,42.8,21.1,42.6,21.1"/>
			<path id="Path_16_" class="st0" d="M37.6,20.7c-0.1,0-0.2,0-0.4-0.1c-0.1-0.1-0.3-0.2-0.3-0.4s0-0.3,0.1-0.5
				c1.9-2.7,4.4-5,7.4-6.5c3.2-1.6,6.7-2.5,10.2-2.5c0.2,0,0.5,0.1,0.6,0.3c0.1,0.2,0.1,0.5,0,0.6c-0.1,0.2-0.4,0.3-0.6,0.3
				c-3.3,0-6.6,0.8-9.6,2.3c-2.8,1.4-5.2,3.5-7,6.1C38,20.6,37.8,20.7,37.6,20.7"/>
			<path id="Path_17_" class="st0" d="M60.7,21.6c-0.1,0-0.3,0-0.4-0.1c-1.7-1.1-3.7-1.7-5.7-1.7c-0.2,0-0.5-0.1-0.6-0.3
				c-0.1-0.2-0.1-0.5,0-0.6c0.1-0.2,0.4-0.3,0.6-0.3c2.3,0,4.5,0.7,6.4,1.9c0.1,0.1,0.2,0.2,0.3,0.4c0,0.2,0,0.3-0.1,0.5
				C61.1,21.5,60.9,21.6,60.7,21.6"/>
			<path id="Path_18_" class="st0" d="M66.7,21.1c-0.2,0-0.4-0.1-0.5-0.2c-3-3.1-7.2-4.9-11.5-4.9c-0.2,0-0.5-0.1-0.6-0.3
				s-0.1-0.5,0-0.6s0.4-0.3,0.6-0.3c4.7,0,9.3,1.9,12.5,5.3c0.1,0.1,0.2,0.3,0.2,0.4c0,0.2-0.1,0.3-0.2,0.4
				C67,21.1,66.8,21.1,66.7,21.1"/>
			<path id="Path_19_" class="st0" d="M71.7,20.7c-0.2,0-0.4-0.1-0.6-0.3c-1.8-2.6-4.2-4.7-7-6.1c-3-1.5-6.2-2.3-9.6-2.3
				c-0.2,0-0.5-0.1-0.6-0.3s-0.1-0.5,0-0.6s0.4-0.3,0.6-0.3c3.6,0,7.1,0.8,10.2,2.5c3,1.5,5.5,3.8,7.4,6.5c0.1,0.1,0.1,0.3,0.1,0.5
				s-0.1,0.3-0.3,0.4C72,20.7,71.8,20.7,71.7,20.7"/>
			<polygon id="Path_20_" class="st0" points="7.3,31.2 3.4,31.2 3.4,29.3 8,29.3 8,26.4 0,26.4 0,38.5 3.4,38.5 3.4,34.1 7.3,34.1 
							"/>
			<path id="Shape_1_" class="st0" d="M10.7,26.4L6.9,38.5h3.5l0.7-2.7h2.9l0.7,2.7h3.6l-3.8-12.2H10.7z M12.5,30.3
				c0,0.1,0.1,0.3,0.1,0.4c0.1,0.6,0.3,1.3,0.5,1.8l0.1,0.5h-1.4l0.1-0.5c0.2-0.6,0.3-1.2,0.5-1.8C12.4,30.5,12.4,30.4,12.5,30.3
				L12.5,30.3z"/>
			<path id="Shape_2_" class="st0" d="M27.1,32.6c0.7-1.3,0.8-2.8,0.2-4.2c-0.2-0.5-0.6-0.9-1.1-1.2c-0.5-0.3-1-0.5-1.5-0.6
				c-0.6-0.1-1.2-0.2-1.8-0.2h-4.5v12.2h3.4v-4.1h0.8l2.2,4.1h3.8l-2.7-4.8C26.3,33.5,26.8,33.1,27.1,32.6 M24.4,30.3
				c0,0.4-0.1,0.7-0.4,1c-0.4,0.3-0.8,0.4-1.3,0.3h-0.9v-2.4h0.9c0.5,0,0.9,0.1,1.3,0.3C24.2,29.5,24.4,29.7,24.4,30.3"/>
			<path id="Path_21_" class="st0" d="M35.3,31.8l-0.3,1l-0.3-1l-2-5.4h-3.4v12.2h3.1V34c0-0.3,0-0.6,0-0.9l1.8,4.5h1.6l1.8-4.5l0,0
				c0,0.3,0,0.7,0,1v4.6h3.2V26.4h-3.5L35.3,31.8z"/>
			<polygon id="Path_22_" class="st0" points="45.8,33.8 49.7,33.8 49.7,30.8 45.8,30.8 45.8,29.3 50.4,29.3 50.4,26.4 42.5,26.4 
				42.5,38.5 50.6,38.5 50.6,35.6 45.8,35.6 			"/>
			<path id="Shape_3_" class="st0" d="M60.7,32.6c0.7-1.3,0.8-2.8,0.2-4.2c-0.2-0.5-0.6-0.9-1.1-1.2c-0.5-0.3-1-0.5-1.5-0.6
				c-0.6-0.1-1.2-0.2-1.8-0.2H52v12.2h3.4v-4.1h0.8l2.2,4.1h3.8l-2.7-4.8C59.9,33.5,60.4,33.1,60.7,32.6 M58,30.3
				c0,0.4-0.1,0.7-0.4,1c-0.4,0.3-0.8,0.4-1.3,0.3h-0.9v-2.4h0.9c0.5,0,0.9,0.1,1.3,0.3C57.8,29.5,58,29.7,58,30.3"/>
			<path id="Path_23_" class="st0" d="M68.6,31.4l-1.5-0.6l-0.7-0.3c-0.2-0.1-0.3-0.1-0.5-0.2c-0.1-0.1-0.2-0.1-0.3-0.2
				c0-0.1-0.1-0.1-0.1-0.2c0-0.2,0.1-0.3,0.2-0.4c0.2-0.1,0.5-0.2,0.8-0.2c0.4,0,0.7,0.1,1.1,0.2c0.4,0.2,0.7,0.4,1,0.6l0.3,0.2
				l1.8-2.2l-0.3-0.3c-0.5-0.5-1.1-0.9-1.8-1.2c-0.7-0.3-1.4-0.4-2.1-0.4c-0.6,0-1.2,0.1-1.8,0.3c-0.5,0.2-1,0.4-1.4,0.8
				c-0.4,0.3-0.7,0.7-0.9,1.2c-0.2,0.5-0.3,1-0.3,1.5c0,0.4,0.1,0.9,0.2,1.3c0.1,0.4,0.3,0.7,0.6,1c0.2,0.3,0.5,0.5,0.8,0.7
				c0.3,0.2,0.6,0.4,0.9,0.5l1.5,0.6l0.7,0.3c0.2,0.1,0.3,0.1,0.5,0.2c0.1,0.1,0.2,0.1,0.2,0.2c0,0.1,0.1,0.2,0.1,0.3
				c0,0.2-0.1,0.4-0.2,0.5c-0.3,0.2-0.6,0.2-1,0.2c-0.4,0-0.9-0.1-1.3-0.3c-0.5-0.2-0.9-0.5-1.3-0.8l-0.3-0.3l-2,2.4L62,37
				c0.6,0.6,1.3,1,2.1,1.3c0.8,0.3,1.6,0.4,2.4,0.4c0.7,0,1.3-0.1,1.9-0.3c0.5-0.2,1-0.5,1.5-0.8c0.4-0.3,0.7-0.8,0.9-1.3
				c0.2-0.5,0.3-1,0.3-1.5c0-0.8-0.2-1.6-0.7-2.2C70,32,69.3,31.6,68.6,31.4"/>
			<path id="Path_24_" class="st0" d="M73.9,34.7c-0.5,0-1,0.2-1.4,0.6c-0.4,0.4-0.6,0.9-0.6,1.4c0,0.5,0.2,1,0.6,1.4
				c0.4,0.4,0.9,0.6,1.4,0.6c0.5,0,1-0.2,1.4-0.6c0.4-0.4,0.6-0.9,0.6-1.4c0-0.5-0.2-1-0.6-1.4C75,34.9,74.5,34.7,73.9,34.7"/>
			<path id="Path_25_" class="st0" d="M82.1,34.2H84v1.3c-0.1,0-0.2,0.1-0.3,0.1c-0.2,0.1-0.4,0.1-0.6,0.1c-0.8,0.1-1.6-0.2-2.1-0.8
				c-0.5-0.7-0.8-1.6-0.7-2.5c0-0.5,0.1-0.9,0.2-1.4c0.1-0.4,0.3-0.7,0.5-1c0.2-0.3,0.5-0.5,0.8-0.6c0.3-0.1,0.7-0.2,1.1-0.2
				c0.3,0,0.7,0,1,0.2c0.3,0.1,0.6,0.3,0.8,0.6l0.3,0.3L87,28l-0.3-0.3c-0.5-0.4-1-0.8-1.5-1.1c-0.7-0.3-1.5-0.5-2.3-0.5
				c-0.8,0-1.6,0.1-2.3,0.4c-0.7,0.3-1.4,0.7-1.9,1.3c-0.6,0.6-1,1.3-1.3,2c-0.3,0.8-0.5,1.8-0.5,2.7c0,0.9,0.1,1.8,0.5,2.7
				c0.5,1.5,1.7,2.6,3.2,3.2c0.7,0.3,1.5,0.4,2.3,0.4c0.8,0,1.6-0.1,2.3-0.4c0.6-0.2,1.2-0.6,1.7-1.1l0.1-0.1v-5.8h-4.9V34.2z"/>
			<path id="Shape_4_" class="st0" d="M97.7,27.8c-0.5-0.5-1.1-0.9-1.8-1.2c-1.4-0.6-3.1-0.6-4.5,0c-0.7,0.3-1.3,0.7-1.8,1.2
				c-0.5,0.6-0.9,1.2-1.2,1.9c-0.5,1.7-0.5,3.5,0,5.2c0.2,0.8,0.6,1.4,1.2,2c0.5,0.6,1.1,1,1.8,1.3c1.4,0.6,3.1,0.6,4.5,0
				c0.7-0.3,1.3-0.7,1.8-1.3c0.5-0.6,0.9-1.3,1.1-2c0.5-1.7,0.5-3.5,0-5.2C98.6,29.1,98.2,28.4,97.7,27.8 M95.8,32.4
				c0,0.9-0.2,1.7-0.6,2.5c-0.3,0.5-0.9,0.8-1.5,0.8c-0.6,0-1.2-0.3-1.5-0.8c-0.4-0.8-0.7-1.6-0.6-2.5c-0.1-0.9,0.2-1.7,0.6-2.4
				c0.3-0.5,0.9-0.8,1.5-0.8c0.6,0,1.2,0.3,1.5,0.8C95.6,30.7,95.8,31.6,95.8,32.4"/>
			<path id="Path_26_" class="st0" d="M106.3,26.4l-1.4,5.6c-0.2,0.6-0.3,1.2-0.5,1.8c0,0.1-0.1,0.3-0.1,0.5l-0.1-0.5
				c-0.1-0.6-0.3-1.2-0.5-1.8l-1.4-5.6h-3.6l3.7,12.2h3.7l3.7-12.2L106.3,26.4z"/>
		</g>
	</g>
</g>
</svg>
