<?xml version="1.0" encoding="UTF-8"?>
<svg width="201pt" height="201pt" version="1.1" viewBox="0 0 201 201" xmlns="http://www.w3.org/2000/svg">
 <defs>
  <clipPath id="a">
   <path d="m226 222.14h748v755.71h-748z"/>
  </clipPath>
 </defs>
 <path d="m1200 600c0 214.36-114.36 412.44-300 519.62-185.64 107.18-414.36 107.18-600 0-185.64-107.18-300-305.26-300-519.62s114.36-412.44 300-519.62c185.64-107.18 414.36-107.18 600 0 185.64 107.18 300 305.26 300 519.62z" fill="#174460"/>
 <g clip-path="url(#a)">
  <path d="m371 395.85v-150.8c0-6.3242 5.1289-11.453 11.453-11.453h68.699c6.3242 0 11.449 5.1289 11.449 11.453v78.832l123.25-96.84c8.3047-6.5273 19.996-6.5273 28.297 0l311.61 244.83c4.9727 3.9102 5.8359 11.105 1.9297 16.078l-14.148 18.008c-3.9102 4.9727-11.105 5.8359-16.078 1.9297l-297.46-233.71-297.45 233.71c-4.9727 3.9062-12.172 3.043-16.078-1.9297l-14.148-18.008c-3.9062-4.9727-3.043-12.168 1.9297-16.078zm-45.801 137.92 274.8-215.92 274.81 215.92v237.02c-78.777 23.137-161.36 13.973-250.43-27.945-102.71-48.332-203.09-62.551-299.18-42.348zm-86.133 385.64-10.785-20.223c-2.9766-5.5781-0.86328-12.516 4.7148-15.492 0.074218-0.039062 0.15234-0.078124 0.22656-0.11328 0.82422-0.41797 1.5664-0.78906 2.2344-1.1211 117.45-58.008 242.89-55.859 374.3 5.9766 117.67 55.375 227.27 57.949 330.77 8.1758 1.4219-0.68359 3.1406-1.5352 5.1562-2.5508 5.5547-2.8008 12.328-0.65234 15.258 4.8359l10.789 20.23c2.9766 5.5781 0.86328 12.516-4.7148 15.492-0.078125 0.039062-0.15234 0.078125-0.23047 0.11719-0.63281 0.32031-1.2109 0.60938-1.7383 0.87109-117.6 58.258-243.21 56.191-374.79-5.7305-118.17-55.609-228.21-57.973-332.09-7.5352-1.0859 0.52734-2.3672 1.1602-3.8359 1.9023-5.5547 2.8008-12.328 0.65234-15.258-4.8359zm0-103.05-10.781-20.215c-2.9727-5.5781-0.86328-12.516 4.7148-15.492 0.074218-0.035156 0.14844-0.074219 0.21875-0.11328 1.6758-0.84766 3.1289-1.5703 4.3516-2.1641 116.84-56.945 241.57-54.457 372.19 7.0117 117.81 55.438 227.54 57.953 331.14 7.9961 1.3281-0.64062 2.9219-1.4297 4.7852-2.3711 5.5547-2.8008 12.332-0.65234 15.258 4.8359l10.777 20.207c2.9766 5.582 0.86719 12.516-4.7148 15.492-0.070312 0.039063-0.14453 0.078125-0.21875 0.11328-2.4414 1.2383-4.5039 2.2578-6.1875 3.0703-116.31 56.023-240.41 53.238-370.34-7.9023-118.18-55.617-228.23-57.973-332.13-7.5195-1.0781 0.52344-2.3438 1.1523-3.8008 1.8867-5.5547 2.8008-12.328 0.65234-15.258-4.8359z" fill="#fff"/>
 </g>
</svg>
