<svg width="1078" height="1153" xmlns="http://www.w3.org/2000/svg" xmlns:xlink="http://www.w3.org/1999/xlink" xml:space="preserve" overflow="hidden"><g transform="translate(-1947 -671)"><g><g><g><path d="M244.297 29.9602 242.905 215.728C242.905 293.01 197.049 322.897 135.444 322.897 82.3357 322.897 14.6505 299.309 14.6505 218.878L14.6505 29.9602C14.234 20.8515 8.49263 12.8422-4.87959e-15 9.52281L87.0971 9.52281C78.7605 12.9306 73.2374 20.9564 73.0326 29.9602L73.0326 220.416C73.0326 252.208 83.9472 297.185 142.989 297.185 197.049 297.185 216.241 261.731 216.241 216.607L215.655 29.9602C215.943 21.337 211.158 13.3431 203.422 9.52281L256.09 9.52281C248.525 13.4681 243.927 21.4359 244.297 29.9602Z" fill="#004785" transform="matrix(1.0009 0 0 1 1947 672.577)"/><path d="M367.287 322.897C336.905 322.542 307.036 315.013 280.117 300.921L277.846 224.152C286.49 256.383 313.74 299.089 360.988 299.089 405.965 299.089 419.59 266.858 419.59 244.59 419.59 200.638 380.107 195.071 339.012 172.802 297.917 150.534 279.092 125.115 279.092 90.6132 278.725 29.301 336.448 4.54165 377.763 4.54165 401.643 4.46165 425.181 10.2204 446.327 21.3164L448.598 88.5621C442.225 64.4621 416.367 28.1289 372.781 28.1289 338.28 28.1289 324.655 52.229 324.655 72.0803 324.655 99.7697 344.213 110.245 386.846 129.73 429.479 149.215 473.137 164.378 473.137 227.522 473.137 284.293 423.179 322.897 367.287 322.897Z" fill="#004785" transform="matrix(1.0009 0 0 1 1947 672.577)"/><path d="M619.788 318.355 503.097 318.355C510.562 314.305 515.119 306.407 514.891 297.917L514.891 29.9602C515.261 21.4359 510.663 13.4681 503.097 9.52281L623.891 9.52281C773.325 9.52281 803.286 115.373 803.286 159.397 803.286 238.436 742.413 318.355 619.788 318.355ZM614.368 32.231C603.453 32.231 579.426 32.231 572.614 33.1101L572.614 294.768 609.24 294.768C711.793 294.768 740.508 225.764 740.508 159.397 740.142 104.897 708.351 32.231 614.368 32.231Z" fill="#004785" transform="matrix(1.0009 0 0 1 1947 672.577)"/><path d="M979.824 318.355C991.617 311.982 993.888 305.609 990.738 296.379 989.347 291.837 977.553 264.148 964.88 233.236L853.317 233.236C843.791 253.695 835.307 274.623 827.898 295.94 823.796 306.854 826.067 313.227 838.373 318.648L775.669 318.648C784.749 313.536 792.153 305.903 796.986 296.672 805.923 278.872 925.324 0 925.324 0 925.324 0 1046.12 278.872 1054.32 296.086 1058.55 306.218 1066.76 314.164 1077.03 318.062ZM908.036 98.0849C908.036 98.0849 877.124 175.293 862.62 209.355L954.405 209.355C933.089 158.958 908.11 98.0849 908.11 98.0849Z" fill="#004785" transform="matrix(1.0009 0 0 1 1947 672.577)"/><path d="M1063.4 362.013C1063.4 362.013 402.449 345.605 10.9146 554.228 10.9146 554.228 425.743 390.142 1063.26 406.551Z" fill="#005941" transform="matrix(1.0009 0 0 1 1947 672.577)"/><path d="M10.9146 362.013C10.9146 362.013 233.529 364.357 371.829 415.927 371.829 415.927 88.2691 392.486 10.9146 404.207Z" fill="#005941" transform="matrix(1.0009 0 0 1 1947 672.577)"/><path d="M10.9146 434.68C10.9146 434.68 170.312 427.354 266.346 437.024 266.346 437.024 34.3554 465.153 10.9146 476.873Z" fill="#005941" transform="matrix(1.0009 0 0 1 1947 672.577)"/><path d="M953.893 441.858 950.523 441.858C758.089 445.594 355.201 468.815 10.9146 590.341L10.9146 736.846 1063.26 736.846 1063.26 441.858C1063.26 441.858 1022.68 440.613 953.893 441.858Z" fill="#005941" transform="matrix(1.0009 0 0 1 1947 672.577)"/></g></g></g><text fill="#5E6469" font-family="Aptos,Aptos_MSFontService,sans-serif" font-weight="700" font-size="220" transform="matrix(1 0 0 1 2222.29 1631)">FPAC</text></g></svg>