<svg width="314" height="314" xmlns="http://www.w3.org/2000/svg" xmlns:xlink="http://www.w3.org/1999/xlink" xml:space="preserve" overflow="hidden"><defs><clipPath id="clip0"><rect x="893" y="139" width="314" height="314"/></clipPath></defs><g clip-path="url(#clip0)" transform="translate(-893 -139)"><path d="M1207 296C1207 352.091 1177.08 403.922 1128.5 431.967 1079.92 460.013 1020.08 460.013 971.5 431.967 922.924 403.922 893 352.091 893 296 893 239.909 922.924 188.078 971.5 160.033 1020.08 131.987 1079.92 131.987 1128.5 160.033 1177.08 188.078 1207 239.909 1207 296Z" fill="#FFFFFF"/><path d="M1112.86 324.14C1111.3 324.14 1109.71 324.287 1108.12 324.587 1107.89 323.992 1107.64 323.428 1107.38 322.857 1111.67 313.148 1113.87 302.789 1113.87 292.019 1113.87 287.392 1113.44 282.873 1112.64 278.471 1112.64 278.448 1112.64 278.425 1112.63 278.402 1106.18 242.747 1074.93 215.602 1037.44 215.602 999.948 215.602 968.694 242.752 962.255 278.417 962.246 278.441 962.246 278.456 962.246 278.471 961.451 282.875 961.018 287.401 961.018 292.028 961.018 304.171 963.891 315.689 968.974 325.932 969.035 326.149 969.144 326.349 969.267 326.534 978.969 345.661 996.489 360.229 1017.72 365.889 1017.78 365.913 1017.83 365.92 1017.89 365.935 1022.37 367.117 1027.02 367.889 1031.78 368.237 1035.78 373.203 1041.91 376.402 1048.77 376.402L1112.86 376.402C1127.27 376.402 1139 364.676 1139 350.27 1139 335.856 1127.27 324.138 1112.86 324.138ZM1104.63 318.246C1099.55 311.271 1091.39 306.961 1082.35 306.961 1078.15 306.961 1074.18 307.934 1070.61 309.618 1071.06 303.872 1071.3 297.977 1071.3 292.029 1071.3 291.906 1071.29 291.782 1071.29 291.658 1084.35 289.588 1097 286.29 1108.8 281.794 1109.28 285.138 1109.54 288.553 1109.54 292.028 1109.54 301.127 1107.89 309.926 1104.63 318.245ZM1054.9 331.703C1040.36 332.714 1025.74 332.444 1011.41 330.923 1009.11 318.525 1007.9 305.525 1007.89 292.293 1017.61 293.629 1027.52 294.301 1037.43 294.301 1047.34 294.301 1057.25 293.63 1066.97 292.293 1066.97 299.098 1066.65 305.834 1066.04 312.338 1059.92 316.826 1055.73 323.762 1054.89 331.703ZM983.291 244.486C990.861 246.781 999.08 248.549 1007.66 249.77 1005.26 261.804 1003.9 274.427 1003.63 287.295 990.806 285.217 978.385 281.934 966.815 277.454 969.379 264.987 975.18 253.701 983.291 244.487ZM986.59 240.949C994.453 233.124 1004.11 227.114 1014.88 223.553 1012.35 230.567 1010.24 237.929 1008.55 245.544 1000.86 244.463 993.482 242.919 986.593 240.949ZM1011.95 250.31C1020.27 251.307 1028.84 251.832 1037.44 251.832 1046.03 251.832 1054.61 251.307 1062.93 250.31 1065.36 262.36 1066.71 275.029 1066.95 287.951 1047.54 290.67 1027.35 290.67 1007.93 287.951 1008.17 275.02 1009.52 262.361 1011.95 250.31ZM1091.59 244.486C1099.69 253.702 1105.5 264.986 1108.06 277.454 1096.49 281.942 1084.07 285.217 1071.25 287.295 1070.98 274.418 1069.61 261.795 1067.22 249.769 1075.8 248.549 1084.02 246.779 1091.59 244.486ZM1066.32 245.544C1064.63 237.928 1062.51 230.567 1059.99 223.553 1070.76 227.114 1080.42 233.123 1088.28 240.948 1081.4 242.918 1074.02 244.463 1066.32 245.544ZM1054.83 222.054C1057.73 229.655 1060.15 237.704 1062.03 246.085 1045.97 247.977 1028.9 247.977 1012.85 246.085 1014.72 237.703 1017.14 229.655 1020.04 222.054 1025.61 220.671 1031.44 219.922 1037.44 219.922 1043.43 219.914 1049.26 220.663 1054.83 222.054ZM966.064 281.788C977.867 286.291 990.52 289.581 1003.57 291.652 1003.57 291.776 1003.57 291.899 1003.57 292.023 1003.57 305.147 1004.71 318.054 1006.92 330.404 995.162 328.937 983.638 326.627 972.575 323.499 967.94 313.967 965.321 303.283 965.321 292.023 965.321 288.547 965.584 285.141 966.062 281.788ZM975.38 328.72C985.862 331.478 996.707 333.517 1007.77 334.838 1009.58 343.775 1011.95 352.388 1014.88 360.536 998.145 355.021 984.18 343.557 975.38 328.72ZM1020.04 362.02C1016.84 353.616 1014.24 344.671 1012.29 335.356 1020.28 336.159 1028.37 336.568 1036.47 336.615 1030.73 340.539 1026.94 347.136 1026.94 354.589 1026.94 357.825 1027.67 360.885 1028.93 363.643 1025.91 363.287 1022.94 362.739 1020.04 362.02ZM1074.63 372.085 1074.63 354.389 1086.23 354.389C1087.42 354.389 1088.39 353.423 1088.39 352.234 1088.39 351.037 1087.42 350.079 1086.23 350.079L1074.63 350.079 1074.63 332.429 1091.34 332.429 1091.34 372.087ZM1112.86 372.085 1095.65 372.085 1095.65 331.856C1095.65 329.794 1093.98 328.117 1091.92 328.117L1074.06 328.117C1071.99 328.117 1070.32 329.794 1070.32 331.856L1070.32 350.086 1060.89 350.086C1059.7 350.086 1058.73 351.052 1058.73 352.241 1058.73 353.43 1059.7 354.395 1060.89 354.395L1070.32 354.395 1070.32 372.092 1048.75 372.083C1039.1 372.083 1031.26 364.227 1031.26 354.579 1031.26 344.955 1039.1 337.122 1048.75 337.122 1051.28 337.122 1053.73 337.663 1056.06 338.721 1056.77 339.045 1057.6 338.96 1058.23 338.504 1058.86 338.041 1059.2 337.284 1059.1 336.504 1059.03 335.902 1059.03 335.253 1059.03 334.573 1059.03 321.727 1069.49 311.268 1082.35 311.268 1092.66 311.268 1101.61 317.889 1104.64 327.729 1104.98 328.841 1106.13 329.482 1107.24 329.181 1109.13 328.687 1111.02 328.44 1112.85 328.44 1124.87 328.44 1134.66 338.227 1134.66 350.253 1134.66 362.296 1124.88 372.082 1112.86 372.082ZM1117.2 353.052C1117.09 353.314 1116.94 353.554 1116.74 353.755L1116.74 353.771 1116.73 353.779 1110.07 360.485C1109.64 360.91 1109.1 361.126 1108.54 361.126 1107.99 361.126 1107.43 360.917 1107.02 360.5 1106.17 359.658 1106.17 358.291 1107.01 357.441L1110.02 354.413 1100.72 354.413C1099.53 354.413 1098.56 353.447 1098.56 352.259 1098.56 351.062 1099.52 350.104 1100.72 350.104L1110 350.104 1107.02 347.114C1106.17 346.272 1106.17 344.905 1107.02 344.063 1107.86 343.221 1109.23 343.221 1110.07 344.063L1116.73 350.73C1116.93 350.93 1117.1 351.17 1117.21 351.433 1117.21 351.441 1117.21 351.448 1117.21 351.464 1117.31 351.703 1117.37 351.974 1117.37 352.259 1117.37 352.537 1117.31 352.799 1117.21 353.039 1117.21 353.031 1117.21 353.047 1117.2 353.054Z" fill="#174460"/></g></svg>