<svg width="753" height="754" xmlns="http://www.w3.org/2000/svg" xmlns:xlink="http://www.w3.org/1999/xlink" xml:space="preserve" overflow="hidden"><g transform="translate(-2730 -198)"><path d="M2730 575C2730 366.789 2898.56 198 3106.5 198 3314.44 198 3483 366.789 3483 575 3483 783.211 3314.44 952 3106.5 952 2898.56 952 2730 783.211 2730 575Z" fill="#022C45" fill-rule="evenodd"/><g><g><g><path d="M97.1223 125.848C99.8627 127.241 103.164 126.837 105.5 124.838L153.973 83.1728C157.072 80.5221 157.521 75.8732 154.961 72.6834L114.396 22.0352C113.453 20.8224 112.15 19.9464 110.668 19.5196L76.8416 9.345 76.8416 9.32252C74.0792 8.49146 71.0916 9.30005 69.115 11.3889L28.5959 54.5138C26.4396 56.8273 25.923 60.2413 27.338 63.0938L44.5205 97.5262 44.543 97.5262C45.2617 98.9863 46.4297 100.154 47.8897 100.895ZM99.4582 110.013 69.2482 94.6948 96.8751 82.903 129.466 84.2284ZM104.018 33.3562 132.7 69.1816 101.075 67.9013 88.2726 28.6173ZM43.2882 61.0281 72.6896 29.7174 86.1211 71.0005 54.923 84.3199ZM343.371 437.945C331.647 437.945 321.09 444.998 316.598 455.824 312.128 466.65 314.599 479.093 322.887 487.38 331.175 495.669 343.619 498.142 354.444 493.671 365.271 489.177 372.323 478.622 372.323 466.897 372.301 450.905 359.363 437.945 343.371 437.945ZM343.371 480.71 343.371 480.69C337.801 480.69 332.77 477.342 330.636 472.198 328.502 467.055 329.693 461.125 333.623 457.172 337.554 453.241 343.483 452.051 348.627 454.185 353.793 456.319 357.14 461.35 357.14 466.92 357.117 474.512 350.963 480.667 343.371 480.69ZM373.918 261.559 373.918 153.431C390.944 149.568 402.331 133.53 400.4 116.19 398.446 98.8281 383.779 85.711 366.327 85.711L238.523 85.711C221.071 85.711 206.404 98.8281 204.473 116.19 202.518 133.53 213.929 149.567 230.955 153.431L230.955 261.559C192.973 278.787 162.52 309.154 145.155 347.091 127.793 385.005 124.716 427.907 136.485 467.908 148.254 507.907 174.062 542.34 209.194 564.823 210.406 565.589 211.821 566.016 213.281 566.016L391.579 566.016C393.039 566.016 394.454 565.589 395.69 564.823 430.796 542.34 456.63 507.907 468.374 467.908 480.144 427.905 477.067 385.002 459.704 347.091 442.364 309.154 411.885 278.785 373.924 261.559ZM460.235 419.081C460.347 472.158 433.687 521.707 389.328 550.86L215.525 550.86C171.165 521.707 144.503 472.153 144.618 419.081 144.64 411.354 145.201 403.628 146.325 395.991 193.313 424.134 232.234 436.577 274.804 437.319 276.173 437.319 277.521 437.364 278.891 437.364 320.017 437.364 362.736 426.695 426.01 407.266L426.01 407.244C436.791 403.83 447.932 401.719 459.207 401 459.903 407.019 460.241 413.061 460.241 419.103ZM421.557 392.756C300.539 429.884 244.654 438.666 149.467 380.178L149.489 380.178C161.641 332.113 195.737 292.606 241.466 273.511 244.296 272.321 246.115 269.558 246.115 266.503L246.115 146.697C246.115 142.497 242.723 139.105 238.523 139.105 233.402 139.195 228.461 137.241 224.8 133.647 221.138 130.053 219.072 125.134 219.072 120.013 219.072 114.87 221.138 109.973 224.8 106.379 228.46 102.786 233.402 100.809 238.523 100.899L366.327 100.899C371.448 100.809 376.389 102.785 380.051 106.379 383.712 109.974 385.778 114.87 385.778 120.013 385.778 125.134 383.711 130.053 380.051 133.647 376.389 137.241 371.448 139.195 366.327 139.105 362.126 139.105 358.735 142.497 358.735 146.697L358.735 266.551C358.735 269.606 360.576 272.368 363.384 273.536 411.069 293.436 445.949 335.464 456.731 385.977 444.781 386.876 432.989 389.167 421.557 392.783ZM541.722 178.818 481.817 172.012 481.841 171.99C480.312 171.833 478.785 172.124 477.415 172.843L448.463 188.274 448.463 188.251C446.217 189.442 444.734 191.688 444.487 194.203L440.287 236.655C439.995 239.575 441.41 242.382 443.903 243.887L483.479 267.763 483.479 267.786C484.668 268.504 486.019 268.864 487.408 268.864 488.194 268.864 488.98 268.752 489.747 268.504L538.555 252.759C541.454 251.839 543.519 249.233 543.787 246.179L548.435 187.016C548.794 182.928 545.809 179.289 541.741 178.84ZM459.201 199.774 477.641 189.958 482.382 212.779 456.752 224.885ZM488.424 253.028 463.94 238.249 490.509 225.716 518.473 243.325ZM529.661 232.432 497.811 212.374 492.871 188.543 532.781 193.081ZM425.466 375.779C426.184 377.711 426.117 379.822 425.263 381.686 424.409 383.55 422.837 384.988 420.883 385.662 418.952 386.336 416.841 386.224 414.999 385.303 413.157 384.404 411.764 382.787 411.158 380.833 400.309 350.107 376.995 325.379 346.94 312.753 343.122 311.113 341.37 306.689 342.965 302.87 344.559 299.029 348.962 297.21 352.802 298.76 386.786 313.045 413.177 341.009 425.463 375.781ZM174.397 207.026C173.026 204.713 170.511 203.321 167.816 203.365L89.9415 204.129 89.9415 204.106C88.4139 204.129 86.9093 204.601 85.6515 205.499L50.9718 229.869C48.6134 231.508 47.4003 234.361 47.8271 237.191L58.5182 307.38C59.0123 310.524 61.3932 313.039 64.5155 313.669L109.752 322.967C110.268 323.057 110.762 323.125 111.279 323.125 114.064 323.125 116.625 321.597 117.95 319.149L174.573 214.552C175.853 212.193 175.786 209.318 174.394 207.027ZM92.4591 219.268 130.328 218.886 83.9011 238.921 71.323 234.092ZM72.7385 299.883 64.8097 247.84 78.1741 252.984 97.5128 304.959ZM111.528 299.141 93.6943 251.232 150.811 226.593ZM400.442 462.413C400.442 470.341 405.204 477.484 412.526 480.518 419.871 483.546 428.294 481.864 433.886 476.271 439.502 470.656 441.164 462.233 438.131 454.911 435.099 447.589 427.957 442.804 420.028 442.804 409.202 442.827 400.442 451.586 400.442 462.413ZM424.453 462.413C424.453 464.187 423.375 465.804 421.712 466.5 420.073 467.174 418.164 466.793 416.906 465.535 415.625 464.277 415.243 462.368 415.94 460.706 416.613 459.066 418.231 457.988 420.027 457.988 421.196 457.988 422.319 458.437 423.15 459.268 423.981 460.099 424.453 461.222 424.453 462.413ZM208.76 460.908C199.574 460.908 191.286 466.433 187.76 474.923 184.255 483.412 186.187 493.182 192.701 499.675 199.192 506.187 208.963 508.123 217.453 504.596 225.943 501.089 231.468 492.804 231.468 483.618 231.423 471.083 221.271 460.931 208.76 460.908ZM208.76 491.165C205.706 491.165 202.943 489.32 201.775 486.512 200.607 483.685 201.258 480.451 203.414 478.293 205.571 476.137 208.805 475.485 211.635 476.654 214.443 477.821 216.285 480.561 216.285 483.618 216.285 487.773 212.915 491.141 208.76 491.165ZM300.876 504.663C292.947 504.663 285.782 509.445 282.75 516.767 279.717 524.093 281.402 532.512 286.995 538.128 292.61 543.72 301.033 545.407 308.355 542.374 315.677 539.341 320.461 532.201 320.461 524.271 320.439 513.446 311.679 504.682 300.876 504.663ZM300.876 528.674 300.876 528.693C299.079 528.693 297.461 527.615 296.787 525.953 296.091 524.295 296.473 522.407 297.731 521.127 299.011 519.867 300.898 519.484 302.56 520.159 304.222 520.854 305.3 522.474 305.3 524.271 305.3 525.44 304.829 526.561 303.997 527.39 303.166 528.224 302.043 528.693 300.876 528.693Z" fill="#FFFFFF" transform="matrix(1 0 0 1.00174 2824 305)"/></g></g></g></g></svg>