<svg width="371" height="370" xmlns="http://www.w3.org/2000/svg" xmlns:xlink="http://www.w3.org/1999/xlink" xml:space="preserve" overflow="hidden"><g transform="translate(-339 -1904)"><path d="M342.5 2089C342.5 1988.76 423.984 1907.5 524.5 1907.5 625.016 1907.5 706.5 1988.76 706.5 2089 706.5 2189.24 625.016 2270.5 524.5 2270.5 423.984 2270.5 342.5 2189.24 342.5 2089Z" stroke="#1E583E" stroke-width="6.875" stroke-miterlimit="8" fill="none" fill-rule="evenodd"/><g><g><g><path d="M517.482 2046.75 517.482 2028.42 521.149 2028.42 521.149 2046.75ZM540.724 2108.08 549.841 2115.71 552.444 2113.1 543.328 2105.48ZM448.673 2088.46 434.923 2088.46 434.923 2092.12 448.673 2092.12ZM608.631 2090.29C608.738 2139.38 569.035 2179.25 519.951 2179.36 471.49 2179.47 431.877 2140.73 430.899 2092.28 430.88 2091.95 430.798 2091.63 430.798 2091.3L430.844 2091.3C430.844 2090.96 430.798 2090.63 430.798 2090.29 430.869 2042.1 469.304 2002.72 517.482 2001.49L517.482 2001.37 519.316 2001.37 519.453 2001.39C519.54 2001.39 519.623 2001.37 519.71 2001.37 568.794 2001.43 608.571 2041.21 608.627 2090.29ZM535.247 2006.53C542.729 2011.83 548.81 2018.87 552.967 2027.04L553.622 2025.9 554.268 2025.24 561.074 2021.22 561.744 2021.34C562.449 2021.46 565.63 2022.22 568.27 2022.85L570.305 2023.34 570.961 2022.33C560.447 2014.36 548.217 2008.95 535.243 2006.53ZM434.552 2092.13C435.546 2112.92 473.143 2129.71 519.311 2129.71 533.349 2129.82 547.351 2128.26 561.019 2125.06L553.365 2118.66 555.969 2116.06 561.808 2120.94C563.273 2110.94 563.909 2100.82 563.71 2090.71 563.71 2044.66 544.781 2006.98 521.149 2005.11L521.14 2005.11 521.14 2023.83 517.473 2023.83 517.473 2005.16C471.323 2006.39 434.535 2044.12 434.464 2090.29 434.464 2090.91 434.547 2091.52 434.556 2092.13ZM564.769 2039.45 561.533 2044.31C562.312 2044.52 563.224 2044.76 563.724 2044.89L568.293 2044.38 568.293 2036.58C567.796 2036.09 567.113 2035.83 566.414 2035.88 565.78 2035.87 565.151 2035.76 564.558 2035.53L564.558 2035.69C564.604 2036.85 564.64 2037.74 564.723 2038.83ZM460.067 2146.06 460.039 2144.76 462.065 2140.95 464.49 2139.47 465.695 2137.99 465.407 2136.07 460.961 2132.55C458.645 2130.58 456.19 2128.77 453.614 2127.15L450.671 2125.25 449.094 2120.19 449.113 2117.16C444.004 2114.16 439.517 2110.21 435.894 2105.52 438.939 2122.29 446.955 2137.77 458.903 2149.93L459.604 2148.82 459.797 2148.04C460.018 2147.41 460.11 2146.73 460.067 2146.06ZM552.893 2159.99 553.824 2156.8 551.665 2153.07 550.698 2149.07 551.514 2146.68 551.436 2144.75 549.671 2143.32 548.956 2143.15C544.823 2141.66 540.365 2141.3 536.049 2142.13 534.285 2142.35 531.998 2142.63 528.854 2142.95L528.368 2143 519.925 2139.18 513.463 2133.24C492.439 2133.19 471.694 2128.41 452.766 2119.26L452.766 2119.64 453.774 2122.9 455.594 2124.07C458.273 2125.75 460.828 2127.62 463.239 2129.68L468.262 2133.76 469.22 2135.13 469.435 2139.22 466.667 2142.44 464.834 2143.56 463.724 2145.65 463.729 2145.97C463.792 2146.97 463.665 2147.98 463.353 2148.93L462.863 2150.52 461.689 2152.38 461.002 2151.95C484.182 2174.25 518.011 2181.44 548.259 2170.52L547.943 2170.33 549.809 2167.22C551.307 2165.04 552.355 2162.58 552.893 2159.99ZM604.964 2090.29C604.969 2064.83 593.574 2040.7 573.908 2024.53L571.992 2027.49 567.422 2026.42C565.36 2025.92 562.958 2025.35 561.748 2025.08L556.555 2028.15C556.06 2029.02 555.148 2030.63 554.974 2030.96L554.928 2030.93C556.554 2034.25 558.002 2037.64 559.264 2041.11L561.024 2038.46C560.973 2037.59 560.931 2036.71 560.9 2035.83L560.859 2034.76 562.097 2031.75 564.058 2031 565.878 2032.06C565.974 2032.17 565.988 2032.19 566.602 2032.22 568.526 2032.22 570.339 2033.12 571.511 2034.65L571.96 2035.16 571.96 2047.65 563.467 2048.61 563.142 2048.53 561.551 2048.11C563.062 2053.3 564.268 2058.58 565.163 2063.91L565.328 2063.68C570.131 2067.12 572.304 2068.79 573.908 2072.59L575.177 2073.18 578.885 2070.4 580.838 2073.15 583.221 2074.74C583.655 2074.73 584.09 2074.75 584.523 2074.78L585.902 2075.07 589.097 2077 590.444 2082.16 588.263 2085.47 586.37 2086.17C585.418 2086.56 584.433 2086.87 583.427 2087.08L581.915 2087.46 581.479 2087.36C580.611 2087.13 579.758 2086.85 578.922 2086.51 578.377 2086.31 577.827 2086.11 577.272 2085.93L572.936 2090.2 567.294 2087.53C567.312 2088.6 567.377 2089.64 567.377 2090.71 567.773 2102.86 566.789 2115.02 564.443 2126.96L564.187 2128.03 563.123 2128.31C548.787 2131.8 534.072 2133.5 519.316 2133.38L519.022 2133.37 522.185 2136.28 528.959 2139.26C531.828 2138.96 533.946 2138.7 535.605 2138.49 540.353 2137.6 545.251 2137.97 549.809 2139.58L551.66 2140.2 555.052 2142.94 555.176 2147.34 554.516 2149.25 555.593 2152.3 557.765 2156.4 556.422 2161C555.846 2163.73 554.762 2166.33 553.228 2168.66 584.582 2155.22 604.926 2124.4 604.964 2090.29ZM567.179 2083.43 572.189 2085.8 576.08 2081.96 576.988 2082.1C578.091 2082.32 579.17 2082.65 580.21 2083.08 580.801 2083.3 581.388 2083.53 581.915 2083.68L582.561 2083.52C583.428 2083.33 584.276 2083.07 585.096 2082.73L585.866 2082.44 586.48 2081.51 585.925 2079.36 584.344 2078.44C583.574 2078.41 583.574 2078.41 583.061 2078.41L582.488 2078.42 581.658 2078.11 578.074 2075.59 575.617 2077.44 571.02 2075.28 570.759 2074.59C569.825 2072.1 568.091 2069.99 565.827 2068.58 566.487 2073.4 566.959 2078.34 567.179 2083.43ZM453.256 2092.12 471.589 2092.12 471.589 2088.46 453.256 2088.46ZM495.056 2088.46C495.033 2088.23 494.964 2088.01 494.964 2087.78 494.764 2074.54 504.383 2063.18 517.482 2061.19L517.482 2051.33 521.149 2051.33 521.149 2061.02C524.291 2061.3 527.151 2062.95 528.977 2065.52 534.597 2072.56 536.76 2086.08 534.23 2097.86L539.799 2102.52 537.2 2105.13 531.154 2100.07C527.771 2100.85 524.31 2101.25 520.837 2101.27 513.26 2101.58 505.769 2099.56 499.369 2095.49 498.135 2094.57 497.083 2093.43 496.266 2092.12L476.173 2092.12 476.173 2088.46ZM498.631 2087.78C498.8 2089.76 499.899 2091.54 501.592 2092.58 510.445 2097.64 520.919 2099.04 530.788 2096.49 532.869 2086 530.925 2073.85 526.108 2067.81 524.898 2065.97 522.899 2064.79 520.7 2064.63 508.217 2064.95 498.345 2075.31 498.622 2087.79Z" stroke="#1E583E" stroke-width="4.58333" fill="#E97132"/></g></g></g></g></svg>