<svg width="754" height="754" xmlns="http://www.w3.org/2000/svg" xmlns:xlink="http://www.w3.org/1999/xlink" xml:space="preserve" overflow="hidden"><defs><clipPath id="clip0"><rect x="228" y="197" width="754" height="754"/></clipPath></defs><g clip-path="url(#clip0)" transform="translate(-228 -197)"><path d="M228 574C228 365.789 396.789 197 605 197 813.211 197 982 365.789 982 574 982 782.211 813.211 951 605 951 396.789 951 228 782.211 228 574Z" fill="#022C45" fill-rule="evenodd"/><g><g><g><path d="M810.785 369.19C755.812 314.217 682.719 283.938 604.974 283.938 527.23 283.938 454.137 314.213 399.164 369.19 344.191 424.163 313.912 497.256 313.912 575 313.912 652.744 344.188 725.838 399.164 780.811 454.137 835.783 527.23 866.062 604.974 866.062 682.719 866.062 755.812 835.788 810.785 780.811 865.758 725.838 896.036 652.744 896.036 575 896.036 497.256 865.763 424.163 810.785 369.19ZM633.448 656.998C601.808 656.998 570.973 654.523 541.775 649.665L556.85 634.594C576.005 637.203 595.951 638.542 616.189 638.542 724.207 638.542 810.566 601.701 815.38 554.178L886.377 554.178C881.073 611.058 768.618 656.999 633.442 656.999ZM600.662 578.968 582.836 596.786C582.568 591.569 582.42 586.32 582.42 581.096 582.42 579.111 582.444 577.135 582.482 575.165 583.968 575.541 585.628 575.298 587.032 574.197 591.988 570.31 596.037 565.513 599.093 560.13 599.087 560.576 599.073 561.018 599.073 561.469 599.073 567.448 599.614 573.328 600.664 578.966ZM624.256 586.486C655.223 586.486 679.933 572.599 683.207 554.177L732.675 554.177C730.191 566.379 716.755 578.34 695.265 587.329 670.895 597.523 638.706 603.137 604.628 603.137 599.303 603.137 593.992 602.985 588.744 602.71L606.616 584.847C612.292 585.915 618.205 586.486 624.255 586.486ZM607.438 561.468C607.438 536.388 617.928 514.863 631.38 511.094L631.38 548.26 608.029 571.601C607.651 568.282 607.438 564.897 607.438 561.469ZM604.629 611.504C606.163 611.504 607.689 611.478 609.215 611.456 608.312 613.335 608.165 615.592 609.084 617.741 611.351 623.048 615.208 627.319 619.937 630.155 618.687 630.165 617.438 630.174 616.187 630.174 598.555 630.174 581.151 629.143 564.325 627.121L580.863 610.589C588.634 611.193 596.625 611.502 604.63 611.502ZM639.747 378.551C680.615 379.538 719.776 395.054 750.218 422.393 780.923 449.967 800.684 487.587 805.859 528.32 806.126 530.434 807.927 531.976 810.005 531.976 810.178 531.976 810.357 531.966 810.535 531.942 812.83 531.651 814.452 529.558 814.156 527.265 808.734 484.54 788.011 445.083 755.81 416.166 723.831 387.449 682.681 371.167 639.749 370.181L639.749 294.415C702.091 302.013 759.762 329.998 804.871 375.107 851.325 421.559 879.604 481.335 886.178 545.809L741.351 545.809C740.267 519.04 729.274 493.973 710.199 475.021 691.254 456.201 666.327 445.397 639.748 444.366L639.748 378.55ZM639.747 452.736C664.099 453.762 686.928 463.701 704.297 480.959 721.787 498.333 731.897 521.285 732.975 545.811L683.389 545.811C681.305 522.538 662.833 504.296 639.744 502.311ZM639.747 510.707C658.224 512.636 672.958 527.195 674.981 545.808L639.747 545.808ZM674.632 554.175C670.845 567.52 649.311 578.117 624.255 578.117 620.755 578.117 617.305 577.919 613.934 577.529L637.297 554.175 674.634 554.175ZM804.865 774.887C751.474 828.281 680.481 857.688 604.971 857.688 536.116 857.688 471.03 833.223 419.606 788.435 425.194 787.594 430.033 782.774 429.575 776.099 428.581 761.648 427.667 748.469 427.109 740.445 426.744 735.2 428.056 729.98 430.85 725.526 437.661 714.674 435.102 700.422 424.939 692.619L411.158 682.034C405.036 677.333 401.446 670.051 401.446 662.331L401.446 651.036C401.446 642.414 396.976 634.407 389.632 629.885 379.942 623.916 371.963 615.571 366.282 605.708 357.177 589.902 342.716 578.998 326.018 570.131 324.813 569.492 323.526 569.37 322.344 569.635 322.655 552.783 324.424 536.17 327.608 519.95 331.1 529.526 340.023 536.813 351.127 537.461 370.74 538.603 388.14 524.972 391.726 505.656L399.491 463.834C401.316 454.003 407.102 445.355 415.491 439.912 421.041 436.312 425.615 431.389 428.786 425.584 446.545 393.08 463.594 365.256 477.818 355.994 482.569 352.903 485.67 347.836 485.923 342.174 486.313 333.415 480.181 326.661 472.673 325.024 512.943 303.646 558.083 292.3 604.967 292.3 613.838 292.3 622.646 292.723 631.371 293.525L631.377 370.342C583.831 375.153 547.013 461.392 547.013 569.532 547.013 581.033 547.445 592.552 548.298 603.772 548.465 605.967 550.298 607.639 552.465 607.639 552.571 607.639 552.679 607.635 552.786 607.627 555.091 607.451 556.816 605.441 556.641 603.138 555.804 592.129 555.38 580.824 555.38 569.532 555.38 518.369 563.911 470.214 579.402 433.943 593.63 400.628 611.98 381.214 631.376 378.761L631.376 444.556C598.999 449.232 574.047 508 574.047 581.088 574.047 588.948 574.352 596.875 574.944 604.664L535.849 643.745C531.016 614.581 528.556 583.815 528.556 552.271 528.556 445.217 557.498 349.179 600.573 313.296 602.347 311.818 602.589 309.178 601.111 307.403 599.63 305.626 596.992 305.387 595.218 306.865 573.27 325.15 554.541 357.875 541.056 401.516 527.403 445.705 520.185 497.835 520.185 552.272 520.185 584.697 522.739 616.328 527.776 646.285 528.758 652.139 533.354 656.736 539.207 657.725 553.895 660.205 568.994 662.075 584.394 663.35 572.011 669.315 564.141 682.987 566.759 697.732 569.823 714.982 585.613 726.993 603.057 725.337L623.377 723.409C632.501 722.542 641.377 726.698 646.552 734.262 650.184 739.571 655.71 743.288 661.998 744.656L683.535 749.333C693.599 751.519 703.797 747.18 709.65 738.704 714.545 731.62 721.097 727.765 730.172 728.843 735.357 729.459 740.623 728.297 744.85 725.233 780.259 699.576 805.423 668.822 818.241 631.934 852.717 616.849 876.453 598.094 887.632 577.507 886.984 652.074 857.659 722.082 804.862 774.882Z" fill="#FFFFFF"/></g></g></g></g></svg>