<svg width="370" height="371" xmlns="http://www.w3.org/2000/svg" xmlns:xlink="http://www.w3.org/1999/xlink" xml:space="preserve" overflow="hidden"><g transform="translate(-32 -1476)"><path d="M35.4999 1661.5C35.4999 1560.98 116.76 1479.5 217 1479.5 317.24 1479.5 398.5 1560.98 398.5 1661.5 398.5 1762.02 317.24 1843.5 217 1843.5 116.76 1843.5 35.4999 1762.02 35.4999 1661.5Z" stroke="#1E583E" stroke-width="6.875" stroke-miterlimit="8" fill="none" fill-rule="evenodd"/><g><g><g><path d="M313.625 1734.33 224.021 1578.5C221.584 1574.13 216.068 1572.57 211.702 1575.01 210.236 1575.82 209.026 1577.03 208.208 1578.5L118.375 1734.33C115.863 1738.75 117.407 1744.37 121.824 1746.88 123.217 1747.67 124.793 1748.09 126.396 1748.08L305.604 1748.08C310.686 1748.1 314.815 1743.99 314.828 1738.91 314.832 1737.3 314.417 1735.73 313.625 1734.33ZM309.589 1741.25C308.766 1742.67 307.242 1743.53 305.604 1743.5L126.396 1743.5C124.757 1743.53 123.232 1742.67 122.41 1741.25 121.556 1739.83 121.531 1738.07 122.346 1736.62L212.214 1580.73C213.426 1578.57 216.154 1577.81 218.306 1579.02 219.042 1579.44 219.645 1580.05 220.047 1580.79L309.619 1736.56C310.459 1738.01 310.448 1739.81 309.589 1741.25Z" stroke="#1E583E" stroke-width="2.29167" fill="#1E583E"/><path d="M216 1720.54C214.614 1720.58 213.276 1720.03 212.319 1719.03 211.331 1718.04 210.792 1716.69 210.83 1715.29 210.773 1713.9 211.309 1712.55 212.303 1711.57 213.286 1710.6 214.621 1710.08 216 1710.12 217.406 1710.09 218.768 1710.62 219.786 1711.59 220.812 1712.54 221.373 1713.89 221.321 1715.29 221.355 1716.7 220.792 1718.05 219.772 1719.01 218.777 1720.02 217.413 1720.57 216 1720.54Z" stroke="#1E583E" stroke-width="2.29167" fill="#1E583E"/><path d="M213.481 1694.46 212.741 1621.55 218.954 1621.55 218.214 1694.46 213.481 1694.46Z" stroke="#1E583E" stroke-width="2.29167" fill="#1E583E"/></g></g></g></g></svg>