<svg width="209" height="209" xmlns="http://www.w3.org/2000/svg" xmlns:xlink="http://www.w3.org/1999/xlink" xml:space="preserve" overflow="hidden"><defs><clipPath id="clip0"><rect x="360" y="20" width="209" height="209"/></clipPath></defs><g clip-path="url(#clip0)" transform="translate(-360 -20)"><path d="M569 124.5C569 161.834 549.082 196.333 516.75 215 484.418 233.668 444.582 233.668 412.25 215 379.918 196.333 360 161.834 360 124.5 360 87.1656 379.918 52.6667 412.25 33.9995 444.582 15.3323 484.418 15.3323 516.75 33.9995 549.082 52.6667 569 87.1656 569 124.5Z" fill="#FFFFFF"/><path d="M464.5 124.524 464.524 124.5 464.5 124.5 464.5 91.5946 469.984 91.5946 469.984 122.251 487.561 139.828 483.683 143.706ZM467.242 77.8843C441.497 77.8843 420.627 98.7547 420.627 124.5 420.627 124.61 420.648 124.716 420.651 124.826L410.354 114.53 406.476 118.408 423.928 135.859 441.379 118.408 437.501 114.53 426.182 125.849C426.162 125.398 426.112 124.956 426.112 124.5 426.112 101.82 444.564 83.3688 467.244 83.3688 489.924 83.3688 508.375 101.82 508.375 124.5 508.375 147.18 489.924 165.631 467.244 165.631 451.812 165.631 438.355 157.079 431.318 144.475L427.32 148.474C435.474 162.022 450.279 171.115 467.244 171.115 492.99 171.115 513.86 150.245 513.86 124.499 513.86 98.7542 492.99 77.8838 467.244 77.8838Z" fill="#174460"/></g></svg>