<svg width="200" height="200" xmlns="http://www.w3.org/2000/svg" xmlns:xlink="http://www.w3.org/1999/xlink" xml:space="preserve" overflow="hidden"><g transform="translate(-251 -225)"><path d="M451 325C451 360.727 431.94 393.739 401 411.6 370.06 429.463 331.939 429.463 301 411.6 270.06 393.737 251 360.724 251 325 251 289.276 270.06 256.261 301 238.4 331.94 220.537 370.061 220.537 401 238.4 431.94 256.263 451 289.276 451 325" fill="#174460"/><path d="M352.528 356.9 305.334 356.964C305.674 360.329 308.434 362.961 311.784 362.961L355.912 362.961C354.022 361.623 352.729 359.419 352.527 356.9Z" fill="#FFFFFF"/><path d="M398.283 345.856 389.88 345.856C389.629 347.528 388.581 351.824 384.084 353.413L384.084 359.986 396.503 359.986C396.906 359.986 397.221 360.316 397.221 360.704 397.221 361.093 396.906 361.408 396.503 361.408L384.084 361.408 384.084 362.997 403.907 362.997 403.907 353.413C399.557 351.814 398.524 347.533 398.283 345.855ZM402.578 360.709C402.578 361.098 402.264 361.412 401.86 361.412L400.02 361.412C399.631 361.412 399.316 361.098 399.316 360.709 399.316 360.32 399.631 359.991 400.02 359.991L401.86 359.991C402.264 359.976 402.578 360.315 402.578 360.709Z" fill="#FFFFFF"/><path d="M404.439 321.406C404.148 321.406 403.898 321.228 403.794 320.963 403.696 320.697 403.745 320.397 403.947 320.195 405.708 318.434 408.557 315.133 408.744 313.77 409.713 306.616 409.6 291.398 409.536 286.99 395.908 295.138 388.075 303.993 386.25 313.303 384.499 322.183 389.099 328.289 389.133 328.353 389.31 328.569 389.335 328.869 389.207 329.11 389.069 329.361 388.818 329.499 388.538 329.499 387.608 329.45 386.486 328.652 385.615 327.885 386.447 331.049 390.452 335.418 393.01 337.863 394.112 309.002 401.734 302.325 402.073 302.026 402.373 301.775 402.831 301.824 403.082 302.124 403.333 302.424 403.284 302.867 402.993 303.118 402.905 303.206 395.422 309.947 394.428 338.498 403.058 336.092 407.79 324.515 409.414 319.68 406.708 321.471 404.543 321.436 404.44 321.407Z" fill="#FFFFFF"/><path d="M393.8 340.128C393.751 340.143 393.702 340.143 393.662 340.143 393.485 340.143 393.323 340.079 393.185 339.965 393.136 339.916 393.057 339.852 392.959 339.764 392.919 341.264 392.895 342.814 392.895 344.438L394.317 344.438C394.317 342.903 394.341 341.417 394.381 339.99 394.189 340.049 394.002 340.088 393.8 340.128Z" fill="#FFFFFF"/><path d="M308.733 347.139C308.733 346.735 309.063 346.421 309.452 346.421 309.84 346.421 310.155 346.735 310.155 347.139L310.155 350.652C318.996 350.298 326.126 343.169 326.48 334.327L322.967 334.327C322.578 334.327 322.248 334.013 322.248 333.624 322.248 333.22 322.578 332.906 322.967 332.906L326.48 332.906C326.125 324.064 318.996 316.935 310.155 316.581L310.155 320.109C310.155 320.498 309.84 320.812 309.452 320.812 309.063 320.812 308.733 320.498 308.733 320.109L308.733 316.581C299.892 316.94 292.763 324.069 292.409 332.896L295.937 332.896C296.325 332.896 296.64 333.21 296.64 333.614 296.64 334.003 296.325 334.317 295.937 334.317L292.409 334.317C292.763 343.159 299.892 350.288 308.733 350.642ZM304.3 333.628C304.3 333.224 304.615 332.909 305.004 332.909L308.733 332.909 308.733 324.737C308.733 324.349 309.063 324.034 309.452 324.034 309.84 324.034 310.155 324.349 310.155 324.737L310.155 333.628C310.155 334.016 309.84 334.331 309.452 334.331L305.004 334.331C304.615 334.317 304.3 334.002 304.3 333.628Z" fill="#FFFFFF"/><path d="M320.417 301.4 320.417 318.757C324.963 322.122 327.924 327.524 327.924 333.621 327.924 339.702 324.963 345.109 320.417 348.469L320.417 355.525 353.203 355.486C353.39 355.486 353.567 355.56 353.705 355.688 353.833 355.825 353.907 356.002 353.907 356.19 353.907 359.929 356.766 362.965 360.293 362.965L360.584 362.965C364.426 362.965 367.422 360.066 367.422 356.367L367.422 301.169C367.422 298.586 368.81 296.348 370.975 294.97L327.447 294.975C323.506 294.99 320.416 297.794 320.416 301.401ZM327.246 320.682C326.857 320.682 326.527 320.367 326.527 319.979 326.527 319.59 326.857 319.275 327.246 319.275L335.974 319.275C336.363 319.275 336.677 319.59 336.677 319.979 336.677 320.367 336.363 320.682 335.974 320.682ZM340.481 332.722 332.771 332.722C332.382 332.722 332.053 332.407 332.053 332.018 332.058 331.629 332.382 331.3 332.776 331.3L340.486 331.3C340.874 331.3 341.189 331.629 341.189 332.018 341.189 332.407 340.874 332.722 340.481 332.722ZM342.877 332.018C342.877 331.629 343.191 331.3 343.58 331.3L348.756 331.3C349.145 331.3 349.46 331.629 349.46 332.018 349.46 332.407 349.145 332.722 348.756 332.722L343.58 332.722C343.191 332.722 342.877 332.407 342.877 332.018ZM355.836 345.484 349.362 345.484C348.958 345.484 348.643 345.169 348.643 344.78 348.643 344.377 348.958 344.062 349.362 344.062L355.836 344.062C356.225 344.062 356.54 344.377 356.54 344.78 356.54 345.169 356.225 345.484 355.836 345.484ZM356.451 332.721 352.131 332.721C351.742 332.721 351.428 332.406 351.428 332.017 351.428 331.629 351.742 331.299 352.131 331.299L356.451 331.299C356.84 331.299 357.155 331.629 357.155 332.017 357.16 332.406 356.845 332.721 356.451 332.721ZM356.451 320.681 340.106 320.681C339.717 320.681 339.402 320.367 339.402 319.978 339.402 319.589 339.717 319.274 340.106 319.274L356.454 319.274C356.843 319.274 357.158 319.589 357.158 319.978 357.158 320.367 356.843 320.681 356.449 320.681ZM350.96 307.23 356.451 307.23C356.84 307.23 357.155 307.545 357.155 307.933 357.155 308.322 356.84 308.652 356.451 308.652L350.96 308.652C350.572 308.652 350.257 308.322 350.257 307.933 350.257 307.545 350.572 307.23 350.96 307.23ZM342.675 307.23 348.165 307.23C348.554 307.23 348.869 307.545 348.869 307.933 348.869 308.322 348.554 308.652 348.165 308.652L342.675 308.652C342.286 308.652 341.971 308.322 341.971 307.933 341.966 307.545 342.281 307.23 342.675 307.23ZM340.81 307.933C340.81 308.322 340.495 308.652 340.107 308.652L327.245 308.652C326.857 308.652 326.527 308.322 326.527 307.933 326.527 307.545 326.857 307.23 327.245 307.23L340.107 307.23C340.495 307.23 340.81 307.545 340.81 307.933Z" fill="#FFFFFF"/></g></svg>