<svg width="1145" height="1146" xmlns="http://www.w3.org/2000/svg" xmlns:xlink="http://www.w3.org/1999/xlink" xml:space="preserve" overflow="hidden"><g transform="translate(-1433 -350)"><path d="M1436.5 923C1436.5 608.474 1691.25 353.5 2005.5 353.5 2319.75 353.5 2574.5 608.474 2574.5 923 2574.5 1237.53 2319.75 1492.5 2005.5 1492.5 1691.25 1492.5 1436.5 1237.53 1436.5 923Z" stroke="#FFFFFF" stroke-width="6.875" stroke-miterlimit="8" fill="#FFFFFF" fill-rule="evenodd"/><g><g><g><path d="M1791.96 1235 2280 1235 2280.04 697.566 1792 697.566ZM1929.41 905.317 1929.41 795.601 2142.65 795.601 2142.65 905.361ZM2153.11 926.317 1918.91 926.317C1913.12 926.317 1908.41 921.601 1908.41 915.817L1908.41 785.101C1908.41 779.318 1913.12 774.601 1918.91 774.601L2153.15 774.601C2158.98 774.601 2163.65 779.318 2163.65 785.101L2163.65 915.861C2163.61 921.644 2158.94 926.32 2153.11 926.32ZM1871.87 1003.96C1866.08 1003.96 1861.37 999.284 1861.37 993.46 1861.37 987.676 1866.08 982.96 1871.87 982.96L2200.11 982.96C2205.94 982.96 2210.61 987.676 2210.61 993.46 2210.61 999.284 2205.94 1003.96 2200.11 1003.96ZM1871.87 1080.45C1866.08 1080.45 1861.37 1075.74 1861.37 1069.95 1861.37 1064.13 1866.08 1059.45 1871.87 1059.45L2200.11 1059.45C2205.94 1059.45 2210.61 1064.13 2210.61 1069.95 2210.61 1075.74 2205.94 1080.45 2200.11 1080.45ZM1871.87 1156.91C1866.08 1156.91 1861.37 1152.19 1861.37 1146.41 1861.37 1140.58 1866.08 1135.91 1871.87 1135.91L2200.11 1135.91C2205.94 1135.91 2210.61 1140.62 2210.61 1146.41 2210.61 1152.19 2205.94 1156.91 2200.11 1156.91ZM2168.33 676.576 2168.33 539.131 1999.29 608.734C1998.84 608.94 1998.39 609.145 1997.94 609.309L1834.46 676.657ZM1775.27 678.627 1977.18 502.585C1981.53 498.771 1988.13 499.222 1991.95 503.57 1993.38 505.21 1994.25 507.179 1994.45 509.23L2003.43 584.371 2174.06 514.111C2175.49 513.372 2177.13 512.962 2178.86 512.962 2184.68 512.962 2189.36 517.679 2189.36 523.462L2189.36 676.57 2290.54 676.57C2296.32 676.57 2301.04 681.287 2301.04 687.07L2301.04 1245.46C2301.04 1251.24 2296.32 1255.96 2290.54 1255.96L1781.46 1256C1775.67 1256 1770.96 1251.28 1770.96 1245.5L1770.96 687.067C1770.96 683.622 1772.68 680.546 1775.26 678.618ZM1836.26 653.238 1976 531.42 1983.3 592.697Z" fill="#174460" fill-rule="evenodd"/></g></g></g><path d="M1671.5 1167.5C1671.5 1152.04 1684.04 1139.5 1699.5 1139.5L2021.5 1139.5C2036.96 1139.5 2049.5 1152.04 2049.5 1167.5L2049.5 1279.5C2049.5 1294.96 2036.96 1307.5 2021.5 1307.5L1699.5 1307.5C1684.04 1307.5 1671.5 1294.96 1671.5 1279.5Z" stroke="#174460" stroke-width="6.875" stroke-miterlimit="8" fill="#FFFFFF" fill-rule="evenodd"/><text fill="#174460" font-family="Aptos Display,Aptos Display_MSFontService,sans-serif" font-weight="700" font-size="165" transform="matrix(1 0 0 1 1713.01 1276)">PDF</text><rect x="1876.5" y="728.5" width="334" height="216" stroke="#FFFFFF" stroke-width="6.875" stroke-miterlimit="8" fill="#FFFFFF"/><g><g><g><path d="M66.1875 250.042 283.135 250.042C285.342 250.042 286.813 248.571 286.813 246.365 286.813 245.629 286.813 245.261 286.445 244.526L234.966 156.276C234.23 155.173 233.127 154.438 231.656 154.438L231.656 154.438C230.185 154.438 229.082 155.173 228.347 156.276L205.181 199.298 150.025 115.46C149.657 114.725 148.186 113.99 147.083 113.99L147.083 113.99C145.98 113.99 144.509 114.725 144.142 115.828L100.384 184.957C100.017 185.325 99.649 186.06 99.2813 186.428L62.8781 244.526C61.775 246.365 62.1427 248.571 63.9813 249.674 64.7167 249.674 65.4521 250.042 66.1875 250.042ZM231.656 165.836 276.884 242.688 233.495 242.688 209.594 206.284 231.656 165.836C231.656 165.836 231.656 165.836 231.656 165.836 231.656 165.836 231.656 165.836 231.656 165.836ZM184.222 180.913 161.792 167.675C160.321 166.94 158.482 166.94 157.379 168.41L147.083 178.706 138.626 170.249C137.523 169.146 136.052 168.778 134.581 169.514L112.886 179.074 147.083 124.653C147.083 124.653 147.083 124.653 147.083 124.653L184.222 180.913ZM105.9 190.473 135.317 177.235 144.509 186.428C145.98 187.899 148.186 187.899 149.657 186.428L160.689 175.397 193.047 194.15C193.047 194.15 193.047 194.15 193.047 194.15L224.67 242.688 72.8063 242.688 105.9 190.473Z" stroke="#174460" stroke-width="3.67708" transform="matrix(1 0 0 1.00283 1857 659)"/><path d="M99.2813 128.698C105.532 128.698 110.313 123.918 110.313 117.667 110.313 111.416 105.532 106.635 99.2813 106.635 93.0302 106.635 88.25 111.416 88.25 117.667 88.25 123.918 93.0302 128.698 99.2813 128.698ZM99.2813 113.99C101.488 113.99 102.958 115.46 102.958 117.667 102.958 119.873 101.488 121.344 99.2813 121.344 97.075 121.344 95.6042 119.873 95.6042 117.667 95.6042 115.46 97.075 113.99 99.2813 113.99Z" stroke="#174460" stroke-width="3.67708" transform="matrix(1 0 0 1.00283 1857 659)"/><path d="M316.229 73.5417 36.7708 73.5417 36.7708 286.813 316.229 286.813 316.229 73.5417ZM308.875 279.458 44.125 279.458 44.125 80.8958 308.875 80.8958 308.875 279.458Z" stroke="#174460" stroke-width="3.67708" transform="matrix(1 0 0 1.00283 1857 659)"/></g></g></g></g></svg>