<svg width="1575" height="1575" xmlns="http://www.w3.org/2000/svg" xmlns:xlink="http://www.w3.org/1999/xlink" xml:space="preserve" overflow="hidden"><g transform="translate(-1851 -389)"><path d="M1854.5 1176.5C1854.5 743.509 2205.51 392.5 2638.5 392.5 3071.49 392.5 3422.5 743.509 3422.5 1176.5 3422.5 1609.49 3071.49 1960.5 2638.5 1960.5 2205.51 1960.5 1854.5 1609.49 1854.5 1176.5Z" stroke="#FFFFFF" stroke-width="6.875" stroke-miterlimit="8" fill="#FFFFFF" fill-rule="evenodd"/><g><g><g><path d="M262.232 823.2 717.736 823.2 717.774 321.595 262.27 321.595ZM390.514 515.496 390.514 413.095 589.544 413.095 589.544 515.537ZM599.303 535.096 380.714 535.096C375.316 535.096 370.914 530.694 370.914 525.296L370.914 403.295C370.914 397.897 375.316 393.495 380.714 393.495L599.344 393.495C604.779 393.495 609.144 397.897 609.144 403.295L609.144 525.337C609.105 530.735 604.741 535.099 599.305 535.099ZM336.81 607.562C331.412 607.562 327.01 603.198 327.01 597.762 327.01 592.365 331.412 587.962 336.81 587.962L643.174 587.962C648.61 587.962 652.974 592.365 652.974 597.762 652.974 603.198 648.61 607.562 643.174 607.562ZM336.81 678.957C331.412 678.957 327.01 674.555 327.01 669.157 327.01 663.721 331.412 659.357 336.81 659.357L643.174 659.357C648.61 659.357 652.974 663.721 652.974 669.157 652.974 674.555 648.61 678.957 643.174 678.957ZM336.81 750.313C331.412 750.313 327.01 745.911 327.01 740.513 327.01 735.077 331.412 730.713 336.81 730.713L643.174 730.713C648.61 730.713 652.974 735.116 652.974 740.513 652.974 745.911 648.61 750.313 643.174 750.313ZM613.505 302.004 613.505 173.722 455.741 238.686C455.32 238.877 454.899 239.068 454.478 239.221L301.892 302.079ZM246.65 303.918 435.104 139.613C439.162 136.053 445.325 136.474 448.885 140.532 450.225 142.063 451.029 143.901 451.22 145.815L459.604 215.946 618.854 150.37C620.194 149.681 621.725 149.298 623.333 149.298 628.769 149.298 633.133 153.701 633.133 159.098L633.133 301.999 727.572 301.999C732.97 301.999 737.372 306.401 737.372 311.799L737.372 832.963C737.372 838.36 732.97 842.763 727.572 842.763L252.427 842.801C247.03 842.801 242.627 838.398 242.627 833.001L242.627 311.796C242.627 308.58 244.235 305.709 246.647 303.91ZM303.574 280.222 434.004 166.526 440.818 223.718Z" fill="#174460" fill-rule="evenodd" transform="matrix(1 0 0 1.00102 2148 685)"/></g></g></g><path d="M2212.5 1445.67C2212.5 1431.22 2224.22 1419.5 2238.67 1419.5L2624.33 1419.5C2638.78 1419.5 2650.5 1431.22 2650.5 1445.67L2650.5 1550.33C2650.5 1564.78 2638.78 1576.5 2624.33 1576.5L2238.67 1576.5C2224.22 1576.5 2212.5 1564.78 2212.5 1550.33Z" stroke="#174460" stroke-width="6.875" stroke-miterlimit="8" fill="#FFFFFF" fill-rule="evenodd"/><text fill="#174460" font-family="Aptos Display,Aptos Display_MSFontService,sans-serif" font-weight="700" font-size="147" transform="matrix(1 0 0 1 2300.15 1545)">PDF</text><rect x="2489.5" y="1036.5" width="311" height="202" stroke="#FFFFFF" stroke-width="6.875" stroke-miterlimit="8" fill="#FFFFFF"/><g><g><g><path d="M2531.87 1205.75 2734.69 1205.75C2736.75 1205.75 2738.12 1204.38 2738.12 1202.31 2738.12 1201.63 2738.12 1201.28 2737.78 1200.59L2689.66 1118.09C2688.97 1117.06 2687.94 1116.38 2686.56 1116.38L2686.56 1116.38C2685.19 1116.38 2684.16 1117.06 2683.47 1118.09L2661.81 1158.31 2610.25 1079.94C2609.91 1079.25 2608.53 1078.56 2607.5 1078.56L2607.5 1078.56C2606.47 1078.56 2605.09 1079.25 2604.75 1080.28L2563.84 1144.91C2563.5 1145.25 2563.16 1145.94 2562.81 1146.28L2528.78 1200.59C2527.75 1202.31 2528.09 1204.38 2529.81 1205.41 2530.5 1205.41 2531.19 1205.75 2531.87 1205.75ZM2686.56 1127.03 2728.84 1198.88 2688.28 1198.88 2665.94 1164.84 2686.56 1127.03C2686.56 1127.03 2686.56 1127.03 2686.56 1127.03 2686.56 1127.03 2686.56 1127.03 2686.56 1127.03ZM2642.22 1141.13 2621.25 1128.75C2619.87 1128.06 2618.16 1128.06 2617.12 1129.44L2607.5 1139.06 2599.59 1131.16C2598.56 1130.13 2597.19 1129.78 2595.81 1130.47L2575.53 1139.41 2607.5 1088.53C2607.5 1088.53 2607.5 1088.53 2607.5 1088.53L2642.22 1141.13ZM2569 1150.06 2596.5 1137.69 2605.09 1146.28C2606.47 1147.66 2608.53 1147.66 2609.91 1146.28L2620.22 1135.97 2650.47 1153.5C2650.47 1153.5 2650.47 1153.5 2650.47 1153.5L2680.03 1198.88 2538.06 1198.88 2569 1150.06Z" stroke="#174460" stroke-width="3.4375"/><path d="M2562.81 1092.31C2568.66 1092.31 2573.12 1087.84 2573.12 1082 2573.12 1076.16 2568.66 1071.69 2562.81 1071.69 2556.97 1071.69 2552.5 1076.16 2552.5 1082 2552.5 1087.84 2556.97 1092.31 2562.81 1092.31ZM2562.81 1078.56C2564.87 1078.56 2566.25 1079.94 2566.25 1082 2566.25 1084.06 2564.87 1085.44 2562.81 1085.44 2560.75 1085.44 2559.37 1084.06 2559.37 1082 2559.37 1079.94 2560.75 1078.56 2562.81 1078.56Z" stroke="#174460" stroke-width="3.4375"/><path d="M2765.62 1040.75 2504.37 1040.75 2504.37 1240.13 2765.62 1240.13 2765.62 1040.75ZM2758.75 1233.25 2511.25 1233.25 2511.25 1047.63 2758.75 1047.63 2758.75 1233.25Z" stroke="#174460" stroke-width="3.4375"/></g></g></g></g></svg>