<svg width="370" height="370" xmlns="http://www.w3.org/2000/svg" xmlns:xlink="http://www.w3.org/1999/xlink" xml:space="preserve" overflow="hidden"><defs><clipPath id="clip0"><rect x="101" y="275" width="221" height="195"/></clipPath><clipPath id="clip1"><rect x="101" y="275" width="221" height="195"/></clipPath><clipPath id="clip2"><rect x="101" y="275" width="221" height="195"/></clipPath><clipPath id="clip3"><rect x="101" y="275" width="221" height="195"/></clipPath><clipPath id="clip4"><rect x="101" y="275" width="216" height="117"/></clipPath><clipPath id="clip5"><rect x="101" y="275" width="216" height="117"/></clipPath></defs><g transform="translate(-26 -188)"><path d="M29.5001 373C29.5001 272.76 110.76 191.5 211 191.5 311.24 191.5 392.5 272.76 392.5 373 392.5 473.24 311.24 554.5 211 554.5 110.76 554.5 29.5001 473.24 29.5001 373Z" stroke="#1E583E" stroke-width="6.875" stroke-miterlimit="8" fill="none" fill-rule="evenodd"/><g clip-path="url(#clip0)"><g clip-path="url(#clip1)"><g clip-path="url(#clip2)"><g clip-path="url(#clip3)"><g clip-path="url(#clip4)"><g clip-path="url(#clip5)"><path d="M241.166 240.661C236.017 240.78 230.905 239.805 226.16 237.806 217.738 234.468 208.361 234.468 199.939 237.806 190.291 241.614 179.555 241.614 169.906 237.806 161.486 234.468 152.109 234.468 143.689 237.806 138.94 239.807 133.82 240.782 128.667 240.661 123.513 240.78 118.393 239.807 113.642 237.806 109.495 236.042 105.018 235.19 100.512 235.302 96.0132 235.192 91.5428 236.044 87.401 237.806 82.6566 239.805 77.5427 240.78 72.3952 240.661 67.2324 240.785 62.1025 239.812 57.3436 237.806 53.1957 236.044 48.7188 235.19 44.2136 235.302 39.7085 235.19 35.2316 236.044 31.0834 237.806 26.3389 239.805 21.2251 240.778 16.0777 240.661L16.0777 235.302C20.583 235.414 25.06 234.56 29.2078 232.796 33.96 230.795 39.0825 229.822 44.2379 229.943 49.393 229.822 54.5155 230.795 59.2676 232.796 63.4155 234.56 67.8927 235.414 72.3979 235.302 76.897 235.412 81.3676 234.558 85.5092 232.796 90.2538 230.797 95.3677 229.824 100.515 229.943 105.668 229.822 110.789 230.795 115.54 232.796 119.687 234.56 124.164 235.414 128.67 235.302 133.17 235.412 137.641 234.558 141.784 232.796 146.532 230.795 151.651 229.822 156.803 229.943 161.95 229.824 167.065 230.797 171.809 232.796 180.229 236.138 189.606 236.138 198.026 232.796 207.677 228.993 218.412 228.993 228.062 232.796 232.202 234.556 236.669 235.412 241.166 235.302Z" fill="#1E583E" transform="matrix(1.01324 0 0 1 79.0046 220.057)"/><path d="M241.166 220.562C236.017 220.68 230.905 219.708 226.16 217.708 217.739 214.368 208.36 214.368 199.939 217.708 190.29 221.513 179.556 221.513 169.906 217.708 161.486 214.367 152.109 214.367 143.689 217.708 138.939 219.71 133.82 220.682 128.667 220.562 123.514 220.682 118.393 219.709 113.642 217.708 109.496 215.943 105.018 215.089 100.512 215.203 96.013 215.091 91.5421 215.946 87.401 217.708 82.6564 219.708 77.5425 220.68 72.3952 220.562 67.2326 220.685 62.1028 219.713 57.3436 217.708 53.1962 215.944 48.719 215.09 44.2136 215.203 39.708 215.09 35.2309 215.944 31.0834 217.708 26.3387 219.706 21.2249 220.679 16.0777 220.562L16.0777 215.203C20.5831 215.315 25.0604 214.461 29.2078 212.697 33.9605 210.696 39.0827 209.724 44.2379 209.843 49.3928 209.724 54.5148 210.697 59.2676 212.697 63.4149 214.461 67.8922 215.315 72.3979 215.203 76.8972 215.314 81.3681 214.46 85.5092 212.697 90.254 210.699 95.3677 209.726 100.515 209.843 105.668 209.724 110.789 210.696 115.54 212.697 119.687 214.461 124.164 215.316 128.67 215.203 133.17 215.314 137.642 214.46 141.784 212.697 146.533 210.697 151.651 209.724 156.803 209.843 161.95 209.725 167.064 210.698 171.809 212.697 180.229 216.038 189.606 216.038 198.026 212.697 207.677 208.892 218.412 208.892 228.062 212.697 232.2 214.458 236.669 215.313 241.166 215.203Z" fill="#1E583E" transform="matrix(1.01324 0 0 1 79.0046 220.057)"/><path d="M241.166 200.465C236.017 200.583 230.905 199.611 226.16 197.611 217.739 194.271 208.36 194.271 199.939 197.611 190.29 201.416 179.556 201.416 169.906 197.611 161.486 194.27 152.109 194.27 143.689 197.611 138.939 199.612 133.82 200.585 128.667 200.465 123.514 200.585 118.393 199.612 113.642 197.611 109.496 195.846 105.018 194.992 100.512 195.105 96.013 194.994 91.5421 195.848 87.401 197.611 82.6564 199.611 77.5425 200.583 72.3952 200.465 67.2326 200.588 62.1028 199.616 57.3436 197.611 53.1962 195.847 48.719 194.993 44.2136 195.105 39.708 194.992 35.2309 195.847 31.0834 197.611 26.3387 199.609 21.2249 200.582 16.0777 200.465L16.0777 195.105C20.5831 195.218 25.0604 194.364 29.2078 192.6 33.9605 190.599 39.0827 189.627 44.2379 189.746 49.3928 189.627 54.5148 190.6 59.2676 192.6 63.4149 194.364 67.8922 195.218 72.3979 195.105 76.8972 195.217 81.3681 194.363 85.5092 192.6 90.254 190.602 95.3677 189.629 100.515 189.746 105.668 189.627 110.789 190.599 115.54 192.6 119.687 194.364 124.164 195.218 128.67 195.105 133.17 195.217 137.642 194.363 141.784 192.6 146.533 190.6 151.651 189.627 156.803 189.746 161.95 189.628 167.064 190.601 171.809 192.6 180.229 195.941 189.606 195.941 198.026 192.6 207.677 188.795 218.412 188.795 228.062 192.6 232.2 194.361 236.669 195.216 241.166 195.105Z" fill="#1E583E" transform="matrix(1.01324 0 0 1 79.0046 220.057)"/><path d="M235.806 139.34 190.253 139.34 190.253 133.981 235.806 133.981 235.806 128.621 227.767 128.621 227.767 101.217C230.429 101.611 233.115 101.815 235.806 101.825L235.806 96.4662C210.819 96.423 189.551 78.2638 185.593 53.5922L178.835 53.5922C174.439 81.3244 148.393 100.242 120.661 95.8456 98.9129 92.3977 81.8558 75.3408 78.4081 53.5922L71.6501 53.5922C67.6916 78.2638 46.4241 96.423 21.4369 96.4662L21.4369 101.825C24.1275 101.815 26.8141 101.611 29.4757 101.217L29.4757 128.621 21.4369 128.621 21.4369 133.981 66.9903 133.981 66.9903 139.34 21.4369 139.34 21.4369 144.699 66.9903 144.699 66.9903 185.697C67.1672 185.77 67.3521 185.818 67.5262 185.893 69.0896 186.473 70.7045 186.904 72.3497 187.179L72.3497 69.3832C73.3769 67.2274 74.2638 65.0078 75.005 62.7377 75.005 62.6976 75.04 62.6976 75.0532 62.7377 75.7944 65.0078 76.6814 67.2274 77.7088 69.3832L77.7088 186.922C78.8248 186.651 79.9231 186.311 80.9967 185.904 81.6747 185.62 82.3794 185.403 83.0679 185.148L83.0679 144.699 174.175 144.699 174.175 185.697C174.355 185.77 174.539 185.821 174.711 185.896 176.275 186.476 177.889 186.906 179.534 187.182L179.534 69.3832C180.562 67.2274 181.449 65.0078 182.19 62.7377 182.19 62.6976 182.224 62.6976 182.238 62.7377 182.979 65.0078 183.866 67.2274 184.894 69.3832L184.894 186.925C186.012 186.654 187.112 186.314 188.187 185.904 188.862 185.62 189.564 185.403 190.253 185.151L190.253 144.699 235.806 144.699ZM206.33 93.4462C211.303 96.5299 216.728 98.8147 222.408 100.218L222.408 128.621 206.33 128.621ZM190.253 78.4404C193.298 82.6479 196.905 86.4197 200.971 89.6518L200.971 128.621 190.253 128.621ZM50.9127 128.621 34.835 128.621 34.835 100.218C40.5145 98.8188 45.9395 96.5384 50.9127 93.4596ZM66.9903 128.621 56.2718 128.621 56.2718 89.6544C60.3381 86.4224 63.9445 82.6506 66.9903 78.4431ZM142.02 100.218C147.699 98.8188 153.124 96.5384 158.097 93.4596L158.097 128.621 142.02 128.621ZM120.583 101.23C125.911 102.042 131.332 102.042 136.66 101.23L136.66 128.621 120.583 128.621ZM99.1458 93.4596C104.119 96.5384 109.544 98.8188 115.223 100.218L115.223 128.621 99.1458 128.621ZM83.0679 78.4538C86.114 82.6613 89.7201 86.4331 93.7864 89.6652L93.7864 128.621 83.0679 128.621ZM174.175 139.34 83.0679 139.34 83.0679 133.981 174.175 133.981ZM174.175 128.621 163.457 128.621 163.457 89.6544C167.523 86.4224 171.129 82.6506 174.175 78.4431Z" fill="#1E583E" transform="matrix(1.01324 0 0 1 79.0046 220.057)"/></g></g><path d="M1952.24 452.758 2167.41 452.758 2167.41 486.379 1952.24 486.379Z" fill="#1E583E" transform="matrix(1.00157 0 0 1 -1854.31 -56.724)"/><path d="M1952.24 468.448 2167.41 468.448" stroke="#FFFFFF" stroke-width="8.21839" stroke-linejoin="round" stroke-miterlimit="10" stroke-dasharray="32.8736 24.6552" fill="none" fill-rule="evenodd" transform="matrix(1.00157 0 0 1 -1854.31 -56.724)"/><path d="M1952.24 490.862 2167.41 490.862 2167.41 526.724 1952.24 526.724Z" fill="#1E583E" transform="matrix(1.00157 0 0 1 -1854.31 -56.724)"/><path d="M2028.45 499.827 2055.34 499.827 2055.34 517.758 2028.45 517.758Z" fill="#FFFFFF" transform="matrix(1.00157 0 0 1 -1854.31 -56.724)"/><path d="M1992.59 499.827 2017.24 499.827 2017.24 517.758 1992.59 517.758Z" fill="#FFFFFF" transform="matrix(1.00157 0 0 1 -1854.31 -56.724)"/><path d="M1952.24 499.827 1981.38 499.827 1981.38 517.758 1952.24 517.758Z" fill="#FFFFFF" transform="matrix(1.00157 0 0 1 -1854.31 -56.724)"/><path d="M2136.03 499.827 2167.41 499.827 2167.41 517.758 2136.03 517.758Z" fill="#FFFFFF" transform="matrix(1.00157 0 0 1 -1854.31 -56.724)"/><path d="M2100.17 499.827 2127.07 499.827 2127.07 517.758 2100.17 517.758Z" fill="#FFFFFF" transform="matrix(1.00157 0 0 1 -1854.31 -56.724)"/><path d="M2064.31 499.827 2091.21 499.827 2091.21 517.758 2064.31 517.758Z" fill="#FFFFFF" transform="matrix(1.00157 0 0 1 -1854.31 -56.724)"/></g></g></g></g></g></svg>
