<svg width="201" height="200" xmlns="http://www.w3.org/2000/svg" xmlns:xlink="http://www.w3.org/1999/xlink" xml:space="preserve" overflow="hidden"><g transform="translate(-661 -225)"><path d="M200 100C200 135.727 180.94 168.739 150 186.6 119.06 204.463 80.9389 204.463 50 186.6 19.06 168.737 0 135.724 0 100 0 64.2761 19.06 31.2611 50 13.4 80.94-4.46333 119.061-4.46333 150 13.4 180.94 31.2633 200 64.2761 200 100" fill="#174460" transform="matrix(1.005 0 0 1 661 225)"/><path d="M98.0333 105.906C98.0333 104.819 97.1516 103.937 96.0652 103.937L44.8969 103.937C43.8105 103.937 42.9288 104.819 42.9288 105.906L42.9288 155.106C42.9288 156.192 43.8105 157.074 44.8969 157.074L96.0652 157.074C97.1516 157.074 98.0333 156.192 98.0333 155.106ZM127.553 105.906C127.553 104.819 126.672 103.937 125.585 103.937L103.937 103.937C102.851 103.937 101.969 104.819 101.969 105.906L101.969 155.106C101.969 156.192 102.851 157.074 103.937 157.074L125.585 157.074C126.672 157.074 127.553 156.192 127.553 155.106ZM133.457 103.937C132.371 103.937 131.489 104.819 131.489 105.906L131.489 155.106C131.489 156.192 132.371 157.074 133.457 157.074L155.105 157.074C156.191 157.074 157.073 156.192 157.073 155.106L157.073 105.906C157.073 104.819 156.191 103.937 155.105 103.937ZM96.065 100.001C97.1514 100.001 98.0331 99.1197 98.0331 98.0333L98.0331 44.8972C98.0331 43.8108 97.1514 42.9291 96.065 42.9291L44.8967 42.9291C43.8103 42.9291 42.9286 43.8108 42.9286 44.8972L42.9286 98.0333C42.9286 99.1197 43.8103 100.001 44.8967 100.001ZM101.969 98.0333C101.969 99.1197 102.851 100.001 103.937 100.001L155.105 100.001C156.192 100.001 157.073 99.1197 157.073 98.0333L157.073 44.8972C157.073 43.8108 156.192 42.9291 155.105 42.9291L103.937 42.9291C102.851 42.9291 101.969 43.8108 101.969 44.8972Z" fill="#FFFFFF" fill-rule="evenodd" transform="matrix(1.005 0 0 1 661 225)"/></g></svg>