<svg width="893" height="893" xmlns="http://www.w3.org/2000/svg" xmlns:xlink="http://www.w3.org/1999/xlink" xml:space="preserve" overflow="hidden"><defs><clipPath id="clip0"><rect x="236" y="267" width="893" height="893"/></clipPath></defs><g clip-path="url(#clip0)" transform="translate(-236 -267)"><path d="M236 713.5C236 466.905 435.905 267 682.5 267 929.095 267 1129 466.905 1129 713.5 1129 960.095 929.095 1160 682.5 1160 435.905 1160 236 960.095 236 713.5Z" fill="#E97132" fill-rule="evenodd"/><g><g><g><path d="M804.667 605.717C790.067 605.717 777.9 593.55 778.508 578.342 778.508 563.742 790.675 551.575 805.275 551.575 819.875 551.575 832.042 563.742 832.042 578.342 832.042 585.642 829 592.333 824.133 597.2 818.658 602.675 811.966 605.717 804.667 605.717ZM778.508 521.158C765.125 526.025 754.783 536.367 748.092 548.533 739.575 564.958 738.358 583.817 745.05 600.85L774.25 664.117 793.716 704.267C795.542 708.525 799.8 710.958 804.667 710.958 809.533 710.958 813.792 708.525 815.617 704.267L835.083 664.117 864.283 601.458C867.325 594.158 868.542 586.25 868.542 578.342 868.542 535.758 824.742 503.517 778.508 521.158Z"/><path d="M670.833 864.867 573.5 816.2 573.5 617.883 670.833 666.55 670.833 864.867ZM549.167 816.2 476.167 852.7 476.167 654.383 549.167 617.883 549.167 816.2ZM886.183 611.8 886.183 611.8 870.975 644.65 889.833 654.383 889.833 852.7 816.833 816.2 816.833 735.292 792.5 735.292 792.5 816.2 695.167 864.867 695.167 666.55 738.358 644.65 723.15 611.8 683 631.875 561.333 571.042 439.667 631.875 439.667 911.708 561.333 850.875 683 911.708 804.667 850.875 926.333 911.708 926.333 631.875 886.183 611.8Z"/></g></g></g></g></svg>