<svg width="892" height="892" xmlns="http://www.w3.org/2000/svg" xmlns:xlink="http://www.w3.org/1999/xlink" xml:space="preserve" overflow="hidden"><defs><clipPath id="clip0"><rect x="1754" y="306" width="892" height="892"/></clipPath></defs><g clip-path="url(#clip0)" transform="translate(-1754 -306)"><path d="M1754 752C1754 505.681 1953.68 306 2200 306 2446.32 306 2646 505.681 2646 752 2646 998.319 2446.32 1198 2200 1198 1953.68 1198 1754 998.319 1754 752Z" fill="#E97132" fill-rule="evenodd"/><g><g><g><path d="M2405.42 557.294 1994.61 557.294C1975.13 557.294 1959.28 573.149 1959.28 592.631L1959.28 911.344C1959.28 930.826 1975.13 946.68 1994.61 946.68L2405.42 946.703C2424.9 946.703 2440.76 930.848 2440.76 911.367L2440.74 592.629C2440.74 573.147 2424.9 557.293 2405.42 557.293ZM2430.93 911.369C2430.93 925.444 2419.47 936.873 2405.42 936.873L1994.61 936.873C1980.54 936.873 1969.11 925.421 1969.11 911.369L1969.11 639.536 2430.9 639.536ZM2430.93 629.705 1969.11 629.705 1969.11 592.635C1969.11 578.56 1980.56 567.131 1994.61 567.131L2405.42 567.131C2419.5 567.131 2430.93 578.583 2430.93 592.635ZM2014.23 598.429C2014.23 604.566 2009.21 609.585 2003.08 609.585 1996.94 609.585 1991.92 604.566 1991.92 598.429 1991.92 592.292 1996.94 587.274 2003.08 587.274 2009.21 587.274 2014.23 592.27 2014.23 598.429ZM2052.83 598.429C2052.83 604.566 2047.81 609.585 2041.68 609.585 2035.54 609.585 2030.52 604.566 2030.52 598.429 2030.52 592.292 2035.54 587.274 2041.68 587.274 2047.81 587.274 2052.83 592.27 2052.83 598.429ZM2091.41 598.429C2091.41 604.566 2086.39 609.585 2080.25 609.585 2074.11 609.585 2069.1 604.566 2069.1 598.429 2069.1 592.292 2074.11 587.274 2080.25 587.274 2086.41 587.274 2091.41 592.27 2091.41 598.429ZM2222.4 814.855 2399.7 814.855C2402.41 814.855 2404.6 812.665 2404.6 809.95 2404.6 807.236 2402.41 805.046 2399.7 805.046L2390.43 805.046 2390.41 674.468C2390.41 668.309 2385.39 663.29 2379.23 663.29L2356.72 663.29C2350.56 663.29 2345.54 668.308 2345.54 674.468L2345.54 805.021 2333.47 805.021 2333.47 740.713C2333.47 734.554 2328.45 729.535 2322.29 729.535L2299.78 729.535C2293.62 729.535 2288.6 734.553 2288.6 740.713L2288.6 805.046 2276.53 805.046 2276.53 716.034C2276.53 709.875 2271.51 704.856 2265.35 704.856L2242.84 704.856C2236.68 704.856 2231.66 709.875 2231.66 716.034L2231.66 805.026 2222.4 805.026C2219.68 805.026 2217.49 807.216 2217.49 809.931 2217.47 812.646 2219.68 814.858 2222.4 814.858ZM2355.38 674.466C2355.38 673.736 2355.99 673.12 2356.72 673.12L2379.24 673.12C2379.97 673.12 2380.58 673.736 2380.58 674.466L2380.58 805.019 2355.35 805.019ZM2298.44 740.716C2298.44 739.986 2299.05 739.37 2299.78 739.37L2322.3 739.37C2323.03 739.37 2323.64 739.986 2323.64 740.716L2323.64 805.049 2298.41 805.049ZM2241.5 716.033C2241.5 715.303 2242.11 714.687 2242.84 714.687L2265.36 714.687C2266.09 714.687 2266.7 715.303 2266.7 716.033L2266.7 805.025 2241.47 805.025ZM2061.16 913.109C2097.41 913.109 2126.89 883.612 2126.89 847.384 2126.89 844.669 2124.7 842.48 2121.98 842.48L2098.32 842.48C2095.61 842.48 2093.42 844.67 2093.42 847.384 2093.42 865.155 2078.96 879.618 2061.19 879.618 2043.42 879.618 2028.95 865.155 2028.95 847.384 2028.95 829.614 2043.42 815.15 2061.19 815.15 2063.9 815.15 2066.09 812.96 2066.09 810.246L2066.09 786.589C2066.09 783.875 2063.9 781.685 2061.19 781.685 2024.94 781.685 1995.46 811.181 1995.46 847.409 1995.44 883.635 2024.91 913.109 2061.16 913.109ZM2066.07 889.132C2085.34 886.874 2100.67 871.567 2102.93 852.29L2116.85 852.29C2114.5 879.209 2092.98 900.698 2066.07 903.05ZM2056.26 791.697 2056.26 805.613C2036.98 807.871 2021.67 823.201 2019.41 842.478L2005.5 842.478C2007.85 815.559 2029.34 794.047 2056.26 791.699ZM2019.41 852.287C2021.67 871.563 2036.98 886.87 2056.26 889.129L2056.26 903.022C2029.36 900.672 2007.87 879.183 2005.52 852.287ZM2078.27 764.531C2075.56 764.531 2073.37 766.721 2073.37 769.436L2073.37 793.092C2073.37 795.807 2075.56 797.997 2078.27 797.997 2096.04 797.997 2110.51 812.46 2110.51 830.231 2110.51 832.945 2112.7 835.135 2115.41 835.135L2139.07 835.135C2141.78 835.135 2143.97 832.945 2143.97 830.231 2144.02 794.027 2114.52 764.531 2078.27 764.531ZM2120.06 825.35C2117.81 806.073 2102.48 790.743 2083.2 788.485L2083.2 774.569C2110.12 776.919 2131.63 798.431 2133.98 825.348ZM2169.61 851.037C2169.61 848.322 2171.8 846.132 2174.52 846.132L2194.16 846.132C2196.87 846.132 2199.06 848.322 2199.06 851.037 2199.06 853.751 2196.87 855.941 2194.16 855.941L2174.52 855.941C2171.8 855.941 2169.61 853.751 2169.61 851.037ZM2402.57 892.92C2402.57 895.635 2400.38 897.825 2397.67 897.825L2222.62 897.825C2219.91 897.825 2217.72 895.635 2217.72 892.92 2217.72 890.206 2219.91 888.016 2222.62 888.016L2397.67 888.016C2400.36 888.016 2402.57 890.206 2402.57 892.92ZM2171.55 683.503C2171.55 680.788 2173.74 678.598 2176.45 678.598L2196.09 678.598C2198.81 678.598 2201 680.788 2201 683.503 2201 686.217 2198.81 688.407 2196.09 688.407L2176.45 688.407C2173.76 688.407 2171.55 686.217 2171.55 683.503ZM1997.46 725.386C1997.46 722.671 1999.65 720.481 2002.37 720.481L2148.01 720.481C2150.72 720.481 2152.91 722.672 2152.91 725.386 2152.91 728.101 2150.72 730.291 2148.01 730.291L2002.39 730.291C1999.68 730.291 1997.46 728.101 1997.46 725.386ZM2402.56 851.039C2402.56 853.753 2400.37 855.943 2397.66 855.943L2222.62 855.943C2219.9 855.943 2217.71 853.753 2217.71 851.039 2217.71 848.324 2219.9 846.134 2222.62 846.134L2397.66 846.134C2400.35 846.111 2402.56 848.324 2402.56 851.039ZM1997.46 683.499C1997.46 680.784 1999.65 678.594 2002.37 678.594L2148.01 678.594C2150.72 678.594 2152.91 680.784 2152.91 683.499 2152.91 686.213 2150.72 688.403 2148.01 688.403L2002.39 688.403C1999.68 688.403 1997.46 686.213 1997.46 683.499ZM2169.61 892.916C2169.61 890.202 2171.8 888.012 2174.51 888.012L2194.15 888.012C2196.87 888.012 2199.06 890.202 2199.06 892.916 2199.06 895.631 2196.87 897.821 2194.15 897.821L2174.51 897.821C2171.8 897.821 2169.61 895.631 2169.61 892.916ZM2171.55 725.376C2171.55 722.662 2173.74 720.472 2176.45 720.472L2196.09 720.472C2198.81 720.472 2201 722.662 2201 725.376 2201 728.091 2198.81 730.281 2196.09 730.281L2176.45 730.281C2173.76 730.281 2171.55 728.091 2171.55 725.376Z"/></g></g></g></g></svg>