<svg width="1142" height="1142" xmlns="http://www.w3.org/2000/svg" xmlns:xlink="http://www.w3.org/1999/xlink" xml:space="preserve" overflow="hidden"><g transform="translate(-2836 -350)"><path d="M2839.5 921C2839.5 607.578 3093.58 353.5 3407 353.5 3720.42 353.5 3974.5 607.578 3974.5 921 3974.5 1234.42 3720.42 1488.5 3407 1488.5 3093.58 1488.5 2839.5 1234.42 2839.5 921Z" stroke="#FFFFFF" stroke-width="6.875" stroke-miterlimit="8" fill="#FFFFFF" fill-rule="evenodd"/><g><g><g><path d="M475.201 608.914C473.098 605.725 468.824 604.884 465.635 606.987L414.688 640.834 414.723 640.834C412.796 642.096 411.64 644.268 411.64 646.545 411.64 648.858 412.796 651.03 414.723 652.292L465.67 686.139 465.635 686.139C468.824 688.242 473.098 687.401 475.201 684.212 477.303 681.059 476.462 676.784 473.274 674.682L430.982 646.58 473.274 618.479C476.462 616.341 477.303 612.066 475.201 608.913Z" fill="#174460" transform="matrix(1.00111 0 0 1 3034 515)"/><path d="M629.163 640.824 578.217 606.977C575.028 604.875 570.753 605.715 568.651 608.904 566.549 612.058 567.425 616.332 570.578 618.47L612.87 646.571 570.578 674.673C567.425 676.775 566.549 681.05 568.651 684.203 570.753 687.392 575.028 688.233 578.217 686.131L629.163 652.283C631.055 651.022 632.212 648.849 632.212 646.537 632.212 644.259 631.055 642.087 629.163 640.825Z" fill="#174460" transform="matrix(1.00111 0 0 1 3034 515)"/><path d="M541.355 604.04C539.673 603.269 537.781 603.199 536.064 603.865 534.347 604.495 532.98 605.792 532.209 607.474L499.273 679.969C498.502 681.616 498.432 683.508 499.098 685.225 499.729 686.942 501.025 688.344 502.672 689.079 503.583 689.5 504.564 689.71 505.545 689.71 508.243 689.71 510.696 688.133 511.817 685.681L544.753 613.15C545.524 611.503 545.594 609.611 544.929 607.894 544.298 606.177 543.001 604.776 541.355 604.04Z" fill="#174460" transform="matrix(1.00111 0 0 1 3034 515)"/><path d="M116.296 224.878C116.296 250.106 78.4187 250.106 78.4187 224.878 78.4187 199.615 116.296 199.615 116.296 224.878Z" fill="#174460" transform="matrix(1.00111 0 0 1 3034 515)"/><path d="M173.973 205.921C166.299 205.921 159.397 210.547 156.453 217.624 153.545 224.702 155.157 232.831 160.553 238.262 165.984 243.658 174.113 245.305 181.191 242.362 188.268 239.418 192.893 232.515 192.893 224.877 192.893 219.831 190.896 215.031 187.357 211.457 183.783 207.918 178.983 205.921 173.973 205.921Z" fill="#174460" transform="matrix(1.00111 0 0 1 3034 515)"/><path d="M250.532 205.921C242.893 205.921 235.991 210.547 233.047 217.624 230.104 224.702 231.751 232.831 237.147 238.262 242.578 243.658 250.707 245.305 257.785 242.362 264.862 239.418 269.488 232.515 269.488 224.877 269.488 214.4 261.008 205.921 250.532 205.921Z" fill="#174460" transform="matrix(1.00111 0 0 1 3034 515)"/><path d="M780.764 477.062 690.152 477.062 690.152 167.806C689.977 164.092 686.963 161.079 683.249 160.904L34.9274 160.904C31.1081 160.904 28.0247 163.987 28.0247 167.806L28.0247 646.543C28.0247 648.365 28.7255 650.117 30.0219 651.413 31.3184 652.71 33.0703 653.445 34.9274 653.445L369.239 653.445 369.239 729.167C369.239 731.024 369.94 732.776 371.237 734.073 372.533 735.369 374.285 736.07 376.107 736.07L683.255 736.07C685.322 736.105 687.249 735.194 688.581 733.582L754.209 653.45 780.768 653.45C829.473 653.45 868.959 613.961 868.959 565.26 868.959 516.559 829.47 477.07 780.768 477.07ZM41.7853 174.713 676.338 174.713 676.338 275.073 41.7853 275.073ZM41.7853 639.643 41.7853 288.834 676.376 288.834 676.376 483.827 676.34 483.932 676.376 484.037 676.376 556.989 376.09 556.989C372.306 557.024 369.222 560.107 369.222 563.891L369.222 639.643ZM679.919 722.302 382.997 722.302 382.997 570.791 679.949 570.791 690.145 583.265 736.432 639.679 696.908 639.679C693.614 631.199 684.715 626.259 675.779 627.941 666.809 629.657 660.327 637.471 660.327 646.582 660.327 655.692 666.809 663.506 675.779 665.188 684.714 666.87 693.614 661.929 696.908 653.45L736.362 653.45ZM780.727 639.681 754.167 639.681 690.151 561.477 690.151 490.839 780.762 490.839C800.49 490.803 819.446 498.652 833.426 512.598 847.407 526.578 855.255 545.499 855.255 565.261 855.255 585.023 847.407 603.944 833.426 617.89 819.446 631.87 800.49 639.684 780.762 639.684Z" fill="#174460" transform="matrix(1.00111 0 0 1 3034 515)"/><path d="M79.4667 358.486 617.846 358.486C619.703 358.521 621.455 357.785 622.752 356.489 624.048 355.192 624.784 353.44 624.784 351.618 624.784 349.761 624.048 348.009 622.752 346.713 621.455 345.452 619.703 344.716 617.846 344.716L79.4667 344.716C77.6097 344.716 75.8577 345.452 74.5613 346.713 73.2648 348.009 72.529 349.761 72.529 351.618 72.529 353.44 73.2648 355.192 74.5613 356.489 75.8577 357.785 77.6097 358.521 79.4667 358.486Z" fill="#174460" transform="matrix(1.00111 0 0 1 3034 515)"/><path d="M79.4667 435.538 617.846 435.538C619.703 435.538 621.455 434.803 622.752 433.506 624.048 432.21 624.784 430.458 624.784 428.636 624.784 426.814 624.048 425.027 622.752 423.73 621.455 422.469 619.703 421.733 617.846 421.733L79.4667 421.733C77.6097 421.733 75.8577 422.469 74.5613 423.73 73.2648 425.027 72.529 426.814 72.529 428.636 72.529 430.458 73.2648 432.21 74.5613 433.506 75.8577 434.803 77.6097 435.538 79.4667 435.538Z" fill="#174460" transform="matrix(1.00111 0 0 1 3034 515)"/><path d="M79.4667 512.553 617.846 512.553C619.703 512.553 621.455 511.818 622.752 510.521 624.048 509.225 624.784 507.473 624.784 505.651 624.784 503.829 624.048 502.077 622.752 500.78 621.455 499.484 619.703 498.748 617.846 498.748L79.4667 498.748C77.6097 498.748 75.8577 499.484 74.5613 500.78 73.2648 502.077 72.529 503.829 72.529 505.651 72.529 507.473 73.2648 509.225 74.5613 510.521 75.8577 511.818 77.6097 512.553 79.4667 512.553Z" fill="#174460" transform="matrix(1.00111 0 0 1 3034 515)"/><path d="M304.248 575.769 79.4667 575.769C77.6097 575.769 75.8577 576.505 74.5613 577.802 73.2648 579.098 72.529 580.85 72.529 582.672 72.529 584.494 73.2648 586.281 74.5613 587.543 75.8577 588.839 77.6097 589.575 79.4667 589.575L304.248 589.575C306.07 589.575 307.821 588.839 309.118 587.543 310.414 586.281 311.15 584.494 311.15 582.672 311.15 580.85 310.414 579.098 309.118 577.802 307.821 576.505 306.07 575.769 304.248 575.769Z" fill="#174460" transform="matrix(1.00111 0 0 1 3034 515)"/></g></g></g></g></svg>