<svg width="754" height="754" xmlns="http://www.w3.org/2000/svg" xmlns:xlink="http://www.w3.org/1999/xlink" xml:space="preserve" overflow="hidden"><g transform="translate(-1859 -198)"><path d="M1859 575C1859 366.789 2027.79 198 2236 198 2444.21 198 2613 366.789 2613 575 2613 783.211 2444.21 952 2236 952 2027.79 952 1859 783.211 1859 575Z" fill="#022C45" fill-rule="evenodd"/><g><g><g><path d="M2038.4 715.857 2029.3 731.025C2027.97 733.242 2027.87 735.988 2029.03 738.281L2059.26 798.75C2060.55 801.32 2063.17 802.932 2066.01 802.932L2176.88 802.932C2178.24 802.932 2179.6 802.556 2180.76 801.846L2226.08 774.638 2252.14 800.691C2253.55 802.099 2255.46 802.905 2257.48 802.905L2328.03 802.905C2330.55 802.905 2332.92 801.648 2334.33 799.53L2345.67 782.55 2374.01 801.47C2374.01 801.47 2374.04 801.47 2374.04 801.497L2374.24 801.648C2374.94 802.126 2375.72 802.427 2376.53 802.631 2376.61 802.653 2376.66 802.706 2376.73 802.733 2377.29 802.857 2377.84 802.905 2378.4 802.905L2459.05 802.905C2462.73 802.905 2465.9 800.234 2466.5 796.584L2506.82 554.708C2506.87 554.456 2506.82 554.204 2506.84 553.952 2506.87 553.7 2506.87 553.448 2506.87 553.171 2506.84 552.339 2506.69 551.558 2506.42 550.777 2506.39 550.702 2506.42 550.651 2506.36 550.576 2506.36 550.551 2506.34 550.551 2506.34 550.525 2505.99 549.694 2505.45 548.963 2504.83 548.283 2504.65 548.107 2504.48 547.981 2504.3 547.805 2504.05 547.578 2503.82 547.3 2503.52 547.099L2448.54 511.12 2443.6 507.189C2441.13 505.224 2437.71 504.997 2435.01 506.635L2384.62 536.869C2384.34 537.046 2384.17 537.298 2383.92 537.499 2383.71 537.651 2383.49 537.726 2383.29 537.902 2383.16 538.003 2383.13 538.154 2383.03 538.28 2382.63 538.708 2382.33 539.213 2382.03 539.716 2381.85 540.044 2381.65 540.321 2381.52 540.649 2381.47 540.749 2381.4 540.85 2381.35 540.951L2380.41 543.698 2337.43 350.198C2337.35 349.844 2337.13 349.593 2337 349.265 2336.8 348.711 2336.67 348.157 2336.35 347.653L2336.2 347.501C2335.94 347.149 2335.62 346.922 2335.31 346.619 2334.86 346.166 2334.46 345.713 2333.93 345.41 2333.85 345.36 2333.8 345.284 2333.73 345.234L2261.16 304.921C2258.67 303.536 2255.57 303.687 2253.2 305.299L2194.75 345.612C2193.04 346.796 2191.88 348.635 2191.57 350.676L2160.03 554.684 2123.35 469.775C2123.29 469.675 2123.22 469.624 2123.17 469.523 2122.92 468.994 2122.51 468.541 2122.14 468.062 2121.86 467.734 2121.63 467.356 2121.3 467.08 2121.23 467.029 2121.2 466.928 2121.13 466.878 2120.7 466.525 2120.2 466.399 2119.72 466.147 2119.39 465.996 2119.14 465.719 2118.78 465.593L2058.32 445.437C2055.29 444.429 2051.99 445.411 2050.03 447.881L2009.71 498.271C2008.4 499.909 2007.85 502 2008.15 504.066L2038.39 715.701C2038.39 715.727 2038.39 715.727 2038.41 715.752ZM2174.78 787.812 2070.7 787.812 2044.4 735.23 2067.53 696.706 2111.07 740.244C2112 741.176 2113.16 741.856 2114.42 742.183L2208.19 767.757ZM2126.21 662.87 2237.5 727.795 2223.29 756.215 2120.34 728.148 2078.79 686.601 2126.23 662.892ZM2305.07 633.593 2287.45 688.542 2247.12 715.904 2213.63 696.378 2251.83 648.255 2305.07 633.616ZM2323.99 787.812 2260.62 787.812 2236.46 763.651 2253.29 729.964 2298.09 699.579C2299.47 698.622 2300.53 697.236 2301.03 695.624L2317.79 643.368 2335.8 682.396C2335.91 682.647 2335.98 682.899 2336.11 683.126L2359.72 734.222 2337.29 767.883 2324.01 787.785ZM2452.66 787.812 2387.91 787.812 2408.52 697.233C2409.45 693.152 2406.9 689.12 2402.82 688.188 2398.74 687.306 2394.68 689.801 2393.78 693.883L2373.5 782.969 2354.04 769.967 2374.65 739.052C2376.12 736.86 2376.32 734.089 2375.23 731.695L2351.1 679.49 2391.74 557.671 2418.44 585.612 2403.2 652.558C2402.27 656.64 2404.81 660.671 2408.9 661.603 2409.47 661.729 2410.03 661.779 2410.58 661.779 2414.04 661.779 2417.16 659.411 2417.94 655.909L2433.21 588.818 2489.67 565.613 2452.64 787.785ZM2438.32 522.358 2483.24 551.962 2428.6 574.411 2400.51 545.034ZM2341.85 659.42 2323.39 619.435C2323.36 619.385 2323.31 619.359 2323.28 619.309 2323.13 618.981 2322.88 618.755 2322.68 618.453 2322.35 617.948 2322.02 617.47 2321.6 617.092 2321.34 616.865 2321.04 616.714 2320.76 616.513 2320.26 616.16 2319.76 615.857 2319.2 615.631 2319.05 615.58 2318.98 615.454 2318.82 615.429 2318.57 615.353 2318.35 615.404 2318.09 615.353 2317.56 615.228 2317.04 615.177 2316.48 615.177 2316.03 615.177 2315.62 615.202 2315.2 615.303 2314.97 615.353 2314.74 615.303 2314.49 615.353L2292.27 621.476 2277.4 396.151 2325.05 364.38 2371.11 571.715 2341.83 659.467ZM2206.02 356.324 2257.95 320.522 2315.57 352.545 2269.06 383.56 2232.68 365.369C2228.95 363.504 2224.41 365.016 2222.55 368.745 2220.68 372.474 2222.19 377.009 2225.92 378.899L2262.36 397.115 2277.42 625.564 2245.45 634.357C2243.91 634.785 2242.53 635.692 2241.54 636.952L2200.45 688.728 2158.43 664.213 2206.02 356.376ZM2155.91 581.44 2144.39 655.969 2130.31 647.756C2129.25 647.126 2128.04 646.824 2126.86 646.773L2084.5 524.901 2114.46 487.435 2153.97 578.843C2154.42 579.901 2155.1 580.757 2155.91 581.463ZM2058.55 461.561 2103.73 476.628 2073.49 514.446 2048.25 506.031C2044.24 504.695 2040.01 506.862 2038.67 510.818 2037.36 514.774 2039.5 519.056 2043.46 520.367L2069.99 529.21 2112.87 652.642 2062.63 677.761C2062.46 677.837 2062.38 678.064 2062.2 678.164 2061.67 678.467 2061.12 678.744 2060.67 679.198 2060.36 679.5 2060.21 679.903 2059.99 680.231 2059.86 680.407 2059.63 680.457 2059.53 680.659L2050.72 695.348 2023.55 505.299 2058.53 461.585Z" fill="#FFFFFF"/></g></g></g></g></svg>