<svg width="201" height="200" xmlns="http://www.w3.org/2000/svg" xmlns:xlink="http://www.w3.org/1999/xlink" xml:space="preserve" overflow="hidden"><g transform="translate(-866 -225)"><path d="M200 100C200 135.727 180.94 168.739 150 186.6 119.06 204.463 80.9389 204.463 50 186.6 19.06 168.737 0 135.724 0 100 0 64.2761 19.06 31.2611 50 13.4 80.94-4.46333 119.061-4.46333 150 13.4 180.94 31.2633 200 64.2761 200 100" fill="#174460" transform="matrix(1.005 0 0 1 866 225)"/><path d="M115.411 86.7889C115.411 81.0278 111.943 75.8367 106.619 73.6333 101.3 71.4291 95.175 72.6494 91.1017 76.7182 87.0279 80.7919 85.8078 86.9176 88.0118 92.2404 90.2161 97.5639 95.4118 101.033 101.167 101.033 109.03 101.023 115.401 94.6515 115.411 86.7887ZM101.167 77.1656C101.403 77.1656 101.63 77.1853 101.861 77.2001L91.9671 83.9751C93.2119 79.9308 96.9413 77.1706 101.168 77.1656ZM91.6228 87.9456 105.704 78.3072C106.722 78.8582 107.637 79.5863 108.4 80.4622L92.6512 91.2516C92.1099 90.2234 91.7606 89.1017 91.6229 87.9454ZM94.506 93.7167 110.039 83.07 110.044 83.07C110.354 83.8128 110.57 84.6002 110.679 85.4021L96.4547 95.1732 96.4547 95.1682C95.7461 94.7697 95.0918 94.2826 94.5063 93.7168ZM110.452 89.2935C109.227 93.8593 104.862 96.8557 100.164 96.3585Z" fill="#FFFFFF" transform="matrix(1.005 0 0 1 866 225)"/><path d="M81.15 88.2167C81.15 83.208 78.1342 78.6917 73.5044 76.7778 68.8797 74.8589 63.5561 75.9217 60.0139 79.4592 56.4716 83.0016 55.4136 88.3253 57.3275 92.9553 59.2463 97.5801 63.7581 100.596 68.7664 100.601 75.6003 100.591 81.1403 95.0512 81.1503 88.217ZM61.0078 88.2167C61.0078 85.0778 62.8971 82.2483 65.7949 81.0433 68.6977 79.8428 72.0382 80.5071 74.2571 82.7258 76.4761 84.9496 77.1403 88.2853 75.9396 91.1881 74.7391 94.0861 71.9053 95.9802 68.7663 95.9802 64.4809 95.9752 61.0124 92.5017 61.0074 88.2163Z" fill="#FFFFFF" transform="matrix(1.005 0 0 1 866 225)"/><path d="M137.472 103.55C135.111 103.191 132.71 103.196 130.348 103.565 125.355 104.347 120.764 106.768 117.296 110.443 113.748 107.835 109.63 106.103 105.286 105.38 102.535 104.957 99.7358 104.962 96.9906 105.39 92.7592 106.098 88.7444 107.771 85.2611 110.27 81.7926 106.674 77.2411 104.312 72.3017 103.55 69.9401 103.191 67.5391 103.196 65.1778 103.564 45.2622 107.259 46.0344 127.156 46.0444 127.358L46.0789 128.042 46.4824 128.598C47.1809 129.558 51.5599 134.354 69.2368 134.354 71.2342 134.354 73.1138 134.266 74.929 134.138L75.1014 134.374C75.5983 135.053 80.543 141.02 101.724 141.02 122.659 141.02 126.796 135.254 127.412 134.098L127.436 134.053C129.616 134.245 131.948 134.349 134.418 134.349 152.292 134.349 155.874 129.325 156.411 128.321L156.657 127.864 156.681 127.347C156.686 127.15 157.454 107.259 137.474 103.548ZM97.8261 109.936C98.6034 109.813 99.3908 109.739 100.173 109.715L81.2257 122.728C83.4201 117.454 88.0596 111.746 97.8262 109.936ZM74.855 129.518C73.074 129.651 71.2142 129.739 69.2361 129.739 56.7489 129.739 52.0011 127.186 50.6583 126.236 50.7616 122.787 52.1294 110.688 66.0233 108.11L66.0233 108.105C67.8437 107.834 69.6987 107.834 71.524 108.105 75.4354 108.7 79.0468 110.545 81.8218 113.36 77.8858 117.896 75.4501 123.539 74.8551 129.512ZM79.7899 127.456 105.109 110.06C106.359 110.316 107.583 110.655 108.784 111.078L79.2986 131.339C79.3673 130.035 79.5299 128.736 79.7905 127.452ZM81.7285 133.41 112.076 112.559C113.04 113.085 113.96 113.685 114.826 114.359L85.3254 134.649 85.3304 134.649C84.1003 134.324 82.8951 133.911 81.7288 133.404ZM89.4824 135.53 117.158 116.495C117.793 117.184 118.383 117.922 118.914 118.694L93.69 136.062C92.1401 135.92 90.743 135.738 89.4834 135.531ZM101.718 136.406C100.656 136.406 99.6521 136.386 98.6827 136.357L120.484 121.355C121.025 122.443 121.478 123.574 121.847 124.731L104.995 136.347C103.953 136.381 102.88 136.406 101.724 136.406ZM111.037 135.919 122.633 127.924 122.638 127.924C122.899 129.321 123.041 130.733 123.071 132.15 122.156 132.957 119.115 134.989 111.041 135.919Z" fill="#FFFFFF" transform="matrix(1.005 0 0 1 866 225)"/><path d="M146.328 88.2167C146.328 83.208 143.312 78.6967 138.682 76.7778 134.057 74.8639 128.734 75.9217 125.192 79.4642 121.649 83.0017 120.591 88.3303 122.505 92.9547 124.424 97.5795 128.936 100.596 133.944 100.6 140.778 100.591 146.318 95.0506 146.328 88.2164Z" fill="#FFFFFF" transform="matrix(1.005 0 0 1 866 225)"/></g></svg>