<?xml version="1.0" encoding="UTF-8"?>
<svg width="3600pt" height="3600pt" version="1.1" viewBox="0 0 3600 3600" xmlns="http://www.w3.org/2000/svg">
 <path d="m3600 1800c0 643.08-343.08 1237.3-900 1558.8-556.92 321.54-1243.1 321.54-1800 0-556.92-321.54-900-915.77-900-1558.8s343.08-1237.3 900-1558.8c556.92-321.54 1243.1-321.54 1800 0 556.92 321.54 900 915.77 900 1558.8" fill="#174460"/>
 <path d="m2713.9 1180.7 105.47 105.47c13.105 13.105 13.105 34.449 0 47.559l-105.47 105.47c-124.25 124.25-326.97 124.25-451.21 0l-105.47-105.47c-13.105-13.105-13.105-34.449 0-47.559l105.47-105.47c124.25-124.25 326.97-124.25 451.21 0zm-1332.9-457.6v179.25c0 54.996-44.902 99.895-99.895 99.895h-210.33v-10.098c0-21.254 8.1484-39.586 23.91-53.934l215.82-196.16c23.113-20.988 42.949-18.953 70.496-18.953zm511.45 1733c18.598 0 33.652-15.055 33.652-33.652 0-18.598-15.055-33.652-33.652-33.652h-184.91c-18.598 0-33.652 15.055-33.652 33.652 0 18.598 15.055 33.652 33.652 33.652zm704.06-1613v192.27c60.488 17.535 117.52 50.035 165.07 97.594l105.47 105.47c3.6328 3.6328 6.9062 7.4375 9.832 11.426v-271.88c0-71.824-54.996-134.96-126.46-134.96h-153.92zm280.38 1476.7v101.31c0 71.824-54.996 134.96-126.46 134.96h-659.06v90.688h-582.63v-90.688h-659.15c-71.469 0-126.46-63.145-126.46-134.96v-101.31zm-1559.8 394.28h965.92c14.258 0 26.391 8.4141 31.438 21.785l44.637 118.23c4.1641 11.07-3.8984 22.762-15.762 22.762h-1086.6c-11.777 0-19.926-11.691-15.762-22.762l44.637-118.23c5.0469-13.371 17.18-21.785 31.438-21.785zm1559.8-1344.3c-2.9219 3.9844-6.1992 7.793-9.832 11.426l-105.47 105.47c-47.559 47.559-104.59 80.059-165.07 97.594v668.2h280.38zm-1963.1 882.78c-132.49-110.88-139.39-312-15.055-431.46 30.906-29.668 66.688-51.188 104.68-64.473l0.089844-764.55c0-40.207 16.117-76.691 45.961-103.79l49.684-45.168h-249.57c-71.469 0-126.46 63.145-126.46 134.96v1274.5zm25.328-68.281c-85.195-88.648-82.359-229.46 6.2891-314.66 88.648-85.195 229.46-82.273 314.66 6.375 85.195 88.648 82.359 229.55-6.2891 314.66-88.648 85.109-229.46 82.273-314.66-6.375zm276.23-189.61-118.5 118.5c-13.105 13.105-34.449 13.105-47.645 0l-65.355-65.355c-13.105-13.105-13.105-34.449 0-47.559 13.105-13.105 34.449-13.105 47.559 0l41.621 41.535 94.762-94.762c13.105-13.105 34.449-13.105 47.559 0 13.105 13.105 13.105 34.449 0 47.559zm-144.53-252.92c85.461-8.4141 173.76 20.988 237.78 87.586 116.46 121.24 105.56 315.45-23.203 423.23h1243.7v-655c-112.12 11.777-228.39-25.062-314.04-110.7l-105.47-105.47c-39.41-39.32-39.41-103.44 0-142.76l105.47-105.47c85.637-85.637 201.92-122.57 314.04-110.7l0.089844-192.8c0-58.715-47.824-106.54-106.54-106.54h-974.35v179.25c0 92.191-75.012 167.2-167.2 167.2h-210.33zm390.2 86.523h880.74c18.598 0 33.652 15.055 33.652 33.652s-15.055 33.652-33.652 33.652h-880.74c-18.598 0-33.652-15.055-33.652-33.652s15.055-33.652 33.652-33.652zm-202.71-226.99h1052c18.598 0 33.652 15.055 33.652 33.652 0 18.598-15.055 33.652-33.652 33.652h-1052c-18.598 0-33.652-15.055-33.652-33.652 0-18.598 15.055-33.652 33.652-33.652zm0-226.99h765.34c18.598 0 33.652 15.055 33.652 33.652 0 18.598-15.055 33.652-33.652 33.652h-765.34c-18.598 0-33.652-15.055-33.652-33.652 0-18.598 15.055-33.652 33.652-33.652zm0-226.99h765.34c18.598 0 33.652 15.055 33.652 33.652s-15.055 33.652-33.652 33.652h-765.34c-18.598 0-33.652-15.055-33.652-33.652s15.055-33.652 33.652-33.652zm1230 30.109c-73.152 0-132.4 59.246-132.4 132.4 0 73.062 59.246 132.4 132.4 132.4 85.371 0 145.77-78.465 129.92-157.99-55.703-7.9688-100.16-50.656-110.88-105.39-6.1992-0.88672-12.574-1.3281-19.039-1.3281z" fill="#fff" fill-rule="evenodd"/>
</svg>
