<svg width="1141" height="1141" xmlns="http://www.w3.org/2000/svg" xmlns:xlink="http://www.w3.org/1999/xlink" xml:space="preserve" overflow="hidden"><g transform="translate(-2784 -374)"><path d="M2787.5 944.5C2787.5 631.354 3041.35 377.5 3354.5 377.5 3667.65 377.5 3921.5 631.354 3921.5 944.5 3921.5 1257.65 3667.65 1511.5 3354.5 1511.5 3041.35 1511.5 2787.5 1257.65 2787.5 944.5Z" stroke="#FFFFFF" stroke-width="6.875" stroke-miterlimit="8" fill="#FFFFFF" fill-rule="evenodd"/><path d="M2951.5 704.5 3088.6 705.991 3196.87 1124.5 3588.5 1122.4 3666.5 798.211" stroke="#174460" stroke-width="20.625" stroke-linecap="round" stroke-linejoin="round" stroke-miterlimit="10" fill="none" fill-rule="evenodd"/><path d="M3199.5 1245C3199.5 1202.2 3234.2 1167.5 3277 1167.5 3319.8 1167.5 3354.5 1202.2 3354.5 1245 3354.5 1287.8 3319.8 1322.5 3277 1322.5 3234.2 1322.5 3199.5 1287.8 3199.5 1245Z" stroke="#174460" stroke-width="20.625" stroke-miterlimit="8" fill="none" fill-rule="evenodd"/><path d="M3443.5 1245C3443.5 1202.2 3478.2 1167.5 3521 1167.5 3563.8 1167.5 3598.5 1202.2 3598.5 1245 3598.5 1287.8 3563.8 1322.5 3521 1322.5 3478.2 1322.5 3443.5 1287.8 3443.5 1245Z" stroke="#174460" stroke-width="20.625" stroke-miterlimit="8" fill="none" fill-rule="evenodd"/><g><g><g><path d="M191.169 29.9625 191.169 347.688 153.344 309.885C148.415 304.955 140.423 304.955 135.494 309.885 130.565 314.814 130.565 322.805 135.494 327.735L194.994 387.175C199.689 392.104 207.49 392.295 212.419 387.6 212.564 387.462 212.706 387.32 212.844 387.175L272.302 327.726C277.231 323.031 277.421 315.23 272.727 310.301 272.589 310.156 272.447 310.014 272.302 309.876 267.607 304.947 259.806 304.756 254.877 309.451 254.732 309.589 254.59 309.731 254.452 309.876L216.648 347.68 216.648 29.9625C216.648 22.9209 210.94 17.2125 203.898 17.2125 196.856 17.2125 191.148 22.9209 191.148 29.9625Z" stroke="#174460" stroke-width="1.15254" fill="#174460" transform="matrix(1.00245 0 0 1 3196 630)"/></g></g></g></g></svg>