<?xml version="1.0" encoding="UTF-8"?>
<svg width="1200pt" height="1200pt" version="1.1" viewBox="0 0 1200 1200" xmlns="http://www.w3.org/2000/svg">
 <path d="m1200 600c0 214.36-114.36 412.44-300 519.62-185.64 107.18-414.36 107.18-600 0-185.64-107.18-300-305.26-300-519.62s114.36-412.44 300-519.62c185.64-107.18 414.36-107.18 600 0 185.64 107.18 300 305.26 300 519.62z" fill="#fff"/>
 <path d="m392.15 632.1 112.5 24.492-31.98 38.836v23.98c0 4.4883-3.6367 8.125-8.125 8.125-4.4883 0-8.125-3.6406-8.125-8.125v-23.754h-20.879v23.754c0 4.4883-3.6406 8.125-8.125 8.125-4.4805 0-8.125-3.6406-8.125-8.125v-23.754h-24.207l13.648 106.28h-26.512l-26.008-106.17-0.48438-16.391zm228.3 26.344-18.426 143.48h26.512l27.34-117.69-13.809-25.809zm319.62-5.3047-66.418 0.21875-117.97-226.74c-9.1445-17.539-27.281-28.543-47.066-28.543h-406.18c-23.477 0.007812-42.508 19.043-42.508 42.516v201.92h21.258v-201.92c0-11.715 9.5391-21.258 21.258-21.258v96.309l10.625 73.727-10.625 63.766 10.625 148.79h26.57l0.003906-127.52 46.047-60.02 129.31 28.137 138.93-0.03125 27.863 53.164 11.215 106.28h26.57v-159.41l151.44 159.41h22.141c9.7773 0 17.715-7.9258 17.715-17.715v-101.85z" fill="#174460"/>
</svg>
