<svg width="371" height="371" xmlns="http://www.w3.org/2000/svg" xmlns:xlink="http://www.w3.org/1999/xlink" xml:space="preserve" overflow="hidden"><g transform="translate(-3 -809)"><path d="M6.50003 994.5C6.50003 893.984 87.9842 812.5 188.5 812.5 289.016 812.5 370.5 893.984 370.5 994.5 370.5 1095.02 289.016 1176.5 188.5 1176.5 87.9842 1176.5 6.50003 1095.02 6.50003 994.5Z" stroke="#1E583E" stroke-width="6.875" stroke-miterlimit="8" fill="none" fill-rule="evenodd"/><g><g><g><path d="M201.073 931.8C211.201 931.803 219.414 923.595 219.416 913.467 219.419 903.339 211.211 895.126 201.083 895.123 190.955 895.121 182.742 903.329 182.74 913.457 182.74 913.458 182.74 913.46 182.74 913.462 182.739 923.588 190.946 931.798 201.073 931.8ZM201.073 899.707C208.669 899.704 214.83 905.86 214.833 913.457 214.836 921.053 208.68 927.214 201.083 927.217 193.486 927.22 187.326 921.063 187.323 913.467 187.323 913.465 187.323 913.463 187.323 913.462 187.33 905.87 193.481 899.717 201.073 899.707Z" stroke="#1E583E" stroke-width="2.29167"/><path d="M175.78 1045.78 179.376 1028.39 175.302 1025.46 171.275 1044.94C171.075 1045.94 170.632 1046.87 169.986 1047.65L138.833 1085.48C137.616 1087.06 135.725 1087.98 133.729 1087.96 132.228 1087.97 130.772 1087.45 129.626 1086.48 128.29 1085.38 127.455 1083.79 127.312 1082.07 127.162 1080.33 127.706 1078.59 128.827 1077.25L158.626 1040.99C158.864 1040.7 159.026 1040.36 159.1 1039.99L163.782 1017.13C162.269 1015.98 160.973 1014.57 159.955 1012.97L154.725 1038.52 125.289 1074.34C121.366 1079.05 121.986 1086.04 126.677 1089.99 128.647 1091.65 131.148 1092.56 133.729 1092.54 137.107 1092.57 140.306 1091.03 142.394 1088.37L173.546 1050.53C174.672 1049.16 175.44 1047.53 175.78 1045.78Z" stroke="#1E583E" stroke-width="2.29167"/><path d="M244.301 983.979 222.375 976.739C219.562 970.224 210.033 948.169 209.558 947.222 206.034 940.8 199.317 936.78 191.992 936.708L191.175 936.708C181.518 936.708 174.07 944.002 171.741 955.724L162.192 1002.04C161.292 1006.46 163.067 1011 166.729 1013.64L200.596 1038.04 200.596 1040.99 163.052 1086.5C162.247 1087.48 162.385 1088.92 163.361 1089.73 164.338 1090.53 165.783 1090.39 166.589 1089.42L200.597 1048.2 200.597 1081.35C200.569 1087.53 205.555 1092.56 211.733 1092.59 217.911 1092.62 222.942 1087.63 222.97 1081.45 222.97 1081.42 222.97 1081.39 222.97 1081.35L222.97 1032.42C222.987 1029.57 221.904 1026.82 219.946 1024.74L236.271 1004.96 237.275 1005.29C238.387 1005.61 239.536 1005.78 240.692 1005.8 245.464 1005.73 249.695 1002.71 251.319 998.223 253.306 992.352 250.167 985.981 244.301 983.979ZM218.386 1032.42 218.386 1081.35C218.407 1085 215.469 1087.97 211.822 1087.99 208.175 1088.02 205.201 1085.08 205.18 1081.43 205.18 1081.4 205.18 1081.38 205.18 1081.35L205.18 1042.64 216.99 1028.33C217.904 1029.49 218.396 1030.94 218.386 1032.42ZM216.348 1021.9 198.083 1008.52 202.362 987.13 203.73 990.294C205.074 993.101 207.465 995.27 210.39 996.334L231.608 1003.4ZM199.829 969.973C199.285 968.831 197.918 968.345 196.775 968.889 195.68 969.41 195.181 970.693 195.635 971.818L199.152 979.812 193.303 1009.06C193.128 1009.93 193.476 1010.83 194.197 1011.36L213.429 1025.44 204.899 1035.78C204.737 1035.48 204.509 1035.21 204.232 1035.01L169.407 1009.92C167.21 1008.33 166.144 1005.61 166.683 1002.96L176.235 956.633C177.707 949.216 182.406 941.292 191.175 941.292L191.992 941.292C197.617 941.353 202.776 944.43 205.502 949.351 205.918 950.224 213.548 967.861 218.574 979.501 218.833 980.101 219.338 980.562 219.959 980.767L242.858 988.327C246.297 989.512 248.142 993.243 246.996 996.695 246.033 999.361 243.526 1001.16 240.692 1001.21 239.959 1001.19 239.232 1001.08 238.525 1000.89L211.898 992.008C210.145 991.347 208.71 990.042 207.883 988.361Z" stroke="#1E583E" stroke-width="2.29167"/><path d="M140.532 1002.6C141.774 1002.9 143.048 1003.05 144.325 1003.05 151.908 1003.03 158.438 997.703 159.989 990.281L167.472 954.386C168.222 950.772 166.733 947.06 163.694 944.965 171.448 940.696 174.273 930.95 170.004 923.196 165.735 915.442 155.989 912.617 148.235 916.886 140.481 921.155 137.656 930.901 141.925 938.655 142.123 939.015 142.335 939.367 142.56 939.711 142.787 940.058 143.036 940.385 143.286 940.711 139.666 941.419 136.822 944.227 136.068 947.838L128.7 983.169C126.811 991.768 132.025 1000.33 140.532 1002.6ZM144.762 928.582C145.868 923.278 150.536 919.472 155.954 919.458 156.748 919.458 157.54 919.54 158.317 919.702 164.512 920.993 168.488 927.062 167.197 933.257 165.906 939.452 159.837 943.428 153.642 942.137L153.637 942.137C147.444 940.844 143.471 934.776 144.762 928.582ZM133.185 984.104 140.552 948.773C140.994 946.65 142.863 945.128 145.031 945.123 145.348 945.123 145.665 945.155 145.976 945.219L159.435 948.026C161.911 948.547 163.501 950.972 162.989 953.451L155.504 989.345C154.212 995.54 148.143 999.515 141.948 998.223 141.832 998.199 141.717 998.173 141.602 998.145 135.494 996.468 131.786 990.282 133.185 984.104Z" stroke="#1E583E" stroke-width="2.29167"/><path d="M155.275 934.285C157.13 934.676 158.951 933.489 159.342 931.634 159.342 931.631 159.343 931.627 159.344 931.624L159.344 931.621C159.726 929.763 158.535 927.945 156.678 927.555 154.814 927.195 153.012 928.415 152.652 930.279 152.3 932.104 153.462 933.877 155.275 934.284Z" stroke="#1E583E" stroke-width="2.29167"/></g></g></g></g></svg>