<svg width="753" height="753" xmlns="http://www.w3.org/2000/svg" xmlns:xlink="http://www.w3.org/1999/xlink" xml:space="preserve" overflow="hidden"><defs><clipPath id="clip0"><rect x="2730" y="1023" width="753" height="753"/></clipPath></defs><g clip-path="url(#clip0)" transform="translate(-2730 -1023)"><path d="M2730 1399.5C2730 1191.56 2898.56 1023 3106.5 1023 3314.44 1023 3483 1191.56 3483 1399.5 3483 1607.44 3314.44 1776 3106.5 1776 2898.56 1776 2730 1607.44 2730 1399.5Z" fill="#022C45" fill-rule="evenodd"/><g><g><g><path d="M3051.78 1319.71C3046.95 1319.5 3042.82 1323 3042.51 1327.81 3042.18 1332.59 3045.8 1336.75 3050.6 1337.08 3065.01 1338.08 3079.85 1338.58 3094.69 1338.58 3144.99 1338.58 3192.21 1332.9 3227.67 1322.56 3232.28 1321.22 3234.94 1316.39 3233.59 1311.77 3232.24 1307.16 3227.43 1304.51 3222.8 1305.85 3188.88 1315.73 3143.38 1321.17 3094.69 1321.17 3080.24 1321.17 3065.79 1320.67 3051.78 1319.71Z" fill="#FFFFFF"/><path d="M2981.55 1295.06C2967.15 1295.06 2955.44 1306.77 2955.44 1321.17 2955.44 1335.58 2967.15 1347.28 2981.55 1347.28 2995.96 1347.28 3007.66 1335.58 3007.66 1321.17 3007.66 1306.77 2995.96 1295.06 2981.55 1295.06ZM2981.55 1329.88C2976.76 1329.88 2972.85 1325.98 2972.85 1321.17 2972.85 1316.36 2976.76 1312.47 2981.55 1312.47 2986.34 1312.47 2990.25 1316.36 2990.25 1321.17 2990.25 1325.98 2986.34 1329.88 2981.55 1329.88Z" fill="#FFFFFF"/><path d="M3233.59 1433.62C3232.25 1429 3227.44 1426.35 3222.8 1427.7 3188.88 1437.58 3143.38 1443.02 3094.69 1443.02 3080.24 1443.02 3065.8 1442.52 3051.79 1441.56 3046.96 1441.36 3042.82 1444.84 3042.52 1449.65 3042.19 1454.44 3045.8 1458.59 3050.61 1458.92 3065.01 1459.92 3079.85 1460.42 3094.69 1460.42 3145 1460.42 3192.21 1454.74 3227.68 1444.41 3232.29 1443.06 3234.94 1438.23 3233.59 1433.62Z" fill="#FFFFFF"/><path d="M2981.55 1416.91C2967.15 1416.91 2955.44 1428.61 2955.44 1443.02 2955.44 1457.42 2967.15 1469.12 2981.55 1469.12 2995.96 1469.12 3007.66 1457.42 3007.66 1443.02 3007.66 1428.61 2995.96 1416.91 2981.55 1416.91ZM2981.55 1451.72C2976.76 1451.72 2972.85 1447.82 2972.85 1443.02 2972.85 1438.21 2976.76 1434.31 2981.55 1434.31 2986.34 1434.31 2990.25 1438.21 2990.25 1443.02 2990.25 1447.82 2986.34 1451.72 2981.55 1451.72Z" fill="#FFFFFF"/><path d="M2981.55 1538.75C2967.15 1538.75 2955.44 1550.46 2955.44 1564.86 2955.44 1579.26 2967.15 1590.97 2981.55 1590.97 2995.96 1590.97 3007.66 1579.26 3007.66 1564.86 3007.66 1550.46 2995.96 1538.75 2981.55 1538.75ZM2981.55 1573.56C2976.76 1573.56 2972.85 1569.67 2972.85 1564.86 2972.85 1560.05 2976.76 1556.16 2981.55 1556.16 2986.34 1556.16 2990.25 1560.05 2990.25 1564.86 2990.25 1569.67 2986.34 1573.56 2981.55 1573.56Z" fill="#FFFFFF"/><path d="M3286.16 1455.42 3286.16 1216.73C3286.16 1176.74 3189.83 1155.81 3094.69 1155.81 2999.54 1155.81 2903.22 1176.74 2903.22 1216.73L2903.22 1582.27C2903.22 1622.26 2999.54 1643.19 3094.69 1643.19 3138.33 1643.19 3180.18 1638.8 3213.2 1630.85 3227.06 1638.67 3243.03 1643.19 3260.04 1643.19 3312.83 1643.19 3355.78 1600.24 3355.78 1547.45 3355.78 1503.72 3326.28 1466.84 3286.16 1455.42ZM3178.19 1498.04C3152.71 1501.87 3124.01 1503.94 3094.69 1503.94 2988.42 1503.94 2920.62 1478.18 2920.62 1460.42L2920.62 1365.56C2952.61 1387.93 3023.95 1399.5 3094.69 1399.5 3165.42 1399.5 3236.77 1387.93 3268.75 1365.56L3268.75 1452.16C3265.88 1451.89 3262.98 1451.72 3260.05 1451.72 3225.34 1451.72 3194.99 1470.34 3178.2 1498.04ZM3268.75 1338.58C3268.75 1356.33 3200.95 1382.09 3094.69 1382.09 2988.42 1382.09 2920.62 1356.33 2920.62 1338.58L2920.62 1243.72C2952.61 1266.08 3023.95 1277.66 3094.69 1277.66 3165.42 1277.66 3236.77 1266.08 3268.75 1243.72ZM3094.69 1173.21C3200.95 1173.21 3268.75 1198.97 3268.75 1216.73 3268.75 1234.48 3200.95 1260.24 3094.69 1260.24 2988.42 1260.24 2920.62 1234.48 2920.62 1216.73 2920.62 1198.97 2988.42 1173.21 3094.69 1173.21ZM3094.69 1625.78C2988.42 1625.78 2920.62 1600.02 2920.62 1582.26L2920.62 1487.4C2952.61 1509.77 3023.95 1521.34 3094.69 1521.34 3120.6 1521.34 3146.06 1519.73 3169.45 1516.79 3166.16 1526.43 3164.31 1536.72 3164.31 1547.45 3164.31 1551.93 3164.73 1556.33 3165.33 1560.63 3143.18 1563.38 3119.53 1564.86 3094.68 1564.86 3080.24 1564.86 3065.79 1564.36 3051.78 1563.4 3046.95 1563.22 3042.81 1566.68 3042.51 1571.49 3042.18 1576.28 3045.79 1580.43 3050.6 1580.76 3065.01 1581.76 3079.84 1582.26 3094.68 1582.26 3120.92 1582.26 3145.9 1580.67 3169.29 1577.69 3174.36 1592.88 3183.13 1606.33 3194.53 1617.07 3165.42 1622.69 3130.76 1625.78 3094.69 1625.78ZM3260.05 1625.78C3216.86 1625.78 3181.73 1590.63 3181.73 1547.45 3181.73 1504.27 3216.87 1469.13 3260.05 1469.13 3303.24 1469.13 3338.38 1504.27 3338.38 1547.45 3338.38 1590.63 3303.24 1625.78 3260.05 1625.78Z" fill="#FFFFFF"/><path d="M3286.52 1519.54 3249.16 1556.9 3233.56 1541.3C3230.17 1537.9 3224.67 1537.9 3221.25 1541.3 3217.86 1544.69 3217.86 1550.19 3221.25 1553.61L3243.01 1575.37C3244.7 1577.07 3246.92 1577.91 3249.17 1577.91 3251.38 1577.91 3253.63 1577.07 3255.32 1575.37L3298.84 1531.85C3302.23 1528.46 3302.23 1522.95 3298.84 1519.54 3295.42 1516.14 3289.94 1516.14 3286.52 1519.54Z" fill="#FFFFFF"/></g></g></g></g></svg>