<svg width="201" height="201" xmlns="http://www.w3.org/2000/svg" xmlns:xlink="http://www.w3.org/1999/xlink" xml:space="preserve" overflow="hidden"><g transform="translate(-113 -433)"><path d="M314 533.5C314 569.405 294.845 602.583 263.75 620.533 232.655 638.486 194.344 638.486 163.25 620.533 132.155 602.58 113 569.403 113 533.5 113 497.597 132.155 464.417 163.25 446.467 194.345 428.514 232.656 428.514 263.75 446.467 294.845 464.42 314 497.597 314 533.5" fill="#174460"/><path d="M199.195 549.072C198.816 548.819 198.436 549.198 198.183 549.325 195.145 550.844 192.107 552.237 189.195 554.135 188.562 554.515 188.056 554.262 187.676 553.756 187.17 553.249 187.93 552.996 188.183 552.869 190.335 551.097 192.866 549.832 195.398 548.819 196.284 548.439 197.297 547.933 198.309 547.3 197.55 547.173 196.917 547.426 196.411 547.68 193.246 548.945 190.081 550.464 187.17 552.11 186.791 552.363 186.284 552.616 185.778 552.237 185.018 551.857 185.018 551.35 185.651 550.844 187.93 549.072 190.462 548.059 193.12 547.047 194.006 546.667 195.018 546.287 195.905 545.781 194.892 545.654 193.879 545.907 192.867 546.287 190.082 547.3 187.424 548.692 184.765 549.958 184.132 550.338 182.613 549.452 182.613 548.692 182.613 548.312 182.993 548.186 183.246 548.059 186.031 546.414 189.069 545.401 192.107 544.388 193.373 544.009 194.512 543.629 196.031 543.123 195.145 542.743 194.639 543.123 194.132 543.249 190.208 544.388 186.158 545.528 182.613 547.68 182.487 547.806 182.234 547.933 181.98 547.806 181.221 547.3 180.841 546.54 180.714 545.654 180.588 545.021 181.221 544.895 181.601 544.641 184.512 542.996 187.803 542.11 191.095 541.35 192.36 541.097 193.499 540.971 194.639 540.084 193.373 540.338 192.107 540.464 190.968 540.717 187.297 541.477 183.753 542.236 180.588 544.262 180.082 544.641 179.575 544.388 179.196 543.882 178.816 543.376 179.196 542.996 179.575 542.743 180.461 542.11 181.347 541.73 182.36 541.35 185.778 539.958 189.322 539.578 192.866 538.819 193.373 538.692 193.879 538.692 194.259 538.186 192.74 538.186 191.474 538.692 190.208 538.819 187.55 539.198 184.892 539.831 182.36 540.718 181.094 541.097 179.955 541.604 178.816 542.363 178.31 542.743 177.93 542.743 177.424 542.363 176.917 541.983 176.664 541.604 177.55 541.224 180.588 539.578 183.879 539.072 187.044 538.313 188.816 537.806 190.715 537.426 192.614 537.047 192.993 536.92 193.373 536.92 193.626 536.414 192.487 536.667 191.221 536.794 190.082 537.047 187.171 537.68 184.259 538.313 181.348 539.072 179.956 539.452 178.69 540.085 177.297 540.718 176.032 541.224 175.652 541.097 175.399 539.705 175.272 539.072 175.399 538.692 176.158 538.439 181.854 537.047 187.677 536.161 193.12 534.262 193.247 534.262 193.373 534.262 193.5 534.009 192.867 533.629 192.234 534.009 191.728 534.135 186.285 535.781 180.589 536.54 175.145 538.059 174.133 538.312 173.247 537.679 173.12 536.54 173.12 535.907 173.247 535.654 174.006 535.527 179.955 534.262 185.905 533.502 191.475 531.35 191.981 531.097 192.488 530.844 193.12 530.591 192.741 530.338 192.488 530.464 192.234 530.591 187.677 532.363 182.867 533.122 178.057 534.135 176.285 534.515 174.64 534.894 172.867 535.148 172.488 535.148 172.108 535.401 171.855 534.894 171.601 534.388 171.348 533.755 171.475 533.122 171.601 532.616 172.234 532.743 172.614 532.743 175.652 532.616 178.69 532.11 181.602 531.224 181.981 531.097 182.234 530.97 182.614 530.591 180.715 530.97 179.07 531.224 177.424 531.477 175.019 531.983 172.741 532.236 170.462 532.236 169.702 532.236 169.196 531.73 168.69 531.224 168.183 530.464 168.563 529.705 169.576 529.705 172.867 529.831 176.285 530.084 179.576 530.084 182.361 530.084 185.019 529.451 187.804 528.945 187.93 528.945 188.057 528.819 188.31 528.565 186.791 528.439 185.399 528.819 184.133 529.072 181.728 529.452 179.323 529.578 176.918 529.325 174.513 529.199 171.981 528.945 169.576 528.945 168.943 528.945 168.183 528.945 167.677 528.566 167.297 528.312 167.044 527.933 167.17 527.553 167.297 527.047 167.803 527.173 168.183 527.173 171.095 527.427 174.006 527.68 176.917 527.933 179.575 528.186 182.107 527.806 184.765 527.553 184.639 527.047 184.385 527.173 184.132 527.173 180.082 527.68 176.157 527.3 172.233 526.794 170.841 526.667 169.322 526.54 167.93 526.287 167.55 526.161 167.17 526.287 167.17 525.654 167.297 525.148 167.677 525.021 168.056 525.148 169.322 525.274 170.715 525.528 171.98 525.654 176.158 526.161 180.335 526.287 184.512 526.287 186.158 526.287 187.677 526.161 189.322 525.781 189.196 525.401 188.943 525.401 188.816 525.528 185.145 526.034 181.474 525.781 177.803 525.528 174.006 525.401 170.335 524.768 166.664 524.262 166.284 524.262 166.031 524.135 165.778 523.882 165.398 523.376 164.512 522.869 164.892 522.236 165.145 521.604 166.031 522.11 166.537 522.11 170.841 522.49 175.018 523.502 179.322 523.756 181.474 523.882 183.499 523.882 185.651 523.882 185.018 523.502 184.386 523.502 183.753 523.502 179.069 523.502 174.512 522.743 169.955 521.857 168.309 521.604 166.664 521.35 165.018 521.097 163.879 520.971 163.246 520.085 163.12 519.072 162.993 518.186 163.753 517.427 164.639 517.806 169.829 519.705 175.145 521.224 180.588 521.857 181.727 521.983 182.867 522.363 184.259 522.236 183.626 521.604 182.866 521.73 182.234 521.73 176.411 520.844 170.588 519.452 165.145 517.3 164.512 517.046 163.753 516.793 163.12 516.54 161.981 516.034 161.348 514.641 161.728 513.502 161.854 512.996 162.107 512.996 162.487 513.122 168.436 515.654 174.512 517.933 180.715 519.578 181.981 519.958 183.12 520.211 184.766 520.084 183.753 519.578 182.867 519.578 182.107 519.325 178.31 518.439 174.639 517.046 170.968 515.654 168.057 514.515 165.272 513.376 162.487 512.11 161.601 511.73 160.841 511.097 160.208 510.464 159.702 509.958 159.069 509.452 159.576 508.692 159.955 508.059 161.221 507.806 161.98 508.312 163.373 509.072 164.765 510.085 166.158 510.717 170.588 512.869 174.892 515.274 179.576 516.667 179.702 516.667 179.829 516.793 179.955 516.667 179.955 516.287 179.576 516.413 179.449 516.287 173.373 514.135 167.93 510.97 162.487 507.806 160.082 506.413 158.436 504.515 156.917 502.11 156.664 501.73 156.284 501.35 156.791 500.97 157.424 500.59 157.803 500.97 158.057 501.223 162.487 504.261 166.917 507.172 171.727 509.577L171.981 509.577C171.854 508.944 171.221 508.818 170.842 508.565 166.158 505.78 162.994 501.856 160.335 497.172 159.703 496.033 159.449 494.768 159.07 493.628 158.943 493.375 158.943 492.995 159.323 492.742 159.703 492.489 159.956 492.869 160.209 493.122 163.374 497.299 166.918 501.096 170.969 504.514 172.488 505.78 173.627 507.299 175.272 508.312 175.652 508.565 176.032 508.691 176.665 509.071 176.158 507.932 175.272 507.679 174.639 507.046 169.703 502.236 165.905 496.793 164.513 489.957 164.386 489.578 164.26 489.198 164.766 489.071 165.273 488.818 165.526 489.198 165.652 489.578 169.07 495.147 173.121 500.211 177.171 505.4 178.184 506.793 179.45 507.932 181.095 508.818 181.095 508.185 180.716 507.932 180.336 507.552 176.285 503.375 173.374 498.565 171.348 493.122 170.589 490.97 170.462 488.691 170.715 486.413 170.715 486.033 170.715 485.4 171.348 485.274 171.981 485.147 171.981 485.78 172.108 486.287 173.753 491.097 175.905 495.78 178.437 500.211 179.829 502.743 181.349 505.274 183.374 507.426L184.133 508.186C184.26 507.679 184.007 507.553 183.753 507.173 181.728 504.388 179.703 501.603 178.817 498.312 177.804 494.768 177.171 491.097 178.057 487.426 178.057 487.173 178.184 487.047 178.184 486.793 178.31 486.414 178.437 486.034 178.943 486.034 179.45 486.034 179.45 486.54 179.576 486.92 179.956 489.958 180.715 492.996 181.475 495.908 182.614 500.338 184.386 504.515 187.045 508.313 188.184 509.958 188.817 511.73 190.209 513.123 190.336 513.249 190.462 513.629 190.589 513.756 190.969 513.376 190.969 513.249 190.842 513.123 187.931 509.832 186.918 505.655 185.905 501.477 185.399 499.072 185.905 496.667 186.285 494.389 186.285 494.009 186.538 493.756 186.918 493.756 187.425 493.756 187.425 494.135 187.425 494.515 188.311 498.692 189.07 502.743 190.083 506.92 191.602 512.616 194.513 517.426 198.943 521.35 200.589 522.743 201.728 524.641 203.627 525.654 206.032 526.92 207.677 528.945 209.197 531.224 211.602 534.894 214.513 538.059 217.424 541.35 219.07 543.249 220.842 545.021 222.488 546.92 224.26 548.945 226.665 549.451 229.196 549.831 231.095 550.084 232.867 550.591 234.513 551.603 236.158 552.616 238.057 553.122 240.082 553.122 244.386 552.996 247.804 555.021 250.589 558.059 251.601 559.198 251.728 560.464 250.968 561.476 250.715 561.73 250.589 562.109 250.209 561.983 249.829 561.856 249.829 561.476 249.829 561.223 249.956 560.464 249.449 560.084 248.817 559.831 247.677 559.451 246.665 558.945 245.146 558.945 246.538 559.704 247.551 560.337 248.69 560.97 248.943 561.097 249.196 561.223 249.323 561.477 249.576 561.603 249.829 561.856 249.703 562.236 249.449 562.616 249.196 562.489 248.943 562.363 248.184 561.856 247.424 562.236 246.791 562.489 243.247 563.502 239.576 564.514 236.032 565.654 235.525 565.78 235.019 566.033 234.639 565.4 234.386 565.021 234.133 565.527 234.006 565.654 232.487 566.92 230.715 568.059 228.943 568.818 226.538 569.957 223.879 570.464 221.348 570.97 220.335 571.097 219.449 571.35 218.563 571.856 214.512 573.882 210.082 574.894 205.652 575.654 204.892 575.781 204.386 576.034 203.879 576.793 202.614 578.818 201.095 580.591 198.69 581.477 198.057 581.73 197.297 581.983 196.664 581.603 195.652 581.097 194.259 581.73 193.247 580.844 193.12 580.717 192.74 580.97 192.487 580.97 191.475 581.223 190.842 580.717 190.842 579.704 190.842 578.945 190.209 578.185 190.715 577.426 191.222 576.793 191.854 576.16 192.614 575.78 192.867 576.287 192.234 576.54 192.361 577.046 193.12 576.54 193.5 575.78 194.006 575.147 194.513 574.261 195.272 573.881 196.285 574.261 196.538 574.261 196.665 574.388 196.918 574.261 197.298 574.135 197.424 573.755 197.298 573.375 197.171 572.995 197.044 572.869 196.665 573.122 196.411 573.248 196.158 573.375 195.905 573.122 195.652 572.869 195.905 572.489 196.032 572.236 196.158 571.982 196.285 571.729 196.411 571.349 195.778 571.349 195.525 571.729 195.145 571.982 194.892 572.109 194.766 572.489 194.386 572.236 194.006 571.982 194.26 571.729 194.386 571.35 193.627 571.603 192.994 571.856 192.361 572.362 190.715 573.501 188.816 574.008 186.918 574.514 186.791 574.514 186.538 574.641 186.411 574.641 185.399 573.881 184.766 574.767 184.133 575.147 183.247 575.527 182.487 576.033 181.601 576.286 181.095 576.413 180.588 576.539 180.209 576.286 179.702 575.906 179.449 576.16 179.196 576.413 178.563 576.792 177.93 577.046 177.297 577.299 176.285 577.552 175.145 576.792 174.133 577.299 173.626 576.539 172.994 576.792 172.361 576.919 172.107 576.919 171.981 576.919 171.854 576.666 171.095 575.78 171.348 574.641 172.234 573.881 172.36 573.755 172.487 573.755 172.614 573.501 171.727 573.501 171.095 573.628 170.335 573.628 169.702 573.628 169.322 573.501 169.069 572.868 168.943 572.235 169.196 571.856 169.702 571.602 169.955 571.476 170.082 571.349 170.335 571.223 170.335 571.096 170.335 571.096 170.209 571.096 169.829 570.843 169.196 570.97 169.196 570.337 169.196 569.83 169.702 569.577 170.082 569.324 170.462 569.071 170.968 568.818 171.474 568.565 171.348 568.438 171.221 568.312 171.095 568.312 170.715 568.058 170.209 567.932 170.335 567.299 170.462 566.792 170.968 566.792 171.348 566.666 172.361 566.286 173.373 565.906 174.639 565.527 173.88 565.02 173.247 564.641 172.614 564.134 172.234 563.881 171.854 563.502 171.981 562.995 172.234 562.489 172.74 562.616 173.12 562.742 176.918 563.249 180.842 563.628 184.639 563.755 188.183 563.881 191.728 563.881 195.272 562.616 195.652 562.489 196.031 562.489 196.285 561.983 195.778 561.856 195.272 561.729 194.765 561.476 193.753 560.717 193.753 559.704 194.892 559.071 196.411 558.185 197.93 557.426 199.322 556.413 199.576 556.287 199.829 556.16 199.702 555.78 199.196 555.78 198.816 556.16 198.436 556.287 197.044 557.046 195.651 557.679 194.259 558.439 193.5 558.818 192.993 558.439 192.613 557.932 192.107 557.299 192.867 557.173 193.12 556.793 194.892 554.894 197.17 554.008 199.196 552.489 199.449 552.236 199.829 552.11 199.829 551.603 197.424 552.996 194.765 554.135 192.74 556.034 191.727 556.92 190.715 557.046 189.829 556.287 189.449 555.907 189.322 555.654 189.575 555.148 189.829 554.641 190.208 554.388 190.588 554.135 192.993 552.363 195.651 551.35 198.183 549.705 198.563 549.578 198.943 549.451 199.196 549.071ZM170.461 570.085C175.272 569.325 179.955 567.933 184.765 566.414 184.512 567.047 184.132 567.047 183.753 567.173 180.588 568.439 177.297 569.452 174.006 570.338 172.36 570.718 171.221 571.477 169.955 572.617 174.766 572.363 179.196 570.718 183.626 569.325 179.955 571.604 175.272 571.984 171.728 575.022 173.247 574.895 174.006 574.009 175.272 573.503 175.019 574.135 174.639 574.389 174.259 574.768 173.879 575.022 173.373 575.148 173.12 575.781 176.411 573.882 179.956 572.49 183.373 571.224 180.715 572.363 178.816 574.262 177.044 576.54 181.095 574.388 185.145 572.11 189.196 569.958 189.196 570.085 189.322 570.085 189.322 570.211 186.79 572.363 183.499 573.503 180.968 575.655 184.132 574.642 186.791 572.237 190.081 571.351 188.942 572.363 187.297 572.743 186.411 574.009 187.55 573.756 188.689 573.503 189.702 572.87 191.474 571.731 193.879 571.351 195.018 569.072 196.031 567.047 198.056 565.908 199.702 564.515 200.588 563.756 201.347 563.123 201.474 561.857 199.955 562.11 198.562 562.364 197.296 563.123 195.271 564.389 192.866 564.895 190.587 565.148 185.904 565.655 181.094 565.022 176.41 564.389 175.651 564.262 175.018 564.262 174.132 564.389 175.018 564.895 175.904 565.275 176.79 565.401 178.815 565.781 180.714 565.528 182.739 565.655 183.245 565.655 183.752 565.655 184.258 566.161 182.106 566.414 179.954 566.794 178.055 566.414 175.651 565.908 174.005 567.174 171.98 567.807 172.359 568.186 172.739 568.186 173.246 568.186 174.765 567.933 176.157 567.68 177.676 567.427 178.182 567.3 178.562 567.3 179.068 567.3 179.575 567.3 179.955 567.174 180.461 567.174 177.297 568.439 173.499 568.059 170.462 570.085ZM235.396 564.262C235.396 564.388 235.522 564.388 235.522 564.515 239.193 563.376 242.864 562.11 246.914 561.351 245.522 560.718 244.256 560.211 243.117 559.705 242.737 559.578 242.231 559.578 242.231 559.072 242.231 558.566 242.737 558.439 243.117 558.313 243.876 557.933 244.762 557.933 245.522 557.68 246.028 557.553 246.408 557.173 246.534 556.667 246.661 556.034 246.281 555.781 245.901 555.528 244.636 554.768 243.37 554.262 241.977 554.262 239.319 554.389 236.661 554.262 234.382 552.616 234.256 552.49 234.003 552.363 234.003 552.616 233.876 553.629 233.117 552.996 232.61 553.123 232.737 553.882 233.496 554.515 232.99 555.275 232.737 555.655 232.357 555.148 231.851 555.148 232.61 555.908 232.357 556.161 231.345 556.161 231.724 556.667 232.104 556.92 232.61 557.174 232.864 557.3 233.243 557.553 233.117 557.933 232.99 558.313 232.61 558.186 232.231 558.186 231.471 558.06 230.712 557.933 229.826 558.06 230.838 558.566 230.838 558.693 229.952 559.326 229.572 559.579 229.319 559.832 229.193 560.212 230.838 560.085 229.952 560.971 229.699 561.604L230.585 561.604C231.092 561.604 231.598 561.604 231.851 561.984 232.104 562.49 231.471 562.617 231.218 562.997 231.092 563.25 230.965 563.376 230.839 563.629 231.092 563.629 231.345 563.629 231.345 563.756 231.978 564.642 232.611 564.136 233.244 563.756 233.877 563.376 234.51 563.123 235.143 562.997 235.396 562.997 235.649 562.743 235.775 562.997 235.902 563.25 235.902 563.503 235.649 563.629 235.522 564.009 235.522 564.135 235.395 564.262ZM193.877 580.211C195.016 580.085 195.649 579.452 196.155 578.692 196.662 577.806 197.168 576.793 197.674 575.781 197.801 575.528 198.054 575.401 197.801 575.148 197.548 574.895 197.294 575.021 197.041 575.148 196.788 575.274 196.408 575.401 196.155 575.274 195.269 574.895 194.763 575.274 194.257 576.034 193.877 576.54 193.497 576.92 193.117 577.3 192.611 577.806 192.105 578.059 191.472 577.933 191.345 577.933 191.219 577.426 190.965 577.806 190.839 578.059 190.839 578.186 190.965 578.439 191.219 579.072 191.725 579.072 192.105 578.945 192.737 578.692 193.244 578.439 193.877 578.186 193.497 579.072 192.737 579.578 191.851 579.578 191.598 579.578 191.345 579.452 191.218 579.832 191.218 580.211 191.598 580.338 191.851 580.464 192.231 580.591 192.611 580.338 192.99 580.085 193.877 579.705 194.383 579.072 195.269 578.439 195.143 579.199 194.383 579.578 193.877 580.211ZM196.029 580.338C196.535 580.464 197.041 580.717 197.674 580.464 200.079 579.831 201.345 577.933 202.864 576.161 202.991 576.034 203.117 575.654 202.864 575.528 202.738 575.274 202.485 575.528 202.358 575.654 201.345 576.161 200.206 576.54 199.067 576.161 198.814 576.034 198.56 576.161 198.434 576.414 198.307 576.793 198.56 576.793 198.687 577.047 199.067 577.426 199.32 577.933 199.067 578.566 198.814 579.072 198.307 579.452 197.674 579.452 196.788 579.072 196.409 579.578 196.029 580.338ZM199.32 575.275C200.459 575.654 201.345 575.275 202.105 574.642 202.358 574.515 202.738 574.388 202.485 574.009 202.231 573.629 201.978 573.502 201.472 573.629 200.839 574.009 199.953 574.388 199.32 575.275ZM174.637 576.287C176.282 575.781 177.042 575.275 177.548 574.262 176.409 574.642 175.523 575.275 174.637 576.287ZM248.56 557.553C248.56 557.3 248.433 557.047 248.18 557.047 247.8 557.173 247.294 557.3 247.041 557.679 246.915 558.059 247.294 558.059 247.547 558.059 248.053 558.059 248.433 557.933 248.56 557.553ZM240.206 527.806C239.193 527.047 238.434 526.92 237.547 527.806 236.914 528.439 236.408 529.072 235.775 529.705 235.269 530.338 235.396 530.591 236.155 530.844 237.421 531.224 238.56 531.603 239.826 532.11 241.218 532.616 242.611 533.249 244.003 534.009 243.497 534.388 243.244 534.135 242.99 534.009 240.712 532.996 238.307 532.49 236.029 531.604 234.383 530.971 232.737 531.604 231.851 533.123 231.472 533.756 231.472 534.262 232.358 534.515 233.117 534.768 233.877 535.021 234.636 535.148 237.168 535.654 239.573 536.034 242.105 536.667 242.358 536.794 242.611 536.794 242.737 537.3 239.32 536.54 236.029 536.414 232.737 535.401 231.598 535.021 230.838 535.401 229.952 535.908 229.699 536.034 229.446 536.161 229.446 536.414 229.446 536.794 229.826 536.794 230.079 536.794 231.471 536.92 232.99 537.047 234.382 537.3 235.269 537.427 236.155 537.427 237.041 537.807 234.889 538.06 232.863 537.68 230.838 537.68 230.332 537.68 229.825 537.427 229.446 537.3 227.547 536.794 225.775 537.047 224.129 538.06 223.876 538.186 223.623 538.313 223.75 538.566 223.876 538.819 224.129 538.946 224.383 538.946 226.281 539.199 228.053 539.326 229.952 539.579 230.965 539.705 232.104 539.579 233.243 540.212 232.864 540.465 232.484 540.465 232.231 540.465 230.332 540.339 228.433 540.085 226.535 539.959 225.648 539.832 224.636 539.832 223.75 539.579 222.61 539.199 221.091 539.452 220.332 540.465 219.826 541.224 219.952 541.857 220.712 541.984 222.737 542.49 224.636 543.123 226.661 543.123 227.42 543.123 228.053 542.997 228.813 543.503 226.155 544.136 223.623 543.25 220.965 543.25 222.104 544.262 223.243 545.275 224.382 546.288 225.395 547.174 226.661 547.933 228.053 547.933 230.078 548.06 231.851 548.693 233.623 549.452 234.762 549.959 235.648 550.718 236.787 551.098 239.319 551.857 241.724 552.11 243.623 549.705 244.256 548.819 245.269 548.186 246.155 547.553 249.952 544.768 254.003 542.364 258.053 539.832 264.256 536.034 268.307 530.591 269.699 523.376 270.079 521.351 270.206 519.199 269.826 517.173 269.699 516.667 269.699 516.034 269.193 515.908 268.686 515.781 268.56 516.54 268.307 516.92 267.294 518.819 266.661 520.844 265.775 522.869 265.142 524.262 264.509 525.527 263.876 526.92 263.623 526.667 263.623 526.54 263.75 526.287 264.636 524.008 265.648 521.73 266.535 519.325 267.041 518.186 267.421 517.047 268.054 516.034 269.193 514.009 269.573 511.73 269.826 509.325 269.826 508.945 269.826 508.565 269.319 508.312 268.94 508.186 268.56 508.312 268.307 508.566 267.547 509.325 266.788 510.211 266.408 511.224 265.648 512.996 264.889 514.768 264.256 516.54 262.863 520.338 261.471 524.135 261.598 528.312 261.598 528.438 261.724 528.692 261.344 528.818 261.091 528.185 260.965 527.426 261.091 526.666 261.344 524.514 261.724 522.363 262.357 520.211 263.243 517.046 263.117 513.755 262.863 510.464 262.863 509.958 262.61 509.578 262.104 509.451 261.598 509.325 261.218 509.451 260.838 509.831 259.699 511.097 258.813 512.363 258.306 513.882 257.8 515.527 257.8 517.299 257.42 519.072 256.914 521.857 256.281 524.768 256.914 527.679 256.914 527.932 257.04 528.185 256.661 528.438 256.281 527.172 256.028 525.907 256.154 524.641 256.408 522.742 256.154 520.843 256.281 519.071 256.407 517.552 256.154 516.033 256.281 514.514 256.281 513.881 256.281 512.995 255.395 512.742 254.635 512.489 254.256 513.249 253.876 513.755 253.243 514.514 252.736 515.527 252.483 516.413 251.724 519.451 251.471 522.616 252.357 525.653 252.61 526.666 252.99 527.805 252.99 529.071 252.483 528.818 252.357 528.312 252.357 527.932 251.724 525.527 251.091 523.122 251.218 520.59 251.218 519.324 251.091 518.058 250.585 516.919 250.205 516.033 249.319 515.78 248.939 516.666 247.547 518.944 246.281 521.223 246.407 524.008 246.534 525.907 247.42 527.679 248.179 529.324 248.433 529.831 248.812 530.21 248.686 530.97 247.167 529.071 246.281 526.919 245.648 524.641 245.395 523.754 244.889 523.122 244.256 522.489 243.623 521.856 242.99 522.109 242.484 522.868 242.104 523.628 241.724 524.134 241.218 524.767 240.205 526.159 240.332 526.539 241.724 527.679 241.851 527.805 242.104 527.932 242.231 528.058 244.003 529.324 245.522 530.97 247.167 532.235 244.636 531.35 242.484 529.451 240.205 527.805ZM242.864 555.527C242.357 555.527 241.978 556.034 241.978 556.54 241.978 557.046 242.231 557.426 242.864 557.426 243.497 557.426 243.75 557.046 243.75 556.54 243.877 555.907 243.497 555.527 242.864 555.527Z" fill="#FFFFFF"/></g></svg>