<svg width="772" height="772" xmlns="http://www.w3.org/2000/svg" xmlns:xlink="http://www.w3.org/1999/xlink" xml:space="preserve" overflow="hidden"><g transform="translate(-2129 -94)"><path d="M2132.5 480C2132.5 268.751 2303.75 97.5001 2515 97.5001 2726.25 97.5001 2897.5 268.751 2897.5 480 2897.5 691.249 2726.25 862.5 2515 862.5 2303.75 862.5 2132.5 691.249 2132.5 480Z" stroke="#FFFFFF" stroke-width="6.875" stroke-miterlimit="8" fill="#FFFFFF" fill-rule="evenodd"/><path d="M2219 303 2320.43 304.104 2400.54 614 2690.29 612.444 2748 372.391" stroke="#174460" stroke-width="27.5" stroke-linecap="round" stroke-linejoin="round" stroke-miterlimit="10" fill="none" fill-rule="evenodd"/><path d="M2410 681.5C2410 652.505 2433.28 629 2462 629 2490.72 629 2514 652.505 2514 681.5 2514 710.495 2490.72 734 2462 734 2433.28 734 2410 710.495 2410 681.5Z" stroke="#174460" stroke-width="27.5" stroke-miterlimit="8" fill="none" fill-rule="evenodd"/><path d="M2575 681.5C2575 652.505 2598.28 629 2627 629 2655.72 629 2679 652.505 2679 681.5 2679 710.495 2655.72 734 2627 734 2598.28 734 2575 710.495 2575 681.5Z" stroke="#174460" stroke-width="27.5" stroke-miterlimit="8" fill="none" fill-rule="evenodd"/><g><g><g><path d="M2537.32 287.269 2537.32 502.201 2511.73 476.628C2508.4 473.293 2502.99 473.293 2499.66 476.628 2496.32 479.962 2496.32 485.368 2499.66 488.703L2539.91 528.913C2543.08 532.247 2548.36 532.376 2551.7 529.2 2551.79 529.107 2551.89 529.011 2551.98 528.913L2592.2 488.697C2595.54 485.521 2595.67 480.244 2592.49 476.91 2592.4 476.812 2592.3 476.716 2592.2 476.622 2589.03 473.288 2583.75 473.159 2580.42 476.335 2580.32 476.428 2580.22 476.524 2580.13 476.622L2554.56 502.195 2554.56 287.269C2554.56 282.505 2550.69 278.644 2545.93 278.644 2541.17 278.644 2537.31 282.505 2537.31 287.269Z" stroke="#174460" stroke-width="2.875" fill="#174460"/></g></g></g></g></svg>