<svg width="201" height="201" xmlns="http://www.w3.org/2000/svg" xmlns:xlink="http://www.w3.org/1999/xlink" xml:space="preserve" overflow="hidden"><g transform="translate(-523 -433)"><path d="M724 533.5C724 569.405 704.845 602.583 673.75 620.533 642.655 638.486 604.344 638.486 573.25 620.533 542.155 602.58 523 569.403 523 533.5 523 497.597 542.155 464.417 573.25 446.467 604.345 428.514 642.656 428.514 673.75 446.467 704.845 464.42 724 497.597 724 533.5" fill="#174460"/><path d="M666.782 565.587C662.273 551.643 650.653 545.36 643.092 541.077 629.469 533.334 635.848 528.592 639.992 526.179 635.665 524.631 631.972 521.758 629.375 518.114 623.546 518.386 618.487 519.207 614.206 520.483 617.306 526.772 619.036 533.833 619.036 538.891 619.036 545.636 616.03 551.737 611.199 555.886 614.754 558.759 616.391 560.9 615.981 565.593 615.432 571.927 612.015 574.478 604.183 580.175 601.903 581.817 599.446 583.686 596.801 585.827 594.882 587.364 595.98 590.465 598.437 590.465L662.679 590.465C663.999 590.465 665.186 589.688 665.73 588.507 668.558 581.945 669.651 574.518 666.783 565.589ZM619.759 578.844C619.304 579.344 618.711 579.621 618.073 579.621 617.524 579.621 616.98 579.393 616.525 579.027 615.615 578.162 615.522 576.703 616.387 575.793 619.438 572.466 620.941 568.866 621.351 564.173 621.44 562.942 622.538 561.988 623.814 562.121 625.089 562.21 625.999 563.308 625.91 564.584 625.411 570.235 623.452 574.789 619.759 578.845ZM657.392 568.594C657.164 568.683 656.937 568.683 656.665 568.683 655.711 568.683 654.84 568.09 654.524 567.135 651.473 557.706 643.542 553.241 636.575 549.32L636.075 549.048C634.478 548.138 631.244 546.314 628.332 543.535 627.372 542.67 627.372 541.211 628.193 540.301 629.103 539.391 630.517 539.347 631.427 540.212 633.978 542.625 636.757 544.222 638.305 545.087L638.804 545.359C646.138 549.459 655.25 554.606 658.85 565.727 659.26 566.909 658.578 568.184 657.391 568.595ZM614.478 538.887C614.478 548.045 607.644 555.516 598.803 556.658L598.803 568.688C598.803 569.964 597.755 570.968 596.524 570.968 595.248 570.968 594.244 569.964 594.244 568.688L594.244 533.606C594.244 532.33 593.24 531.327 591.965 531.327 590.689 531.327 589.685 532.33 589.685 533.606L589.685 542.764 586.57 539.575C585.66 538.665 584.246 538.665 583.336 539.53 582.426 540.44 582.426 541.854 583.336 542.764L589.685 549.276 589.685 555.427C583.123 552.787 578.52 546.408 578.52 538.887 578.52 528.953 586.585 510.323 596.518 510.323 606.457 510.323 614.478 528.96 614.478 538.887ZM647.68 476.538C657.614 476.538 665.679 495.174 665.679 505.102 665.679 512.618 661.075 518.997 654.514 521.642L654.514 515.49 660.863 508.979C661.772 508.069 661.772 506.655 660.863 505.745 659.953 504.88 658.539 504.88 657.629 505.789L654.514 508.979 654.514 499.821C654.514 498.545 653.51 497.541 652.234 497.541 650.958 497.541 649.955 498.545 649.955 499.821L649.955 534.903C649.955 536.179 648.951 537.183 647.675 537.183 646.444 537.183 645.395 536.179 645.395 534.903L645.4 522.873C636.559 521.736 629.726 514.259 629.726 505.102 629.731 495.173 637.746 476.537 647.68 476.537Z" fill="#FFFFFF"/></g></svg>