<svg width="201" height="201" xmlns="http://www.w3.org/2000/svg" xmlns:xlink="http://www.w3.org/1999/xlink" xml:space="preserve" overflow="hidden"><g transform="translate(-933 -433)"><path d="M1134 533.5C1134 569.405 1114.84 602.583 1083.75 620.533 1052.66 638.486 1014.34 638.486 983.25 620.533 952.155 602.58 933 569.403 933 533.5 933 497.597 952.155 464.417 983.25 446.467 1014.34 428.514 1052.66 428.514 1083.75 446.467 1114.84 464.42 1134 497.597 1134 533.5" fill="#174460"/><path d="M1085.62 534.081 1085.62 545.171 1062.51 558.082 1039.26 545.171 1039.26 534.081 1040.3 534.145 1040.3 534.15C1047.82 534.61 1055.27 532.474 1061.4 528.098L1061.4 544.46 1063.38 544.46 1063.38 528.098C1069.51 532.474 1076.96 534.609 1084.47 534.15ZM1060.24 483.398 1049.32 483.398 1042.32 496.254 1017.27 495.938 1027.15 483.398 1011.39 483.398 1001.85 495.789 987.733 495.606C986.309 495.567 984.934 496.12 983.935 497.134 982.358 498.632 981.864 500.946 982.689 502.964 983.515 504.976 985.493 506.276 987.669 506.232L1051.13 506.232ZM997.382 574.485C999.261 574.495 1001.07 573.758 1002.4 572.433 1003.74 571.108 1004.49 569.308 1004.49 567.429L1004.49 564.185 996.986 564.185C995.201 564.18 993.451 564.695 991.948 565.664L984.709 570.332C983.211 571.286 982.123 572.769 981.663 574.485ZM1011.76 574.866 1011.76 572.888 1085.59 572.888 1085.59 564.185 1006.43 564.185 1006.43 567.429C1006.42 572.423 1002.37 576.463 997.385 576.463L981.378 576.463C981.398 580.408 984.602 583.603 988.548 583.608L1085.62 583.608 1085.62 574.905ZM1017.67 511.445 996.773 511.445 996.773 518.249 1017.67 518.249ZM989.494 533.067 989.494 511.445 994.77 511.445 994.77 520.226 1019.67 520.226 1019.67 511.445 1024.94 511.445 1024.94 533.067ZM989.494 535.045 989.494 548.233 1024.96 548.233 1024.96 535.045ZM997.618 542.957 995.64 542.957 995.64 537.869 997.618 537.869ZM1002.34 542.957 1000.36 542.957 1000.36 537.869 1002.34 537.869ZM1014.1 542.957 1012.13 542.957 1012.12 537.869 1014.1 537.869ZM1018.81 542.957 1016.83 542.957 1016.83 537.869 1018.81 537.869ZM987.516 522.096 983.823 522.096 983.823 535.046 985.801 535.046 985.806 524.073 987.521 524.073ZM993.544 550.211 993.544 552.506C993.558 555.502 995.991 557.93 998.988 557.935 1000.19 557.95 1001.37 557.549 1002.31 556.802 1003.67 555.789 1004.48 554.197 1004.49 552.506L1004.49 550.211ZM1026.9 522.096 1026.9 524.074 1028.62 524.074 1028.62 535.047 1030.6 535.047 1030.59 522.097ZM1010.02 550.211 1010.02 552.506C1010.03 555.507 1012.47 557.935 1015.47 557.935 1016.67 557.95 1017.85 557.549 1018.79 556.802 1020.13 555.779 1020.91 554.187 1020.9 552.506L1020.9 550.211ZM1072.88 515.702 1072.88 509.991 1063.43 509.991 1063.43 501.922 1061.45 501.922 1061.45 509.991 1051.95 509.991 1051.95 515.702ZM1060.51 526.249 1062.51 524.667 1064.43 526.314 1064.43 526.319C1068.2 529.097 1072.56 530.952 1077.18 531.723L1077.18 517.68 1047.76 517.68 1047.76 531.723C1052.38 530.957 1056.75 529.102 1060.51 526.319Z" fill="#FFFFFF"/></g></svg>