<svg width="1078" height="1154" xmlns="http://www.w3.org/2000/svg" xmlns:xlink="http://www.w3.org/1999/xlink" xml:space="preserve" overflow="hidden"><defs><clipPath id="clip0"><rect x="659" y="717" width="1078" height="1154"/></clipPath></defs><g clip-path="url(#clip0)" transform="translate(-659 -717)"><g><g><g><path d="M244.517 29.9872 243.124 215.923C243.124 293.273 197.226 323.187 135.566 323.187 82.4098 323.187 14.6637 299.579 14.6637 219.075L14.6637 29.9872C14.2469 20.8702 8.50028 12.8538-4.88398e-15 9.53139L87.1755 9.53139C78.8315 12.9422 73.3034 20.9753 73.0984 29.9872L73.0984 220.615C73.0984 252.435 84.0229 297.453 143.117 297.453 197.226 297.453 216.436 261.967 216.436 216.802L215.849 29.9872C216.137 21.3562 211.348 13.3551 203.605 9.53139L256.321 9.53139C248.749 13.4802 244.147 21.4552 244.517 29.9872Z" fill="#004785" transform="matrix(1 0 0 1.00045 659 718.579)"/><path d="M367.618 323.187C337.208 322.833 307.313 315.296 280.369 301.192L278.097 224.354C286.748 256.614 314.023 299.359 361.313 299.359 406.33 299.359 419.968 267.099 419.968 244.81 419.968 200.819 380.449 195.247 339.317 172.958 298.186 150.669 279.343 125.228 279.343 90.6948 278.976 29.3273 336.751 4.54574 378.103 4.54574 402.005 4.46567 425.564 10.2296 446.729 21.3356L449.002 88.6419C442.623 64.5202 416.742 28.1543 373.117 28.1543 338.584 28.1543 324.947 52.276 324.947 72.1453 324.947 99.8596 344.523 110.344 387.194 129.847 429.866 149.35 473.563 164.526 473.563 227.727 473.563 284.549 423.56 323.187 367.618 323.187Z" fill="#004785" transform="matrix(1 0 0 1.00045 659 718.579)"/><path d="M620.347 318.642 503.551 318.642C511.022 314.588 515.583 306.683 515.355 298.186L515.355 29.9872C515.725 21.4552 511.123 13.4802 503.551 9.53139L624.453 9.53139C774.022 9.53139 804.009 115.476 804.009 159.541 804.009 238.651 743.082 318.642 620.347 318.642ZM614.921 32.2601C603.997 32.2601 579.948 32.2601 573.13 33.1399L573.13 295.033 609.789 295.033C712.435 295.033 741.175 225.967 741.175 159.541 740.809 104.992 708.989 32.2601 614.921 32.2601Z" fill="#004785" transform="matrix(1 0 0 1.00045 659 718.579)"/><path d="M980.706 318.642C992.511 312.263 994.784 305.884 991.631 296.646 990.238 292.1 978.434 264.386 965.75 233.446L854.086 233.446C844.551 253.923 836.06 274.87 828.644 296.206 824.538 307.131 826.811 313.509 839.129 318.935L776.368 318.935C785.456 313.819 792.867 306.179 797.704 296.939 806.649 279.123 926.158 0 926.158 0 926.158 0 1047.06 279.123 1055.27 296.353 1059.51 306.494 1067.73 314.447 1078 318.348ZM908.854 98.1733C908.854 98.1733 877.914 175.451 863.397 209.544L955.265 209.544C933.929 159.101 908.928 98.1733 908.928 98.1733Z" fill="#004785" transform="matrix(1 0 0 1.00045 659 718.579)"/><path d="M1064.36 362.339C1064.36 362.339 402.811 345.916 10.9244 554.727 10.9244 554.727 426.126 390.494 1064.22 406.917Z" fill="#005941" transform="matrix(1 0 0 1.00045 659 718.579)"/><path d="M10.9244 362.339C10.9244 362.339 233.739 364.686 372.164 416.302 372.164 416.302 88.3486 392.84 10.9244 404.571Z" fill="#005941" transform="matrix(1 0 0 1.00045 659 718.579)"/><path d="M10.9244 435.071C10.9244 435.071 170.465 427.739 266.586 437.417 266.586 437.417 34.3863 465.572 10.9244 477.303Z" fill="#005941" transform="matrix(1 0 0 1.00045 659 718.579)"/><path d="M954.752 442.256 951.379 442.256C758.772 445.996 355.521 469.238 10.9244 590.873L10.9244 737.509 1064.22 737.509 1064.22 442.256C1064.22 442.256 1023.6 441.01 954.752 442.256Z" fill="#005941" transform="matrix(1 0 0 1.00045 659 718.579)"/></g></g></g><text fill="#FFFFFF" font-family="Aptos,Aptos_MSFontService,sans-serif" font-weight="700" font-size="220" transform="matrix(1 0 0 1 911.992 1677)">USDA</text></g></svg>