<svg width="1141" height="1141" xmlns="http://www.w3.org/2000/svg" xmlns:xlink="http://www.w3.org/1999/xlink" xml:space="preserve" overflow="hidden"><g transform="translate(-2260 -431)"><path d="M2263.5 1001.5C2263.5 688.355 2517.35 434.5 2830.5 434.5 3143.65 434.5 3397.5 688.355 3397.5 1001.5 3397.5 1314.65 3143.65 1568.5 2830.5 1568.5 2517.35 1568.5 2263.5 1314.65 2263.5 1001.5Z" stroke="#FFFFFF" stroke-width="6.875" stroke-miterlimit="8" fill="#FFFFFF" fill-rule="evenodd"/><g><g><path d="M472.249 31.0344 472.249 201.959C472.249 238.014 451.884 276.069 390.46 276.069 335.047 276.069 308.334 247.365 308.334 201.959L308.334 31.0284 358.745 31.0284 358.745 198.616C358.745 228.33 371.43 240.008 389.793 240.008 411.821 240.008 421.839 225.321 421.839 198.616L421.839 31.0284 472.249 31.0284M554.237 276.067C491.811 276.067 480.127 239.345 482.798 197.617L533.205 197.617C533.205 220.656 534.21 240.012 561.913 240.012 578.94 240.012 587.278 228.993 587.278 212.64 587.278 169.24 485.801 166.567 485.801 94.7916 485.801 57.0659 503.826 27.0244 565.246 27.0244 614.33 27.0244 638.697 49.0601 635.361 99.4708L586.279 99.4708C586.279 81.4331 583.282 63.0778 562.908 63.0778 546.555 63.0778 536.875 72.0947 536.875 88.7797 536.875 134.521 638.364 130.513 638.364 206.294 638.364 268.725 592.636 276.081 554.245 276.081M893.131 276.081C830.701 276.081 819.02 239.359 821.698 197.631L872.099 197.631C872.099 220.67 873.107 240.026 900.811 240.026 917.846 240.026 926.188 229.007 926.188 212.654 926.188 169.254 824.695 166.581 824.695 94.8056 824.695 57.08 842.722 27.0385 904.152 27.0385 953.22 27.0385 977.589 49.0741 974.251 99.4849L925.183 99.4849C925.183 81.4472 922.18 63.0919 901.816 63.0919 885.445 63.0919 875.777 72.1087 875.777 88.7937 875.777 134.535 977.254 130.527 977.254 206.308 977.254 268.739 931.526 276.095 893.135 276.095M732.556 182.261 762.224 182.261 762.224 235.447 759.754 236.36C752.085 239.037 743.069 241.037 734.725 241.037 706.008 241.037 698.66 227.681 698.66 152.241 698.66 105.497 698.66 63.1019 730.046 63.1019 754.459 63.1019 759.615 79.5799 760.061 99.497L810.273 99.497C810.669 52.7223 780.547 27.0506 733.049 27.0506 650.597 27.0506 647.582 88.8058 647.582 149.568 647.582 241.037 657.507 276.534 742.293 276.534 761.959 276.534 793.266 272.09 807.726 268.132 808.605 267.901 810.162 266.932 810.162 265.686L810.162 145.894 732.554 145.894 732.554 182.255" fill="#174460" transform="matrix(1.001 0 0 1 2327 660)"/><path d="M97.9593 111.746 98.8015 112.556C122.423 132.342 147.908 130.417 167.326 117.509 179.563 109.37 234.929 72.5509 266.222 51.7454L266.222 30.954 33.0022 30.954 33.0022 85.8451C47.2149 83.3848 70.1269 85.8008 97.9573 111.746M185.696 203.05 158.149 176.635C154.277 173.111 150.971 170.524 150.255 169.976 127.735 154.163 106.747 158.969 97.696 162.334 94.9584 163.427 92.3394 164.92 90.4882 166.09L32.9982 204.542 32.9982 274.22 266.218 274.22 266.218 224.071C261.093 227.327 229.496 244.412 185.692 203.046M95.891 117.979C94.6469 116.817 93.27 115.579 92.0419 114.566 64.5009 93.2599 38.4834 103.694 32.9961 106.293L32.9961 130.274 46.4913 121.183C46.4913 121.183 67.2867 105.758 99.6477 121.575L95.891 117.979M128.107 148.951C126.895 147.878 125.667 146.774 124.443 145.606 100.008 124.934 76.388 130.19 66.5933 133.82 63.8155 134.933 61.1663 136.439 59.299 137.613L32.9961 155.208 32.9961 179.907 76.991 150.264C76.991 150.264 97.5493 135.01 129.585 150.372L128.107 148.951M266.238 174.81C257.067 180.996 247.74 187.278 244.032 189.766 235.735 195.324 216.539 209.09 184.582 193.816L188.339 197.428C189.744 198.694 191.462 200.166 193.326 201.603 216.276 218.748 240.802 216.284 259.191 204.101 261.738 202.417 264.064 200.867 266.24 199.41L266.24 174.82M266.24 125.354C246.1 138.897 218.913 157.178 213.81 160.601 205.514 166.159 186.031 180.114 154.758 165.17L158.384 168.645C158.796 169.027 159.206 169.399 159.614 169.793L159.594 169.813 159.614 169.793C183.893 190.335 210.626 187.193 228.961 174.944 239.304 168.038 254.008 158.101 266.242 149.805L266.222 125.354M266.222 76.1468C237.174 95.6076 189.517 127.538 183.75 131.408 175.384 137.014 155.662 151.178 124.787 136.433L128.533 140.043C130.767 142.061 133.769 144.583 136.959 146.666 158.33 160.318 180.695 157.904 198.901 145.751 211.991 137.006 244.183 115.605 266.222 100.958L266.222 76.1468" fill="#174460" transform="matrix(1.001 0 0 1 2327 660)"/><path d="M44.8813 345.981C44.3848 347.915 44.0753 349.776 44.3768 351.115 44.7687 352.482 45.8823 353.147 48.242 353.147 50.5957 353.147 52.9474 351.625 53.5524 348.759 55.47 339.756 34.1499 341.766 37.0342 328.209 38.988 319.029 48.6762 316.241 56.3443 316.241 64.4285 316.241 70.9309 320.116 68.3058 329.296L56.682 329.296C57.3091 326.35 57.3453 324.579 56.6679 323.825 56.0689 323.063 55.0941 322.894 53.8278 322.894 51.2208 322.894 49.4299 324.585 48.8189 327.445 47.3837 334.186 68.352 333.855 65.4436 347.495 63.8738 354.908 56.6237 360.473 46.7707 360.473 36.4051 360.473 30.0555 357.848 33.2554 345.981L44.8813 345.981M95.7021 332.213C97.0428 325.899 95.889 323.795 92.1846 323.795 87.1335 323.795 85.7667 328.257 83.8833 337.099 81.1236 350.074 81.6241 352.853 86.0079 352.853 89.7143 352.853 92.1987 349.485 93.3785 343.931L105.256 343.931C102.807 355.47 95.5132 360.443 84.3878 360.443 69.0575 360.443 69.0214 351.089 71.8575 337.784 74.3278 326.159 78.1267 316.219 93.7966 316.219 104.745 316.219 109.943 321.109 107.577 332.227L95.7021 332.227M132.664 300.69 130.676 310.038 118.799 310.038 120.787 300.69 132.664 300.69M120.136 359.603 108.259 359.603 117.306 317.061 129.183 317.061 120.136 359.593ZM688.503 300.69 686.511 310.038 674.63 310.038 676.62 300.69 688.499 300.69M675.977 359.603 664.106 359.603 673.143 317.061 685.024 317.061 675.979 359.593ZM155.327 333.573C156.207 329.449 157.626 323.556 151.982 323.556 146.501 323.556 145.228 329.959 144.459 333.573L155.327 333.573M143.044 340.227C141.972 345.284 140.529 352.857 145.747 352.857 149.962 352.857 151.667 348.813 152.416 345.278L164.46 345.278C163.306 349.913 160.987 353.704 157.568 356.311 154.231 358.92 149.697 360.441 144.139 360.441 128.803 360.441 128.773 351.087 131.599 337.782 134.069 326.157 137.87 316.217 153.538 316.217 169.547 316.217 169.115 326.573 165.793 340.225L143.044 340.225ZM188.192 321.373 188.359 321.373C191.525 317.582 195.012 316.233 199.482 316.233 205.126 316.233 209.378 319.602 208.125 325.493L200.873 359.619 188.996 359.619 195.225 330.305C196.031 326.512 195.989 323.566 192.196 323.566 188.405 323.566 187.099 326.516 186.295 330.305L180.068 359.619 168.191 359.619 177.236 317.077 189.105 317.077 188.196 321.379M235.361 332.233C236.702 325.919 235.548 323.815 231.841 323.815 226.792 323.815 225.421 328.277 223.538 337.119 220.778 350.094 221.283 352.873 225.665 352.873 229.369 352.873 231.853 349.505 233.037 343.951L244.914 343.951C242.458 355.49 235.174 360.463 224.047 360.463 208.716 360.463 208.682 351.109 211.514 337.805 213.985 326.179 217.777 316.239 233.447 316.239 244.402 316.239 249.602 321.13 247.236 332.247L235.361 332.247M274.777 333.594C275.649 329.469 277.078 323.576 271.432 323.576 265.955 323.576 264.679 329.98 263.909 333.594L274.763 333.594M262.482 340.247C261.396 345.304 259.959 352.878 265.183 352.878 269.394 352.878 271.093 348.833 271.848 345.298L283.892 345.298C282.739 349.933 280.419 353.724 276.994 356.331 273.665 358.94 269.131 360.461 263.567 360.461 248.237 360.461 248.197 351.107 251.031 337.802 253.505 326.177 257.302 316.237 272.97 316.237 288.972 316.237 288.541 326.593 285.217 340.245L262.484 340.245ZM335.083 308.288C330.355 307.95 328.95 309.811 328.034 314.109L327.19 317.085 332.757 317.085 331.2 324.414 325.636 324.414 318.153 359.631 306.276 359.631 313.757 324.414 308.454 324.414 310.01 317.085 315.401 317.085C317.789 306.449 319.926 300.541 332.518 300.541 333.951 300.541 335.284 300.624 336.699 300.706L335.111 308.284M354.327 337.127C356.21 328.285 356.735 323.823 351.68 323.823 346.63 323.823 345.256 328.285 343.378 337.127 340.618 350.102 341.123 352.882 345.503 352.882 349.865 352.882 351.553 350.108 354.327 337.123M331.352 337.807C333.823 326.181 337.618 316.241 353.286 316.241 368.953 316.241 368.533 326.181 366.059 337.807 363.227 351.111 359.219 360.467 343.885 360.467 328.548 360.467 328.508 351.121 331.342 337.815ZM387.351 317.083 386.191 322.557 386.356 322.557C389.586 317.67 393.934 316.239 398.742 316.239L396.486 326.85C386.177 326.177 384.72 332.241 383.827 336.456L378.907 359.619 367.03 359.619 376.067 317.077 387.363 317.077M423.201 346.383C422.558 349.418 422.269 353.125 426.146 353.125 433.139 353.125 434.055 343.692 435.032 339.055 429.103 339.316 424.821 338.814 423.213 346.391M443.997 351.698C443.432 354.321 443.203 357.014 442.899 359.619L431.862 359.619 432.556 353.975 432.391 353.975C428.932 358.357 425.026 360.465 419.883 360.465 411.632 360.465 409.911 354.315 411.479 346.902 414.47 332.832 425.465 332.239 436.463 332.418L437.161 329.125C437.935 325.499 437.985 322.886 433.685 322.886 429.557 322.886 428.562 326.004 427.84 329.377L416.215 329.377C417.31 324.235 419.611 320.955 422.803 319.023 425.925 316.991 429.961 316.233 434.516 316.233 449.591 316.233 450.147 322.723 448.503 330.472L443.981 351.718ZM491.011 332.241C492.351 325.927 491.198 323.823 487.495 323.823 482.44 323.823 481.071 328.285 479.19 337.127 476.43 350.102 476.935 352.882 481.318 352.882 485.021 352.882 487.509 349.513 488.691 343.959L500.568 343.959C498.114 355.499 490.824 360.471 479.7 360.471 464.37 360.471 464.34 351.117 467.164 337.813 469.64 326.187 473.437 316.247 489.105 316.247 500.054 316.247 505.254 321.138 502.888 332.255L491.011 332.255M556.235 346.405C555.588 349.44 555.305 353.147 559.18 353.147 566.173 353.147 567.091 343.714 568.064 339.077 562.114 339.338 557.833 338.836 556.225 346.413M577.008 351.72C576.444 354.343 576.213 357.036 575.909 359.641L564.874 359.641 565.566 353.997 565.403 353.997C561.946 358.379 558.048 360.487 552.888 360.487 544.639 360.487 542.917 354.337 544.487 346.924 547.476 332.854 558.47 332.261 569.475 332.44L570.18 329.147C570.94 325.521 570.995 322.908 566.697 322.908 562.563 322.908 561.574 326.026 560.85 329.399L549.23 329.399C550.322 324.257 552.627 320.977 555.815 319.045 558.953 317.013 562.977 316.255 567.529 316.255 582.604 316.255 583.159 322.746 581.513 330.494L577.01 351.74ZM603.078 321.409 603.239 321.409C606.415 317.618 609.894 316.269 614.36 316.269 619.998 316.269 624.258 319.638 622.997 325.529L615.745 359.655 603.876 359.655 610.109 330.341C610.907 326.549 610.867 323.602 607.08 323.602 603.283 323.602 601.987 326.553 601.179 330.341L594.94 359.655 583.057 359.655 592.112 317.114 603.993 317.114 603.088 321.415M640.535 351.726C644.838 351.726 646.37 347.264 648.281 338.253 650.263 328.902 650.978 323.598 646.587 323.598 642.124 323.598 640.705 326.711 637.944 339.686 637.099 343.646 634.808 351.726 640.536 351.726M664.656 317.114 655.238 361.424C654.609 364.369 652.301 375.996 635.962 375.996 627.122 375.996 620.008 373.727 621.962 363.364L633.59 363.364C633.214 365.138 633.144 366.654 633.686 367.659 634.219 368.758 635.435 369.349 637.292 369.349 640.245 369.349 642.263 366.56 643.182 362.272L644.914 354.106 644.745 354.106C642.275 357.386 638.551 359.07 634.679 359.07 621.616 359.07 624.738 347.113 626.784 337.505 628.778 328.159 631.467 316.273 643.849 316.273 648.062 316.273 651.294 318.123 652.13 322.088L652.301 322.088 653.356 317.118 664.644 317.118 664.644 317.114 664.705 317.114ZM704.414 321.415 704.599 321.415C707.759 317.624 711.244 316.275 715.704 316.275 721.351 316.275 725.602 319.644 724.349 325.535L717.101 359.661 705.218 359.661 711.457 330.347C712.255 326.555 712.215 323.608 708.422 323.608 704.625 323.608 703.335 326.559 702.529 330.347L696.29 359.661 684.411 359.661 693.456 317.12 705.335 317.12 704.43 321.421M741.877 351.732C746.172 351.732 747.708 347.27 749.623 338.259 751.617 328.908 752.325 323.604 747.943 323.604 743.477 323.604 742.058 326.717 739.298 339.692 738.474 343.652 736.162 351.732 741.891 351.732M766.011 317.12 756.59 361.43C755.961 364.375 753.667 376.003 737.308 376.003 728.468 376.003 721.367 373.733 723.324 363.37L734.952 363.37C734.568 365.145 734.498 366.66 735.039 367.665 735.569 368.764 736.795 369.355 738.639 369.355 741.595 369.355 743.611 366.566 744.526 362.278L746.26 354.112 746.102 354.112C743.629 357.392 739.899 359.076 736.03 359.076 722.971 359.076 726.102 347.119 728.134 337.511 730.13 328.165 732.818 316.279 745.211 316.279 749.42 316.279 752.638 318.129 753.486 322.094L753.657 322.094 754.713 317.124 765.999 317.124 765.999 317.12 766.039 317.12ZM784.563 317.12 796.36 317.12 795.391 349.131 795.55 349.131 809.708 317.12 822.327 317.12 822.488 349.131 822.655 349.131 835.595 317.12 846.984 317.12 826.797 359.661 814.345 359.661 813.123 331.443 812.96 331.443 798.723 359.661 786.099 359.661 784.531 317.13M867.524 337.169C869.407 328.327 869.928 323.865 864.885 323.865 859.817 323.865 858.447 328.327 856.577 337.169 853.818 350.144 854.324 352.924 858.706 352.924 863.068 352.924 864.756 350.15 867.51 337.165M844.535 337.849C847 326.223 850.794 316.283 866.466 316.283 882.136 316.283 881.714 326.223 879.238 337.849 876.406 351.153 872.402 360.509 857.072 360.509 841.741 360.509 841.715 351.163 844.549 337.857ZM901.197 317.126 900.027 322.599 900.2 322.599C903.432 317.713 907.78 316.281 912.582 316.281L910.325 326.892C900.023 326.219 898.564 332.283 897.668 336.498L892.745 359.661 880.874 359.661 889.911 317.12 901.187 317.12M534.563 316.275C530.103 316.275 526.614 317.624 523.448 321.415L523.275 321.415 527.673 300.742 515.794 300.742 503.27 359.663 515.149 359.663 521.386 330.347C522.19 326.559 523.49 323.608 527.285 323.608 531.08 323.608 531.116 326.559 530.32 330.347L524.085 359.663 535.958 359.663 543.204 325.542C544.451 319.652 540.209 316.295 534.561 316.295M921.004 300.758 908.479 359.677 920.363 359.677 932.885 300.758 921.006 300.758M952.764 338.024C950.486 348.725 948.786 353.189 944.74 353.189 940.449 353.189 940.633 348.725 942.907 338.024 944.716 329.519 945.882 323.62 951.025 323.62 955.909 323.62 954.563 329.509 952.754 338.012M960.693 300.746 956.356 321.168 956.187 321.168C954.51 317.542 951.835 316.277 947.542 316.277 935.576 316.277 933.096 329.507 931.267 338.098 929.41 346.852 926.085 360.501 938.384 360.501 942.943 360.501 946.527 359.064 949.588 354.938L949.763 354.938 948.75 359.659 960.046 359.659 972.566 300.736 960.689 300.736 960.689 300.716Z" fill="#174460" transform="matrix(1.001 0 0 1 2327 660)"/></g></g><text fill="#174460" font-family="Aptos Display,Aptos Display_MSFontService,sans-serif" font-weight="400" font-size="147" transform="matrix(1 0 0 1 2426.39 1294)">EarthExplorer</text><path d="M2514.5 1076.5 3147 1076.5" stroke="#174460" stroke-width="6.875" stroke-miterlimit="8" fill="none" fill-rule="evenodd"/></g></svg>