<svg width="370" height="370" xmlns="http://www.w3.org/2000/svg" xmlns:xlink="http://www.w3.org/1999/xlink" xml:space="preserve" overflow="hidden"><g transform="translate(-32 -2024)"><path d="M35.4999 2209C35.4999 2108.76 116.76 2027.5 217 2027.5 317.24 2027.5 398.5 2108.76 398.5 2209 398.5 2309.24 317.24 2390.5 217 2390.5 116.76 2390.5 35.4999 2309.24 35.4999 2209Z" stroke="#1E583E" stroke-width="6.875" stroke-miterlimit="8" fill="none" fill-rule="evenodd"/><g><g><g><path d="M304.12 2265.66C304.12 2281.7 264.845 2294.26 214.708 2294.26 201.418 2294.3 188.145 2293.33 175.003 2291.35L175.003 2287.68C188.143 2289.67 201.418 2290.64 214.708 2290.59 265.996 2290.59 300.458 2277.7 300.458 2265.66 300.458 2258.95 289.733 2251.99 271.377 2247.13L271.377 2243.4C291.465 2248.6 304.12 2256.57 304.12 2265.66ZM128.959 2265.66C128.959 2258.38 141.636 2250.8 162.958 2245.94L162.958 2242.23C140.046 2247.36 125.297 2255.85 125.297 2265.66 125.297 2275.47 140.05 2283.97 162.958 2289.1L162.958 2285.39C141.636 2280.52 128.963 2272.94 128.963 2265.66ZM167.147 2262.87C167.147 2271.98 190.797 2276.75 214.154 2276.75 237.51 2276.75 261.16 2271.98 261.16 2262.86 261.16 2259.88 258.589 2257.37 254.349 2255.33 253.515 2256.3 252.622 2257.22 251.71 2258.12 255.454 2259.7 257.494 2261.38 257.494 2262.87 257.494 2267.13 241.007 2273.08 214.154 2273.08 187.304 2273.08 170.814 2267.13 170.814 2262.87 170.814 2261.58 172.331 2260.15 175.154 2258.76 174.251 2257.9 173.412 2256.98 172.583 2256.05 169.182 2257.95 167.147 2260.22 167.147 2262.87ZM251.192 2145.07C251.192 2133.66 269.681 2105.49 270.469 2104.3L272 2101.98 273.531 2104.3C274.319 2105.49 292.808 2133.66 292.808 2145.07 293.291 2156.56 284.366 2166.27 272.874 2166.75 261.381 2167.23 251.674 2158.31 251.192 2146.81 251.167 2146.23 251.167 2145.65 251.192 2145.07ZM254.858 2145.07C254.369 2154.53 261.646 2162.6 271.113 2163.09 280.58 2163.58 288.652 2156.31 289.142 2146.84 289.172 2146.25 289.172 2145.66 289.142 2145.07 289.142 2137.25 277.912 2117.98 272 2108.68 266.087 2117.97 254.858 2137.26 254.858 2145.07ZM272 2155.39 272 2151.73C267.586 2151.73 265.698 2149.84 265.698 2145.43L262.031 2145.43C261.459 2150.36 264.992 2154.82 269.922 2155.39 270.613 2155.47 271.31 2155.47 272 2155.39ZM169.764 2222.44C169.764 2198.38 209.891 2137.97 211.601 2135.4L213.127 2133.12 214.649 2135.41C216.358 2137.97 256.485 2198.37 256.485 2222.44 256.485 2246.57 238.656 2263.43 213.127 2263.43 187.598 2263.43 169.769 2246.57 169.769 2222.44ZM173.431 2222.44C173.431 2244.41 189.757 2259.75 213.122 2259.75 236.488 2259.75 252.814 2244.41 252.814 2222.44 252.814 2202.02 220.584 2151.24 213.122 2139.76 205.665 2151.24 173.431 2202.03 173.431 2222.44ZM210.157 2245.04 210.157 2241.37C197.777 2241.37 191.228 2234.83 191.228 2222.44L187.561 2222.44C187.561 2236.8 195.802 2245.04 210.157 2245.04Z" stroke="#1E583E" stroke-width="4.58333" fill="#E97132"/></g></g></g></g></svg>