<svg width="201" height="201" xmlns="http://www.w3.org/2000/svg" xmlns:xlink="http://www.w3.org/1999/xlink" xml:space="preserve" overflow="hidden"><g transform="translate(-318 -433)"><path d="M519 533.5C519 569.405 499.845 602.583 468.75 620.533 437.655 638.486 399.344 638.486 368.25 620.533 337.155 602.58 318 569.403 318 533.5 318 497.597 337.155 464.417 368.25 446.467 399.345 428.514 437.656 428.514 468.75 446.467 499.845 464.42 519 497.597 519 533.5" fill="#FFFFFF"/><path d="M423.586 488.742C422.825 487.787 422.034 486.893 421.208 486.067 424.348 482.437 428.734 479.555 435.093 478.309 432.081 480.588 429.579 483.357 427.493 486.403 426.098 487.016 424.793 487.792 423.586 488.742ZM427.572 504.318 430.43 504.318C432.348 501.044 435.088 498.236 438.796 495.828 435.28 495.951 432.309 496.841 429.802 498.216 428.734 500.045 427.972 502.073 427.572 504.317ZM410.898 489.236C412.634 490.304 414.27 491.6 415.788 493.148 416.565 493.939 417.292 494.769 417.969 495.63 419.096 493.528 420.407 491.733 421.895 490.24 416.604 483.53 409.464 480.01 400.464 479.674 404.568 482.393 408.044 485.578 410.892 489.237ZM419.457 497.672C420.877 499.774 422.078 502.014 423.161 504.323L425.277 504.323C426.429 497.103 430.954 491.373 438.86 487.14 429.772 486.176 423.304 489.692 419.452 497.672ZM398.581 497.924C402.018 499.977 404.643 502.033 406.552 504.318L410.834 504.318C409.786 502.469 408.624 500.674 407.343 498.978 404.821 498.162 401.899 497.811 398.581 497.925ZM413.411 504.318 420.665 504.318C416.823 496.466 410.795 488.446 398.118 487.683 404.922 491.525 409.866 497.765 413.406 504.318ZM469.018 557.986 473.686 557.986 473.686 588.697 363.304 588.697 363.304 557.986 370.483 557.986 376.303 563.682C377.011 564.379 378.148 564.369 378.845 563.662 378.889 563.618 378.934 563.568 378.973 563.524L384.324 556.804 395.177 555.518 402.525 564.606C402.881 565.051 403.41 565.284 403.944 565.279L425.903 565.986C426.348 566.001 426.759 565.852 427.08 565.595L432.489 561.768 450.424 565.249C450.602 565.284 450.784 565.289 450.967 565.269L461.445 564.053C461.846 564.008 462.207 563.83 462.479 563.573L469.035 557.986ZM449.2 570.882 455.085 576.015 460.005 572.346 457.181 567.362 450.338 568.914 449.2 570.878ZM438.787 566.689C438.787 567.56 439.494 568.267 440.364 568.267L441.818 568.267C442.688 568.267 443.395 567.56 443.395 566.689 443.395 565.819 442.688 565.112 441.818 565.112L440.364 565.112C439.494 565.112 438.787 565.819 438.787 566.689ZM430.999 564.83C430.999 565.7 431.706 566.407 432.577 566.407L434.03 566.407C434.9 566.407 435.608 565.7 435.608 564.83 435.608 563.96 434.9 563.253 434.03 563.253L432.577 563.253C431.706 563.253 430.999 563.96 430.999 564.83ZM399.284 570.071C399.284 570.942 399.991 571.649 400.862 571.649L402.315 571.649C403.185 571.649 403.893 570.942 403.893 570.071 403.893 569.201 403.185 568.494 402.315 568.494L400.862 568.494C399.991 568.494 399.284 569.201 399.284 570.071ZM390.28 559.426C390.28 560.296 390.987 561.003 391.857 561.003L393.311 561.003C394.181 561.003 394.888 560.296 394.888 559.426 394.888 558.556 394.181 557.848 393.311 557.848L391.857 557.848C390.987 557.848 390.28 558.556 390.28 559.426ZM367.08 575.139 375.353 569.324 369.537 563.509 364.81 568.068 367.08 575.134ZM379.155 581.919 373.81 578.102 367.278 581.622 372.891 587.116 375.585 587.116ZM386.641 583.546C386.641 582.675 385.934 581.968 385.064 581.968L383.611 581.968C382.74 581.968 382.033 582.675 382.033 583.546 382.033 584.416 382.74 585.123 383.611 585.123L385.064 585.123C385.934 585.123 386.641 584.416 386.641 583.546ZM395.428 585.538C395.428 584.668 394.721 583.961 393.851 583.961L392.397 583.961C391.527 583.961 390.82 584.668 390.82 585.538 390.82 586.408 391.527 587.115 392.397 587.115L393.851 587.115C394.721 587.115 395.428 586.408 395.428 585.538ZM396.882 578.2 394.058 572.87 395.339 568.246 393.791 565.566 386.7 562.951 378.986 572.608 382.106 578.017 392.806 581.997 396.885 578.2ZM410.36 582.428 404.783 577.607 398.533 583.323 402.459 587.125 410.355 587.125 410.36 582.433ZM411.567 576.796 416.368 578.437 419.162 575.846 418.628 568.489 410.167 568.108 406.923 572.227 410.271 574.229 411.571 576.791ZM417.742 582.027C417.742 581.157 417.035 580.45 416.165 580.45L414.712 580.45C413.841 580.45 413.134 581.157 413.134 582.027 413.134 582.897 413.841 583.604 414.712 583.604L416.165 583.604C417.035 583.604 417.742 582.897 417.742 582.027ZM423.691 585.543C423.691 584.672 422.984 583.965 422.114 583.965L420.66 583.965C419.79 583.965 419.083 584.672 419.083 585.543 419.083 586.413 419.79 587.12 420.66 587.12L422.114 587.12C422.984 587.12 423.691 586.413 423.691 585.543ZM425.654 578.284C425.654 577.413 424.947 576.706 424.077 576.706L422.623 576.706C421.753 576.706 421.046 577.413 421.046 578.284 421.046 579.154 421.753 579.861 422.623 579.861L424.077 579.861C424.947 579.861 425.654 579.154 425.654 578.284ZM426.549 570.076C426.549 569.205 425.842 568.498 424.972 568.498L423.518 568.498C422.648 568.498 421.941 569.205 421.941 570.076 421.941 570.946 422.648 571.653 423.518 571.653L424.972 571.653C425.842 571.653 426.549 570.946 426.549 570.076ZM449.967 587.125 449.453 578.63 436.735 569.987 429.644 572.603 428.096 575.283 429.377 579.906 426.554 585.237 428.581 587.126ZM455.178 582.111C456.049 582.111 456.756 581.404 456.756 580.534 456.756 579.663 456.049 578.956 455.178 578.956L453.725 578.956C452.855 578.956 452.148 579.663 452.148 580.534 452.148 581.404 452.855 582.111 453.725 582.111ZM460.439 585.547C460.439 584.677 459.732 583.97 458.862 583.97L457.409 583.97C456.538 583.97 455.831 584.677 455.831 585.547 455.831 586.418 456.538 587.125 457.409 587.125L458.862 587.125C459.732 587.125 460.439 586.418 460.439 585.547ZM460.786 566.644C460.786 567.514 461.493 568.221 462.363 568.221L463.817 568.221C464.687 568.221 465.394 567.514 465.394 566.644 465.394 565.774 464.687 565.067 463.817 565.067L462.363 565.067C461.493 565.067 460.786 565.774 460.786 566.644ZM472.104 567.578 468.469 566.965 467.179 572.983 461.23 579.337 462.694 587.13 472.108 587.13 472.108 567.584ZM468.796 561.645C468.796 562.515 469.503 563.222 470.373 563.222L471.827 563.222C472.697 563.222 473.404 562.515 473.404 561.645 473.404 560.775 472.697 560.068 471.827 560.068L470.373 560.068C469.503 560.068 468.796 560.775 468.796 561.645ZM363.304 517.094 473.692 517.094 473.692 525.184 464.92 525.193C464.278 525.193 463.684 525.535 463.363 526.093L462.092 528.294 453.508 528.294 449.755 525.085C449.429 524.803 449.018 524.654 448.588 524.654L438.437 524.684C438.086 524.684 437.745 524.788 437.453 524.981L431.539 528.872 418.664 528.882 413.17 525.698C412.903 525.544 412.602 525.46 412.29 525.455L402.653 525.337C402.242 525.337 401.827 525.401 401.466 525.653L397.332 528.531 385.782 527.502C385.435 527.453 385.065 527.502 384.723 527.671L377.895 531.043 372.55 525.811C372.219 525.436 371.734 525.198 371.195 525.198L363.288 525.198 363.288 517.109ZM466.222 520.393C466.222 521.263 466.929 521.97 467.799 521.97L469.253 521.97C470.123 521.97 470.83 521.263 470.83 520.393 470.83 519.522 470.123 518.815 469.253 518.815L467.799 518.815C466.929 518.815 466.222 519.522 466.222 520.393ZM459.077 520.393C459.077 521.263 459.784 521.97 460.654 521.97L462.108 521.97C462.978 521.97 463.685 521.263 463.685 520.393 463.685 519.522 462.978 518.815 462.108 518.815L460.654 518.815C459.784 518.815 459.077 519.522 459.077 520.393ZM457.079 523.953C456.209 523.953 455.502 524.66 455.502 525.53 455.502 526.4 456.209 527.107 457.079 527.107L458.533 527.107C459.403 527.107 460.11 526.4 460.11 525.53 460.11 524.66 459.403 523.953 458.533 523.953ZM451.927 520.393C451.927 521.263 452.634 521.97 453.504 521.97L454.958 521.97C455.828 521.97 456.535 521.263 456.535 520.393 456.535 519.522 455.828 518.815 454.958 518.815L453.504 518.815C452.634 518.815 451.927 519.522 451.927 520.393ZM444.782 520.393C444.782 521.263 445.489 521.97 446.359 521.97L447.813 521.97C448.683 521.97 449.39 521.263 449.39 520.393 449.39 519.522 448.683 518.815 447.813 518.815L446.359 518.815C445.489 518.815 444.782 519.522 444.782 520.393ZM437.637 520.393C437.637 521.263 438.344 521.97 439.214 521.97L440.668 521.97C441.538 521.97 442.245 521.263 442.245 520.393 442.245 519.522 441.538 518.815 440.668 518.815L439.214 518.815C438.344 518.815 437.637 519.522 437.637 520.393ZM430.492 520.393C430.492 521.263 431.199 521.97 432.069 521.97L433.523 521.97C434.393 521.97 435.1 521.263 435.1 520.393 435.1 519.522 434.393 518.815 433.523 518.815L432.069 518.815C431.199 518.815 430.492 519.522 430.492 520.393ZM428.494 523.953C427.624 523.953 426.917 524.66 426.917 525.53 426.917 526.4 427.624 527.107 428.494 527.107L429.948 527.107C430.818 527.107 431.525 526.4 431.525 525.53 431.525 524.66 430.818 523.953 429.948 523.953ZM423.342 520.393C423.342 521.263 424.049 521.97 424.919 521.97L426.373 521.97C427.243 521.97 427.95 521.263 427.95 520.393 427.95 519.522 427.243 518.815 426.373 518.815L424.919 518.815C424.049 518.815 423.342 519.522 423.342 520.393ZM421.344 524.492C420.474 524.492 419.767 525.199 419.767 526.069 419.767 526.939 420.474 527.646 421.344 527.646L422.798 527.646C423.668 527.646 424.375 526.939 424.375 526.069 424.375 525.199 423.668 524.492 422.798 524.492ZM416.192 520.393C416.192 521.263 416.899 521.97 417.769 521.97L419.223 521.97C420.093 521.97 420.8 521.263 420.8 520.393 420.8 519.522 420.093 518.815 419.223 518.815L417.769 518.815C416.899 518.815 416.192 519.522 416.192 520.393ZM409.047 520.393C409.047 521.263 409.754 521.97 410.624 521.97L412.078 521.97C412.948 521.97 413.655 521.263 413.655 520.393 413.655 519.522 412.948 518.815 412.078 518.815L410.624 518.815C409.754 518.815 409.047 519.522 409.047 520.393ZM401.902 520.393C401.902 521.263 402.609 521.97 403.479 521.97L404.933 521.97C405.803 521.97 406.51 521.263 406.51 520.393 406.51 519.522 405.803 518.815 404.933 518.815L403.479 518.815C402.609 518.815 401.902 519.522 401.902 520.393ZM394.757 520.393C394.757 521.263 395.464 521.97 396.334 521.97L397.788 521.97C398.658 521.97 399.365 521.263 399.365 520.393 399.365 519.522 398.658 518.815 397.788 518.815L396.334 518.815C395.464 518.815 394.757 519.522 394.757 520.393ZM392.76 524.492C391.889 524.492 391.182 525.199 391.182 526.069 391.182 526.939 391.889 527.646 392.76 527.646L394.213 527.646C395.083 527.646 395.79 526.939 395.79 526.069 395.79 525.199 395.083 524.492 394.213 524.492ZM387.607 520.393C387.607 521.263 388.314 521.97 389.185 521.97L390.638 521.97C391.508 521.97 392.215 521.263 392.215 520.393 392.215 519.522 391.508 518.815 390.638 518.815L389.185 518.815C388.314 518.815 387.607 519.522 387.607 520.393ZM380.462 520.393C380.462 521.263 381.169 521.97 382.039 521.97L383.493 521.97C384.363 521.97 385.07 521.263 385.07 520.393 385.07 519.522 384.363 518.815 383.493 518.815L382.039 518.815C381.169 518.815 380.462 519.522 380.462 520.393ZM378.465 524.492C377.594 524.492 376.887 525.199 376.887 526.069 376.887 526.939 377.594 527.646 378.465 527.646L379.918 527.646C380.789 527.646 381.496 526.939 381.496 526.069 381.496 525.199 380.789 524.492 379.918 524.492ZM373.312 520.393C373.312 521.263 374.019 521.97 374.89 521.97L376.343 521.97C377.213 521.97 377.921 521.263 377.921 520.393 377.921 519.522 377.213 518.815 376.343 518.815L374.89 518.815C374.019 518.815 373.312 519.522 373.312 520.393ZM366.167 520.393C366.167 521.263 366.874 521.97 367.745 521.97L369.198 521.97C370.068 521.97 370.776 521.263 370.776 520.393 370.776 519.522 370.068 518.815 369.198 518.815L367.745 518.815C366.874 518.815 366.167 519.522 366.167 520.393ZM465.947 528.789 473.686 528.789 473.686 533.318C473.577 533.199 473.453 533.096 473.305 533.011 472.553 532.576 471.589 532.833 471.154 533.585L466.09 542.352C465.655 543.103 465.913 544.068 466.664 544.503 467.416 544.938 468.38 544.681 468.815 543.929L473.681 535.498 473.681 554.377 468.355 554.382C467.94 554.382 467.524 554.525 467.188 554.812L460.473 560.532 450.811 561.655 432.403 558.09C431.943 558.001 431.443 558.095 431.028 558.386L425.396 562.372 404.788 561.709 397.395 552.566C397.024 552.052 396.396 551.746 395.719 551.825L383.15 553.313C382.695 553.367 382.26 553.595 381.953 553.981L377.384 559.721 372.553 554.989C372.222 554.614 371.738 554.376 371.199 554.376L363.292 554.376 363.292 549.402C363.406 549.763 363.648 550.089 364.004 550.292 364.756 550.727 365.72 550.47 366.155 549.718L373.463 537.06C373.898 536.309 373.641 535.345 372.889 534.909 372.138 534.474 371.174 534.732 370.739 535.483L363.431 548.141C363.371 548.24 363.327 548.349 363.292 548.457L363.292 528.783 370.472 528.783 376.292 534.479C376.836 535.013 377.661 535.147 378.349 534.81L385.869 531.097 397.672 532.15C398.087 532.185 398.508 532.081 398.854 531.839L403.052 528.916 411.769 529.025 417.272 532.219C417.589 532.402 417.935 532.477 418.276 532.457L432.071 532.447C432.456 532.447 432.813 532.328 433.099 532.121L438.969 528.259 447.918 528.234 451.671 531.453C451.997 531.735 452.408 531.888 452.838 531.888L463.113 531.888C463.84 531.888 464.468 531.458 464.754 530.835L465.941 528.778ZM384.425 534.084C383.673 533.649 382.709 533.906 382.274 534.658L373.062 550.61C372.627 551.362 372.884 552.326 373.636 552.761 374.387 553.196 375.351 552.939 375.786 552.187L384.998 536.235C385.434 535.484 385.176 534.52 384.425 534.084ZM396.129 536.082C396.559 535.33 396.302 534.371 395.55 533.936 394.798 533.506 393.839 533.763 393.404 534.515L385.414 548.355C384.984 549.107 385.241 550.066 385.992 550.501 386.744 550.931 387.703 550.674 388.138 549.922ZM399.496 546.243C398.744 545.813 397.785 546.07 397.35 546.822L396.524 548.256C396.094 549.007 396.351 549.967 397.103 550.402 397.854 550.832 398.814 550.575 399.249 549.823L400.074 548.389C400.505 547.637 400.248 546.678 399.496 546.243ZM403.066 543.207 408.742 533.373C409.178 532.621 408.92 531.657 408.169 531.222 407.417 530.787 406.453 531.044 406.018 531.795L400.341 541.63C399.906 542.381 400.163 543.346 400.915 543.781 401.667 544.216 402.631 543.959 403.066 543.207ZM406.038 557.196 418.216 536.102C418.646 535.35 418.389 534.391 417.638 533.956 416.886 533.526 415.926 533.783 415.492 534.534L403.313 555.628C402.883 556.38 403.14 557.339 403.892 557.774 404.643 558.204 405.603 557.947 406.038 557.196ZM416.362 555.307C415.61 554.877 414.651 555.134 414.216 555.885L413.014 557.972C412.584 558.723 412.841 559.683 413.593 560.118 414.345 560.553 415.304 560.291 415.739 559.539L416.94 557.453C417.371 556.701 417.114 555.742 416.362 555.307ZM419.665 552.735 428.813 536.893C429.248 536.141 428.991 535.177 428.239 534.742 427.488 534.307 426.523 534.564 426.088 535.315L416.941 551.158C416.505 551.91 416.763 552.874 417.514 553.309 418.266 553.744 419.23 553.487 419.665 552.735ZM432.546 546.411C431.794 545.981 430.835 546.238 430.4 546.99L425.109 556.152C424.679 556.904 424.936 557.863 425.688 558.298 426.439 558.728 427.399 558.471 427.833 557.719L433.124 548.557C433.554 547.806 433.297 546.846 432.546 546.411ZM436.665 542.436 441.075 534.796C441.51 534.044 441.253 533.08 440.502 532.645 439.75 532.21 438.786 532.467 438.351 533.219L433.94 540.858C433.505 541.61 433.762 542.574 434.514 543.009 435.265 543.444 436.229 543.187 436.665 542.436ZM439.78 556.181 451.196 536.408C451.632 535.656 451.374 534.692 450.623 534.257 449.871 533.822 448.907 534.079 448.472 534.831L437.055 554.604C436.62 555.356 436.877 556.32 437.629 556.755 438.38 557.19 439.345 556.933 439.78 556.181ZM462.302 536.299C462.732 535.548 462.475 534.588 461.724 534.153 460.972 533.723 460.013 533.98 459.578 534.732L447.088 556.364C446.658 557.116 446.915 558.075 447.666 558.51 448.418 558.94 449.377 558.684 449.812 557.932ZM465.531 546.475C464.78 546.04 463.815 546.297 463.38 547.049L459.563 553.66C459.128 554.412 459.385 555.376 460.137 555.811 460.888 556.246 461.853 555.989 462.288 555.237L466.105 548.626C466.54 547.875 466.283 546.91 465.531 546.475ZM363.3 507.681 363.3 513.496 473.688 513.496 473.688 507.681Z" fill="#174460" fill-rule="evenodd"/></g></svg>