<svg width="200" height="200" xmlns="http://www.w3.org/2000/svg" xmlns:xlink="http://www.w3.org/1999/xlink" xml:space="preserve" overflow="hidden"><g transform="translate(-456 -24)"><path d="M656 124C656 159.727 636.94 192.739 606 210.6 575.06 228.463 536.939 228.463 506 210.6 475.06 192.737 456 159.724 456 124 456 88.2761 475.06 55.2611 506 37.4 536.94 19.5367 575.061 19.5367 606 37.4 636.94 55.2633 656 88.2761 656 124" fill="#FFFFFF"/><path d="M581.339 97.4833 581.339 99.0085C580.271 97.4391 578.938 96.0664 577.28 95.1118 574.249 93.3603 570.549 93.2322 567.189 93.8029 562.49 94.6001 558.525 96.7057 558.525 96.7057 557.856 97.0551 557.452 97.7587 557.477 98.5163 557.477 98.5163 557.639 103.003 559.297 107.471 560.483 110.669 562.441 113.808 565.472 115.559 568.502 117.306 572.202 117.434 575.558 116.863 577.752 116.489 579.789 115.83 581.334 115.239L581.334 125.512C580.266 123.942 578.933 122.57 577.275 121.61 574.244 119.859 570.544 119.736 567.184 120.306 562.485 121.104 558.52 123.209 558.52 123.209 557.851 123.563 557.447 124.267 557.472 125.02 557.472 125.02 557.634 129.507 559.292 133.979 560.478 137.172 562.436 140.311 565.467 142.063 568.497 143.814 572.197 143.937 575.553 143.366 577.747 142.992 579.784 142.333 581.329 141.743L581.329 152.015C580.261 150.446 578.928 149.073 577.27 148.114 574.239 146.367 570.539 146.239 567.179 146.81 562.48 147.607 558.515 149.713 558.515 149.713 557.846 150.067 557.443 150.77 557.467 151.528 557.467 151.528 557.629 156.01 559.287 160.483 560.473 163.681 562.431 166.82 565.462 168.566 568.492 170.318 572.192 170.446 575.548 169.875 577.742 169.501 579.779 168.842 581.324 168.246L581.324 177.137 530.401 177.137 530.401 168.246C531.946 168.847 533.983 169.501 536.177 169.875 539.533 170.446 543.233 170.318 546.263 168.566 549.294 166.82 551.252 163.676 552.438 160.483 554.096 156.01 554.258 151.528 554.258 151.528 554.288 150.771 553.879 150.067 553.21 149.713 553.21 149.713 549.245 147.612 544.546 146.81 541.186 146.239 537.486 146.367 534.455 148.114 532.797 149.068 531.464 150.446 530.396 152.015L530.396 141.743C531.941 142.338 533.978 142.992 536.172 143.366 539.528 143.937 543.228 143.814 546.259 142.063 549.289 140.311 551.247 137.172 552.433 133.979 554.091 129.507 554.253 125.02 554.253 125.02 554.283 124.267 553.874 123.564 553.205 123.209 553.205 123.209 549.24 121.108 544.542 120.306 541.181 119.736 537.481 119.859 534.45 121.61 532.792 122.565 531.459 123.942 530.391 125.512L530.391 115.239C531.936 115.834 533.973 116.489 536.167 116.863 539.523 117.434 543.223 117.306 546.254 115.559 549.284 113.808 551.243 110.669 552.428 107.471 554.086 103.003 554.248 98.5163 554.248 98.5163 554.278 97.7587 553.87 97.0549 553.2 96.7057 553.2 96.7057 549.235 94.5998 544.537 93.8029 541.176 93.2322 537.476 93.3602 534.445 95.1118 532.787 96.0662 531.454 97.4391 530.386 99.0085L530.386 97.4833C531.7 96.5484 534.194 94.6151 536.31 92.0614 538.484 89.4343 540.226 86.1676 540.226 82.6692 540.226 79.1712 538.484 75.9042 536.31 73.277 533.269 69.6067 529.466 67.2253 529.466 67.2253 528.826 66.8269 528.015 66.8269 527.37 67.2253 527.37 67.2253 523.567 69.6114 520.526 73.277 518.351 75.9042 516.61 79.1709 516.61 82.6692 516.61 86.1673 518.351 89.4342 520.526 92.0614 522.642 94.6148 525.136 96.5484 526.449 97.4833L526.449 99.0085C525.382 97.4391 524.049 96.0664 522.39 95.1118 519.36 93.3603 515.66 93.2322 512.299 93.8029 507.601 94.6001 503.635 96.7057 503.635 96.7057 502.966 97.0551 502.563 97.7587 502.587 98.5163 502.587 98.5163 502.75 103.003 504.408 107.471 505.598 110.669 507.552 113.808 510.582 115.559 513.613 117.306 517.313 117.434 520.668 116.863 522.863 116.489 524.9 115.83 526.444 115.239L526.444 125.512C525.377 123.942 524.044 122.57 522.385 121.61 519.355 119.859 515.655 119.736 512.294 120.306 507.596 121.104 503.63 123.209 503.63 123.209 502.961 123.563 502.558 124.267 502.582 125.02 502.582 125.02 502.745 129.507 504.403 133.979 505.593 137.172 507.547 140.311 510.577 142.063 513.608 143.814 517.308 143.937 520.663 143.366 522.858 142.992 524.895 142.333 526.44 141.743L526.44 152.015C525.372 150.446 524.039 149.073 522.38 148.114 519.35 146.367 515.65 146.239 512.289 146.81 507.591 147.607 503.625 149.713 503.625 149.713 502.956 150.067 502.553 150.77 502.578 151.528 502.578 151.528 502.74 156.01 504.398 160.483 505.588 163.681 507.542 166.82 510.572 168.566 513.603 170.318 517.303 170.446 520.658 169.875 522.853 169.501 524.89 168.842 526.435 168.246L526.435 177.137 500.851 177.137C499.764 177.137 498.883 178.018 498.883 179.105 498.883 180.192 499.764 181.073 500.851 181.073L611.062 181.073C612.15 181.073 613.03 180.193 613.03 179.105 613.03 178.018 612.15 177.137 611.062 177.137L585.232 177.137 585.232 168.246C586.777 168.847 588.814 169.501 591.008 169.875 594.368 170.446 598.068 170.318 601.099 168.566 604.13 166.82 606.088 163.676 607.268 160.483 608.931 156.01 609.089 151.528 609.089 151.528 609.118 150.771 608.705 150.067 608.041 149.713 608.041 149.713 604.075 147.612 599.372 146.81 596.016 146.239 592.316 146.367 589.286 148.114 587.628 149.068 586.289 150.446 585.227 152.015L585.227 141.743C586.772 142.338 588.809 142.992 591.003 143.366 594.363 143.937 598.063 143.814 601.094 142.063 604.125 140.311 606.083 137.172 607.263 133.979 608.927 129.507 609.084 125.02 609.084 125.02 609.113 124.267 608.7 123.564 608.036 123.209 608.036 123.209 604.07 121.108 599.367 120.306 596.012 119.736 592.311 119.859 589.281 121.61 587.623 122.565 586.285 123.942 585.222 125.512L585.222 115.239C586.767 115.834 588.804 116.489 590.998 116.863 594.358 117.434 598.059 117.306 601.089 115.559 604.12 113.808 606.078 110.669 607.259 107.471 608.922 103.003 609.079 98.5163 609.079 98.5163 609.108 97.7587 608.695 97.0549 608.031 96.7057 608.031 96.7057 604.065 94.5998 599.362 93.8029 596.007 93.2322 592.307 93.3602 589.276 95.1118 587.618 96.0662 586.28 97.4391 585.217 99.0085L585.217 97.4833C586.531 96.5484 589.02 94.6151 591.14 92.0614 593.315 89.4343 595.057 86.1676 595.057 82.6692 595.057 79.1712 593.315 75.9042 591.14 73.277 588.1 69.6067 584.296 67.2253 584.296 67.2253 583.657 66.8269 582.845 66.8269 582.2 67.2253 582.2 67.2253 578.397 69.6114 575.357 73.277 573.182 75.9042 571.44 79.1709 571.44 82.6692 571.44 86.1673 573.182 89.4342 575.357 92.0614 577.472 94.6148 579.967 96.5484 581.28 97.4833Z" fill="#174460" fill-rule="evenodd"/></g></svg>