<svg width="200" height="200" xmlns="http://www.w3.org/2000/svg" xmlns:xlink="http://www.w3.org/1999/xlink" xml:space="preserve" overflow="hidden"><g transform="translate(-456 -225)"><path d="M656 325C656 360.727 636.94 393.739 606 411.6 575.06 429.463 536.939 429.463 506 411.6 475.06 393.737 456 360.724 456 325 456 289.276 475.06 256.261 506 238.4 536.94 220.537 575.061 220.537 606 238.4 636.94 256.263 656 289.276 656 325" fill="#FFFFFF"/><g><path d="M556 269.793C562.298 269.793 568.344 270.85 573.982 272.784 572.393 276.12 571.508 279.849 571.508 283.795 571.508 293.655 577.067 302.231 585.23 306.531 586.568 311.111 587.424 315.874 587.744 320.745 587.768 321.207 588.142 321.552 588.605 321.552L601.52 321.552C601.771 321.552 601.997 321.458 602.155 321.276 602.327 321.089 602.405 320.867 602.381 320.617 602.012 316.7 601.166 312.927 599.891 309.369 602.843 309.064 605.648 308.257 608.216 307.027 610.159 312.666 611.222 318.712 611.222 325.01 611.222 355.514 586.504 380.232 555.999 380.232 549.701 380.232 543.655 379.175 538.017 377.226 539.606 373.891 540.492 370.161 540.492 366.215 540.492 356.356 534.932 347.795 526.784 343.48 525.436 338.899 524.575 334.136 524.27 329.266 524.231 328.818 523.862 328.459 523.395 328.459L510.48 328.459C510.229 328.459 510.017 328.552 509.845 328.735 509.672 328.922 509.594 329.143 509.618 329.394 509.987 333.31 510.834 337.084 512.108 340.656 509.156 340.961 506.352 341.767 503.784 342.983 501.85 337.344 500.792 331.298 500.792 325.001 500.792 294.511 525.51 269.793 555.999 269.793ZM597.211 262.024C609.24 262.024 618.977 271.766 618.977 283.79 618.977 295.805 609.235 305.556 597.211 305.556 585.196 305.556 575.454 295.804 575.454 283.79 575.454 271.761 585.196 262.024 597.211 262.024ZM514.794 344.452C526.809 344.452 536.56 354.193 536.56 366.208 536.56 378.237 526.808 387.974 514.794 387.974 502.764 387.974 493.028 378.232 493.028 366.208 493.028 354.193 502.769 344.452 514.794 344.452ZM522.194 373.593C521.402 375.379 519.931 376.555 518.13 377.244 517.151 377.603 516.078 377.839 514.912 377.948L514.529 381.879C514.489 382.105 514.41 382.238 514.199 382.326 513.589 382.553 512.029 382.563 511.473 382.272 511.208 382.14 511.129 381.928 511.183 381.638L511.567 377.908C510.469 377.751 508.004 377.205 507.212 376.388 507.065 376.24 506.976 376.044 506.907 375.768 506.789 375.197 506.76 373.451 506.986 372.885 507.237 372.265 507.793 372.516 508.231 372.777 509.884 373.756 511.576 374.257 513.525 374.257 514.952 374.257 516.014 373.992 516.713 373.465 517.771 372.644 518.154 370.951 517.308 369.879 516.619 369.003 515.429 368.476 514.41 368.107 513.087 367.63 511.788 367.168 510.533 366.479 509.21 365.751 508.245 364.797 507.65 363.384 507.03 361.913 507.055 359.758 507.65 358.287 508.299 356.673 509.529 355.601 511.104 354.942 511.95 354.583 512.904 354.361 513.962 354.228L514.331 350.538C514.37 350.312 514.449 350.209 514.661 350.1 515.163 349.864 516.909 349.904 517.401 350.164 517.667 350.282 517.721 350.523 517.721 350.784L517.352 354.263C518.41 354.42 519.443 354.671 520.398 355.148 520.9 355.375 521.205 355.626 521.323 356.191 521.441 356.747 521.48 358.43 521.269 358.986 521.082 359.527 520.565 359.252 520.196 359.065 518.779 358.337 517.205 357.796 515.606 357.796 514.705 357.796 513.608 357.928 512.88 358.499 511.916 359.242 511.768 360.802 512.511 361.741 513.2 362.627 514.415 363.143 515.448 363.527 517.367 364.216 519.616 364.954 521.097 366.401 522.922 368.211 523.203 371.296 522.194 373.598ZM604.622 291.166C603.83 292.966 602.358 294.127 600.548 294.816 599.583 295.185 598.511 295.411 597.345 295.52L596.947 299.465C596.922 299.692 596.838 299.81 596.627 299.903 596.017 300.13 594.457 300.154 593.901 299.864 593.635 299.731 593.542 299.505 593.596 299.229L593.994 295.485C592.897 295.328 590.422 294.782 589.64 293.965 589.493 293.832 589.389 293.621 589.335 293.345 589.202 292.774 589.178 291.042 589.399 290.462 589.665 289.842 590.221 290.103 590.644 290.353 592.312 291.333 593.989 291.849 595.938 291.849 597.379 291.849 598.437 291.574 599.126 291.042 600.198 290.235 600.582 288.528 599.721 287.47 599.047 286.595 597.856 286.068 596.838 285.699 595.5 285.207 594.216 284.745 592.961 284.071 591.637 283.328 590.658 282.378 590.063 280.976 589.453 279.505 589.468 277.336 590.078 275.869 590.727 274.27 591.943 273.183 593.531 272.524 594.378 272.179 595.332 271.943 596.39 271.82L596.759 268.115C596.783 267.889 596.877 267.796 597.079 267.692 597.596 267.441 599.342 267.495 599.829 267.746 600.095 267.864 600.149 268.115 600.149 268.381L599.78 271.86C600.823 272.007 601.856 272.268 602.826 272.735 603.318 272.971 603.632 273.227 603.75 273.778 603.859 274.334 603.908 276.017 603.696 276.573 603.509 277.114 602.993 276.849 602.624 276.652 601.207 275.938 599.633 275.392 598.034 275.392 597.133 275.392 596.021 275.51 595.293 276.081 594.339 276.824 594.181 278.398 594.924 279.323 595.613 280.209 596.843 280.74 597.876 281.109 599.78 281.798 602.034 282.536 603.515 283.992 605.355 285.793 605.63 288.888 604.627 291.176ZM510.483 321.547 523.398 321.547C523.86 321.547 524.229 321.202 524.273 320.74 524.642 314.929 525.794 309.251 527.619 303.879 527.698 303.652 527.683 303.431 527.58 303.219 527.471 302.993 527.304 302.851 527.078 302.782 524.032 301.788 520.992 300.651 517.961 299.352 517.577 299.195 517.13 299.328 516.903 299.682 512.918 305.807 510.34 312.941 509.627 320.601 509.602 320.852 509.681 321.079 509.853 321.261 510.025 321.448 510.237 321.536 510.488 321.536ZM522.896 293.941C525.213 294.865 527.541 295.702 529.868 296.44 530.276 296.573 530.714 296.386 530.901 296.002 531.309 295.18 531.732 294.374 532.17 293.567 534.197 289.901 536.564 286.448 539.265 283.269 539.53 282.949 539.54 282.526 539.304 282.196 539.068 281.867 538.645 281.749 538.271 281.906 532.328 284.356 527.009 287.992 522.591 292.533 522.394 292.745 522.315 293.025 522.365 293.316 522.429 293.606 522.615 293.832 522.896 293.936ZM601.529 328.454 588.614 328.454C588.152 328.454 587.783 328.813 587.754 329.261 587.37 335.175 586.194 340.931 584.3 346.383 584.221 346.609 584.246 346.831 584.354 347.057 584.462 347.269 584.629 347.416 584.856 347.495 587.872 348.474 590.887 349.601 593.909 350.885 594.292 351.042 594.73 350.909 594.966 350.555 599.03 344.376 601.662 337.163 602.391 329.394 602.415 329.143 602.337 328.917 602.164 328.735 602.007 328.548 601.781 328.459 601.53 328.459ZM588.919 356.272C586.616 355.357 584.329 354.54 582.026 353.812 581.618 353.694 581.18 353.866 580.993 354.25 580.624 354.992 580.24 355.721 579.842 356.434 577.829 360.099 575.448 363.553 572.747 366.742 572.496 367.047 572.472 367.485 572.708 367.799 572.944 368.129 573.367 368.247 573.741 368.09 579.591 365.679 584.846 362.122 589.209 357.689 589.421 357.478 589.5 357.187 589.436 356.897 589.382 356.607 589.185 356.38 588.919 356.277ZM532.058 321.547 551.694 321.547C552.171 321.547 552.555 321.163 552.555 320.686L552.555 308.312C552.555 307.849 552.196 307.48 551.748 307.451 546.006 307.131 540.275 306.285 534.572 304.898 532.761 309.887 531.61 315.18 531.197 320.617 531.182 320.867 531.251 321.094 531.423 321.276 531.595 321.448 531.807 321.541 532.058 321.541ZM560.323 321.547 579.959 321.547C580.21 321.547 580.421 321.453 580.594 321.281 580.766 321.094 580.845 320.873 580.82 320.622 580.451 315.579 579.432 310.683 577.843 306.024 577.696 305.601 577.273 305.365 576.84 305.453 571.32 306.629 565.804 307.318 560.299 307.529 559.836 307.544 559.467 307.928 559.467 308.39L559.467 320.685C559.467 321.163 559.851 321.546 560.328 321.546ZM579.959 328.454 560.323 328.454C559.846 328.454 559.462 328.838 559.462 329.315L559.462 341.98C559.462 342.442 559.821 342.826 560.284 342.855 565.735 343.146 571.176 343.943 576.598 345.197 577.036 345.306 577.459 345.065 577.616 344.641 579.338 339.8 580.436 334.664 580.819 329.385 580.844 329.134 580.765 328.922 580.593 328.735 580.421 328.548 580.209 328.46 579.958 328.46ZM551.694 328.454 532.058 328.454C531.807 328.454 531.595 328.548 531.423 328.73 531.251 328.917 531.187 329.128 531.197 329.38 531.58 334.526 532.624 339.515 534.281 344.267 534.429 344.676 534.852 344.917 535.275 344.823 540.766 343.657 546.257 342.969 551.724 342.772 552.201 342.757 552.555 342.373 552.555 341.911L552.555 329.311C552.555 328.834 552.172 328.45 551.694 328.45ZM551.138 281.119C545.898 285.513 541.529 290.885 538.223 296.892 538.105 297.089 537.997 297.29 537.893 297.487 537.76 297.723 537.746 298.004 537.869 298.255 537.987 298.505 538.198 298.678 538.479 298.746 542.858 299.686 547.251 300.296 551.644 300.557 551.895 300.572 552.107 300.493 552.294 300.321 552.466 300.164 552.559 299.952 552.559 299.701L552.559 281.781C552.559 281.437 552.372 281.147 552.067 280.999 551.748 280.852 551.408 280.891 551.143 281.117ZM537.853 352.458C537.971 352.669 538.09 352.896 538.222 353.117 541.529 359.124 545.898 364.482 551.137 368.876 551.403 369.102 551.747 369.142 552.062 368.994 552.367 368.846 552.554 368.556 552.554 368.212L552.554 350.504C552.554 350.268 552.475 350.056 552.289 349.884 552.116 349.712 551.905 349.633 551.654 349.648 547.275 349.82 542.867 350.337 538.458 351.198 538.182 351.252 537.956 351.409 537.838 351.675 537.72 351.926 537.72 352.206 537.852 352.457ZM573.809 296.891C570.503 290.884 566.133 285.511 560.878 281.118 560.613 280.892 560.268 280.853 559.963 281 559.643 281.148 559.461 281.438 559.461 281.783L559.461 299.78C559.461 300.031 559.555 300.242 559.727 300.415 559.899 300.572 560.125 300.651 560.362 300.651 564.795 300.464 569.242 299.937 573.715 299.076 573.981 299.022 574.207 298.85 574.325 298.599 574.443 298.348 574.443 298.068 574.31 297.817 574.138 297.512 573.981 297.197 573.808 296.892ZM573.809 353.119C573.863 353.001 573.927 352.893 573.981 352.789 574.129 352.538 574.129 352.273 574.006 352.007 573.888 351.756 573.676 351.584 573.411 351.53 569.071 350.605 564.732 350.01 560.377 349.744 560.141 349.719 559.914 349.798 559.742 349.97 559.555 350.142 559.466 350.354 559.466 350.605L559.466 368.218C559.466 368.563 559.653 368.853 559.968 369 560.273 369.148 560.618 369.109 560.883 368.882 566.138 364.489 570.502 359.131 573.814 353.124Z" fill="#174460" fill-rule="evenodd"/></g></g></svg>