<svg width="201" height="200" xmlns="http://www.w3.org/2000/svg" xmlns:xlink="http://www.w3.org/1999/xlink" xml:space="preserve" overflow="hidden"><g transform="translate(-1071 -225)"><path d="M200 100C200 135.727 180.94 168.739 150 186.6 119.06 204.463 80.9389 204.463 50 186.6 19.06 168.737 0 135.724 0 100 0 64.2761 19.06 31.2611 50 13.4 80.94-4.46333 119.061-4.46333 150 13.4 180.94 31.2633 200 64.2761 200 100" fill="#FFFFFF" transform="matrix(1.005 0 0 1 1071 225)"/><path d="M144.211 64.3556C112.723 61.0808 103.528 42.9439 103.151 42.0617 102.521 40.8021 101.387 40.0465 100.002 40.0465 98.6162 40.0465 97.4826 40.8022 96.8528 42.0617 96.7269 42.3136 87.6583 61.0806 55.7922 64.3556 54.029 64.4814 52.6433 65.993 52.6433 67.7562L52.6433 99.1184C52.6433 135.393 96.6006 158.441 98.3639 159.324 98.8678 159.576 99.3715 159.702 100.001 159.702 100.631 159.702 101.135 159.576 101.639 159.324 103.528 158.316 147.359 135.393 147.359 99.1184L147.359 67.8823C147.359 66.1191 145.974 64.6076 144.211 64.3556ZM118.769 116.878 104.158 116.878 104.158 126.576C104.158 127.206 103.654 127.71 103.025 127.71L97.1054 127.71C96.4757 127.71 95.972 127.206 95.972 126.576L95.972 116.878 81.2353 116.878C79.7238 116.878 78.8423 115.115 79.8499 113.981L89.2966 102.771 83.8806 102.771C82.3691 102.771 81.4876 101.008 82.4951 99.8739L92.5712 88.0344 89.6743 88.0344C88.1628 88.0344 87.2813 86.2712 88.2888 85.1375L98.6172 72.9203C99.3728 72.0386 100.632 72.0386 101.388 72.9203L111.717 85.1375C112.724 86.2709 111.842 88.0344 110.331 88.0344L107.434 88.0344 117.51 99.8739C118.518 101.007 117.636 102.771 116.125 102.771L110.709 102.771 120.156 113.981C121.163 115.115 120.281 116.878 118.77 116.878Z" fill="#174460" transform="matrix(1.005 0 0 1 1071 225)"/></g></svg>