<svg width="201" height="201" xmlns="http://www.w3.org/2000/svg" xmlns:xlink="http://www.w3.org/1999/xlink" xml:space="preserve" overflow="hidden"><g transform="translate(-728 -433)"><path d="M929 533.5C929 569.405 909.845 602.583 878.75 620.533 847.655 638.486 809.344 638.486 778.25 620.533 747.155 602.58 728 569.403 728 533.5 728 497.597 747.155 464.417 778.25 446.467 809.345 428.514 847.656 428.514 878.75 446.467 909.845 464.42 929 497.597 929 533.5" fill="#FFFFFF"/><path d="M891.714 533.573 891.714 541.014C868.302 536.96 843.851 563.71 828.053 578.717 817.323 576.788 807.261 575.107 796.803 570.038 790.449 567.022 787.284 565.119 780.931 559.753 774.774 554.537 771.61 551.298 765.281 542.694L765.281 537.057C773.959 548.306 783.75 556.761 795.64 562.275 806.544 567.59 817.05 569.271 828.274 571.323 828.719 571.373 829.164 571.224 829.486 570.952 835.197 565.39 839.226 561.335 845.555 555.625 857.818 544.622 875.05 530.333 891.713 533.571ZM877.277 531.891C882.147 530.433 885.41 529.938 889.935 530.507 884.941 523.906 881.825 520.766 876.658 516.365 871.541 517.997 868.426 519.579 863.58 522.793 868.624 525.265 871.837 527.342 877.276 531.891ZM874.137 532.905C869.241 528.9 866.126 527.071 860.91 524.549 855.718 527.96 852.43 528.059 847.461 531.891 852.554 533.919 855.793 537.504 860.713 540 866.029 536.416 869.243 534.586 874.137 532.905ZM858.14 541.78C853.492 539.184 850.13 535.525 845.013 534.017 839.599 539.11 836.384 544.945 831.291 550.434 835.914 551.225 839.104 551.819 844.246 553.079 849.685 548.184 852.924 545.415 858.14 541.781ZM841.773 555.328C837.2 554.241 833.541 553.598 828.967 552.807 824.121 557.554 820.24 561.385 815.221 565.96 819.82 567.048 823.478 567.641 828.053 568.457 832.899 563.735 836.78 559.903 841.774 555.329ZM825.951 551.892C820.883 549.519 817.694 541.657 812.724 539.605 807.384 544.945 804.17 555.526 798.756 560.694 803.701 562.943 806.816 563.883 811.958 565.169 817.472 560.199 820.982 556.763 825.952 551.893ZM828.967 534.142C825.481 537.281 822.687 537.083 820.215 536.886 818.509 536.762 816.976 536.639 815.147 537.677 819.918 540.273 823.157 548.036 828.101 549.766 833.441 544.377 836.507 538.765 841.724 533.375 837.052 533.153 833.986 534.884 828.967 534.142ZM858.115 523.041C853.417 520.123 850.154 514.635 845.036 512.83 839.671 518.022 836.457 525.784 831.414 531.545 836.061 531.496 839.127 529.839 844.269 530.927 849.733 526.18 852.774 526.081 858.115 523.041ZM847.187 510.728C852.527 513.176 855.593 518.59 860.711 521.359 866.076 517.725 869.339 515.895 874.358 514.164 869.561 509.245 866.224 499.257 860.909 495.795 855.42 499.849 852.157 505.857 847.187 510.727ZM844.27 509.715C849.264 505.067 852.478 499.38 857.472 494.979 853.418 495.919 850.105 501.086 845.012 500.146 839.647 504.819 836.581 501.778 831.537 504.695 836.358 506.104 839.374 508.354 844.27 509.714ZM828.027 503.954C833.54 498.787 836.605 501.952 841.872 499.059 837.101 496.612 833.911 489.887 828.967 488.304 823.651 493.991 820.586 503.287 815.567 509.369 819.795 507.984 822.786 503.411 828.027 503.954ZM812.006 524.005C817.149 519.11 820.363 512.583 825.036 507.095 821.006 508.801 817.965 513.053 812.773 512.213 806.988 516.737 803.774 510.482 799.274 509.938 803.798 513.449 807.037 521.83 812.007 524.005ZM814.973 524.969C819.794 526.749 822.984 530.013 828.052 531.126 833.54 525.464 836.655 517.702 842.02 511.941 837.224 510.334 834.059 507.96 828.991 506.897 823.477 512.484 820.387 519.283 814.973 524.969ZM799.249 528.777C803.724 531.373 807.062 535.032 812.032 536.491 815.369 533.771 818.04 533.969 820.413 534.142 822.193 534.29 823.676 534.389 825.481 533.326 820.66 531.67 817.57 528.555 812.675 527.145 807.236 531.62 804.244 527.862 799.251 528.777ZM782.537 550.83C787.63 555.008 790.745 556.862 796.061 559.433 801.5 554.909 804.788 544.228 809.856 538.666 804.614 536.639 801.376 532.881 796.357 530.335 791.19 534.661 788 546.974 782.536 550.829ZM787.729 529.741C789.929 528.035 792.624 525.909 796.085 527.145 799.299 525.241 801.87 525.76 804.145 526.255 806.049 526.651 807.631 526.972 809.609 525.884 804.417 522.744 801.401 514.437 796.357 511.249 791.289 515.6 788.124 527.788 782.882 531.917 784.39 532.238 785.775 531.299 787.728 529.741ZM780.312 548.951C785.38 545.91 788.594 534.389 793.045 529.717 788.842 531.176 785.553 537.48 779.768 533.45 774.873 534.934 771.635 535.428 767.085 534.859 772.054 541.436 775.145 544.551 780.311 548.952Z" fill="#174460"/></g></svg>