<svg width="200" height="200" xmlns="http://www.w3.org/2000/svg" xmlns:xlink="http://www.w3.org/1999/xlink" xml:space="preserve" overflow="hidden"><g transform="translate(-251 -24)"><path d="M451 124C451 159.727 431.94 192.739 401 210.6 370.06 228.463 331.939 228.463 301 210.6 270.06 192.737 251 159.724 251 124 251 88.2761 270.06 55.2611 301 37.4 331.94 19.5367 370.061 19.5367 401 37.4 431.94 55.2633 451 88.2761 451 124" fill="#FFFFFF"/><path d="M328.467 115.517C326.213 113.042 324.978 109.863 324.978 106.483 324.978 99.0833 331.001 93.0617 338.4 93.0617 343 93.0617 347.187 95.3692 349.652 99.1672 342.164 100.319 336.221 106.247 335.118 113.819L334.567 113.819C332.339 113.824 330.253 114.439 328.466 115.517ZM338.4 86.1244C339.34 86.1244 340.107 85.3618 340.107 84.4172L340.102 65.2978C340.102 64.3581 339.34 63.5906 338.395 63.5906 337.455 63.5906 336.688 64.3532 336.688 65.2978L336.688 84.4222C336.693 85.3619 337.455 86.1247 338.4 86.1247ZM348.579 88.8599C348.85 89.0125 349.14 89.0862 349.431 89.0862 350.021 89.0862 350.592 88.7811 350.911 88.2351L360.471 71.6696C360.943 70.853 360.663 69.8097 359.846 69.3423 359.03 68.8701 357.986 69.1505 357.519 69.9671L347.959 86.5326C347.482 87.3445 347.763 88.3875 348.579 88.8599ZM318.439 116.038 301.879 125.597C301.062 126.069 300.787 127.113 301.254 127.924 301.569 128.471 302.145 128.775 302.735 128.775 303.025 128.775 303.315 128.702 303.586 128.544L320.146 118.985C320.963 118.512 321.238 117.469 320.771 116.657 320.294 115.846 319.251 115.57 318.439 116.037ZM318.04 106.483C318.04 105.544 317.278 104.776 316.333 104.776L297.204 104.781C296.264 104.781 295.497 105.544 295.497 106.488 295.497 107.428 296.259 108.195 297.204 108.195L316.333 108.195C317.278 108.19 318.04 107.428 318.04 106.483ZM320.141 93.9766 303.581 84.4171C302.765 83.9449 301.721 84.2253 301.254 85.0419 300.782 85.8585 301.062 86.9017 301.879 87.3692L318.439 96.9286C318.709 97.0812 319 97.16 319.29 97.16 319.88 97.16 320.451 96.8548 320.771 96.3088 321.238 95.4872 320.958 94.449 320.141 93.9768ZM325.888 88.2349C326.203 88.7811 326.779 89.086 327.369 89.086 327.659 89.086 327.949 89.0122 328.22 88.8597 329.037 88.3874 329.317 87.3443 328.845 86.5324L319.28 69.9618C318.808 69.1452 317.77 68.8646 316.953 69.337 316.136 69.8093 315.856 70.8524 316.328 71.6643ZM343.664 86.8228C343.811 86.8621 343.959 86.8818 344.106 86.8818 344.859 86.8818 345.548 86.3799 345.754 85.6172L348.652 74.7934C348.899 73.8832 348.357 72.9483 347.447 72.7074 346.537 72.4613 345.602 73.0026 345.361 73.9127L342.463 84.7366C342.217 85.642 342.754 86.5766 343.664 86.8225ZM352.785 92.0873C353.12 92.422 353.553 92.5893 353.991 92.5893 354.428 92.5893 354.861 92.422 355.196 92.0923L363.127 84.1662C363.791 83.5019 363.791 82.4197 363.127 81.7554 362.463 81.0911 361.38 81.0911 360.716 81.7554L352.79 89.6765C352.121 90.3408 352.121 91.423 352.785 92.0873ZM316.643 110.547 305.809 113.455C304.899 113.701 304.358 114.635 304.604 115.541 304.806 116.303 305.499 116.805 306.252 116.805 306.4 116.805 306.547 116.785 306.695 116.746L317.529 113.838C318.439 113.592 318.98 112.657 318.734 111.752 318.488 110.842 317.553 110.301 316.643 110.547ZM317.529 99.1273 306.695 96.2293C305.785 95.9882 304.85 96.5245 304.609 97.4346 304.368 98.3448 304.904 99.2797 305.814 99.5206L316.648 102.419C316.796 102.458 316.943 102.478 317.091 102.478 317.844 102.478 318.532 101.976 318.739 101.213 318.975 100.308 318.439 99.368 317.529 99.1271ZM316.077 81.7496C315.413 81.0853 314.331 81.0853 313.666 81.7496 313.002 82.4138 313.002 83.4961 313.666 84.1604L321.592 92.0865C321.927 92.4211 322.36 92.5885 322.798 92.5885 323.236 92.5885 323.669 92.4211 324.003 92.0865 324.667 91.4222 324.667 90.3399 324.003 89.6757ZM331.044 85.6167C331.246 86.3793 331.94 86.8813 332.693 86.8813 332.84 86.8813 332.988 86.8615 333.135 86.8223 334.046 86.5762 334.582 85.6415 334.341 84.7311L331.433 73.9072C331.187 72.997 330.252 72.4608 329.347 72.7019 328.437 72.948 327.901 73.8827 328.142 74.7931ZM334.567 134.103C329.918 134.103 326.129 130.32 326.129 125.666 326.129 121.016 329.913 117.228 334.567 117.228L336.658 117.228C337.569 117.228 338.316 116.519 338.361 115.614 338.755 108.19 344.885 102.374 352.324 102.374 354.42 102.374 356.437 102.832 358.312 103.727 359.134 104.121 360.118 103.796 360.551 102.999 363.315 97.8429 368.659 94.6402 374.498 94.6402 383.222 94.6402 390.312 101.735 390.312 110.454 390.312 110.508 390.317 110.567 390.307 110.621 390.272 111.093 390.439 111.556 390.759 111.905 391.079 112.249 391.532 112.446 392.004 112.446L395.669 112.446C401.638 112.446 406.493 117.302 406.493 123.28 406.493 128.554 402.7 132.958 397.701 133.912L402.557 123.177C402.793 122.645 402.749 122.035 402.434 121.548 402.119 121.061 401.583 120.771 401.003 120.771L386.425 120.766C385.647 120.766 384.963 121.297 384.772 122.05L381.721 134.099 334.567 134.099ZM365.991 104.716C366.66 105.38 367.738 105.38 368.402 104.711 369.986 103.122 372.097 102.241 374.35 102.241 379 102.241 382.783 106.025 382.783 110.674 382.783 112.632 382.094 114.536 380.854 116.042 380.254 116.765 380.357 117.843 381.081 118.443 381.401 118.703 381.784 118.831 382.168 118.831 382.66 118.831 383.142 118.625 383.482 118.211 385.228 116.096 386.193 113.419 386.193 110.673 386.193 104.145 380.879 98.8312 374.35 98.8312 371.182 98.8312 368.215 100.061 365.986 102.3 365.317 102.974 365.322 104.051 365.991 104.716ZM390.423 143.629C390.108 143.142 390.064 142.527 390.3 142.001L398.364 124.176 387.747 124.176 384.716 136.15 384.677 136.313 381.056 150.614 395.786 150.614C396.342 150.614 396.863 150.885 397.183 151.338 397.503 151.795 397.582 152.376 397.39 152.897L387.328 178.54 405.823 144.41 391.855 144.405C391.279 144.41 390.738 144.114 390.423 143.627ZM372.79 141.125C371.875 140.893 370.95 141.444 370.719 142.355L365.449 163.014C365.218 163.929 365.769 164.854 366.68 165.085 366.822 165.119 366.965 165.139 367.103 165.139 367.865 165.139 368.559 164.627 368.756 163.855L374.025 143.196C374.257 142.286 373.705 141.356 372.79 141.125ZM363.767 141.125C362.852 140.888 361.927 141.444 361.695 142.355L351.511 182.275C351.28 183.19 351.831 184.115 352.741 184.346 352.884 184.381 353.026 184.4 353.164 184.4 353.927 184.4 354.62 183.889 354.818 183.116L365.002 143.196C365.233 142.286 364.682 141.356 363.767 141.125ZM354.743 141.125C353.833 140.893 352.903 141.444 352.667 142.355L347.398 163.014C347.167 163.929 347.718 164.854 348.628 165.09 348.77 165.124 348.913 165.144 349.051 165.144 349.814 165.144 350.502 164.632 350.704 163.86L355.979 143.201C356.21 142.286 355.659 141.356 354.744 141.125ZM345.725 141.125C344.81 140.888 343.885 141.444 343.654 142.355L333.464 182.275C333.233 183.19 333.784 184.115 334.694 184.346 334.837 184.381 334.98 184.4 335.118 184.4 335.88 184.4 336.574 183.889 336.771 183.116L346.955 143.196C347.187 142.286 346.635 141.356 345.725 141.125ZM337.976 142.773C337.976 142.01 337.464 141.321 336.692 141.125 335.777 140.893 334.852 141.444 334.621 142.355L329.352 163.014C329.317 163.156 329.298 163.299 329.298 163.437 329.298 164.199 329.809 164.888 330.582 165.085 330.724 165.119 330.867 165.139 331.005 165.139 331.767 165.139 332.461 164.627 332.658 163.855L337.927 143.196C337.962 143.053 337.977 142.911 337.977 142.773Z" fill="#174460"/></g></svg>