<?xml version="1.0" encoding="UTF-8"?>
<svg width="1200pt" height="1200pt" version="1.1" viewBox="0 0 1200 1200" xmlns="http://www.w3.org/2000/svg">
 <path d="m1102.4 674.44c0 94.215-76.66 170.88-170.9 170.88h-81.543c-13.816 0-25-11.184-25-25s11.184-25 25-25h81.543c66.676 0 120.9-54.223 120.9-120.88 0-66.676-54.223-120.9-120.9-120.9l-22.289 0.90234-5.9805-21.875c-20.824-133.86-134.42-231-270.12-231-104.66 0-198.56 58.324-245.09 152.25l-9.1562 18.434-19.848-5.4219c-14.82-4.0547-29.688-6.1016-44.191-6.1016-92.262 0-167.31 75.047-167.31 167.29 0 92.262 75.047 167.31 167.31 167.31h36.695c13.816 0 25 11.184 25 25s-11.184 25-25 25h-36.695c-119.82 0-217.31-97.484-217.31-217.31 0-119.8 97.484-217.29 217.31-217.29 12.453 0 25.074 1.1484 37.695 3.418 57.641-100.78 163.43-162.57 280.59-162.57 153.52 0 283.11 105.13 315.67 252.86 86.156 8.6914 153.61 81.617 153.61 170.02zm-389.75 97.535-87.695 92.559v-291.09c0-13.816-11.184-25-25-25s-25 11.184-25 25v291.09l-87.695-92.559c-9.4961-10.035-25.293-10.449-35.328-0.95312-10.035 9.4961-10.449 25.316-0.95312 35.328l124.68 131.62c6.2734 6.6641 15.137 10.473 24.293 10.473s18.016-3.8086 24.266-10.449l124.71-131.64c9.4961-10.008 9.082-25.828-0.95312-35.328-10.008-9.5234-25.828-9.1055-35.328 0.95312z" fill="#fff"/>
</svg>
