<svg width="201" height="201" xmlns="http://www.w3.org/2000/svg" xmlns:xlink="http://www.w3.org/1999/xlink" xml:space="preserve" overflow="hidden"><g transform="translate(-45 -23)"><path d="M246 123.5C246 159.405 226.845 192.583 195.75 210.533 164.655 228.486 126.344 228.486 95.25 210.533 64.1553 192.58 45 159.403 45 123.5 45 87.5975 64.1553 54.4174 95.25 36.467 126.345 18.5144 164.656 18.5144 195.75 36.467 226.845 54.4196 246 87.5975 246 123.5" fill="#FFFFFF"/><path d="M157.839 132.612 156.529 132.177C152.281 130.773 148.622 127.895 146.229 124.068 146.017 123.727 145.646 123.519 145.24 123.519 144.835 123.519 144.464 123.722 144.252 124.068 140.696 129.754 134.575 133.151 127.88 133.151 122.213 133.151 116.853 130.674 113.179 126.352 112.957 126.09 112.635 125.942 112.289 125.942 112.126 125.942 111.968 125.977 111.824 126.041 109.876 126.896 107.809 127.326 105.673 127.326 97.2083 127.326 90.3201 120.439 90.3201 111.973 90.3201 103.508 97.2077 96.62 105.673 96.62 106.81 96.62 107.958 96.7485 109.08 97.0056 109.164 97.0255 109.253 97.0353 109.337 97.0353 109.58 97.0353 109.812 96.9611 110.01 96.8227 110.277 96.6347 110.455 96.3332 110.494 96.0068 111.641 86.3202 119.879 79.0117 129.65 79.0117 133.541 79.0117 137.294 80.1637 140.499 82.3492 140.691 82.4827 140.919 82.552 141.156 82.552 141.28 82.552 141.398 82.5322 141.517 82.4977 141.863 82.3841 142.13 82.127 142.254 81.7856 145.092 73.9288 152.613 68.6475 160.974 68.6475 171.388 68.6475 180.104 76.7763 180.822 87.1551 180.862 87.7385 181.337 88.2083 181.92 88.238 192.442 88.8264 200.679 97.5488 200.679 108.096 200.679 109.07 200.61 110.054 200.467 111.014L200.2 112.833 199.191 111.295C194.84 104.675 187.532 100.719 179.646 100.719 166.759 100.719 156.277 111.202 156.277 124.087 156.277 126.55 156.663 128.978 157.419 131.302L157.845 132.617ZM190.741 117.817 190.686 117.817C189.955 117.837 189.208 118.208 188.521 118.895L178.003 129.412C177.781 129.635 177.489 129.754 177.178 129.754 176.866 129.754 176.574 129.63 176.352 129.412L171.046 124.107C170.473 123.533 169.855 123.247 169.212 123.247L169.158 123.247C168.594 123.261 168.021 123.519 167.59 123.949 167.16 124.379 166.903 124.948 166.888 125.516 166.868 126.184 167.16 126.816 167.749 127.41L174.745 134.406C175.393 135.054 176.258 135.415 177.178 135.415 178.097 135.415 178.963 135.054 179.61 134.406L191.819 122.198C192.506 121.511 192.877 120.764 192.897 120.032 192.912 119.434 192.689 118.875 192.269 118.455 191.863 118.049 191.319 117.827 190.746 117.827ZM200.68 124.082C200.68 135.682 191.24 145.121 179.64 145.121 168.04 145.121 158.601 135.682 158.601 124.082 158.601 112.482 168.04 103.043 179.64 103.043 191.24 103.043 200.68 112.482 200.68 124.082ZM193.915 116.799C193.07 115.953 191.942 115.484 190.751 115.484L190.632 115.484C189.697 115.508 188.283 115.83 186.869 117.244L177.173 126.94 172.688 122.456C171.412 121.18 170.087 120.908 169.197 120.908L169.078 120.908C167.906 120.938 166.789 121.432 165.929 122.292 165.068 123.153 164.579 124.27 164.544 125.447 164.519 126.362 164.766 127.731 166.087 129.052L173.083 136.048C174.176 137.141 175.625 137.739 177.168 137.739 178.71 137.739 180.159 137.136 181.252 136.048L193.46 123.84C195.918 121.382 195.547 118.435 193.905 116.794ZM124.475 168.356 103.584 168.356C102.941 168.356 102.417 168.88 102.417 169.523 102.417 170.165 102.942 170.69 103.584 170.69L124.475 170.69C125.949 170.69 127.146 171.886 127.146 173.36 127.146 174.833 125.949 176.03 124.475 176.03 123.457 176.03 122.537 175.461 122.082 174.551 121.884 174.151 121.484 173.904 121.039 173.904 120.856 173.904 120.683 173.948 120.52 174.027 119.946 174.314 119.709 175.016 119.995 175.59 120.851 177.301 122.567 178.364 124.475 178.364 127.235 178.364 129.479 176.119 129.479 173.36 129.479 170.601 127.234 168.356 124.475 168.356ZM141.134 142.386 120.243 142.386C119.6 142.386 119.076 142.91 119.076 143.553 119.076 144.196 119.6 144.72 120.243 144.72L141.134 144.72C143.893 144.72 146.138 142.475 146.138 139.716 146.138 136.957 143.893 134.712 141.134 134.712 139.225 134.712 137.509 135.775 136.654 137.486 136.515 137.763 136.491 138.08 136.59 138.376 136.688 138.673 136.896 138.91 137.173 139.049 137.336 139.133 137.514 139.172 137.692 139.172 138.137 139.172 138.538 138.925 138.736 138.524 139.191 137.61 140.11 137.046 141.129 137.046 142.602 137.046 143.799 138.243 143.799 139.716 143.799 141.19 142.603 142.386 141.129 142.386ZM122.567 159.44C122.567 156.681 120.322 154.437 117.563 154.437 115.655 154.437 113.939 155.5 113.083 157.211 112.945 157.488 112.92 157.804 113.019 158.101 113.118 158.397 113.326 158.635 113.602 158.773 113.765 158.857 113.943 158.897 114.122 158.897 114.567 158.897 114.967 158.649 115.165 158.249 115.62 157.334 116.539 156.771 117.558 156.771 119.032 156.771 120.228 157.967 120.228 159.441 120.228 160.914 119.032 162.111 117.558 162.111L96.667 162.111C96.0243 162.111 95.5002 162.635 95.5002 163.278 95.5002 163.92 96.0243 164.444 96.667 164.444L117.558 164.444C120.317 164.444 122.562 162.2 122.562 159.441ZM148.047 148.632 127.155 148.632C126.513 148.632 125.989 149.156 125.989 149.799 125.989 150.441 126.513 150.965 127.155 150.965L148.047 150.965C149.52 150.965 150.717 152.162 150.717 153.635 150.717 155.109 149.52 156.306 148.047 156.306 147.028 156.306 146.108 155.737 145.653 154.827 145.456 154.427 145.055 154.179 144.61 154.179 144.427 154.179 144.254 154.224 144.091 154.303 143.517 154.59 143.28 155.292 143.567 155.866 144.422 157.577 146.138 158.64 148.047 158.64 150.806 158.64 153.05 156.395 153.05 153.636 153.05 150.877 150.805 148.632 148.047 148.632ZM186.615 168.356 165.724 168.356C165.081 168.356 164.557 168.88 164.557 169.523 164.557 170.165 165.081 170.69 165.724 170.69L186.615 170.69C188.089 170.69 189.285 171.886 189.285 173.36 189.285 174.833 188.089 176.03 186.615 176.03 185.597 176.03 184.677 175.461 184.222 174.551 184.024 174.151 183.624 173.904 183.179 173.904 182.996 173.904 182.823 173.948 182.659 174.027 182.086 174.314 181.848 175.016 182.135 175.59 182.99 177.301 184.706 178.364 186.615 178.364 189.374 178.364 191.619 176.119 191.619 173.36 191.619 170.601 189.374 168.356 186.615 168.356ZM184.706 159.44C184.706 156.681 182.462 154.437 179.703 154.437 177.794 154.437 176.078 155.5 175.223 157.211 174.936 157.784 175.168 158.486 175.747 158.773 175.91 158.857 176.088 158.897 176.266 158.897 176.711 158.897 177.112 158.649 177.309 158.249 177.764 157.334 178.684 156.771 179.703 156.771 181.176 156.771 182.373 157.967 182.373 159.441 182.373 160.914 181.176 162.111 179.703 162.111L158.812 162.111C158.169 162.111 157.645 162.635 157.645 163.278 157.645 163.92 158.169 164.444 158.812 164.444L179.703 164.444C182.462 164.444 184.707 162.2 184.707 159.441Z" fill="#174460"/></g></svg>