<svg width="200" height="200" xmlns="http://www.w3.org/2000/svg" xmlns:xlink="http://www.w3.org/1999/xlink" xml:space="preserve" overflow="hidden"><g transform="translate(-46 -225)"><path d="M246 325C246 360.727 226.94 393.739 196 411.6 165.06 429.463 126.939 429.463 96 411.6 65.06 393.737 46 360.724 46 325 46 289.276 65.06 256.261 96 238.4 126.94 220.537 165.061 220.537 196 238.4 226.94 256.263 246 289.276 246 325" fill="#FFFFFF"/><path d="M171.878 305.322 177.491 305.322 177.491 311.391C178.793 311.16 180.107 311.005 181.427 311.005 182.747 311.005 184.061 311.16 185.363 311.391L185.363 305.322 190.977 305.322C192.73 305.322 193.813 303.48 192.911 302.031L185.156 289.578 187.793 289.578C188.962 289.578 189.684 288.104 189.083 286.945L182.717 274.678C182.133 273.553 180.722 273.553 180.138 274.678L173.772 286.945C173.17 288.104 173.892 289.578 175.061 289.578L177.699 289.578 169.944 302.031C169.042 303.48 170.125 305.322 171.878 305.322Z" fill="#174460"/><path d="M136.45 301.383 142.063 301.383 142.063 307.797C143.242 307.622 144.421 307.501 145.588 307.501 147.064 307.501 148.511 307.691 149.935 307.969L149.935 301.383 155.549 301.383C157.302 301.383 158.385 299.54 157.483 298.092L149.728 285.639 152.365 285.639C153.534 285.639 154.256 284.165 153.655 283.006L147.289 270.739C146.705 269.613 145.294 269.613 144.71 270.739L138.344 283.006C137.742 284.165 138.464 285.639 139.633 285.639L142.271 285.639 134.516 298.092C133.614 299.54 134.697 301.383 136.45 301.383Z" fill="#174460"/><path d="M165.678 364.361C161.125 364.361 156.57 362.683 153.103 359.327 149.186 355.536 142.809 355.536 138.892 359.327 131.958 366.039 120.677 366.039 113.742 359.327 109.825 355.536 103.448 355.536 99.5317 359.327L97.5636 361.232C95.9991 362.747 93.5104 362.706 91.998 361.136 90.4874 359.568 90.5316 357.071 92.0941 355.557L94.0622 353.651C100.997 346.939 112.278 346.939 119.212 353.651 123.129 357.443 129.506 357.443 133.423 353.651 140.357 346.939 151.638 346.939 158.573 353.651 162.49 357.443 168.867 357.443 172.783 353.651 179.718 346.939 190.999 346.939 197.933 353.651L199.901 355.557C201.464 357.071 201.508 359.568 199.998 361.136 198.487 362.706 196 362.747 194.432 361.232L192.464 359.327C188.547 355.536 182.17 355.536 178.253 359.327 174.786 362.683 170.231 364.361 165.678 364.361Z" fill="#174460"/><path d="M165.678 380.106C161.125 380.106 156.57 378.428 153.103 375.072 149.186 371.28 142.809 371.28 138.892 375.072 131.958 381.784 120.677 381.784 113.742 375.072 109.825 371.28 103.448 371.28 99.5317 375.072L97.5636 376.977C95.9991 378.491 93.5104 378.451 91.998 376.881 90.4874 375.312 90.5316 372.815 92.0941 371.301L94.0622 369.396C100.997 362.683 112.278 362.683 119.212 369.396 123.129 373.187 129.506 373.187 133.423 369.396 140.357 362.683 151.638 362.683 158.573 369.396 162.49 373.187 168.867 373.187 172.783 369.396 179.718 362.683 190.999 362.683 197.933 369.396L199.901 371.301C201.464 372.815 201.508 375.312 199.998 376.881 198.487 378.451 196 378.491 194.432 376.977L192.464 375.072C188.547 371.28 182.17 371.28 178.253 375.072 174.786 378.428 170.231 380.106 165.678 380.106Z" fill="#174460"/><path d="M198.928 321.478 189.807 316.917C184.53 314.279 178.318 314.279 173.041 316.917L171.188 317.844C167.865 319.505 163.925 319.354 160.739 317.444L154.994 313.998C149.399 310.643 142.606 310.717 136.679 313.444 133.017 315.13 128.457 314.588 125.316 312.072L115.568 304.271C113.46 302.583 111.012 301.371 108.392 300.716L95.7846 297.564C94.6162 297.272 93.3668 297.537 92.4098 298.281 91.4527 299.026 90.8952 300.17 90.8952 301.383L90.8952 344.679 201.106 344.679 201.106 324.999C201.106 323.508 200.264 322.144 198.93 321.478ZM102.128 320.486 98.1918 324.422C97.8074 324.807 97.3038 324.999 96.8003 324.999 96.2968 324.999 95.7931 324.807 95.4088 324.422 94.6401 323.654 94.6401 322.408 95.4088 321.639L99.3448 317.703C100.113 316.935 101.359 316.935 102.128 317.703 102.896 318.472 102.896 319.718 102.128 320.486ZM104.672 313.191C104.169 313.191 103.665 312.998 103.281 312.614L99.3448 308.678C98.5761 307.909 98.5761 306.664 99.3448 305.895 100.113 305.126 101.359 305.126 102.128 305.895L106.064 309.831C106.832 310.6 106.832 311.845 106.064 312.614 105.679 312.998 105.176 313.191 104.672 313.191ZM113.936 336.23C113.551 336.614 113.048 336.807 112.544 336.807 112.041 336.807 111.537 336.614 111.153 336.23L107.217 332.294C106.448 331.525 106.448 330.28 107.217 329.511 107.986 328.742 109.231 328.742 110 329.511L113.936 333.447C114.705 334.216 114.705 335.461 113.936 336.23ZM116.48 321.062 112.544 321.062C111.456 321.062 110.576 320.182 110.576 319.094 110.576 318.007 111.456 317.126 112.544 317.126L116.48 317.126C117.568 317.126 118.448 318.007 118.448 319.094 118.448 320.182 117.568 321.062 116.48 321.062ZM124.353 328.935 120.417 328.935C119.329 328.935 118.448 328.054 118.448 326.967 118.448 325.879 119.329 324.999 120.417 324.999L124.353 324.999C125.44 324.999 126.321 325.879 126.321 326.967 126.321 328.054 125.44 328.935 124.353 328.935ZM133.616 340.166C133.232 340.551 132.728 340.743 132.224 340.743 131.721 340.743 131.217 340.551 130.833 340.166L126.897 336.23C126.128 335.462 126.128 334.216 126.897 333.447 127.666 332.679 128.911 332.679 129.68 333.447L133.616 337.383C134.385 338.152 134.385 339.398 133.616 340.166ZM136.16 324.998 132.224 324.998C131.137 324.998 130.256 324.118 130.256 323.03 130.256 321.942 131.137 321.062 132.224 321.062L136.16 321.062C137.248 321.062 138.129 321.942 138.129 323.03 138.129 324.118 137.248 324.998 136.16 324.998ZM144.033 332.871 140.097 332.871C139.009 332.871 138.129 331.99 138.129 330.903 138.129 329.815 139.009 328.934 140.097 328.934L144.033 328.934C145.12 328.934 146.001 329.815 146.001 330.903 146.001 331.99 145.12 332.871 144.033 332.871ZM149.36 324.422C148.976 324.806 148.472 324.998 147.969 324.998 147.465 324.998 146.961 324.806 146.577 324.422 145.808 323.653 145.808 322.408 146.577 321.639L150.513 317.703C151.282 316.934 152.527 316.934 153.296 317.703 154.065 318.471 154.065 319.717 153.296 320.486ZM161.168 336.23C160.784 336.614 160.28 336.807 159.776 336.807 159.273 336.807 158.769 336.614 158.385 336.23L154.449 332.294C153.68 331.525 153.68 330.28 154.449 329.511 155.218 328.742 156.463 328.742 157.232 329.511L161.168 333.447C161.937 334.216 161.937 335.461 161.168 336.23ZM171.585 328.935 167.649 328.935C166.561 328.935 165.68 328.054 165.68 326.966 165.68 325.879 166.561 324.998 167.649 324.998L171.585 324.998C172.672 324.998 173.553 325.879 173.553 326.966 173.552 328.054 172.672 328.935 171.585 328.935ZM180.848 336.23 176.912 340.166C176.527 340.55 176.024 340.743 175.52 340.743 175.017 340.743 174.513 340.55 174.129 340.166 173.36 339.397 173.36 338.152 174.129 337.383L178.065 333.447C178.834 332.678 180.079 332.678 180.848 333.447 181.617 334.216 181.617 335.461 180.848 336.23ZM182.001 321.639C182.77 320.87 184.015 320.87 184.784 321.639L188.72 325.575C189.489 326.344 189.489 327.589 188.72 328.358 188.336 328.742 187.832 328.934 187.328 328.934 186.825 328.934 186.321 328.742 185.937 328.358L182.001 324.422C181.232 323.653 181.232 322.408 182.001 321.639ZM191.264 340.742 187.328 340.742C186.24 340.742 185.36 339.862 185.36 338.774 185.36 337.686 186.24 336.806 187.328 336.806L191.264 336.806C192.352 336.806 193.232 337.686 193.232 338.774 193.232 339.862 192.352 340.742 191.264 340.742Z" fill="#174460"/></g></svg>