<svg width="201" height="200" xmlns="http://www.w3.org/2000/svg" xmlns:xlink="http://www.w3.org/1999/xlink" xml:space="preserve" overflow="hidden"><g transform="translate(-866 -24)"><path d="M200 100C200 135.727 180.94 168.739 150 186.6 119.06 204.463 80.9389 204.463 50 186.6 19.06 168.737 0 135.724 0 100 0 64.2761 19.06 31.2611 50 13.4 80.94-4.46333 119.061-4.46333 150 13.4 180.94 31.2633 200 64.2761 200 100" fill="#FFFFFF" transform="matrix(1.005 0 0 1 866 24)"/><path d="M95.1167 132.856C94.9593 132.516 94.8658 132.137 94.8608 131.931 95.8447 131.99 97.1633 133.126 97.6062 133.51 97.8129 133.687 98.0194 133.874 98.2262 134.061 98.9593 134.72 99.7169 135.404 100.642 135.886 101.38 136.27 102.167 136.491 102.925 136.703 103.333 136.816 103.737 136.929 104.135 137.072 104.445 137.18 104.75 137.308 105.06 137.431 105.779 137.726 106.522 138.031 107.338 138.149 108.042 138.247 108.726 138.203 109.39 138.154 109.641 138.134 109.892 138.12 110.138 138.11 111.471 138.066 112.849 138.272 114.113 138.72 114.167 138.74 114.251 138.764 114.349 138.794 114.384 138.803 114.433 138.818 114.487 138.833 114.231 139.064 113.867 139.236 113.463 139.305 112.371 139.497 111.249 139.281 110.064 139.054 109.168 138.882 108.248 138.705 107.313 138.705 106.777 138.705 106.236 138.764 105.685 138.912 105.483 138.966 105.277 139.035 105.075 139.103 104.627 139.256 104.199 139.399 103.801 139.369 103.333 139.33 102.767 139.182 102.133 138.931 100.858 138.424 99.7267 137.543 98.8856 136.835 97.9312 136.028 97.0111 135.157 96.1549 134.247 95.7613 133.829 95.3531 133.372 95.1167 132.855ZM106.693 133.48C107.279 133.795 107.933 133.948 108.602 133.913 108.789 133.904 108.976 133.884 109.163 133.859 109.581 133.81 110.014 133.756 110.472 133.82 110.551 133.83 110.629 133.844 110.703 133.859 111.013 133.928 111.294 134.056 111.54 134.169 111.766 134.272 111.982 134.366 112.184 134.405 112.558 134.474 112.996 134.307 113.272 133.982 113.532 133.677 113.547 133.229 113.562 132.713 113.572 132.418 113.582 132.122 113.631 131.842 113.729 131.247 113.887 130.666 114.039 130.11 114.123 129.805 114.206 129.505 114.275 129.2 114.428 128.55 114.9 126.583 114.113 126.1 113.965 126.012 113.685 126.031 113.326 126.154 112.361 126.484 111.515 127.129 110.94 127.97 110.777 128.211 110.635 128.467 110.487 128.723 110.31 129.038 110.133 129.357 109.921 129.653 109.375 130.425 108.701 130.902 107.978 131.03 107.737 131.074 107.476 131.079 107.215 131.074 106.787 131.074 106.522 131.079 106.384 131.237 106.04 131.625 105.843 132.442 105.995 132.831 106.094 133.062 106.33 133.278 106.694 133.48ZM137.453 134.622C137.011 134.277 136.361 134.209 135.913 134.46 135.5 134.691 135.205 135.163 134.895 135.665 134.511 136.28 134.078 136.978 133.316 137.352 132.543 137.731 131.682 137.638 131.018 137.515 130.423 137.406 129.828 137.249 129.252 137.047L129.075 136.983C128.652 136.836 128.253 136.693 127.904 136.742 127.274 136.836 126.846 137.534 126.393 138.272 126.261 138.489 126.128 138.705 125.995 138.902 124.947 140.447 123.314 141.377 121.857 142.08 121.533 142.238 121.208 142.39 120.883 142.543 119.702 143.089 118.59 143.611 117.616 144.358 117.434 144.501 117.257 144.649 117.075 144.801 116.534 145.254 115.978 145.721 115.274 146.006 114.669 146.252 114.039 146.331 113.424 146.405 112.607 146.508 111.904 146.592 111.422 147.03 110.885 147.512 110.767 148.348 110.762 148.963 110.753 149.662 110.88 150.223 111.136 150.626 111.407 151.059 111.889 151.33 112.283 151.28 112.415 151.266 112.533 151.3 112.642 151.359 122.546 148.919 131.348 143.684 138.186 136.54 138.186 136.52 138.176 136.505 138.176 136.481 138.216 135.817 137.871 134.946 137.453 134.621ZM117.154 134.263C117.292 133.913 117.557 133.657 117.892 133.549 118.482 133.357 119.053 133.662 119.275 133.8 119.353 133.849 119.432 133.909 119.516 133.963 119.589 134.017 119.663 134.066 119.732 134.11 119.752 133.879 119.663 133.633 119.496 133.485 119.417 133.446 118.852 133.239 118.419 133.102 118.261 133.052 118.123 132.939 118.05 132.787 117.971 132.639 117.961 132.462 118.01 132.305L118.335 131.316C118.404 131.104 118.581 130.942 118.803 130.897 119.964 130.647 121.145 130.277 121.671 130.012 121.469 129.982 121.135 129.928 120.869 129.943 119.747 130.012 118.611 130.327 117.513 130.637 117.381 130.676 117.233 130.716 117.164 130.765 117.169 130.765 117.149 130.809 117.135 130.917 117.11 131.099 117.12 131.296 117.125 131.473 117.13 131.606 117.13 131.729 117.125 131.832L117.046 133.653C117.036 133.874 117.021 134.223 117.095 134.42ZM54.6206 116.285C56.0867 115.06 56.6624 114.091 56.4361 113.235 56.3328 112.841 56.0424 112.473 55.7376 112.084L55.649 111.971C53.1692 108.792 51.6392 104.778 51.2948 100.63L47.108 100.63C47.1868 107.257 48.5003 113.595 50.8129 119.43 51.4967 118.529 52.6235 117.727 53.6076 117.034 54.0061 116.753 54.3652 116.502 54.6211 116.286ZM129.671 129.978C129.69 129.983 129.823 130.037 130.02 130.115 130.482 130.303 131.339 130.652 131.732 130.79 132.426 131.036 133.287 130.76 134.108 130.465 135.894 129.815 137.572 129.432 139.24 129.279 139.511 129.255 139.722 129.235 139.87 129.166 140.047 129.082 140.086 129.023 140.086 129.023 140.042 128.684 138.699 127.774 138.094 127.646 137.597 127.538 137.075 127.508 136.529 127.474 136.012 127.444 135.481 127.41 134.945 127.311 134.787 127.282 134.63 127.247 134.473 127.213 134.148 127.139 133.838 127.07 133.548 127.065 132.874 127.09 132.396 127.582 132.136 128.074L132.072 128.202C131.963 128.418 131.835 128.684 131.589 128.905 130.965 129.476 130.084 129.363 129.439 129.274L129.134 129.235C128.544 129.181 127.875 129.363 127.393 129.722 127.186 129.875 126.979 130.101 126.861 130.372 127.747 130.184 128.982 129.958 129.488 129.958 129.572 129.958 129.631 129.963 129.67 129.978ZM54.7706 102.755C54.8001 104.079 54.8246 105.329 55.5134 106.323 56.1482 107.238 57.2897 107.764 58.2143 108.118 59.4591 108.595 60.7039 108.901 61.9192 109.033 62.6768 109.112 63.2131 109.053 63.6167 108.837 64.0939 108.586 64.2022 108.305 64.2465 108.118 64.4679 107.124 63.2378 105.511 62.6526 104.738L62.569 104.63C61.9637 103.833 60.7535 102.219 60.237 100.63L54.6231 100.63C54.6476 100.807 54.6771 100.984 54.6968 101.161 54.7461 101.678 54.7609 102.214 54.7706 102.755ZM152.893 100.63C152.735 113.978 147.604 126.151 139.275 135.385 139.088 134.711 138.749 134.037 138.222 133.629 137.371 132.964 136.195 132.856 135.295 133.363 134.596 133.752 134.183 134.416 133.819 135.001 133.494 135.518 133.194 136.01 132.756 136.222 132.313 136.438 131.713 136.369 131.241 136.281 130.709 136.182 130.178 136.045 129.661 135.862L129.494 135.803C128.973 135.616 128.372 135.405 127.723 135.503 126.508 135.68 125.878 136.714 125.322 137.619 125.199 137.816 125.081 138.013 124.953 138.199 124.073 139.498 122.616 140.32 121.308 140.955 120.993 141.107 120.673 141.255 120.353 141.407 119.163 141.958 117.933 142.534 116.85 143.365 116.653 143.518 116.461 143.675 116.27 143.838 115.787 144.246 115.325 144.63 114.808 144.841 114.356 145.023 113.834 145.087 113.278 145.156 112.383 145.269 111.364 145.392 110.587 146.101 109.898 146.726 109.524 147.715 109.514 148.954 109.505 149.914 109.691 150.686 110.085 151.306 110.213 151.513 110.37 151.69 110.538 151.852 107.128 152.536 103.606 152.9 99.9989 152.9 78.2822 152.9 59.5806 139.75 51.4428 120.989 51.4773 120.079 53.2583 118.82 54.3308 118.062 54.7637 117.757 55.1474 117.481 55.428 117.25 56.6138 116.256 58.134 114.731 57.6517 112.911 57.4794 112.266 57.081 111.755 56.7268 111.302L56.6383 111.194C54.326 108.237 52.8941 104.498 52.5547 100.63L53.3469 100.63C53.3814 100.852 53.4156 101.073 53.4404 101.295 53.4896 101.777 53.4994 102.279 53.5092 102.781 53.5387 104.232 53.5682 105.733 54.4783 107.041 55.3097 108.242 56.6728 108.876 57.765 109.295 59.1131 109.811 60.4612 110.141 61.7847 110.284 61.9963 110.308 62.2422 110.328 62.5031 110.328 63.0345 110.328 63.6446 110.249 64.2056 109.954 64.8993 109.585 65.3273 109.063 65.4749 108.399 65.8193 106.84 64.4615 105.054 63.6546 103.986L63.571 103.878C63.0988 103.248 62.0851 101.91 61.5686 100.631L62.0458 100.631 62.0754 100.69C62.7051 101.88 63.7974 102.618 64.8503 103.327L65.3768 103.686C69.8638 106.82 72.8307 112.158 73.1257 117.624 73.1454 117.958 73.1552 118.293 73.1649 118.632 73.219 120.571 73.278 122.578 74.7984 124.202 75.9842 125.471 77.893 125.683 79.1378 124.674 80.3136 123.724 80.3383 122.416 80.3531 121.265 80.3628 120.723 80.3728 120.217 80.4909 119.774 80.855 118.436 81.6766 118.067 83.0395 117.452L83.2856 117.339C83.9596 117.033 84.5894 116.645 85.1994 116.276 86.09 115.735 86.9264 115.223 87.8611 114.957 88.6187 114.741 89.4257 114.864 90.1193 115.297 90.8721 115.764 91.3936 116.532 91.551 117.403 91.674 118.072 91.8118 118.682 92.2595 119.395 92.6089 119.951 93.0123 120.453 93.401 120.94 93.903 121.57 94.3802 122.17 94.7491 122.859 95.3101 123.907 95.7578 125.048 96.1955 126.155 96.5694 127.095 96.9531 128.069 97.4108 129.009 98.6703 131.592 100.284 133.314 102.213 134.126 102.316 134.17 102.424 134.19 102.528 134.19 102.724 134.19 102.911 134.116 103.059 133.968 103.748 133.285 103.039 130.623 103.03 130.598 102.498 129.289 101.445 128.217 100.501 127.311 100.097 126.923 99.9446 126.519 100.043 126.072 100.151 125.58 100.506 125.235 100.668 125.137 102.311 125.511 104.225 124.797 105.268 123.395 106.031 122.372 106.277 121.058 105.908 119.971 105.819 119.715 105.701 119.469 105.539 119.208 105.357 118.913 104.968 118.824 104.673 119.006 104.378 119.188 104.289 119.577 104.471 119.872 104.579 120.049 104.663 120.216 104.717 120.379 104.958 121.077 104.781 121.943 104.265 122.637 103.502 123.655 102.041 124.192 100.875 123.882 100.235 123.714 99.5019 124.334 99.1083 125.038 98.4983 126.13 98.6951 127.321 99.6347 128.216 100.486 129.028 101.431 129.987 101.849 131.006 101.918 131.281 102.055 132.088 102.1 132.659 100.722 131.877 99.5313 130.465 98.5473 128.452 98.1144 127.562 97.7355 126.612 97.3763 125.692 96.9286 124.556 96.4612 123.38 95.8709 122.268 95.4429 121.471 94.9065 120.802 94.39 120.152 94.0063 119.67 93.6422 119.212 93.3273 118.715 92.9976 118.194 92.8993 117.766 92.791 117.17 92.5697 115.95 91.8366 114.878 90.7837 114.218 89.7849 113.594 88.6237 113.421 87.5167 113.736 86.4195 114.046 85.465 114.632 84.5402 115.192 83.9349 115.561 83.3644 115.911 82.7591 116.186L82.513 116.295C81.0468 116.959 79.7823 117.53 79.2658 119.439 79.1085 120.034 79.0935 120.644 79.0888 121.234 79.074 122.238 79.0592 123.104 78.3409 123.684 77.5193 124.344 76.3583 124.024 75.7088 123.33 74.5132 122.051 74.469 120.368 74.4149 118.587 74.4052 118.238 74.3952 117.894 74.3756 117.549 74.0608 111.709 70.8874 105.997 66.0901 102.646L65.5538 102.282C64.7912 101.766 64.068 101.264 63.5565 100.629L90.8037 100.649C88.5257 76.816 104.669 71.5565 119.182 66.8382 129.613 63.4435 138.621 60.516 139.551 51.3054 139.58 51.0398 139.772 50.8185 140.033 50.7544 140.299 50.6904 140.565 50.8037 140.712 51.03 151.566 68.0828 152.51 86.4795 143.236 100.244 143.143 100.377 143.044 100.495 142.951 100.628ZM104.829 133.299C105.036 133.816 105.459 134.249 106.094 134.589 106.881 135.012 107.772 135.209 108.662 135.169 108.879 135.159 109.095 135.135 109.312 135.105 109.666 135.061 110.006 135.021 110.301 135.066L110.306 135.066 110.429 135.085C110.635 135.135 110.832 135.223 111.029 135.312 111.3 135.435 111.61 135.573 111.954 135.636 112.087 135.661 112.22 135.676 112.357 135.676 113.051 135.676 113.76 135.351 114.237 134.795 114.788 134.151 114.808 133.403 114.832 132.743 114.837 132.507 114.842 132.271 114.882 132.04 114.97 131.504 115.113 130.982 115.265 130.431 115.349 130.116 115.437 129.801 115.511 129.481 115.762 128.429 116.348 125.968 114.778 125.014 114.291 124.719 113.671 124.699 112.928 124.95 111.708 125.363 110.635 126.18 109.907 127.248 109.72 127.518 109.558 127.809 109.401 128.094 109.243 128.374 109.091 128.655 108.904 128.91 108.658 129.255 108.264 129.688 107.767 129.776 107.6 129.806 107.418 129.801 107.236 129.801 106.709 129.801 105.981 129.791 105.455 130.381 104.849 131.06 104.461 132.384 104.83 133.299ZM115.851 138.215C115.654 137.885 115.25 137.747 114.694 137.59L114.527 137.541C113.115 137.039 111.58 136.803 110.084 136.857 109.819 136.867 109.558 136.886 109.292 136.901 108.662 136.945 108.072 136.985 107.506 136.906 106.842 136.812 106.202 136.547 105.528 136.271 105.204 136.138 104.879 136.006 104.544 135.888 104.121 135.74 103.688 135.617 103.255 135.494 102.527 135.287 101.833 135.095 101.209 134.771 100.431 134.367 99.7622 133.767 99.0587 133.127 98.8471 132.936 98.6355 132.744 98.4191 132.562 97.3762 131.661 95.9986 130.658 94.6947 130.672 94.5177 130.677 94.3503 130.717 94.2028 130.79 93.3369 131.213 93.509 132.409 93.9567 133.388 94.2716 134.077 94.7783 134.643 95.226 135.12 96.1116 136.065 97.0661 136.97 98.06 137.806 98.9752 138.579 100.21 139.538 101.652 140.109 102.404 140.409 103.088 140.581 103.683 140.63 104.343 140.68 104.933 140.483 105.46 140.306 105.637 140.247 105.819 140.183 105.996 140.133 107.221 139.799 108.476 140.04 109.804 140.296 110.699 140.468 111.614 140.645 112.549 140.645 112.918 140.645 113.287 140.616 113.661 140.552 114.38 140.424 115.024 140.094 115.467 139.622 115.683 139.405 116.22 138.835 115.851 138.215ZM123.093 130.166C123.122 129.841 123.014 129.526 122.783 129.285 122.143 128.621 120.8 128.7 120.78 128.695 119.521 128.773 118.32 129.108 117.164 129.433 116.938 129.497 116.623 129.585 116.352 129.802 116.091 130.013 115.934 130.338 115.875 130.761 115.841 131.007 115.846 131.273 115.851 131.514 115.851 131.612 115.856 131.711 115.851 131.784L115.767 133.679C115.747 134.121 115.713 134.953 116.313 135.489 116.554 135.701 116.85 135.814 117.14 135.814 117.346 135.814 117.543 135.76 117.716 135.646 118.06 135.425 118.183 135.076 118.262 134.849L118.257 134.751C118.296 134.741 118.429 134.771 118.577 134.864L118.774 134.997C119.049 135.189 119.384 135.425 119.836 135.474 119.91 135.484 120.141 135.509 120.373 135.381 120.56 135.282 120.663 135.13 120.722 135.026 121.189 134.239 121.007 133.142 120.313 132.537 120.249 132.483 120.117 132.365 119.389 132.104L119.403 132.05C122.99 131.238 123.064 130.49 123.093 130.166ZM123.191 123.544C123.108 122.343 122.807 121.177 122.3 120.08 122.217 119.903 122.118 119.706 121.966 119.519 121.739 119.243 121.449 119.071 121.218 118.933L119.235 117.747C118.935 117.57 118.551 117.669 118.369 117.964 118.192 118.264 118.291 118.648 118.586 118.83L120.569 120.016C120.731 120.114 120.903 120.213 120.992 120.326 121.051 120.399 121.105 120.508 121.159 120.616 121.602 121.57 121.863 122.584 121.937 123.632 121.946 123.799 121.946 123.848 121.956 123.858 121.937 123.868 121.833 123.902 121.523 123.863 121.071 123.799 120.618 123.706 120.17 123.588 119.949 123.528 119.698 123.455 119.6 123.415 119.55 123.273 119.654 122.79 119.708 122.53 119.767 122.249 119.816 121.988 119.826 121.787 119.85 121.167 119.221 120.571 117.435 119.194 117.223 119.032 117.041 118.889 116.903 118.781 116.633 118.559 116.234 118.604 116.018 118.869 115.796 119.14 115.836 119.534 116.106 119.755 116.249 119.873 116.441 120.02 116.662 120.193 117.164 120.581 118.311 121.462 118.552 121.831 118.537 121.959 118.502 122.112 118.468 122.269 118.321 122.982 118.133 123.868 118.778 124.345 119.108 124.586 119.482 124.709 119.836 124.803 120.328 124.936 120.834 125.039 121.341 125.108 121.489 125.128 121.622 125.137 121.754 125.137 122.305 125.137 122.714 124.955 122.965 124.591 123.235 124.208 123.206 123.755 123.191 123.543ZM141.326 128.921C141.173 127.603 138.919 126.535 138.354 126.417 137.763 126.289 137.173 126.254 136.602 126.22 136.1 126.19 135.628 126.161 135.171 126.072 135.028 126.048 134.885 126.013 134.743 125.984 134.369 125.9 133.985 125.812 133.562 125.807 132.548 125.836 131.569 126.437 131.013 127.494L130.934 127.647C130.866 127.785 130.802 127.917 130.733 127.976 130.541 128.154 129.995 128.08 129.596 128.031L129.252 127.991C128.342 127.903 127.372 128.178 126.639 128.719 125.778 129.359 125.35 130.348 125.527 131.302 125.557 131.475 125.665 131.627 125.813 131.721 125.96 131.814 126.142 131.844 126.315 131.794 127.353 131.509 128.917 131.273 129.37 131.224L129.537 131.292C130.015 131.489 130.905 131.848 131.314 131.991 131.643 132.104 131.983 132.153 132.317 132.153 133.085 132.153 133.842 131.907 134.531 131.661 136.214 131.051 137.788 130.687 139.392 130.545 139.702 130.515 140.052 130.486 140.401 130.323 141.296 129.89 141.365 129.26 141.326 128.921ZM142.186 99.5439C150.915 86.5895 150.265 69.3495 140.533 53.1433 138.629 61.8417 129.355 64.8578 119.574 68.0361 103.156 73.3745 84.5932 79.4361 94.8654 114.107 103.146 99.2789 112.002 93.1967 119.844 87.83 121.123 86.9543 122.373 86.103 123.574 85.2371 123.854 85.0305 124.248 85.0993 124.454 85.3797 124.656 85.6601 124.592 86.0538 124.312 86.2604 123.102 87.1313 121.842 87.9921 120.553 88.8728 112.735 94.2209 103.893 100.292 95.6723 115.245 115.854 118.699 133.207 112.873 142.186 99.545ZM57.0698 87.6078C51.6479 79.5589 52.1891 68.8133 58.5259 58.8656 58.6685 58.6392 58.9441 58.5309 59.205 58.59 59.4658 58.654 59.6577 58.8703 59.6872 59.141 60.2039 64.2922 65.3355 65.9604 71.2788 67.8937 80.8383 71.0033 92.735 74.8754 85.965 96.5821L85.965 96.5921C85.965 96.597 85.96 96.597 85.96 96.597 85.9305 96.6906 85.8714 96.7694 85.8026 96.8382 85.7829 96.8579 85.7584 96.8774 85.7338 96.8922 85.7093 96.9119 85.6896 96.9365 85.6601 96.9512 85.6255 96.971 85.5913 96.966 85.5518 96.9757 85.5223 96.9855 85.5025 97.0102 85.473 97.015 83.0229 97.4677 80.6366 97.6841 78.3441 97.6841 69.1535 97.6938 61.473 94.1367 57.0697 87.608ZM58.1177 86.9042C63.1952 94.437 72.966 97.7676 84.371 95.9226 79.702 87.5731 74.6883 84.1342 70.2555 81.0981 69.5076 80.5864 68.7794 80.0895 68.0807 79.5827 67.8004 79.3809 67.7364 78.9875 67.9382 78.7021 68.14 78.4217 68.5334 78.3527 68.8188 78.5595 69.5126 79.0564 70.2309 79.5484 70.9688 80.0552 75.4312 83.1055 80.4543 86.5546 85.1827 94.7852 90.6733 75.5335 80.6267 72.2513 70.8949 69.0885 65.3992 67.3025 60.1793 65.6052 58.7621 60.9113 53.4928 70.0279 53.2272 79.6518 58.1176 86.904Z" fill="#174460" transform="matrix(1.005 0 0 1 866 24)"/></g></svg>