<svg width="370" height="370" xmlns="http://www.w3.org/2000/svg" xmlns:xlink="http://www.w3.org/1999/xlink" xml:space="preserve" overflow="hidden"><g transform="translate(-46 -1866)"><path d="M49.5 2051C49.5 1950.76 130.76 1869.5 231 1869.5 331.24 1869.5 412.5 1950.76 412.5 2051 412.5 2151.24 331.24 2232.5 231 2232.5 130.76 2232.5 49.5 2151.24 49.5 2051Z" stroke="#1E583E" stroke-width="6.875" stroke-miterlimit="8" fill="none" fill-rule="evenodd"/><g><g><g><path d="M337.75 2058.73 331.531 2039.51C330.238 2029.76 327.681 2023.96 317.62 2020.03 316.902 2013.63 311.138 2009.03 304.746 2009.75 303.499 2009.89 302.282 2010.23 301.143 2010.76 299.654 2010.09 298.034 2009.75 296.4 2009.78 289.126 1996 272.186 1986.79 253.72 1986.79 241.936 1986.79 222.205 1994.29 203.005 2001.97 195.153 2005.25 186.838 2007.28 178.36 2007.99 171.254 2008.24 164.368 2010.53 158.519 2014.57 152.008 2018.71 146.039 2023.64 140.75 2029.26 137.747 2027.33 133.956 2027.12 130.758 2028.7 122.76 2033.17 121.078 2050.77 121.078 2064.75L124.745 2064.75C124.745 2046.65 127.591 2034.67 132.559 2031.89 134.425 2031 136.606 2031.09 138.394 2032.13 135.237 2035.9 133.406 2040.61 133.182 2045.53 134.656 2057.33 137.019 2069.01 140.25 2080.45 142.276 2088.74 144.375 2097.31 144.375 2099.12L144.375 2099.9 144.925 2100.44C151.982 2108.62 156.451 2118.71 157.768 2129.43 157.768 2130.42 157.722 2131.01 157.722 2131.05L157.548 2133.04 175.349 2133.04 175.12 2131C174.997 2129.99 175.026 2128.97 175.207 2127.96 175.308 2127.37 175.364 2126.77 175.372 2126.18 174.452 2121.21 172.714 2116.44 170.23 2112.04 168.533 2108.89 167.204 2105.55 166.27 2102.1 166.818 2098.69 168.166 2095.47 170.202 2092.69 177.892 2097.9 186.926 2100.77 196.212 2100.96 209.247 2100.96 217.103 2099.5 220.765 2096.38L240.148 2096.38C239.504 2099.23 239.148 2102.15 239.085 2105.07 238.783 2112.96 243.188 2120.27 250.3 2123.68L259.834 2123.88 264.738 2133.04 280.546 2133.02 280.546 2131.19C280.446 2127.49 278.766 2124.01 275.93 2121.63 273.04 2119.15 271.328 2115.56 271.214 2111.75 275.974 2106.26 279.694 2099.94 282.191 2093.11 284.689 2088.93 288.884 2086.05 293.682 2085.21 293.741 2085.38 293.796 2085.51 293.851 2085.67 299.021 2101.18 309.728 2101.18 314.297 2101.18L315.21 2101.18C321.003 2101.18 321.846 2090.4 321.938 2085.75L331.852 2079.07C332.537 2078.56 333.185 2078 333.79 2077.39 333.827 2077.39 333.754 2077.39 333.79 2077.39 335.352 2076 336.653 2074.34 337.631 2072.5L338.154 2071.5C339.444 2069.49 340.259 2067.22 340.537 2064.85 340.415 2063.04 339.729 2061.32 338.575 2059.92 338.309 2059.52 338.034 2059.12 337.75 2058.73ZM171.591 2127.42C171.482 2128.07 171.415 2128.72 171.389 2129.38L161.443 2129.38C161.34 2127.52 161.061 2125.68 160.609 2123.88L171.265 2123.88C171.519 2124.62 171.671 2125.39 171.715 2126.18 171.706 2126.59 171.665 2127 171.591 2127.41ZM219.262 2092.71 218.721 2093.28C216.97 2095.11 211.64 2097.29 196.217 2097.29 185.689 2097.29 170.821 2091.68 168.135 2084.72L164.716 2086.04C165.354 2087.58 166.279 2089 167.443 2090.21 164.831 2093.68 163.165 2097.78 162.607 2102.1 163.4 2106.14 164.856 2110.03 166.916 2113.6 167.901 2115.71 168.992 2118.06 169.895 2120.21L159.651 2120.21C157.515 2112.1 153.521 2104.61 147.987 2098.31 147.707 2095.6 146.227 2089.47 143.811 2079.58 140.684 2068.41 138.355 2057.03 136.84 2045.53 136.84 2037.39 144.595 2028.26 160.545 2017.62 165.906 2013.92 172.226 2011.84 178.741 2011.64 187.555 2010.9 196.199 2008.78 204.362 2005.37 217.765 1999.6 231.611 1994.93 245.768 1991.38 244.003 1993.41 243.024 1996.01 243.008 1998.7 243.026 2000.33 243.349 2001.93 243.962 2003.44 240.755 2006.39 238.977 2010.58 239.08 2014.94 239.083 2016.04 239.175 2017.13 239.355 2018.22 236.428 2022 234.777 2026.62 234.639 2031.41 234.68 2035.73 236.2 2039.92 238.948 2043.26 236.461 2046.44 235 2050.29 234.758 2054.32 234.756 2057.95 236.431 2061.38 239.296 2063.6 239.054 2065.19 238.936 2066.8 238.943 2068.41 238.943 2071.84 239.47 2079.66 243.975 2083.22 243.288 2085.1 242.055 2088.66 241.001 2092.7ZM276.682 2129.36 266.938 2129.38 263.995 2123.88 273.011 2123.88 273.268 2124.15C274.866 2125.54 276.048 2127.34 276.682 2129.36ZM318.285 2083.79 318.285 2084.77C318.285 2091.2 316.759 2097.51 315.214 2097.51L314.302 2097.51C309.888 2097.51 301.666 2097.51 297.335 2084.51 296.09 2079.82 293.606 2075.55 290.143 2072.14 288.182 2070.52 287.222 2067.98 287.618 2065.47L283.951 2065.47C283.543 2068.97 284.892 2072.44 287.554 2074.74 289.627 2076.72 291.261 2079.12 292.348 2081.77 286.602 2082.95 281.659 2086.58 278.818 2091.71 276.431 2098.32 272.8 2104.42 268.12 2109.66L267.538 2110.2 267.538 2111C267.443 2114.25 268.318 2117.46 270.055 2120.21L251.57 2120.21C245.917 2117.33 242.47 2111.41 242.756 2105.07 243.405 2097.55 245.146 2090.17 247.926 2083.15L248.545 2081.59 247.037 2080.84C243.778 2079.21 242.614 2073.35 242.614 2068.41 242.593 2066.69 242.756 2064.97 243.1 2063.28L243.38 2062.09 242.399 2061.38C239.964 2059.85 238.469 2057.19 238.43 2054.32 238.79 2050.67 240.276 2047.23 242.683 2044.46L243.765 2043.25 242.688 2042.03C239.954 2039.16 238.392 2035.37 238.31 2031.41 238.484 2027.21 240.02 2023.18 242.688 2019.93L243.293 2019.24 243.109 2018.34C242.875 2017.23 242.755 2016.09 242.752 2014.94 242.592 2011.27 244.25 2007.76 247.184 2005.55L248.605 2004.67 247.862 2003.17C247.127 2001.79 246.722 2000.26 246.68 1998.7 246.717 1996.68 247.523 1994.75 248.935 1993.3L251.478 1990.56C252.224 1990.5 252.972 1990.47 253.72 1990.46 270.357 1990.46 285.56 1998.43 292.522 2010.42 290.063 2011.21 287.94 2012.81 286.495 2014.95 285.703 2015.19 284.922 2015.47 284.148 2015.77L284.538 2016.76C286.014 2016.89 287.441 2017.35 288.704 2018.13L288.915 2018.07 289.282 2017.41C291.544 2013.65 296.365 2012.33 300.227 2014.42L301.143 2014.94 302.06 2014.42C305.883 2012.22 310.764 2013.54 312.961 2017.36 313.654 2018.57 314.02 2019.93 314.023 2021.32L314.023 2022.62 315.242 2023.05C324.592 2026.39 326.7 2030.98 327.97 2040.32L334.414 2060.19C334.496 2060.35 334.597 2060.47 334.684 2060.63L323.253 2060.63 322.749 2061.63C321.593 2063.82 321.55 2066.42 322.635 2068.65 324.118 2070.68 326.518 2071.84 329.033 2071.74 329.065 2072.04 329.079 2072.4 329.083 2072.67 329.018 2073.83 329.285 2074.98 329.853 2075.98 329.817 2076.01 329.89 2075.96 329.853 2075.98ZM334.913 2069.79 334.363 2070.83C333.92 2071.67 333.39 2072.46 332.782 2073.19 332.768 2072.97 332.757 2072.75 332.75 2072.54 332.874 2071.11 332.412 2069.69 331.471 2068.61L330.944 2068.11 330.211 2068.11C327.896 2068.11 326.315 2067.62 325.765 2066.73 325.416 2065.96 325.377 2065.09 325.655 2064.29L336.719 2064.29C336.792 2064.47 336.844 2064.66 336.875 2064.85 336.539 2066.6 335.874 2068.28 334.913 2069.79ZM294.759 2042.29 294.759 2045.96C281.536 2045.96 281.462 2035.49 281.398 2026.26 281.391 2025.01 282.399 2023.99 283.65 2023.98 284.353 2023.98 285.018 2024.3 285.45 2024.86 288.465 2029.67 293.613 2032.74 299.283 2033.1L299.283 2036.77C293.849 2036.69 288.707 2034.3 285.143 2030.2 285.491 2038.74 287.137 2042.29 294.759 2042.29ZM304.242 2046.74 310.704 2047.22 310.438 2050.88 303.971 2050.4Z" stroke="#1E583E" stroke-width="4.58333" fill="#E97132"/></g></g></g></g></svg>